<?xml version="1.0" encoding="UTF-8"?>
<svg version="1.1" xmlns="http://www.w3.org/2000/svg" width="100" height="100">
<path d="M0 0 C0.86625 0.66 1.7325 1.32 2.625 2 C3.45 2.556875 4.275 3.11375 5.125 3.6875 C11.34144108 9.437708 15.23459191 16.44675216 15.9609375 24.91796875 C16.2285455 37.53965616 14.04306494 48.10737379 5.625 58 C-2.62574226 65.86805477 -11.02685001 68.96816788 -22.375 69 C-33.02695488 68.23558514 -44.18451094 62.94230963 -51.375 55 C-57.45454112 47.604613 -59.81658717 38.41679785 -59.3125 28.9375 C-57.82181112 16.91784018 -52.95992477 7.2391982 -43.4375 -0.375 C-30.14545977 -9.4377547 -13.47818321 -7.98707153 0 0 Z M-43.375 6 C-48.81508975 11.33502364 -51.13834308 17.84269787 -53.375 25 C-51.89 25.99 -51.89 25.99 -50.375 27 C-50.045 27.99 -49.715 28.98 -49.375 30 C-50.695 29.67 -52.015 29.34 -53.375 29 C-53.375 29.66 -53.375 30.32 -53.375 31 C-52.055 31 -50.735 31 -49.375 31 C-49.375 31.99 -49.375 32.98 -49.375 34 C-50.695 34 -52.015 34 -53.375 34 C-53.19816211 40.94490614 -51.49344576 45.42262143 -47.375 51 C-44.20632812 50.33291118 -41.55604119 49.24827937 -38.6875 47.75 C-37.89988281 47.35296875 -37.11226562 46.9559375 -36.30078125 46.546875 C-34.17354737 45.11885444 -34.17354737 45.11885444 -33.52734375 42.5546875 C-33.30256088 38.78525162 -34.6587465 36.30991746 -36.375 33 C-36.91125 32.525625 -37.4475 32.05125 -38 31.5625 C-40.37331563 28.86555042 -40.08840556 25.49645213 -40.375 22 C-39.385 21.67 -38.395 21.34 -37.375 21 C-37.560625 19.2365625 -37.560625 19.2365625 -37.75 17.4375 C-37.74199924 12.92507189 -36.24712775 10.65917213 -33.1484375 7.48046875 C-29.24043239 4.2180592 -25.94928195 2.88755129 -20.875 3.25 C-19.72 3.4975 -18.565 3.745 -17.375 4 C-15.4878125 4.2475 -15.4878125 4.2475 -13.5625 4.5 C-10.375 5 -10.375 5 -8.375 6 C-6.12660449 10.10001534 -5.95262774 14.31680908 -5.62109375 18.890625 C-5.59796498 20.98383605 -5.59796498 20.98383605 -4.375 22 C-4.30273498 23.85287502 -4.2911878 25.70833878 -4.3125 27.5625 C-4.32152344 28.57441406 -4.33054688 29.58632813 -4.33984375 30.62890625 C-4.35144531 31.41136719 -4.36304688 32.19382813 -4.375 33 C-6.85 33.495 -6.85 33.495 -9.375 34 C-11.41468988 39.95976509 -11.41468988 39.95976509 -10 45.8125 C-6.38904153 48.82163206 -2.18042097 52.20261374 2.734375 51.84765625 C5.25123803 50.71922799 5.74382235 49.5448065 6.875 47.0625 C7.21015625 46.35222656 7.5453125 45.64195313 7.890625 44.91015625 C8.74461706 43.02994527 8.74461706 43.02994527 8.625 41 C7.635 40.505 7.635 40.505 6.625 40 C6.295 39.01 5.965 38.02 5.625 37 C6.945 37.33 8.265 37.66 9.625 38 C10.12 37.01 10.12 37.01 10.625 36 C8.975 36 7.325 36 5.625 36 C5.625 35.01 5.625 34.02 5.625 33 C7.275 33 8.925 33 10.625 33 C10.625 32.34 10.625 31.68 10.625 31 C8.975 31 7.325 31 5.625 31 C5.625 30.34 5.625 29.68 5.625 29 C6.285 28.67 6.945 28.34 7.625 28 C7.13 26.515 7.13 26.515 6.625 25 C7.945 24.34 9.265 23.68 10.625 23 C9.965 22.67 9.305 22.34 8.625 22 C7.635 22.33 6.645 22.66 5.625 23 C5.625 22.01 5.625 21.02 5.625 20 C6.615 19.67 7.605 19.34 8.625 19 C7.965 17.68 7.305 16.36 6.625 15 C6.625 15.66 6.625 16.32 6.625 17 C5.635 17 4.645 17 3.625 17 C4.12 15.7315625 4.12 15.7315625 4.625 14.4375 C4.97994182 11.0640579 4.97994182 11.0640579 3.19140625 9.18359375 C-10.56175719 -3.22910542 -28.30964389 -5.70301884 -43.375 6 Z M-24.375 6 C-24.375 7.32 -24.375 8.64 -24.375 10 C-25.261875 9.731875 -26.14875 9.46375 -27.0625 9.1875 C-30.47528546 8.68866309 -30.47528546 8.68866309 -33.375 10.75 C-36.1104821 15.19515842 -35.15187563 17.84863213 -33.98828125 22.76953125 C-33.78589844 23.50558594 -33.58351563 24.24164063 -33.375 25 C-34.695 24.67 -36.015 24.34 -37.375 24 C-37.375 25.65 -37.375 27.3 -37.375 29 C-35.725 29.33 -34.075 29.66 -32.375 30 C-32.375 31.65 -32.375 33.3 -32.375 35 C-31.385 35 -30.395 35 -29.375 35 C-29.045 36.98 -28.715 38.96 -28.375 41 C-27.715 41 -27.055 41 -26.375 41 C-26.375 41.66 -26.375 42.32 -26.375 43 C-23.32586772 44.01111093 -23.32586772 44.01111093 -20.375 43 C-20.045 43.66 -19.715 44.32 -19.375 45 C-14.43661483 40.6103243 -12.3334234 37.3104754 -10.375 31 C-9.385 31 -8.395 31 -7.375 31 C-7.045 29.02 -6.715 27.04 -6.375 25 C-7.365 25 -8.355 25 -9.375 25 C-9.16875 23.7625 -8.9625 22.525 -8.75 21.25 C-8.30790626 17.82225948 -8.43777371 15.96281667 -10.375 13 C-10.375 12.34 -10.375 11.68 -10.375 11 C-11.035 11 -11.695 11 -12.375 11 C-12.045 9.68 -11.715 8.36 -11.375 7 C-15.89218381 5.63115642 -18.96274263 6.52924754 -23.375 8 C-23.705 7.34 -24.035 6.68 -24.375 6 Z M-16.078125 45.48828125 C-18.96921495 47.39109045 -20.69989991 47.309825 -24.125 47.1875 C-25.10984375 47.16042969 -26.0946875 47.13335937 -27.109375 47.10546875 C-27.85703125 47.07066406 -28.6046875 47.03585938 -29.375 47 C-29.375 47.99 -29.375 48.98 -29.375 50 C-30.70833333 50.66666667 -32.04166667 51.33333333 -33.375 52 C-33.9525 51.62875 -34.53 51.2575 -35.125 50.875 C-37.55259932 49.63005236 -37.55259932 49.63005236 -40.625 51.375 C-41.5325 51.91125 -42.44 52.4475 -43.375 53 C-42.3764202 55.68507012 -41.83122309 56.78009391 -39.203125 58.046875 C-34.49230781 59.33164332 -30.31152117 60.38972536 -25.375 60 C-25.375 60.99 -25.375 61.98 -25.375 63 C-17.47600662 64.60905421 -10.71166606 63.28509355 -3.8125 59 C-1.13373223 57.1642188 -1.13373223 57.1642188 -0.375 54 C-2.49864481 53.77390663 -2.49864481 53.77390663 -4 55.5 C-4.680625 56.2425 -4.680625 56.2425 -5.375 57 C-5.87 55.515 -5.87 55.515 -6.375 54 C-8.025 54.33 -9.675 54.66 -11.375 55 C-11.375 55.66 -11.375 56.32 -11.375 57 C-12.695 57 -14.015 57 -15.375 57 C-14.859375 56.34 -14.34375 55.68 -13.8125 55 C-11.82558833 50.85340174 -12.54164851 48.46979435 -13.375 44 C-14.62646137 43.89033077 -14.62646137 43.89033077 -16.078125 45.48828125 Z " fill="#000000" transform="translate(72.375,19)"/>
<path d="M0 0 C0.80824219 0.19464844 1.61648437 0.38929687 2.44921875 0.58984375 C3.06410156 0.74582031 3.67898437 0.90179688 4.3125 1.0625 C4.3125 1.7225 4.3125 2.3825 4.3125 3.0625 C7.6125 3.0625 10.9125 3.0625 14.3125 3.0625 C14.6425 4.3825 14.9725 5.7025 15.3125 7.0625 C7.11681942 8.33830814 1.55521555 8.25223232 -5.6875 4.0625 C-6.3475 3.7325 -7.0075 3.4025 -7.6875 3.0625 C-7.6875 2.0725 -7.6875 1.0825 -7.6875 0.0625 C-4.39053895 -1.03648702 -3.28255097 -0.80874444 0 0 Z " fill="#000000" transform="translate(47.6875,31.9375)"/>
<path d="M0 0 C0.99 0 1.98 0 3 0 C2.67 2.97 2.34 5.94 2 9 C2.66 9.33 3.32 9.66 4 10 C4 10.99 4 11.98 4 13 C2.35 13 0.7 13 -1 13 C-2.51403812 8.15507803 -1.36602172 4.7408989 0 0 Z " fill="#000000" transform="translate(49,42)"/>
<path d="M0 0 C0.66 0.33 1.32 0.66 2 1 C2 1.66 2 2.32 2 3 C1.01 2.67 0.02 2.34 -1 2 C-0.67 1.34 -0.34 0.68 0 0 Z " fill="#000000" transform="translate(54,71)"/>
<path d="M0 0 C0.66 0 1.32 0 2 0 C2 0.99 2 1.98 2 3 C1.34 3 0.68 3 0 3 C0 2.01 0 1.02 0 0 Z " fill="#000000" transform="translate(48,72)"/>
<path d="M0 0 C0.99 0 1.98 0 3 0 C3 0.66 3 1.32 3 2 C2.01 1.67 1.02 1.34 0 1 C0 0.67 0 0.34 0 0 Z " fill="#000000" transform="translate(52,76)"/>
</svg>
