<?xml version="1.0" encoding="UTF-8"?>
<!DOCTYPE svg PUBLIC "-//W3C//DTD SVG 1.1//EN" "http://www.w3.org/Graphics/SVG/1.1/DTD/svg11.dtd">
<svg xmlns="http://www.w3.org/2000/svg" version="1.1" width="512px" height="512px" style="shape-rendering:geometricPrecision; text-rendering:geometricPrecision; image-rendering:optimizeQuality; fill-rule:evenodd; clip-rule:evenodd" xmlns:xlink="http://www.w3.org/1999/xlink">
<g><path style="opacity:0.934" fill="#000000" d="M 392.5,7.5 C 407.833,7.5 423.167,7.5 438.5,7.5C 440.167,13.5 441.833,19.5 443.5,25.5C 449.369,23.5677 455.036,21.0677 460.5,18C 461.5,17.3333 462.5,17.3333 463.5,18C 473.333,27.8333 483.167,37.6667 493,47.5C 493.667,48.5 493.667,49.5 493,50.5C 489.932,55.964 487.432,61.6307 485.5,67.5C 491.5,69.1667 497.5,70.8333 503.5,72.5C 503.5,87.8333 503.5,103.167 503.5,118.5C 497.5,120.167 491.5,121.833 485.5,123.5C 487.432,129.369 489.932,135.036 493,140.5C 493.667,141.5 493.667,142.5 493,143.5C 483.167,153.333 473.333,163.167 463.5,173C 462.5,173.667 461.5,173.667 460.5,173C 455.036,169.932 449.369,167.432 443.5,165.5C 441.833,171.5 440.167,177.5 438.5,183.5C 423.167,183.5 407.833,183.5 392.5,183.5C 390.833,177.5 389.167,171.5 387.5,165.5C 381.631,167.432 375.964,169.932 370.5,173C 369.5,173.667 368.5,173.667 367.5,173C 357.667,163.167 347.833,153.333 338,143.5C 337.333,142.5 337.333,141.5 338,140.5C 341.068,135.036 343.568,129.369 345.5,123.5C 339.5,121.833 333.5,120.167 327.5,118.5C 327.5,103.167 327.5,87.8333 327.5,72.5C 333.5,70.8333 339.5,69.1667 345.5,67.5C 343.568,61.6307 341.068,55.964 338,50.5C 337.333,49.5 337.333,48.5 338,47.5C 347.833,37.6667 357.667,27.8333 367.5,18C 368.5,17.3333 369.5,17.3333 370.5,18C 375.964,21.0677 381.631,23.5677 387.5,25.5C 389.167,19.5 390.833,13.5 392.5,7.5 Z M 405.5,23.5 C 412.167,23.5 418.833,23.5 425.5,23.5C 427.023,29.572 428.857,35.572 431,41.5C 434.481,43.5504 438.148,45.217 442,46.5C 447.771,43.5227 453.604,41.0227 459.5,39C 464.015,43.3482 468.349,47.8482 472.5,52.5C 469.697,57.9389 467.031,63.4389 464.5,69C 465.805,72.5821 467.305,76.0821 469,79.5C 475.003,82.0009 481.169,84.0009 487.5,85.5C 487.5,92.1667 487.5,98.8333 487.5,105.5C 481.428,107.023 475.428,108.857 469.5,111C 467.45,114.481 465.783,118.148 464.5,122C 467.477,127.771 469.977,133.604 472,139.5C 467.652,144.015 463.152,148.349 458.5,152.5C 453.061,149.697 447.561,147.031 442,144.5C 438.418,145.805 434.918,147.305 431.5,149C 428.999,155.003 426.999,161.169 425.5,167.5C 418.833,167.5 412.167,167.5 405.5,167.5C 403.977,161.428 402.143,155.428 400,149.5C 396.519,147.45 392.852,145.783 389,144.5C 383.229,147.477 377.396,149.977 371.5,152C 366.985,147.652 362.651,143.152 358.5,138.5C 361.303,133.061 363.969,127.561 366.5,122C 365.195,118.418 363.695,114.918 362,111.5C 355.997,108.999 349.831,106.999 343.5,105.5C 343.5,98.8333 343.5,92.1667 343.5,85.5C 349.572,83.9766 355.572,82.1432 361.5,80C 363.55,76.5189 365.217,72.8522 366.5,69C 363.523,63.2292 361.023,57.3959 359,51.5C 363.348,46.9847 367.848,42.6513 372.5,38.5C 377.939,41.3028 383.439,43.9695 389,46.5C 392.582,45.1948 396.082,43.6948 399.5,42C 402.001,35.9972 404.001,29.8306 405.5,23.5 Z M 408.5,72.5 C 422.981,70.3182 432.814,75.9849 438,89.5C 440.366,103.606 434.866,113.106 421.5,118C 407.394,120.366 397.894,114.866 393,101.5C 390.831,87.8339 395.998,78.1672 408.5,72.5 Z"/></g>
<g><path style="opacity:0.927" fill="#000000" d="M 406.5,55.5 C 429.329,52.5469 445.163,61.5469 454,82.5C 459.718,106.897 451.218,124.064 428.5,134C 404.103,139.718 386.936,131.218 377,108.5C 371.424,81.977 381.257,64.3104 406.5,55.5 Z M 408.5,72.5 C 395.998,78.1672 390.831,87.8339 393,101.5C 397.894,114.866 407.394,120.366 421.5,118C 434.866,113.106 440.366,103.606 438,89.5C 432.814,75.9849 422.981,70.3182 408.5,72.5 Z"/></g>
<g><path style="opacity:0.973" fill="#000000" d="M 101.5,63.5 C 155.5,63.5 209.5,63.5 263.5,63.5C 263.5,68.8333 263.5,74.1667 263.5,79.5C 212.832,79.3333 162.166,79.5 111.5,80C 92.3333,81.8333 81.8333,92.3333 80,111.5C 79.5,143.498 79.3334,175.498 79.5,207.5C 70.1607,207.334 60.8274,207.5 51.5,208C 48.6936,209.305 47.8603,211.472 49,214.5C 63.1294,235.927 77.6294,257.094 92.5,278C 96.5821,279.293 99.7487,278.126 102,274.5C 115.333,254.5 128.667,234.5 142,214.5C 143.14,211.472 142.306,209.305 139.5,208C 130.173,207.5 120.839,207.334 111.5,207.5C 111.333,178.831 111.5,150.165 112,121.5C 113.833,117 117,113.833 121.5,112C 168.832,111.5 216.165,111.333 263.5,111.5C 263.5,116.833 263.5,122.167 263.5,127.5C 218.167,127.5 172.833,127.5 127.5,127.5C 127.5,148.833 127.5,170.167 127.5,191.5C 133.509,191.334 139.509,191.501 145.5,192C 157.5,196.83 162,205.664 159,218.5C 144.249,241.671 129.249,264.671 114,287.5C 105.947,295.506 96.4471,297.673 85.5,294C 82.2167,292.439 79.3834,290.273 77,287.5C 61.7511,264.671 46.7511,241.671 32,218.5C 29.0001,205.664 33.5001,196.83 45.5,192C 51.4908,191.501 57.4908,191.334 63.5,191.5C 63.03,160.117 63.53,128.784 65,97.5C 71.2844,79.7113 83.451,68.378 101.5,63.5 Z"/></g>
<g><path style="opacity:1" fill="#000000" d="M 279.5,63.5 C 284.833,63.5 290.167,63.5 295.5,63.5C 295.5,68.8333 295.5,74.1667 295.5,79.5C 290.167,79.5 284.833,79.5 279.5,79.5C 279.5,74.1667 279.5,68.8333 279.5,63.5 Z"/></g>
<g><path style="opacity:0.946" fill="#000000" d="M 243.5,159.5 C 280.533,156.258 307.033,171.258 323,204.5C 332.063,230.836 328.397,255.169 312,277.5C 305.152,284.886 297.819,291.553 290,297.5C 288.908,300.044 288.241,302.711 288,305.5C 293.695,343.138 277.862,358.305 240.5,351C 232.333,348.167 226.833,342.667 224,334.5C 223.667,324.833 223.333,315.167 223,305.5C 222.669,301.169 221.169,297.336 218.5,294C 186.439,271.821 176.273,241.988 188,204.5C 198.813,179.864 217.313,164.864 243.5,159.5 Z M 254.5,175.5 C 276.106,176.635 292.606,186.302 304,204.5C 314.596,227.33 312.263,248.664 297,268.5C 290.667,273.833 284.333,279.167 278,284.5C 273.557,290.053 271.391,296.386 271.5,303.5C 268.833,303.5 266.167,303.5 263.5,303.5C 263.167,287.153 263.501,270.82 264.5,254.5C 279.869,245.887 283.703,233.554 276,217.5C 266.209,206.757 254.709,204.59 241.5,211C 231.634,219.134 228.801,229.301 233,241.5C 236.028,247.361 240.528,251.694 246.5,254.5C 247.499,270.82 247.833,287.153 247.5,303.5C 244.833,303.5 242.167,303.5 239.5,303.5C 239.609,296.386 237.443,290.053 233,284.5C 226.667,279.167 220.333,273.833 214,268.5C 198.737,248.664 196.404,227.33 207,204.5C 218.12,187.027 233.954,177.36 254.5,175.5 Z M 252.5,224.5 C 261.85,224.365 264.517,228.532 260.5,237C 251.956,240.322 248.123,237.489 249,228.5C 249.69,226.65 250.856,225.316 252.5,224.5 Z M 239.5,319.5 C 250.167,319.5 260.833,319.5 271.5,319.5C 273.171,331.829 267.838,337.162 255.5,335.5C 243.162,337.162 237.829,331.829 239.5,319.5 Z"/></g>
<g><path style="opacity:0.973" fill="#000000" d="M 408.5,215.5 C 418.574,213.474 427.074,216.141 434,223.5C 449.249,246.329 464.249,269.329 479,292.5C 482,305.336 477.5,314.17 465.5,319C 459.509,319.499 453.509,319.666 447.5,319.5C 447.667,349.502 447.5,379.502 447,409.5C 441.833,429.333 429.333,441.833 409.5,447C 355.501,447.5 301.501,447.667 247.5,447.5C 247.5,442.167 247.5,436.833 247.5,431.5C 298.168,431.667 348.834,431.5 399.5,431C 418.667,429.167 429.167,418.667 431,399.5C 431.5,367.502 431.667,335.502 431.5,303.5C 440.839,303.666 450.173,303.5 459.5,303C 462.306,301.695 463.14,299.528 462,296.5C 447.871,275.073 433.371,253.906 418.5,233C 414.418,231.707 411.251,232.874 409,236.5C 395.667,256.5 382.333,276.5 369,296.5C 367.86,299.528 368.694,301.695 371.5,303C 380.827,303.5 390.161,303.666 399.5,303.5C 399.667,332.169 399.5,360.835 399,389.5C 397.167,394 394,397.167 389.5,399C 342.168,399.5 294.835,399.667 247.5,399.5C 247.5,394.167 247.5,388.833 247.5,383.5C 292.833,383.5 338.167,383.5 383.5,383.5C 383.5,362.167 383.5,340.833 383.5,319.5C 377.491,319.666 371.491,319.499 365.5,319C 353.5,314.17 349,305.336 352,292.5C 366.751,269.329 381.751,246.329 397,223.5C 400.482,220.161 404.315,217.494 408.5,215.5 Z"/></g>
<g><path style="opacity:0.934" fill="#000000" d="M 72.5,327.5 C 87.8333,327.5 103.167,327.5 118.5,327.5C 120.167,333.5 121.833,339.5 123.5,345.5C 129.369,343.568 135.036,341.068 140.5,338C 141.5,337.333 142.5,337.333 143.5,338C 153.333,347.833 163.167,357.667 173,367.5C 173.667,368.5 173.667,369.5 173,370.5C 169.932,375.964 167.432,381.631 165.5,387.5C 171.5,389.167 177.5,390.833 183.5,392.5C 183.5,407.833 183.5,423.167 183.5,438.5C 177.5,440.167 171.5,441.833 165.5,443.5C 167.432,449.369 169.932,455.036 173,460.5C 173.667,461.5 173.667,462.5 173,463.5C 163.167,473.333 153.333,483.167 143.5,493C 142.5,493.667 141.5,493.667 140.5,493C 135.036,489.932 129.369,487.432 123.5,485.5C 121.833,491.5 120.167,497.5 118.5,503.5C 103.167,503.5 87.8333,503.5 72.5,503.5C 70.8333,497.5 69.1667,491.5 67.5,485.5C 61.6307,487.432 55.964,489.932 50.5,493C 49.5,493.667 48.5,493.667 47.5,493C 37.6667,483.167 27.8333,473.333 18,463.5C 17.3333,462.5 17.3333,461.5 18,460.5C 21.0677,455.036 23.5677,449.369 25.5,443.5C 19.5,441.833 13.5,440.167 7.5,438.5C 7.5,423.167 7.5,407.833 7.5,392.5C 13.5,390.833 19.5,389.167 25.5,387.5C 23.5677,381.631 21.0677,375.964 18,370.5C 17.3333,369.5 17.3333,368.5 18,367.5C 27.8333,357.667 37.6667,347.833 47.5,338C 48.5,337.333 49.5,337.333 50.5,338C 55.964,341.068 61.6307,343.568 67.5,345.5C 69.1667,339.5 70.8333,333.5 72.5,327.5 Z M 85.5,343.5 C 92.1667,343.5 98.8333,343.5 105.5,343.5C 107.023,349.572 108.857,355.572 111,361.5C 114.481,363.55 118.148,365.217 122,366.5C 127.771,363.523 133.604,361.023 139.5,359C 144.015,363.348 148.349,367.848 152.5,372.5C 149.697,377.939 147.031,383.439 144.5,389C 145.805,392.582 147.305,396.082 149,399.5C 155.003,402.001 161.169,404.001 167.5,405.5C 167.5,412.167 167.5,418.833 167.5,425.5C 161.428,427.023 155.428,428.857 149.5,431C 147.45,434.481 145.783,438.148 144.5,442C 147.477,447.771 149.977,453.604 152,459.5C 147.652,464.015 143.152,468.349 138.5,472.5C 133.061,469.697 127.561,467.031 122,464.5C 118.418,465.805 114.918,467.305 111.5,469C 108.999,475.003 106.999,481.169 105.5,487.5C 98.8333,487.5 92.1667,487.5 85.5,487.5C 83.9766,481.428 82.1432,475.428 80,469.5C 76.5189,467.45 72.8522,465.783 69,464.5C 63.2292,467.477 57.3959,469.977 51.5,472C 46.9847,467.652 42.6513,463.152 38.5,458.5C 41.3028,453.061 43.9695,447.561 46.5,442C 45.1948,438.418 43.6948,434.918 42,431.5C 35.9972,428.999 29.8306,426.999 23.5,425.5C 23.5,418.833 23.5,412.167 23.5,405.5C 29.572,403.977 35.572,402.143 41.5,400C 43.5504,396.519 45.217,392.852 46.5,389C 43.5227,383.229 41.0227,377.396 39,371.5C 43.3482,366.985 47.8482,362.651 52.5,358.5C 57.9389,361.303 63.4389,363.969 69,366.5C 72.5821,365.195 76.0821,363.695 79.5,362C 82.0009,355.997 84.0009,349.831 85.5,343.5 Z M 88.5,392.5 C 102.981,390.318 112.814,395.985 118,409.5C 120.366,423.606 114.866,433.106 101.5,438C 87.3943,440.366 77.8943,434.866 73,421.5C 70.8314,407.834 75.998,398.167 88.5,392.5 Z"/></g>
<g><path style="opacity:0.927" fill="#000000" d="M 86.5,375.5 C 109.329,372.547 125.163,381.547 134,402.5C 139.718,426.897 131.218,444.064 108.5,454C 84.1027,459.718 66.936,451.218 57,428.5C 51.4241,401.977 61.2574,384.31 86.5,375.5 Z M 88.5,392.5 C 75.998,398.167 70.8314,407.834 73,421.5C 77.8943,434.866 87.3943,440.366 101.5,438C 114.866,433.106 120.366,423.606 118,409.5C 112.814,395.985 102.981,390.318 88.5,392.5 Z"/></g>
<g><path style="opacity:1" fill="#000000" d="M 215.5,431.5 C 220.833,431.5 226.167,431.5 231.5,431.5C 231.5,436.833 231.5,442.167 231.5,447.5C 226.167,447.5 220.833,447.5 215.5,447.5C 215.5,442.167 215.5,436.833 215.5,431.5 Z"/></g>
</svg>
