<?xml version="1.0" encoding="UTF-8"?>
<!DOCTYPE svg PUBLIC "-//W3C//DTD SVG 1.1//EN" "http://www.w3.org/Graphics/SVG/1.1/DTD/svg11.dtd">
<svg xmlns="http://www.w3.org/2000/svg" version="1.1" width="100px" height="100px" style="shape-rendering:geometricPrecision; text-rendering:geometricPrecision; image-rendering:optimizeQuality; fill-rule:evenodd; clip-rule:evenodd" xmlns:xlink="http://www.w3.org/1999/xlink">
<g><path style="opacity:0.771" fill="#000000" d="M 55.5,22.5 C 56.8734,22.3433 58.2068,22.51 59.5,23C 69.5555,30.7218 79.8889,38.0551 90.5,45C 95.8333,48.3333 95.8333,51.6667 90.5,55C 80.3424,62.579 70.009,69.9123 59.5,77C 57.8876,77.7203 56.3876,77.5536 55,76.5C 54.501,72.1794 54.3343,67.8461 54.5,63.5C 45.8481,62.5415 37.1815,62.7082 28.5,64C 20.4733,65.5084 12.4733,67.0084 4.5,68.5C 4.04158,57.0692 4.70824,45.7359 6.5,34.5C 7.66667,34.1667 8.83333,33.8333 10,33.5C 24.923,35.3484 39.7563,37.6817 54.5,40.5C 54.8812,34.3621 55.2145,28.3621 55.5,22.5 Z M 36.5,57.5 C 36.7852,55.712 36.4519,54.0453 35.5,52.5C 33.8786,54.1526 32.7119,56.1526 32,58.5C 30.1865,54.6371 29.0198,54.9704 28.5,59.5C 26.088,59.6695 23.9214,59.0028 22,57.5C 20.779,58.2718 19.779,59.2718 19,60.5C 18.5172,59.552 18.3505,58.552 18.5,57.5C 16.4078,57.5614 14.9078,58.5614 14,60.5C 11.7403,58.0028 10.407,58.6695 10,62.5C 9.33333,56.1667 9.33333,49.8333 10,43.5C 11.1562,44.9928 11.9896,44.8261 12.5,43C 12.0496,41.7147 11.3829,40.548 10.5,39.5C 10.8333,39.1667 11.1667,38.8333 11.5,38.5C 14.443,39.2435 17.443,39.7435 20.5,40C 22.1824,45.3939 23.5158,45.5605 24.5,40.5C 29.4843,41.2751 34.4843,41.9418 39.5,42.5C 39.2222,44.3464 39.8888,45.6798 41.5,46.5C 42.3857,45.675 42.719,44.675 42.5,43.5C 43.552,43.3505 44.552,43.5172 45.5,44C 47.0747,49.4116 48.5747,49.5782 50,44.5C 52.7191,45.4438 55.5525,45.7771 58.5,45.5C 58.9253,40.4301 59.7587,35.4301 61,30.5C 62.0173,32.3759 62.8506,34.3759 63.5,36.5C 64.8027,35.2822 65.8027,35.6155 66.5,37.5C 68.2237,36.3387 69.8904,36.5053 71.5,38C 75.5,41 79.5,44 83.5,47C 81.1693,48.7998 81.1693,50.7998 83.5,53C 82.6667,53.8333 81.8333,54.6667 81,55.5C 80.2676,52.2894 78.4343,50.2894 75.5,49.5C 75.7976,52.2646 76.7976,54.7646 78.5,57C 77.0692,57.4652 75.9025,58.2986 75,59.5C 73.8855,58.0001 73.0521,56.3334 72.5,54.5C 71.675,53.6143 70.675,53.281 69.5,53.5C 70.3416,56.4981 70.8416,59.4981 71,62.5C 70.6667,62.8333 70.3333,63.1667 70,63.5C 69.2904,62.0267 68.1238,61.3601 66.5,61.5C 66.33,62.8221 66.6634,63.9887 67.5,65C 65.5826,64.9725 63.916,64.1392 62.5,62.5C 61.3192,64.1353 61.3192,65.802 62.5,67.5C 61.8551,68.646 61.0217,69.646 60,70.5C 59.5012,66.5138 59.3345,62.5138 59.5,58.5C 57.1667,58.5 54.8333,58.5 52.5,58.5C 52.4102,53.6108 51.2435,53.2775 49,57.5C 48.6121,56.572 47.9454,55.9054 47,55.5C 45.2589,57.4543 43.0922,58.4543 40.5,58.5C 40.3065,53.597 38.9731,53.2637 36.5,57.5 Z M 84.5,47.5 C 87.0454,48.4376 87.5454,49.7709 86,51.5C 85.2086,50.255 84.7086,48.9217 84.5,47.5 Z"/></g>
<g><path style="opacity:0.38" fill="#000000" d="M 64.5,39.5 C 67.9571,39.6672 68.2904,40.6672 65.5,42.5C 64.6143,41.675 64.281,40.675 64.5,39.5 Z"/></g>
<g><path style="opacity:0.379" fill="#000000" d="M 72.5,41.5 C 74.0481,41.8212 74.7148,42.8212 74.5,44.5C 71.7524,44.5983 71.0857,43.5983 72.5,41.5 Z"/></g>
<g><path style="opacity:0.381" fill="#000000" d="M 15.5,44.5 C 18.9571,44.6672 19.2904,45.6672 16.5,47.5C 15.6143,46.675 15.281,45.675 15.5,44.5 Z"/></g>
</svg>
