<?xml version="1.0" standalone="no"?>
<!DOCTYPE svg PUBLIC "-//W3C//DTD SVG 20010904//EN"
 "http://www.w3.org/TR/2001/REC-SVG-20010904/DTD/svg10.dtd">
<svg version="1.0" xmlns="http://www.w3.org/2000/svg"
 width="300.000000pt" height="300.000000pt" viewBox="0 0 300.000000 300.000000"
 preserveAspectRatio="xMidYMid meet">
<metadata>
Created by potrace 1.10, written by Peter Selinger 2001-2011
</metadata>
<g transform="translate(0.000000,300.000000) scale(0.100000,-0.100000)"
fill="#000000" stroke="none">
<path d="M2531 2984 c6 -8 18 -14 25 -14 22 0 47 -58 40 -94 -7 -36 -14 -128
-31 -376 -14 -214 -21 -1250 -9 -1465 9 -170 4 -999 -6 -1009 -24 -24 -29 17
-45 414 -2 47 -7 130 -10 185 -4 55 -9 170 -12 255 -3 85 -7 182 -9 215 -6 94
-14 239 -20 365 -2 63 -6 156 -9 205 -4 95 -8 432 -7 525 1 30 1 123 1 205 0
83 2 197 5 255 4 58 7 147 9 198 2 89 3 93 32 117 29 25 29 25 6 23 -13 -2
-32 -14 -43 -28 -16 -22 -19 -53 -26 -220 -13 -349 -6 -1044 13 -1380 9 -159
16 -292 20 -375 7 -138 14 -281 19 -375 7 -130 17 -374 20 -484 2 -83 6 -101
21 -112 19 -14 55 -9 66 8 4 6 4 265 1 577 -14 1315 -6 1905 27 2179 5 37 8
93 7 125 -1 63 -11 75 -69 88 -22 5 -25 4 -16 -7z"/>
<path d="M786 1937 c-13 -13 -59 -53 -102 -88 -240 -196 -304 -287 -299 -427
1 -59 7 -80 39 -138 50 -90 109 -159 219 -253 49 -42 106 -91 126 -108 20 -18
50 -35 68 -39 66 -13 121 44 109 111 -6 28 -21 42 -109 101 -126 85 -123 83
-220 174 -86 82 -112 99 -79 53 37 -52 140 -141 246 -213 123 -83 146 -104
146 -134 0 -34 -33 -71 -66 -74 -27 -2 -49 9 -91 44 -11 11 -40 35 -64 54
-205 168 -308 312 -309 432 0 122 70 220 285 393 27 22 68 57 91 78 23 20 50
37 61 37 22 0 53 -29 53 -49 0 -13 -59 -71 -73 -71 -5 0 -45 -28 -90 -62 -123
-94 -214 -195 -194 -214 3 -3 14 10 25 28 12 18 40 52 64 75 46 44 197 157
247 185 40 22 50 61 24 96 -28 37 -75 41 -107 9z"/>
<path d="M161 1894 c0 -11 3 -14 6 -6 3 7 2 16 -1 19 -3 4 -6 -2 -5 -13z"/>
<path d="M545 1530 c-4 -6 33 -11 102 -12 59 -1 122 -2 138 -4 59 -4 242 -14
345 -20 190 -9 714 -12 740 -3 14 4 48 10 75 13 28 2 65 8 83 11 59 13 92 -43
49 -83 -16 -14 -42 -17 -161 -18 -77 -1 -213 -5 -301 -9 -88 -3 -286 -8 -440
-10 -365 -5 -603 -15 -629 -26 -13 -5 34 -7 124 -4 80 3 264 7 410 10 146 2
389 8 540 12 151 4 282 6 290 5 8 -1 50 1 93 4 59 5 83 11 96 26 25 26 23 63
-6 94 -21 23 -29 25 -61 19 -20 -4 -48 -9 -62 -11 -14 -2 -54 -8 -90 -13 -61
-9 -742 -7 -758 3 -6 3 -83 7 -449 21 -75 3 -124 1 -128 -5z"/>
</g>
</svg>
