<?xml version="1.0" encoding="UTF-8"?>
<svg version="1.1" xmlns="http://www.w3.org/2000/svg" width="100" height="100">
<path d="M0 0 C2.1519437 3.22791555 2.20086443 4.28400809 2 8 C4.64 8 7.28 8 10 8 C9.938125 7.071875 9.87625 6.14375 9.8125 5.1875 C10 2 10 2 11.125 0.125 C13.85252465 -1.51151479 15.87973093 -1.32502803 19 -1 C22 1 22 1 22.51171875 2.9453125 C22.67447917 4.96354167 22.83723958 6.98177083 23 9 C24.98 9 26.96 9 29 9 C29.103125 7.906875 29.20625 6.81375 29.3125 5.6875 C30 2 30 2 31.1875 0.0625 C33.91087907 -1.5339636 35.90953021 -1.38630872 39 -1 C40.875 0.0625 40.875 0.0625 42 2 C42.1875 5.6875 42.1875 5.6875 42 9 C46.95 9.495 46.95 9.495 52 10 C51.99214478 11.53648193 51.99214478 11.53648193 51.98413086 13.10400391 C51.96157241 17.94432197 51.94775101 22.78464121 51.9375 27.625 C51.93555634 28.50037415 51.93361267 29.37574829 51.93161011 30.27764893 C51.91101041 43.60885518 52.14461499 56.9025389 52.73217773 70.22119141 C52.78059814 71.37280762 52.82901855 72.52442383 52.87890625 73.7109375 C52.94960327 75.21599854 52.94960327 75.21599854 53.02172852 76.75146484 C53 79 53 79 52 80 C49.62699131 80.09494733 47.28321297 80.12559319 44.90991211 80.11352539 C44.16849472 80.11367142 43.42707733 80.11381744 42.66319275 80.1139679 C40.20121379 80.11326865 37.73930957 80.10547574 35.27734375 80.09765625 C33.57483461 80.09579211 31.87232493 80.09436819 30.16981506 80.09336853 C25.68006927 80.08954302 21.19035562 80.07971247 16.70062256 80.06866455 C12.12268509 80.05845113 7.54474244 80.05387106 2.96679688 80.04882812 C-6.02214957 80.03809022 -15.01107212 80.02101341 -24 80 C-25.33157047 76.00528859 -25.14258802 72.16840041 -25.1328125 68.00390625 C-25.13376923 67.10115463 -25.13472595 66.19840302 -25.13571167 65.26829529 C-25.13639327 63.34577363 -25.13454037 61.42324968 -25.13037109 59.50073242 C-25.12512813 56.63259308 -25.13026067 53.76461812 -25.13671875 50.89648438 C-25.14136243 41.55854454 -25.0180944 32.23233034 -24.6171875 22.90234375 C-24.58682404 22.0775502 -24.55646057 21.25275665 -24.525177 20.40296936 C-24.31952039 16.24938499 -24.02232317 12.73425381 -22 9 C-19.59454362 7.79727181 -18.05003047 7.89928528 -15.375 7.9375 C-14.14910156 7.95103516 -14.14910156 7.95103516 -12.8984375 7.96484375 C-11.95871094 7.98224609 -11.95871094 7.98224609 -11 8 C-10.896875 7.071875 -10.79375 6.14375 -10.6875 5.1875 C-10 2 -10 2 -8.875 0.0625 C-5.77094169 -1.69646638 -3.33679452 -0.84936588 0 0 Z M-5 4 C-6.24738223 5.02621107 -6.24738223 5.02621107 -6.1328125 7.21484375 C-6.13023438 8.11332031 -6.12765625 9.01179688 -6.125 9.9375 C-6.12757812 10.83339844 -6.13015625 11.72929687 -6.1328125 12.65234375 C-6.15421413 15.02155555 -6.15421413 15.02155555 -5 17 C-4.34 17 -3.68 17 -3 17 C-3 13.04 -3 9.08 -3 5 C-3.66 4.67 -4.32 4.34 -5 4 Z M15 4 C15 8.29 15 12.58 15 17 C15.66 17 16.32 17 17 17 C18.29721449 13.10835652 18.13033993 10.10570774 18 6 C17.67 5.34 17.34 4.68 17 4 C16.34 4 15.68 4 15 4 Z M35 4 C33.99503148 7.01490557 33.89664697 9.04181692 33.9375 12.1875 C33.94652344 13.08855469 33.95554688 13.98960938 33.96484375 14.91796875 C33.97644531 15.60503906 33.98804688 16.29210938 34 17 C34.66 17 35.32 17 36 17 C37.32229189 14.35541621 37.09677194 12.32238699 37.0625 9.375 C37.04896484 7.87066406 37.04896484 7.87066406 37.03515625 6.3359375 C37.02355469 5.56507812 37.01195312 4.79421875 37 4 C36.34 4 35.68 4 35 4 Z M-18 13 C-19.32229189 15.64458379 -19.09677194 17.67761301 -19.0625 20.625 C-19.05347656 21.62789062 -19.04445313 22.63078125 -19.03515625 23.6640625 C-19.02355469 24.43492188 -19.01195312 25.20578125 -19 26 C-18.34 26 -17.68 26 -17 26 C-16.67 24.35 -16.34 22.7 -16 21 C-15.01 21 -14.02 21 -13 21 C-13.33 22.65 -13.66 24.3 -14 26 C-4.79733649 26.32251922 -4.79733649 26.32251922 4 24 C4.33 23.01 4.66 22.02 5 21 C5.99 21 6.98 21 8 21 C8.33 21.66 8.66 22.32 9 23 C11.48288836 25.48288836 13.01186156 25.28583167 16.41015625 25.32226562 C17.09980469 25.31904297 17.78945313 25.31582031 18.5 25.3125 C19.18964844 25.32861328 19.87929688 25.34472656 20.58984375 25.36132812 C22.83257651 25.39925675 22.83257651 25.39925675 26 25 C26.66 24.01 27.32 23.02 28 22 C28.66 23.32 29.32 24.64 30 26 C35.61 26.33 41.22 26.66 47 27 C47 23.04 47 19.08 47 15 C45.35 14.67 43.7 14.34 42 14 C41.608125 15.134375 41.21625 16.26875 40.8125 17.4375 C39 21 39 21 36.5625 22.125 C33.33067798 21.96735015 32.20215847 21.3594555 30 19 C29.25 16.3125 29.25 16.3125 29 14 C27.02 14 25.04 14 23 14 C22.34 16.31 21.68 18.62 21 21 C19.72125 21.061875 18.4425 21.12375 17.125 21.1875 C16.04605469 21.23970703 16.04605469 21.23970703 14.9453125 21.29296875 C14.30335937 21.19628906 13.66140625 21.09960938 13 21 C11.0549 18.08235 10.54723683 16.37462715 10 13 C7.36 13 4.72 13 2 13 C1.34 15.64 0.68 18.28 0 21 C-2.8125 21.625 -2.8125 21.625 -6 22 C-9.86107457 19.42595029 -9.94319692 17.38979741 -11 13 C-13.31 13 -15.62 13 -18 13 Z M-19 29 C-20.20263656 36.49990675 -20.11258251 43.9182785 -20.0625 51.5 C-20.05798828 52.799375 -20.05347656 54.09875 -20.04882812 55.4375 C-20.0371092 58.62504825 -20.02070219 61.81249955 -20 65 C-19.34 65 -18.68 65 -18 65 C-18 65.99 -18 66.98 -18 68 C-18.66 68 -19.32 68 -20 68 C-19.67 68.66 -19.34 69.32 -19 70 C-17.515 69.505 -17.515 69.505 -16 69 C-16 69.99 -16 70.98 -16 72 C-15.01 72 -14.02 72 -13 72 C-13 72.99 -13 73.98 -13 75 C-11.02 74.34 -9.04 73.68 -7 73 C-6.67 73.66 -6.34 74.32 -6 75 C-6 74.01 -6 73.02 -6 72 C-5.01 72 -4.02 72 -3 72 C-3 72.99 -3 73.98 -3 75 C-1.02 75 0.96 75 3 75 C3 73.35 3 71.7 3 70 C3.66 70.33 4.32 70.66 5 71 C5.625 73.0625 5.625 73.0625 6 75 C6.99 74.505 6.99 74.505 8 74 C7.67 73.01 7.34 72.02 7 71 C7.99 71 8.98 71 10 71 C10.33 72.32 10.66 73.64 11 75 C19.25 75 27.5 75 36 75 C36 73.68 36 72.36 36 71 C36.99 71.495 36.99 71.495 38 72 C38.33 72.99 38.66 73.98 39 75 C41.97 75 44.94 75 48 75 C47.67 68.73 47.34 62.46 47 56 C45.68 56 44.36 56 43 56 C43 55.34 43 54.68 43 54 C44.32 53.34 45.64 52.68 47 52 C45.68 51.67 44.36 51.34 43 51 C43.495 50.5875 43.99 50.175 44.5 49.75 C46.43386092 47.87797662 46.43386092 47.87797662 46 44 C44.68 44 43.36 44 42 44 C42.639375 43.54625 43.27875 43.0925 43.9375 42.625 C46.98225157 38.74986164 46.81649865 34.8077353 47 30 C46.566875 30.474375 46.13375 30.94875 45.6875 31.4375 C44 33 44 33 41 34 C41 33.34 41 32.68 41 32 C40.34 31.34 39.68 30.68 39 30 C39 29.67 39 29.34 39 29 C30.294634 27.95938579 21.62861179 27.84549328 12.87573242 27.86962891 C10.57008262 27.87498239 8.26462824 27.86965653 5.95898438 27.86328125 C-2.41062511 27.85991279 -10.66733004 28.11029013 -19 29 Z M-18 72 C-18.99 73.485 -18.99 73.485 -20 75 C-18.68 74.67 -17.36 74.34 -16 74 C-16 73.34 -16 72.68 -16 72 C-16.66 72 -17.32 72 -18 72 Z " fill="#000000" transform="translate(36,7)"/>
<path d="M0 0 C0.94526487 4.77133695 1.15120062 9.40288547 1.125 14.25 C1.13080078 15.29994141 1.13080078 15.29994141 1.13671875 16.37109375 C1.12942883 20.37325985 0.90650069 24.29867365 0.49169922 28.28027344 C0.35427811 29.61176422 0.35427811 29.61176422 0.21408081 30.97015381 C0.14343414 31.64000305 0.07278748 32.30985229 0 33 C-7.38728102 33.02526692 -14.77455098 33.0428316 -22.16186523 33.05493164 C-24.67716895 33.05997363 -27.19246972 33.06680703 -29.70776367 33.07543945 C-33.31429775 33.08751094 -36.92079323 33.09322949 -40.52734375 33.09765625 C-42.22575661 33.10539818 -42.22575661 33.10539818 -43.95848083 33.11329651 C-44.99948441 33.11337204 -46.04048798 33.11344757 -47.11303711 33.11352539 C-48.49536781 33.11685631 -48.49536781 33.11685631 -49.90562439 33.12025452 C-52 33 -52 33 -53 32 C-53.09993586 30.05935877 -53.13080919 28.11508666 -53.1328125 26.171875 C-53.13410156 24.97949219 -53.13539062 23.78710938 -53.13671875 22.55859375 C-53.13285156 21.30175781 -53.12898438 20.04492188 -53.125 18.75 C-53.12886719 17.50863281 -53.13273437 16.26726563 -53.13671875 14.98828125 C-53.13542969 13.79074219 -53.13414063 12.59320313 -53.1328125 11.359375 C-53.13168457 10.26077148 -53.13055664 9.16216797 -53.12939453 8.03027344 C-53.00988189 5.23142271 -52.58152156 2.73151704 -52 0 C-45.23747296 -0.16834474 -38.47478368 -0.32821289 -31.71191406 -0.48217773 C-29.41108661 -0.53556083 -27.1103034 -0.59088728 -24.80957031 -0.64819336 C-21.50335224 -0.73020697 -18.19703829 -0.80524013 -14.890625 -0.87890625 C-13.86132874 -0.90594131 -12.83203247 -0.93297638 -11.77154541 -0.96083069 C-10.81085144 -0.98092697 -9.85015747 -1.00102325 -8.86035156 -1.02172852 C-8.01651917 -1.04171402 -7.17268677 -1.06169952 -6.30328369 -1.08229065 C-4.05506619 -1.00196738 -2.15226226 -0.63270284 0 0 Z M-49 3 C-49.96070434 5.88211302 -50.10581883 7.69850044 -50.0625 10.6875 C-50.041875 12.110625 -50.02125 13.53375 -50 15 C-46.7 15 -43.4 15 -40 15 C-40 11.04 -40 7.08 -40 3 C-42.97 3 -45.94 3 -49 3 Z M-37 3 C-37 6.96 -37 10.92 -37 15 C-35.72125 15.020625 -34.4425 15.04125 -33.125 15.0625 C-32.40570313 15.07410156 -31.68640625 15.08570313 -30.9453125 15.09765625 C-28.91814596 15.12649242 -28.91814596 15.12649242 -27 14 C-27 10.37 -27 6.74 -27 3 C-30.3 3 -33.6 3 -37 3 Z M-24 3 C-24 6.63 -24 10.26 -24 14 C-20.7 14 -17.4 14 -14 14 C-14 10.37 -14 6.74 -14 3 C-17.3 3 -20.6 3 -24 3 Z M-11 3 C-11 6.63 -11 10.26 -11 14 C-8.03 14 -5.06 14 -2 14 C-1.91840426 9.83861737 -2.01751476 6.0527516 -3 2 C-6.35954625 1.90194193 -6.35954625 1.90194193 -11 3 Z M-24 17 C-24 21.29 -24 25.58 -24 30 C-20.7 30 -17.4 30 -14 30 C-14 25.71 -14 21.42 -14 17 C-17.3 17 -20.6 17 -24 17 Z M-11 17 C-11 21.29 -11 25.58 -11 30 C-8.36 30 -5.72 30 -3 30 C-2.67 25.71 -2.34 21.42 -2 17 C-4.97 17 -7.94 17 -11 17 Z M-50 18 C-50 21.96 -50 25.92 -50 30 C-46.7 30 -43.4 30 -40 30 C-40 26.04 -40 22.08 -40 18 C-43.3 18 -46.6 18 -50 18 Z M-37 18 C-37 21.96 -37 25.92 -37 30 C-33.7 30 -30.4 30 -27 30 C-27 25.71 -27 21.42 -27 17 C-30.41099168 17 -33.63088314 17.49145406 -37 18 Z " fill="#000000" transform="translate(76,43)"/>
<path d="M0 0 C0.99 0 1.98 0 3 0 C2.67 0.99 2.34 1.98 2 3 C1.34 2.67 0.68 2.34 0 2 C0 1.34 0 0.68 0 0 Z " fill="#000000" transform="translate(19,44)"/>
<path d="M0 0 C0.99 0 1.98 0 3 0 C3 0.66 3 1.32 3 2 C2.01 2 1.02 2 0 2 C0 1.34 0 0.68 0 0 Z " fill="#000000" transform="translate(26,37)"/>
</svg>
