<?xml version="1.0" standalone="no"?>
<!DOCTYPE svg PUBLIC "-//W3C//DTD SVG 20010904//EN"
 "http://www.w3.org/TR/2001/REC-SVG-20010904/DTD/svg10.dtd">
<svg version="1.0" xmlns="http://www.w3.org/2000/svg"
 width="300.000000pt" height="300.000000pt" viewBox="0 0 300.000000 300.000000"
 preserveAspectRatio="xMidYMid meet">
<metadata>
Created by potrace 1.10, written by Peter Selinger 2001-2011
</metadata>
<g transform="translate(0.000000,300.000000) scale(0.100000,-0.100000)"
fill="#000000" stroke="none">
<path d="M335 2919 c-10 -15 3 -25 16 -12 7 7 7 13 1 17 -6 3 -14 1 -17 -5z"/>
<path d="M1805 2752 c-40 -5 -55 -20 -32 -33 31 -18 18 -26 -32 -21 -39 3 -57
0 -83 -16 -38 -23 -91 -92 -113 -147 -14 -31 -14 -35 0 -35 8 0 15 -3 15 -7 0
-5 -32 -6 -72 -5 -65 3 -71 2 -59 -12 16 -19 8 -21 -18 -4 -14 9 -29 8 -64 -2
l-46 -12 22 -19 c26 -21 10 -26 -18 -5 -17 12 -24 12 -57 -5 -37 -19 -57 -39
-39 -39 6 0 15 -10 22 -22 l11 -21 -29 21 -30 21 -33 -34 -33 -34 24 -20 c13
-10 21 -23 16 -27 -4 -4 -17 2 -30 14 l-23 22 -24 -41 -23 -42 24 -19 c20 -17
21 -19 4 -13 -34 11 -39 11 -42 -6 -2 -9 4 -19 14 -23 10 -3 24 -9 31 -12 6
-3 12 0 12 8 0 18 108 159 150 194 19 17 56 43 83 58 30 17 45 31 40 39 -4 8
-2 8 9 -1 13 -10 26 -10 63 -1 123 31 280 -41 327 -150 10 -24 21 -41 24 -38
3 3 1 15 -6 26 -16 30 -5 26 19 -8 l21 -29 -56 -28 c-63 -32 -113 -85 -146
-153 -25 -52 -33 -60 -68 -62 -14 -1 7 -5 45 -9 39 -4 71 -4 73 0 2 4 11 6 21
3 23 -6 36 23 14 31 -10 4 -13 2 -10 -7 3 -9 -5 -13 -29 -14 -27 -1 -34 3 -34
18 0 11 6 22 13 25 7 2 14 14 14 27 1 12 7 23 13 25 5 2 10 10 10 18 0 8 7 14
15 14 8 0 15 8 15 18 0 10 15 26 36 37 29 15 39 17 55 7 22 -14 41 -16 19 -2
-13 9 -13 11 0 20 22 14 43 12 34 -2 -4 -7 2 -5 13 5 11 9 24 17 29 17 5 0 2
-5 -6 -10 -13 -8 -12 -10 3 -10 9 0 17 4 17 10 0 5 29 8 65 7 44 -2 65 2 65 9
0 7 -7 15 -16 18 -24 9 -125 7 -162 -3 -29 -9 -33 -7 -46 17 -8 15 -32 44 -54
66 l-40 38 33 78 c39 92 51 154 36 193 -10 25 -9 29 7 34 23 6 45 40 35 56 -4
7 -21 11 -38 9z m-35 -139 c0 -39 -13 -83 -45 -150 l-20 -43 -67 32 -67 31 24
47 c30 59 72 110 92 110 8 0 21 7 29 15 25 25 54 2 54 -42z m-486 -191 c7 -12
-42 -38 -51 -28 -5 4 1 14 11 22 23 16 33 18 40 6z m-96 -91 c-7 -11 -18 -21
-25 -21 -22 0 -24 19 -2 41 26 26 47 12 27 -20z m-58 -62 c0 -20 -21 -49 -35
-49 -18 0 -19 14 -5 41 11 20 40 26 40 8z"/>
<path d="M1715 2504 c-27 -61 -30 -73 -16 -58 12 11 53 114 46 114 -3 0 -16
-25 -30 -56z"/>
<path d="M1895 2720 c-11 -4 -26 -5 -34 -2 -9 3 -12 1 -7 -6 3 -6 2 -13 -4
-17 -5 -3 -10 -23 -10 -44 0 -41 17 -70 94 -165 48 -59 85 -125 105 -187 11
-33 45 -58 60 -44 2 3 -1 5 -7 5 -7 0 -12 14 -12 31 0 19 4 28 11 24 21 -14
-65 142 -113 203 -26 34 -54 73 -60 87 -6 14 -15 25 -20 25 -15 0 -8 38 8 44
25 10 62 7 70 -5 4 -8 -1 -9 -17 -4 -13 3 0 -8 29 -25 29 -17 57 -28 62 -25
10 6 40 -17 41 -31 0 -4 -5 -10 -13 -15 -11 -7 -10 -10 1 -21 9 -8 11 -9 7 -1
-3 6 -1 15 4 18 15 9 52 -25 46 -42 -3 -7 1 -13 10 -13 11 0 14 -6 10 -16 -3
-9 -2 -12 4 -9 18 11 73 -120 68 -164 -3 -37 -2 -39 17 -29 11 6 17 7 13 3
-12 -13 25 -35 38 -24 7 5 26 11 44 14 24 3 30 0 26 -11 -8 -21 3 -17 25 9 19
21 19 22 34 3 10 -13 19 -16 27 -10 7 5 22 9 33 8 66 -4 66 -4 63 -25 -2 -18
-12 -28 -47 -46 -1 -1 0 -6 3 -11 4 -7 15 -6 30 1 13 7 23 14 21 17 -2 3 8 6
21 6 14 1 24 -4 24 -11 0 -7 7 -18 15 -25 23 -19 20 -119 -4 -147 -20 -24 -38
-32 -25 -12 4 7 1 10 -7 7 -21 -7 -59 -68 -59 -94 0 -13 -5 -34 -12 -48 -9
-20 -14 -23 -25 -15 -10 9 -13 8 -13 -4 0 -24 27 -27 46 -5 11 12 17 31 16 49
-2 16 1 29 7 29 6 0 11 7 11 15 0 13 33 38 55 41 31 5 54 18 57 32 2 9 0 52
-3 95 -5 71 -9 83 -32 103 -15 13 -27 27 -27 32 0 6 -19 17 -42 27 -47 19
-200 23 -254 7 l-30 -10 -18 68 c-49 191 -258 400 -361 360z m-10 -119 c8 -16
34 -51 57 -78 52 -60 98 -132 98 -152 0 -9 -10 4 -23 27 -12 24 -45 72 -73
106 -48 59 -91 126 -80 126 3 0 12 -13 21 -29z"/>
<path d="M1275 2525 c-85 -16 -138 -36 -112 -42 9 -3 47 5 83 17 45 15 75 20
97 15 46 -10 173 -18 166 -10 -4 3 -33 10 -65 15 -33 5 -68 11 -79 14 -11 2
-51 -2 -90 -9z"/>
<path d="M2097 2510 c3 -11 10 -23 16 -27 7 -4 8 0 4 11 -4 10 -7 22 -7 27 0
5 -4 9 -9 9 -5 0 -7 -9 -4 -20z"/>
<path d="M1275 2496 c-39 -13 -39 -14 -16 -23 17 -7 36 -5 67 6 34 12 40 17
26 23 -23 9 -31 8 -77 -6z"/>
<path d="M1089 2450 l-24 -19 23 -1 c13 0 35 9 49 20 l26 20 -26 0 c-13 0 -35
-9 -48 -20z"/>
<path d="M1168 2452 c-35 -21 -35 -28 -3 -36 18 -5 36 1 61 17 34 24 34 25 12
31 -33 8 -40 7 -70 -12z"/>
<path d="M1028 2403 c-63 -69 -91 -134 -75 -171 10 -22 11 -21 23 14 10 28 10
43 2 58 -10 18 -9 19 4 8 14 -11 19 -8 37 17 20 28 21 30 4 41 -17 11 -17 11
1 5 25 -7 73 34 54 47 -19 12 -22 10 -50 -19z"/>
<path d="M1086 2391 l-27 -28 24 -16 c23 -15 26 -14 56 17 l33 34 -30 10 c-27
9 -33 7 -56 -17z m44 -11 c0 -5 -2 -10 -4 -10 -2 0 -12 -3 -20 -6 -12 -5 -15
-2 -10 10 7 17 34 22 34 6z"/>
<path d="M1354 2380 c-35 -14 -150 -140 -127 -140 5 0 15 9 22 19 8 11 21 17
29 13 11 -4 14 -1 9 11 -3 9 -1 19 5 23 7 5 8 2 3 -6 -4 -7 13 1 38 19 25 17
49 36 53 42 10 17 -9 28 -32 19z"/>
<path d="M1031 2321 c-26 -36 -26 -43 -3 -64 17 -16 20 -15 40 22 27 47 27 48
3 61 -16 8 -23 5 -40 -19z m30 -30 c-12 -22 -31 -28 -31 -10 0 23 22 51 32 41
7 -7 6 -17 -1 -31z"/>
<path d="M1531 2327 c-6 -8 -8 -17 -4 -20 7 -8 33 11 33 24 0 13 -16 11 -29
-4z"/>
<path d="M1372 2298 c-7 -7 -12 -17 -12 -22 0 -6 7 -2 15 8 10 14 18 17 25 10
17 -17 0 -45 -25 -42 -25 3 -45 -14 -68 -60 l-16 -34 39 36 c21 19 54 42 72
52 18 9 35 18 36 19 5 5 -37 45 -46 45 -4 0 -13 -5 -20 -12z"/>
<path d="M1510 2286 c0 -7 7 -19 15 -26 18 -15 20 -51 3 -68 -20 -20 -2 -24
22 -4 l23 18 -21 47 c-20 45 -42 62 -42 33z"/>
<path d="M2300 2266 c0 -2 11 -6 25 -8 14 -3 25 -1 25 3 0 5 -11 9 -25 9 -14
0 -25 -2 -25 -4z"/>
<path d="M984 2223 c-11 -55 -11 -65 5 -92 14 -22 13 -25 -15 -49 -16 -14 -41
-43 -56 -65 -18 -28 -29 -36 -32 -26 -2 7 -7 21 -9 29 -3 8 -6 1 -6 -16 -1
-26 -5 -32 -23 -32 -13 0 -97 -31 -188 -70 -91 -39 -185 -76 -210 -83 -45 -12
-45 -12 -16 -20 16 -4 38 -17 50 -28 27 -25 91 -51 125 -51 35 0 14 14 -54 36
-27 8 -57 18 -65 21 -10 3 0 10 25 19 98 35 304 128 299 135 -3 5 3 6 12 2 11
-4 15 -2 11 4 -4 6 4 11 19 11 13 0 26 1 28 3 25 36 145 167 160 176 l21 12
-22 1 c-28 0 -53 10 -53 21 0 5 7 9 15 9 9 0 20 11 25 25 8 20 6 29 -10 45
-11 11 -22 20 -25 20 -2 0 -7 -17 -11 -37z"/>
<path d="M2295 2238 c-4 -10 -14 -14 -26 -11 -10 3 -19 0 -19 -6 0 -16 36 -13
50 4 7 9 10 18 7 22 -4 3 -9 -1 -12 -9z"/>
<path d="M846 2204 c-10 -23 -15 -47 -11 -64 6 -26 2 -29 -52 -50 -117 -47
-329 -143 -380 -173 -63 -38 -78 -68 -69 -139 4 -29 10 -57 14 -62 11 -19 9
-43 -5 -43 -7 0 -13 9 -13 19 0 10 -4 18 -10 18 -5 0 -10 -6 -10 -14 0 -8 -3
-23 -6 -33 -5 -15 -4 -15 5 -3 8 12 11 8 11 -18 0 -49 -17 -30 -39 43 -20 64
-20 65 -1 107 22 48 25 78 10 78 -6 0 -15 -10 -20 -22 -5 -13 -9 -18 -10 -13
-1 6 -6 -1 -11 -15 -7 -19 -8 -15 -4 18 4 28 1 42 -6 42 -12 0 -8 -78 7 -130
7 -24 7 -24 -30 8 -37 32 -71 43 -64 20 2 -7 27 -26 56 -43 33 -19 55 -40 62
-59 15 -42 13 -43 -19 -12 -28 27 -31 28 -47 12 -15 -16 -15 -18 2 -38 11 -11
38 -29 61 -39 22 -11 50 -34 61 -51 24 -37 21 -49 -6 -25 -20 18 -42 22 -42 9
0 -16 39 -44 50 -37 6 4 20 -1 31 -11 22 -20 24 -9 4 26 -8 14 -14 32 -14 40
0 9 6 4 14 -10 19 -33 19 -17 0 20 -9 18 -21 27 -29 24 -10 -4 -6 12 12 48 15
29 28 54 28 56 1 2 19 -8 39 -23 21 -14 43 -25 49 -25 6 0 -8 12 -32 26 -24
14 -41 28 -38 31 3 3 19 -5 35 -17 17 -12 39 -20 49 -18 11 2 -2 14 -41 37
-63 36 -91 78 -64 95 13 8 12 12 -6 26 -21 17 -21 17 18 53 35 32 200 112 365
177 30 12 60 26 66 31 8 7 19 1 35 -18 20 -26 21 -22 2 24 -5 12 -2 15 10 10
13 -5 14 -2 8 15 -4 11 -5 33 -3 49 5 34 43 49 75 29 17 -10 19 -10 13 5 -3 9
-6 22 -6 28 0 8 -3 8 -11 0 -11 -11 -59 -5 -59 8 0 21 -18 6 -34 -27z m-563
-569 c4 3 5 2 2 -2 -3 -3 1 -13 8 -21 9 -11 4 -11 -15 2 -16 10 -28 15 -28 12
0 -4 -9 -2 -20 4 -16 9 -18 13 -8 24 11 12 16 11 34 -5 11 -11 24 -17 27 -14z"/>
<path d="M1207 2223 c-9 -9 -9 -41 1 -46 4 -3 7 8 7 24 0 16 0 29 -1 29 0 0
-4 -3 -7 -7z"/>
<path d="M2155 2208 c-11 -28 26 -76 82 -105 29 -16 53 -31 53 -34 0 -3 -13
-15 -30 -27 -31 -23 -56 -65 -71 -115 -7 -24 -5 -33 9 -43 9 -7 22 -13 27 -14
6 0 3 5 -5 10 -25 16 26 12 58 -4 95 -50 170 -216 159 -352 l-4 -61 45 -22
c60 -29 127 -41 195 -34 50 5 57 9 68 35 7 18 10 52 6 92 l-6 63 70 69 69 68
0 103 c0 90 -3 106 -20 123 -11 11 -25 20 -32 20 -7 0 -31 7 -54 16 -29 11
-41 21 -37 30 11 30 -21 11 -68 -38 -54 -58 -59 -69 -29 -61 11 3 18 9 15 13
-3 5 9 20 26 35 24 20 35 23 43 14 8 -8 8 -13 -1 -16 -32 -12 -8 -18 43 -13
41 5 60 3 70 -8 16 -16 19 -26 4 -17 -5 3 -10 1 -10 -4 0 -6 5 -11 12 -11 6 0
1 -11 -12 -25 -26 -28 -17 -34 12 -8 10 9 18 11 18 5 0 -6 -5 -14 -11 -18 -8
-5 -8 -8 0 -13 7 -4 2 -16 -13 -32 -17 -18 -21 -30 -15 -40 7 -11 9 -10 9 4 0
10 5 15 10 12 6 -3 10 -15 10 -26 0 -11 -4 -17 -10 -14 -5 3 -10 -1 -10 -11 0
-22 -66 -103 -96 -116 -19 -9 -24 -19 -24 -50 0 -22 -5 -48 -10 -59 -8 -15 -7
-19 5 -19 19 0 19 -2 1 -45 l-15 -35 -71 0 c-79 0 -133 18 -150 49 -10 20 -7
25 13 22 4 -1 1 11 -7 26 -21 42 -24 93 -6 93 6 0 10 -8 11 -17 0 -13 2 -14 6
-4 9 23 -88 204 -128 237 -20 16 -34 35 -32 42 3 7 -3 12 -15 12 -11 0 -27 7
-36 15 -11 11 -21 13 -40 5 -17 -6 -26 -6 -26 1 0 24 42 88 83 126 l45 42 -34
11 c-19 7 -55 27 -79 45 -24 18 -47 30 -51 27 -4 -4 -4 -2 -1 5 4 6 3 22 -2
35 -8 20 -10 21 -16 6z"/>
<path d="M2420 2195 l-55 -13 67 1 c37 1 66 6 65 11 -5 14 -16 14 -77 1z"/>
<path d="M1575 2156 c-38 -11 -39 -12 -15 -19 35 -10 48 -8 30 3 -13 8 -13 10
2 10 9 0 20 5 23 10 3 6 5 10 3 9 -2 0 -21 -6 -43 -13z"/>
<path d="M1221 2085 c-23 -76 -22 -112 4 -112 12 0 15 14 15 59 0 32 3 58 8
58 4 0 8 16 9 35 3 56 -11 41 -36 -40z"/>
<path d="M1431 2129 c-16 -15 -21 -30 -19 -52 3 -32 27 -45 36 -19 2 6 -3 12
-12 12 -23 0 -20 17 9 46 39 39 27 51 -14 13z"/>
<path d="M1142 2128 c-7 -7 -12 -28 -12 -47 0 -20 -10 -52 -21 -71 l-21 -35
20 19 c21 18 52 16 52 -4 0 -5 5 -10 12 -10 7 0 6 6 -4 18 -17 19 -33 126 -18
117 6 -4 10 1 10 9 0 19 -2 20 -18 4z"/>
<path d="M1483 2121 c1 -5 -7 -16 -17 -24 -18 -13 -17 -14 12 -9 23 3 32 10
32 23 0 11 -7 19 -15 19 -8 0 -14 -4 -12 -9z"/>
<path d="M2098 2046 c-26 -32 -26 -33 -6 -32 15 1 24 10 29 30 5 17 7 31 6 33
-2 1 -15 -13 -29 -31z"/>
<path d="M2475 2064 c9 -10 14 -25 12 -35 -3 -12 0 -19 9 -19 17 0 17 -1 3 39
-6 17 -18 31 -26 31 -12 0 -12 -3 2 -16z"/>
<path d="M1935 2041 c-19 -8 -19 -8 3 -15 13 -4 26 -5 29 -2 4 3 0 6 -8 6 -11
0 -11 2 1 10 18 11 3 12 -25 1z"/>
<path d="M1876 2015 c-4 -13 -2 -14 14 -5 23 13 26 20 6 20 -8 0 -16 -7 -20
-15z"/>
<path d="M1012 1930 c-28 -44 -50 -82 -49 -84 1 -1 -22 -29 -50 -60 -44 -48
-66 -86 -49 -86 2 0 34 39 70 88 36 48 75 98 86 112 11 14 20 30 20 36 0 6 6
17 14 24 8 6 12 19 9 27 -5 12 -3 14 7 8 9 -5 11 -4 6 3 -4 7 -8 12 -10 12 -1
0 -25 -36 -54 -80z"/>
<path d="M2044 1989 c-3 -6 -1 -15 5 -20 6 -5 9 -6 6 -3 -3 4 0 13 6 21 8 9 8
13 1 13 -6 0 -14 -5 -18 -11z"/>
<path d="M2420 1977 c0 -30 28 -93 37 -83 3 3 0 12 -7 21 -7 8 -10 24 -7 34 3
11 -1 28 -9 38 -12 17 -13 16 -14 -10z"/>
<path d="M2482 1975 c-6 -14 -8 -25 -3 -25 8 0 23 41 17 47 -1 2 -8 -8 -14
-22z"/>
<path d="M1270 1975 c0 -8 7 -15 16 -15 14 0 14 3 4 15 -7 8 -14 15 -16 15 -2
0 -4 -7 -4 -15z"/>
<path d="M1410 1977 c-67 -16 -111 -31 -115 -37 -3 -4 19 -2 48 5 29 7 83 15
121 19 37 4 65 11 61 14 -9 9 -76 9 -115 -1z"/>
<path d="M1120 1945 c14 -16 26 -32 28 -34 1 -2 4 -2 7 1 3 2 -10 18 -28 34
l-32 29 25 -30z"/>
<path d="M2015 1959 c-4 -6 -13 -8 -21 -5 -9 3 -16 -4 -20 -22 -9 -38 -23 -52
-50 -52 -17 0 -28 8 -37 28 -15 34 -29 45 -39 29 -13 -21 -9 -38 10 -35 12 2
16 -3 15 -17 -1 -11 4 -23 10 -27 8 -5 6 -8 -5 -8 -10 0 -18 9 -20 23 -2 13
-6 17 -10 11 -4 -6 0 -20 8 -32 l15 -22 42 21 c23 12 55 32 70 45 16 13 38 24
49 24 11 0 18 5 15 13 -2 6 -9 11 -15 10 -6 -2 -9 4 -6 12 7 17 -2 20 -11 4z"/>
<path d="M2589 1942 c-8 -19 -19 -30 -26 -28 -7 3 -13 -1 -13 -9 0 -8 4 -15 8
-15 12 0 49 29 37 30 -5 0 -4 4 3 9 8 5 12 17 9 27 -4 15 -7 13 -18 -14z"/>
<path d="M2100 1929 c0 -25 -4 -30 -22 -29 -40 4 -46 1 -68 -30 -16 -22 -17
-28 -6 -24 9 3 16 9 16 13 0 11 47 31 70 31 16 0 20 7 20 35 0 19 -2 35 -5 35
-3 0 -5 -14 -5 -31z"/>
<path d="M1072 1937 c-9 -10 -10 -17 -2 -22 7 -4 6 -13 -2 -28 -10 -19 -9 -20
4 -9 13 10 17 10 20 0 3 -7 7 -8 10 -3 3 6 0 25 -6 44 -10 28 -14 31 -24 18z"/>
<path d="M2336 1925 c3 -11 7 -25 7 -32 0 -7 3 -10 7 -8 4 2 21 0 38 -5 20 -5
34 -5 38 1 3 5 2 8 -3 7 -23 -6 -71 13 -82 34 -8 16 -10 17 -5 3z"/>
<path d="M776 1829 c-86 -101 -108 -144 -40 -78 41 39 144 163 144 173 0 20
-27 -5 -104 -95z"/>
<path d="M2784 1898 c-16 -18 -22 -27 -13 -20 9 6 18 10 20 8 2 -3 9 6 16 20
14 31 13 30 -23 -8z"/>
<path d="M1036 1893 c-4 -9 -3 -20 2 -25 6 -6 11 1 14 16 6 29 -6 35 -16 9z"/>
<path d="M2590 1875 c-18 -19 -30 -38 -26 -42 4 -4 11 -1 16 7 5 8 13 15 17
16 4 0 15 3 23 7 43 17 89 24 98 15 6 -6 15 -7 21 -4 15 10 14 29 -1 23 -7 -2
-21 0 -30 4 -10 5 -27 5 -42 -1 -17 -6 -26 -6 -26 0 0 18 -16 10 -50 -25z"/>
<path d="M1800 1868 c0 -25 -7 -44 -21 -57 -21 -19 -21 -19 25 -3 45 16 58 40
20 34 -12 -2 -15 0 -7 5 8 6 8 14 -2 33 -14 25 -14 25 -15 -12z"/>
<path d="M1335 1880 c-25 -11 1 -11 35 0 20 6 21 8 5 8 -11 0 -29 -3 -40 -8z"/>
<path d="M2240 1862 c0 -5 17 -22 38 -39 23 -19 51 -58 73 -104 48 -96 53
-121 34 -165 -14 -34 -14 -36 2 -23 10 7 8 2 -5 -12 -15 -17 -20 -32 -16 -45
6 -16 5 -17 -7 -7 -10 11 -18 8 -40 -13 -15 -14 -29 -25 -31 -24 -1 1 -16 -3
-31 -9 -16 -6 -40 -11 -55 -12 -15 0 -21 -3 -14 -6 18 -7 4 -23 -20 -23 -15 0
-19 5 -15 19 3 12 -3 27 -14 37 -10 9 -19 28 -19 41 0 32 -45 138 -82 190 -32
47 -31 50 11 28 28 -14 91 -84 91 -101 1 -13 30 -49 30 -37 0 6 -18 38 -40 70
-41 61 -105 113 -145 118 -13 1 -44 16 -69 34 -47 31 -47 31 -94 16 -33 -11
-37 -14 -15 -11 127 20 303 -202 303 -381 l0 -46 56 6 c46 5 64 12 93 39 26
24 29 25 12 6 -33 -37 -19 -35 64 10 65 36 71 41 79 82 18 85 -29 247 -92 313
-30 32 -82 63 -82 49z"/>
<path d="M1002 1840 c-18 -29 -15 -36 8 -15 20 18 26 35 12 35 -4 0 -13 -9
-20 -20z"/>
<path d="M1059 1833 c0 -12 -2 -13 -6 -5 -3 9 -17 0 -40 -25 -19 -21 -32 -30
-29 -20 10 32 -20 18 -54 -25 -51 -66 -57 -75 -32 -54 12 11 32 35 44 54 28
45 41 23 16 -28 -31 -61 -39 -65 -106 -46 -32 9 -85 16 -118 16 -33 0 -65 5
-72 12 -9 9 -15 8 -24 -4 -7 -9 -38 -26 -68 -39 -30 -13 -73 -34 -95 -48 -22
-14 -46 -26 -54 -26 -13 0 -43 -89 -33 -99 2 -3 2 -12 -2 -21 -5 -13 -10 -14
-28 -4 -30 16 -100 17 -105 2 -5 -15 32 -25 94 -27 38 -1 52 -7 79 -35 28 -27
39 -32 62 -27 17 4 22 3 14 -2 -11 -7 -10 -10 3 -16 23 -8 27 -8 20 4 -8 14 1
13 33 -4 43 -22 72 -28 72 -17 0 6 -8 11 -19 11 -10 0 -24 6 -30 14 -15 18
-105 48 -125 40 -9 -3 -21 4 -31 19 -13 21 -14 33 -6 63 8 28 7 40 -1 46 -7 4
-9 10 -5 14 3 4 12 2 19 -3 16 -13 72 -22 203 -31 55 -4 111 -14 124 -21 14
-8 63 -15 112 -16 48 -2 112 -6 142 -10 49 -6 59 -4 101 22 l47 30 92 -32
c143 -50 137 -49 137 -28 0 38 48 120 81 141 160 98 375 -71 406 -319 l8 -62
17 37 c15 31 15 36 3 36 -10 0 -15 10 -15 33 0 17 -7 54 -15 81 l-15 50 31
-30 c31 -28 31 -28 -5 21 -75 101 -88 116 -139 150 -28 19 -64 35 -79 35 -15
0 -30 5 -33 10 -4 6 -15 8 -26 5 -10 -4 -19 -2 -19 3 0 15 109 69 176 88 l61
17 54 -40 c102 -76 160 -161 161 -233 0 -28 4 -47 9 -44 5 3 9 -1 10 -8 0 -7
2 -21 4 -31 2 -10 -6 -38 -17 -63 -25 -58 -18 -66 17 -19 26 33 27 40 22 101
-12 129 -111 280 -213 326 -42 18 -52 19 -113 8 -36 -7 -71 -16 -77 -21 -5 -4
-21 -5 -34 -2 -16 4 -21 3 -16 -5 4 -7 0 -15 -11 -19 -10 -4 -40 -21 -68 -39
-27 -19 -74 -39 -102 -47 -50 -12 -52 -14 -36 -30 12 -11 13 -17 5 -17 -7 0
-18 -13 -23 -29 -6 -16 -20 -32 -32 -35 -39 -10 -103 -6 -146 9 -22 8 -41 11
-41 7 0 -4 -6 0 -13 8 -7 9 -28 27 -47 40 -19 13 -40 30 -47 36 -7 6 -42 20
-78 29 -64 18 -66 19 -47 34 10 9 32 40 47 69 27 49 52 73 38 35 -4 -12 5 -7
25 12 18 16 28 31 22 33 -6 2 -8 8 -4 13 3 5 0 9 -5 9 -6 0 -11 -8 -12 -17z
m-325 -182 c9 -8 19 -11 23 -7 3 3 1 6 -6 6 -7 0 -9 5 -6 10 4 6 28 10 55 8
26 -2 46 -6 43 -10 -2 -5 -1 -8 4 -8 37 -1 137 -21 142 -28 9 -14 88 -52 108
-52 24 -1 57 -26 44 -34 -5 -4 -31 -2 -58 4 -26 6 -95 11 -152 11 -84 -1 -117
4 -175 23 -39 13 -97 26 -129 28 -38 3 -64 11 -75 23 -18 19 -25 19 138 -1 33
-4 41 -3 30 5 -8 6 -34 11 -57 11 -40 0 -52 8 -36 23 11 12 89 2 107 -12z
m-209 -40 c-5 -9 66 -21 121 -21 18 0 66 -12 106 -27 40 -14 102 -28 138 -30
96 -6 100 -7 100 -14 0 -4 13 -10 30 -14 52 -11 47 -27 -6 -20 -81 12 -194 32
-298 54 -58 12 -104 17 -110 12 -6 -5 -30 -3 -56 5 -25 7 -58 16 -73 19 -24 5
-27 8 -17 20 7 8 23 15 37 15 16 0 22 4 17 12 -4 7 -3 8 5 4 6 -4 9 -11 6 -15z
m543 -92 c29 -23 31 -23 -38 -3 -11 3 -18 10 -15 15 9 14 25 11 53 -12z"/>
<path d="M780 1594 c0 -10 62 -34 89 -34 41 0 66 10 50 20 -7 5 -23 3 -35 -2
-18 -9 -34 -7 -64 5 -22 8 -40 14 -40 11z"/>
<path d="M1911 1831 c-14 -11 -20 -21 -13 -25 17 -10 41 4 39 25 -1 10 -1 19
-2 19 0 0 -11 -9 -24 -19z"/>
<path d="M2680 1833 c0 -7 21 -22 48 -34 26 -12 56 -26 67 -32 18 -9 19 -9 6
6 -7 10 -21 17 -30 17 -14 0 -14 2 -1 10 11 7 7 10 -18 10 -19 0 -31 4 -27 10
4 6 -1 7 -10 3 -10 -3 -21 0 -26 8 -6 10 -9 10 -9 2z"/>
<path d="M1525 1804 c-38 -7 -110 -26 -158 -40 -73 -23 -86 -30 -75 -41 11
-11 22 -9 64 7 57 21 180 45 294 57 41 4 63 9 48 11 -16 2 -28 8 -28 13 0 13
-61 10 -145 -7z"/>
<path d="M2196 1801 c17 -10 43 -34 57 -52 29 -37 37 -33 11 6 -16 24 -73 65
-90 65 -5 0 5 -9 22 -19z"/>
<path d="M2536 1780 c17 -19 34 -42 37 -50 5 -13 6 -13 6 1 1 17 -21 44 -54
69 -11 8 -6 -1 11 -20z"/>
<path d="M2561 1807 c21 -15 59 -37 59 -33 0 11 -33 36 -47 36 -9 0 -14 -1
-12 -3z"/>
<path d="M2635 1800 c28 -12 37 -12 30 0 -3 6 -16 10 -28 9 -21 0 -21 -1 -2
-9z"/>
<path d="M2694 1778 c-5 -8 -2 -9 10 -5 11 5 26 -2 42 -18 20 -20 24 -21 22
-7 -2 9 -16 23 -32 30 -35 15 -33 15 -42 0z"/>
<path d="M1648 1763 c12 -2 32 -2 45 0 12 2 2 4 -23 4 -25 0 -35 -2 -22 -4z"/>
<path d="M1481 1745 c-79 -18 -164 -45 -157 -52 2 -3 31 4 63 15 32 11 92 25
133 32 107 17 109 18 65 18 -22 0 -69 -6 -104 -13z"/>
<path d="M1230 1710 l-35 -19 42 -1 c44 0 61 11 40 28 -8 7 -22 5 -47 -8z"/>
<path d="M1470 1713 c-30 -8 -59 -19 -64 -24 -6 -5 -24 -10 -40 -10 -25 -1
-27 -3 -8 -6 31 -6 164 24 188 42 19 14 18 14 -1 14 -11 -1 -45 -7 -75 -16z"/>
<path d="M1892 1675 c20 -14 48 -44 62 -67 28 -47 35 -45 10 3 -19 37 -73 88
-94 89 -8 0 2 -11 22 -25z"/>
<path d="M2690 1683 c0 -5 5 -15 10 -23 8 -12 10 -11 10 8 0 12 -4 22 -10 22
-5 0 -10 -3 -10 -7z"/>
<path d="M2292 1638 c-1 -25 -5 -55 -8 -65 -5 -17 -5 -17 6 0 6 9 9 39 7 65
l-3 47 -2 -47z"/>
<path d="M1253 1603 c26 -2 68 -2 95 0 26 2 4 3 -48 3 -52 0 -74 -1 -47 -3z"/>
<path d="M1574 1525 c-13 -32 25 -70 47 -48 6 6 2 9 -13 9 -17 -1 -24 5 -26
22 -4 25 25 32 34 7 4 -8 10 -15 15 -15 6 0 5 9 -1 20 -13 23 -48 27 -56 5z"/>
<path d="M437 1476 c6 -27 46 -38 148 -41 70 -1 101 -10 109 -30 6 -17 26 -20
26 -5 0 26 -51 58 -103 64 -30 4 -76 14 -102 22 -70 20 -83 19 -78 -10z"/>
<path d="M727 1453 c-14 -13 -6 -20 36 -32 23 -7 54 -24 68 -37 20 -19 49 -28
145 -44 202 -34 226 -39 319 -65 117 -33 119 -33 123 -11 2 10 0 16 -6 12 -6
-3 -22 -2 -36 4 -15 5 -40 11 -56 12 -16 1 -32 8 -35 16 -5 13 7 12 53 -5 6
-3 12 0 12 6 0 7 -7 14 -16 18 -13 5 -13 8 -2 15 9 7 4 8 -16 5 -28 -5 -222
36 -257 53 -8 4 -58 13 -110 20 -52 6 -120 18 -151 26 -67 16 -63 16 -71 7z
m229 -74 c22 -10 45 -19 52 -19 6 0 13 -4 16 -9 8 -13 -146 27 -161 42 -12 12
-9 13 19 9 18 -2 51 -12 74 -23z"/>
<path d="M1100 1455 c0 -12 126 -64 170 -70 l45 -5 -45 15 c-25 8 -53 15 -62
15 -10 0 -18 5 -18 10 0 6 -10 14 -22 19 -46 17 -68 22 -68 16z"/>
<path d="M1400 1440 c0 -29 33 -79 137 -207 20 -24 50 -34 55 -18 2 6 -7 11
-19 13 -13 2 -23 7 -23 11 0 4 -20 28 -45 53 -50 51 -55 65 -24 64 32 -1 51
33 36 63 -18 37 -43 49 -62 30 -13 -13 -12 -15 12 -14 21 0 30 -6 37 -28 7
-19 6 -31 -1 -38 -17 -17 -52 -1 -59 27 -4 15 -12 23 -19 20 -8 -3 -11 2 -8
14 3 10 0 21 -6 24 -7 4 -11 -1 -11 -14z"/>
<path d="M2410 1419 c-7 -15 -20 -35 -31 -45 -10 -9 -19 -22 -19 -28 0 -5 -19
-30 -42 -53 -23 -24 -37 -43 -30 -43 16 0 92 69 92 84 0 6 12 22 25 35 14 12
22 27 19 32 -7 11 -1 11 28 0 48 -19 63 -24 71 -22 5 1 6 -3 2 -9 -3 -5 -13
-10 -21 -10 -8 0 -14 -5 -14 -11 0 -5 -4 -8 -9 -5 -4 3 -25 -4 -47 -14 -21
-11 -34 -20 -30 -20 5 0 -26 -35 -68 -77 -42 -43 -85 -93 -96 -110 -11 -18
-23 -33 -26 -33 -4 0 -2 6 3 13 18 22 22 85 8 114 -17 33 -52 73 -65 73 -18 0
-22 -22 -6 -38 16 -16 17 -16 10 3 -7 18 -6 18 9 6 10 -7 17 -19 16 -25 -3
-27 2 -47 11 -41 10 6 14 -13 10 -50 -3 -30 -106 -105 -144 -105 -8 0 -16 -6
-19 -14 -3 -7 -19 -18 -36 -24 -26 -9 -31 -9 -31 5 0 15 -2 14 -13 -2 -11 -14
-16 -15 -22 -5 -5 8 -1 18 11 26 10 8 33 27 51 44 30 28 31 30 13 40 -27 14
-38 12 -17 -4 15 -12 16 -14 2 -20 -9 -3 -18 1 -22 9 -3 9 -15 21 -27 27 -17
9 -16 6 6 -19 l28 -29 -38 -37 c-33 -32 -41 -36 -51 -24 -6 8 -8 23 -4 33 6
16 4 17 -9 7 -8 -7 -19 -10 -24 -5 -5 4 4 -7 19 -24 16 -18 25 -34 20 -37 -5
-3 -17 3 -27 14 -10 12 -20 18 -23 15 -4 -3 2 -15 12 -26 18 -20 18 -21 -8
-48 -22 -21 -27 -23 -27 -9 0 9 -4 17 -10 17 -5 0 -10 7 -10 15 0 8 7 15 15
15 8 0 15 -4 15 -10 0 -5 7 -10 16 -10 14 0 14 3 4 15 -15 18 -41 20 -57 4
-15 -15 -5 -47 19 -60 21 -11 58 -3 58 13 0 5 6 8 14 5 7 -3 26 1 41 9 15 8
36 14 46 14 11 0 22 7 25 15 4 8 11 15 18 15 6 0 22 6 36 14 103 56 123 66
127 63 2 -2 -27 -30 -64 -62 -98 -83 -97 -81 -227 -214 -66 -66 -123 -121
-128 -121 -27 0 5 45 97 140 58 59 105 114 105 121 0 8 -57 -43 -127 -113
-100 -101 -125 -130 -115 -140 6 -6 12 -24 12 -39 0 -21 -10 -34 -41 -56 -23
-15 -49 -35 -59 -44 -33 -31 -104 -41 -191 -28 -72 11 -80 15 -86 38 -3 13 -1
37 5 53 8 22 8 30 -1 33 -11 3 -103 28 -302 80 -43 11 -63 12 -79 4 -11 -6
-91 -80 -176 -164 -85 -85 -168 -158 -183 -164 -16 -6 -45 -11 -66 -11 -37 0
-37 0 -33 -35 6 -48 -21 -80 -52 -63 -11 7 -59 22 -106 33 l-85 22 0 55 c0 52
-1 56 -29 66 -22 9 -27 16 -23 32 3 11 0 20 -6 20 -7 0 42 52 108 115 72 68
113 114 103 115 -9 0 -62 -34 -117 -75 -84 -62 -102 -80 -112 -113 -14 -48 -8
-197 8 -213 13 -13 227 -76 299 -88 25 -5 61 -3 89 4 42 11 66 31 209 172 88
88 169 163 179 167 10 3 120 -21 245 -54 256 -69 314 -75 390 -40 36 17 138
113 442 420 l395 398 56 5 c76 7 131 25 165 53 l29 24 -30 -7 c-63 -16 -143
-7 -205 24 l-59 29 -11 -27z m-1310 -738 c43 -15 54 -22 52 -37 -4 -16 -2 -16
15 3 l18 22 74 -25 c41 -13 76 -25 77 -27 9 -11 12 -45 5 -56 -7 -11 -18 -10
-64 3 -30 9 -69 16 -85 16 -18 0 -32 6 -36 16 -4 9 -9 15 -12 12 -2 -3 -30 1
-62 8 -86 20 -114 11 -193 -63 -38 -36 -66 -70 -62 -76 3 -5 2 -7 -4 -4 -5 3
-35 -19 -66 -51 -31 -31 -62 -63 -69 -70 -7 -7 -21 -22 -30 -32 -22 -24 -95
-47 -108 -34 -6 6 -7 24 -4 41 5 26 12 32 44 37 21 3 46 13 54 22 15 14 17 14
22 -1 5 -13 8 -14 15 -3 4 7 77 82 161 165 168 168 162 165 258 134z m-805
-75 c-22 -19 -42 -33 -44 -30 -6 6 61 63 74 64 5 0 -8 -15 -30 -34z m-35 -208
c-1 -28 -2 -30 -11 -15 -6 10 -8 25 -5 33 9 24 16 16 16 -18z"/>
<path d="M2350 1404 c-19 -13 -57 -31 -85 -40 -60 -20 -84 -39 -40 -32 17 3
38 9 48 13 33 14 17 -15 -20 -35 -26 -14 -30 -19 -13 -14 47 12 95 45 124 85
15 22 27 42 25 44 -2 1 -20 -8 -39 -21z"/>
<path d="M1368 1397 c-10 -14 -18 -30 -18 -34 0 -9 40 -37 45 -31 1 2 0 23 -4
48 l-6 44 -17 -27z"/>
<path d="M1710 1388 c-27 -29 -25 -50 6 -87 29 -35 54 -39 77 -13 22 24 22 64
0 91 -26 31 -59 34 -83 9z m72 -29 c26 -34 17 -69 -17 -69 -41 0 -70 61 -43
88 18 18 38 11 60 -19z"/>
<path d="M639 1381 c14 -10 22 -25 19 -33 -4 -10 3 -14 28 -15 31 -1 66 -14
179 -68 37 -18 93 -24 97 -10 2 6 -12 11 -30 13 -18 2 -36 10 -39 18 -3 8 -15
14 -28 14 -29 0 -88 21 -97 34 -4 6 -21 11 -38 12 -19 1 -43 12 -59 28 -15 14
-34 26 -42 26 -9 0 -5 -7 10 -19z"/>
<path d="M395 1380 c3 -5 -3 -10 -14 -10 -11 0 -23 -4 -26 -10 -4 -6 6 -10 24
-10 77 0 322 -70 510 -146 137 -55 157 -61 146 -44 -3 6 -1 10 5 10 6 0 10 -6
9 -12 -5 -46 55 -89 146 -104 47 -8 95 -31 112 -53 7 -9 12 -11 13 -4 0 6 -7
19 -16 27 -14 15 -8 16 68 15 46 0 75 -4 65 -7 -30 -12 -102 -109 -116 -157
-16 -53 -9 -121 13 -143 9 -9 32 -16 53 -15 42 0 134 32 161 55 9 8 40 25 67
37 28 12 68 31 90 41 22 11 57 26 79 35 33 13 37 17 26 30 -11 13 -15 14 -29
2 -9 -8 -22 -12 -30 -9 -8 3 -11 0 -7 -7 7 -10 -8 -15 -41 -14 -7 1 -10 -3 -7
-8 3 -5 -2 -9 -10 -9 -9 0 -16 -5 -16 -11 0 -6 -7 -8 -16 -5 -9 4 -23 1 -31
-6 -21 -17 -53 -20 -54 -5 -1 6 -5 1 -10 -13 -5 -15 -6 10 -2 65 3 50 7 93 10
97 2 5 -3 20 -12 35 l-16 28 -142 -1 -142 -2 135 8 c74 4 144 11 154 15 15 6
17 5 11 -5 -5 -9 -4 -11 4 -6 6 4 9 12 6 17 -8 12 2 11 26 -1 14 -8 30 -6 63
10 25 11 49 20 55 20 5 0 36 13 68 29 142 72 250 116 317 129 39 8 63 32 31
32 -9 0 -13 5 -10 10 3 6 19 10 35 10 16 0 32 5 35 10 4 6 -12 10 -39 10 -39
0 -46 -3 -46 -19 0 -18 -15 -35 -30 -36 -8 0 -153 -56 -174 -67 -10 -5 -28
-11 -40 -14 -18 -3 -94 -36 -148 -65 -10 -5 -25 -9 -33 -9 -8 0 -15 -3 -15 -7
0 -9 -48 -33 -64 -33 -6 0 4 10 22 21 17 12 32 25 32 29 0 5 12 22 26 39 25
30 25 31 5 31 -11 0 -30 -14 -43 -30 -27 -37 -70 -50 -163 -50 -69 0 -69 0
-45 17 14 10 28 17 33 15 10 -3 9 16 -2 22 -4 3 -16 -3 -26 -14 -33 -36 -145
-18 -225 36 -19 13 -43 24 -52 24 -10 0 -18 4 -18 10 0 5 -16 2 -35 -7 -19 -9
-35 -20 -35 -25 0 -18 -31 -6 -41 16 -8 17 -8 29 1 46 10 19 9 21 -7 18 -31
-6 -29 -54 4 -84 20 -20 23 -25 9 -20 -11 4 -40 11 -65 17 -25 5 -93 27 -151
48 -127 47 -177 63 -297 91 -62 15 -93 27 -93 36 0 8 -9 14 -21 14 -11 0 -17
-4 -14 -10z m719 -195 c-10 -8 -14 -15 -7 -15 7 0 21 10 32 21 19 21 21 21 47
4 27 -17 23 -30 -11 -37 -18 -3 -17 -5 10 -24 17 -12 46 -24 65 -28 l35 -6
-37 16 c-38 16 -52 44 -23 44 9 0 32 -7 53 -16 54 -22 240 -39 291 -26 53 13
52 6 -2 -18 -53 -23 -199 -35 -285 -22 -51 7 -65 6 -69 -5 -8 -21 -22 -15 -16
7 4 16 0 20 -22 20 -28 0 -85 28 -85 42 0 14 43 8 64 -9 l21 -17 -20 22 c-13
13 -34 23 -58 24 -35 3 -54 18 -21 18 8 0 22 7 31 15 8 9 18 13 21 10 3 -3 -3
-12 -14 -20z m414 -162 c10 -20 5 -43 -9 -43 -6 0 -9 8 -7 18 1 9 -1 23 -5 30
-5 6 -4 12 2 12 6 0 14 -8 19 -17z m-38 0 c0 -5 -4 -15 -10 -23 -11 -18 -25
-7 -17 15 6 15 27 21 27 8z m-70 -52 c-12 -24 -30 -36 -30 -22 0 6 5 11 10 11
6 0 9 3 9 8 -3 15 1 22 11 22 7 0 7 -6 0 -19z m128 -10 c-1 -16 -5 -29 -8 -29
-20 2 -29 -5 -34 -27 -4 -14 -11 -25 -16 -25 -15 0 -12 26 5 40 8 7 15 19 15
27 0 9 6 13 15 9 10 -4 15 1 15 14 0 11 2 20 5 20 3 0 4 -13 3 -29z m-58 2 c0
-6 -4 -15 -10 -18 -5 -3 -10 1 -10 10 0 9 -4 13 -10 10 -5 -3 -10 -2 -10 4 0
5 9 9 20 8 11 -1 20 -7 20 -14z m-60 -32 c0 -12 -20 -25 -27 -18 -7 7 6 27 18
27 5 0 9 -4 9 -9z m-40 -10 c0 -12 -29 -35 -36 -28 -7 6 17 36 29 37 4 0 7 -4
7 -9z m148 -27 c0 -18 -3 -22 -9 -13 -11 18 -11 39 0 39 5 0 9 -12 9 -26z
m-103 -6 c-9 -29 -23 -44 -32 -35 -8 9 17 57 29 57 5 0 6 -10 3 -22z m-45 -14
c0 -4 -10 -23 -22 -42 -14 -23 -23 -31 -26 -22 -3 8 0 16 7 18 6 2 11 12 11
21 0 10 3 21 7 24 8 9 23 9 23 1z m61 -27 c-8 -8 -11 -7 -11 4 0 20 13 34 18
19 3 -7 -1 -17 -7 -23z m73 7 c6 -15 -41 -84 -56 -84 -13 0 5 34 31 58 14 14
18 19 9 12 -15 -10 -18 -10 -18 2 0 29 24 38 34 12z m-83 -47 c-13 -13 -26 -3
-16 12 3 6 11 8 17 5 6 -4 6 -10 -1 -17z m-51 -4 c-1 -24 -60 -57 -60 -34 0 6
6 11 14 11 8 0 16 7 20 15 5 15 26 21 26 8z m21 -53 c6 0 7 -5 4 -10 -4 -6
-12 -4 -21 5 -9 9 -12 20 -7 27 5 10 8 8 11 -4 2 -10 8 -18 13 -18z"/>
<path d="M326 1332 c-3 -5 0 -14 7 -19 18 -14 90 -33 124 -33 16 0 34 -5 41
-12 8 -8 15 -9 22 -2 17 17 -9 31 -85 48 -39 8 -77 17 -86 21 -10 3 -20 2 -23
-3z"/>
<path d="M276 1281 c-16 -17 -13 -19 46 -39 35 -11 85 -30 111 -41 52 -22 112
-28 122 -11 4 6 -9 10 -32 10 -27 0 -51 9 -79 29 -22 16 -53 33 -69 37 -17 4
-42 13 -56 20 -23 12 -29 11 -43 -5z"/>
<path d="M1546 1291 c-3 -5 2 -8 11 -7 9 0 23 -10 30 -24 11 -22 13 -23 13 -4
0 33 -39 59 -54 35z"/>
<path d="M561 1286 c2 -2 18 -6 34 -10 22 -5 26 -4 15 4 -14 9 -59 15 -49 6z"/>
<path d="M546 1254 c-4 -11 -14 -15 -31 -12 -14 3 -25 2 -25 -3 0 -5 25 -8 56
-8 31 1 61 -4 67 -10 6 -6 26 -11 44 -11 19 0 50 -7 70 -15 19 -8 48 -15 64
-15 15 0 31 -4 34 -10 8 -12 45 -13 45 -1 0 12 -74 41 -104 41 -12 0 -31 9
-42 21 -14 16 -29 20 -64 18 -25 -1 -58 3 -73 9 -35 15 -34 15 -41 -4z"/>
<path d="M2235 1260 c-6 -10 15 -50 27 -50 10 0 10 22 2 44 -7 18 -20 21 -29
6z"/>
<path d="M194 1226 c-3 -7 2 -30 10 -50 8 -20 11 -36 6 -36 -6 0 -28 -16 -50
-36 l-40 -36 0 -104 c0 -88 3 -107 18 -122 16 -16 100 -41 268 -82 24 -6 36
-2 59 16 24 19 27 26 17 36 -9 9 -12 9 -12 -4 0 -23 -31 -31 -66 -17 -42 16
-174 49 -196 49 -28 0 -48 59 -29 89 7 11 13 12 23 4 13 -11 166 -57 223 -67
17 -3 40 -17 53 -31 24 -28 42 -26 42 5 0 17 -30 30 -80 35 -9 0 -20 4 -25 7
-6 3 -55 18 -110 33 -55 15 -107 31 -115 35 -10 6 -21 3 -32 -7 -10 -9 -18
-11 -18 -5 0 6 5 14 11 17 7 5 5 13 -5 24 -22 24 -10 32 22 16 47 -23 225 -75
287 -84 33 -5 89 -21 124 -36 35 -15 87 -29 117 -32 38 -4 55 -11 59 -23 8
-25 85 -60 147 -66 40 -4 70 0 111 15 38 13 59 16 63 9 4 -7 36 -9 88 -5 71 5
83 9 103 32 27 30 29 69 8 116 -8 19 -14 30 -15 26 0 -5 -12 0 -27 10 -42 28
-93 43 -157 44 -60 2 -85 -8 -48 -18 12 -3 22 -12 22 -20 0 -9 8 -13 22 -11
11 2 23 -3 26 -11 7 -20 -38 -4 -70 26 -18 18 -32 23 -45 18 -10 -4 -38 -8
-63 -10 -25 -2 -58 -8 -73 -14 -35 -14 -50 -14 -42 -1 5 9 -123 80 -145 80 -5
0 -19 9 -30 20 -10 10 -52 29 -92 41 -40 12 -102 39 -137 60 -36 22 -72 39
-81 39 -9 0 -33 9 -55 20 -46 24 -64 25 -71 6z m78 -40 c19 -10 30 -11 34 -4
4 6 9 6 13 1 9 -13 103 -73 115 -73 12 0 104 -34 151 -56 17 -8 68 -30 115
-49 47 -19 78 -34 70 -34 -26 -1 -139 37 -176 58 -19 11 -72 30 -117 41 -45
12 -93 29 -107 38 -29 20 -74 18 -66 -4 3 -8 1 -14 -4 -14 -6 0 -10 4 -10 10
0 5 -12 16 -27 25 l-28 16 34 -7 c23 -4 31 -3 27 5 -4 6 -12 9 -17 6 -5 -4 -9
-2 -9 4 0 5 -10 11 -22 13 -24 3 -39 38 -16 38 7 0 25 -7 40 -14z m2 -84 c25
-22 129 -49 209 -55 32 -2 63 -9 70 -16 10 -11 8 -12 -8 -8 -64 17 -77 18 -73
5 2 -6 33 -19 69 -28 35 -9 91 -26 124 -39 40 -15 70 -20 92 -16 39 7 41 2 9
-36 -13 -15 -26 -33 -28 -40 -5 -15 -143 13 -195 40 -21 10 -67 22 -103 26
-36 4 -98 21 -138 37 -40 16 -78 28 -85 27 -22 -4 -67 20 -67 36 0 19 14 19
33 0 13 -13 16 -12 22 2 5 14 8 15 14 4 5 -8 14 -10 21 -6 8 5 11 4 7 -2 -4
-6 4 -10 19 -10 13 0 32 -7 42 -16 9 -8 33 -19 52 -25 19 -6 57 -18 84 -27 27
-8 60 -15 72 -15 13 0 26 -5 29 -11 4 -6 13 -8 21 -5 7 3 16 1 19 -4 5 -8 105
-41 122 -39 11 1 -69 37 -85 38 -7 1 -25 10 -40 20 -15 11 -61 27 -103 35 -42
9 -99 28 -128 42 -28 15 -68 30 -88 35 -21 4 -55 14 -76 21 l-37 14 24 14 c14
7 32 10 40 7 9 -4 16 -2 16 3 0 16 22 12 44 -8z m876 -134 c0 -4 -13 -8 -30
-8 -16 0 -30 4 -30 8 0 5 14 9 30 9 17 0 30 -4 30 -9z m-155 -8 c3 -5 -3 -10
-15 -10 -12 0 -18 5 -15 10 3 6 10 10 15 10 5 0 12 -4 15 -10z m205 0 c0 -13
-11 -13 -30 0 -12 8 -11 10 8 10 12 0 22 -4 22 -10z m-264 -15 c-22 -17 -46
-20 -46 -6 0 10 22 18 50 20 11 0 10 -4 -4 -14z m242 -13 c3 -9 -2 -13 -14
-10 -9 1 -19 9 -22 16 -3 9 2 13 14 10 9 -1 19 -9 22 -16z m-193 -1 c8 -14
-13 -24 -33 -16 -14 5 -14 7 -2 15 19 12 27 12 35 1z m85 -7 c0 -10 -27 -32
-43 -36 -24 -5 -21 13 5 27 26 15 38 18 38 9z m-170 -8 c0 -2 3 -11 6 -20 3
-9 1 -16 -6 -16 -6 0 -8 5 -5 10 3 6 -1 10 -9 10 -9 0 -16 5 -16 10 0 6 7 10
15 10 8 0 15 -2 15 -4z m244 -5 c3 -4 3 -11 0 -14 -8 -8 -34 3 -34 14 0 11 27
12 34 0z m116 0 c0 -5 -7 -12 -16 -15 -9 -4 -14 -13 -10 -21 3 -9 0 -15 -10
-15 -8 0 -13 4 -10 9 3 5 -1 12 -10 15 -22 8 -6 28 17 21 11 -4 19 -2 19 4 0
6 5 11 10 11 6 0 10 -4 10 -9z m-450 -21 c0 -5 -9 -10 -20 -10 -11 0 -20 5
-20 10 0 6 9 10 20 10 11 0 20 -4 20 -10z m33 -10 c5 -21 -7 -35 -22 -26 -10
7 -3 46 9 46 4 0 10 -9 13 -20z m117 10 c0 -5 -9 -10 -20 -10 -11 0 -20 5 -20
10 0 6 9 10 20 10 11 0 20 -4 20 -10z m220 -30 c0 -5 -7 -10 -15 -10 -8 0 -15
5 -15 10 0 6 7 10 15 10 8 0 15 -4 15 -10z m-230 -10 c-19 -13 -30 -13 -30 0
0 6 10 10 23 10 18 0 19 -2 7 -10z m50 0 c0 -5 -7 -10 -15 -10 -8 0 -15 5 -15
10 0 6 7 10 15 10 8 0 15 -4 15 -10z m84 -7 c6 -16 -8 -33 -28 -33 -6 0 -1 7
10 15 17 13 17 14 2 15 -21 0 -25 20 -4 20 8 0 17 -8 20 -17z m-289 -3 c3 -5
-3 -10 -14 -10 -12 0 -21 5 -21 10 0 6 6 10 14 10 8 0 18 -4 21 -10z m105 -10
c0 -5 -6 -10 -14 -10 -7 0 -28 -3 -45 -6 -21 -5 -31 -3 -31 6 0 7 8 10 20 7
11 -3 23 -1 26 4 7 12 44 11 44 -1z m140 0 c0 -5 -9 -10 -21 -10 -11 0 -17 5
-14 10 3 6 13 10 21 10 8 0 14 -4 14 -10z m170 0 c0 -5 -7 -10 -15 -10 -8 0
-15 5 -15 10 0 6 7 10 15 10 8 0 15 -4 15 -10z m-270 -30 c0 -5 -9 -10 -20
-10 -11 0 -20 5 -20 10 0 6 9 10 20 10 11 0 20 -4 20 -10z"/>
<path d="M1235 1230 c-4 -7 10 -9 37 -8 24 1 54 -1 68 -5 24 -8 24 -7 6 7 -22
18 -101 22 -111 6z"/>
<path d="M1423 1223 c-15 -5 -18 -43 -4 -43 5 0 14 7 21 15 14 17 3 35 -17 28z"/>
<path d="M1307 1188 c21 -7 40 -7 60 0 25 9 21 10 -32 10 -55 0 -57 -1 -28
-10z"/>
<path d="M1997 1155 c10 -13 22 -25 27 -25 5 0 -1 11 -14 25 -30 32 -36 32
-13 0z"/>
<path d="M532 1159 c2 -8 31 -24 64 -35 32 -12 95 -38 139 -58 44 -20 87 -36
96 -36 9 0 29 -6 45 -14 32 -16 111 -26 107 -13 -2 4 -3 13 -3 20 0 8 -17 21
-37 29 -21 9 -78 33 -128 53 -60 25 -115 40 -165 46 -41 4 -86 11 -99 15 -18
5 -23 4 -19 -7z m202 -51 c-5 -7 -2 -9 7 -6 8 3 23 2 34 -3 16 -6 14 -7 -10
-6 -16 0 -39 7 -50 14 -19 13 -19 13 3 13 15 0 21 -4 16 -12z"/>
<path d="M880 1150 c0 -5 -7 -6 -17 -3 -10 4 -14 2 -10 -5 4 -6 22 -13 40 -17
17 -4 41 -13 53 -20 11 -7 37 -18 58 -23 33 -9 37 -9 34 6 -2 9 -12 17 -24 17
-11 1 -30 11 -42 23 -15 15 -30 21 -42 17 -10 -3 -21 -1 -25 5 -8 13 -25 13
-25 0z"/>
<path d="M1885 1098 c-22 -12 -36 -30 -30 -37 3 -2 11 2 20 9 21 17 49 5 42
-20 -6 -25 5 -26 26 -2 22 24 22 33 0 25 -13 -5 -15 -2 -10 12 6 15 5 16 -7 6
-9 -7 -17 -8 -20 -2 -3 5 0 12 6 14 7 3 9 6 3 6 -5 0 -19 -5 -30 -11z"/>
<path d="M1257 984 c-9 -10 2 -24 19 -24 8 0 14 7 14 15 0 15 -21 21 -33 9z"/>
<path d="M1826 856 c-21 -19 -37 -39 -35 -45 3 -7 24 9 49 34 52 53 43 60 -14
11z"/>
<path d="M1717 804 c-11 -11 5 -34 23 -34 18 0 34 23 23 34 -4 3 -14 6 -23 6
-9 0 -19 -3 -23 -6z"/>
<path d="M674 775 c-8 -19 12 -36 33 -28 19 7 12 37 -10 41 -9 2 -20 -4 -23
-13z"/>
<path d="M1690 736 c-21 -8 -36 -21 -40 -34 -3 -13 -18 -31 -35 -42 -35 -23
-27 -27 13 -6 23 12 114 97 102 95 -3 0 -21 -6 -40 -13z"/>
<path d="M1533 699 c-17 -17 -4 -39 24 -39 20 0 24 4 21 22 -3 26 -28 34 -45
17z"/>
<path d="M1405 650 c28 -12 57 -12 50 0 -3 6 -21 10 -38 9 -27 0 -29 -2 -12
-9z"/>
<path d="M463 610 c-50 -20 -11 -70 55 -70 30 0 72 25 72 42 0 32 -76 48 -127
28z m77 -30 c0 -28 -2 -29 -32 -23 -18 3 -37 10 -43 15 -13 12 21 38 52 38 19
0 23 -5 23 -30z"/>
<path d="M729 513 l-34 -38 38 34 c20 19 37 36 37 38 0 8 -8 0 -41 -34z"/>
<path d="M356 455 c-19 -15 -19 -15 1 -15 11 0 23 7 27 15 7 19 -3 19 -28 0z"/>
<path d="M410 450 c-17 -13 -20 -20 -10 -20 9 0 23 9 33 20 21 25 9 25 -23 0z"/>
<path d="M445 431 c-6 -11 9 -23 19 -14 9 9 7 23 -3 23 -6 0 -12 -4 -16 -9z"/>
<path d="M1185 379 c-10 -15 3 -25 16 -12 7 7 7 13 1 17 -6 3 -14 1 -17 -5z"/>
</g>
</svg>
