<?xml version="1.0" encoding="UTF-8"?>
<!DOCTYPE svg PUBLIC "-//W3C//DTD SVG 1.1//EN" "http://www.w3.org/Graphics/SVG/1.1/DTD/svg11.dtd">
<svg xmlns="http://www.w3.org/2000/svg" version="1.1" width="96px" height="96px" style="shape-rendering:geometricPrecision; text-rendering:geometricPrecision; image-rendering:optimizeQuality; fill-rule:evenodd; clip-rule:evenodd" xmlns:xlink="http://www.w3.org/1999/xlink">
<g><path style="opacity:0.752" fill="#020604" d="M 17.5,7.5 C 36.1696,7.33339 54.8363,7.50005 73.5,8C 78.6682,8.83397 82.8349,11.334 86,15.5C 87.3255,21.5828 88.1589,27.7495 88.5,34C 87.2257,46.1734 87.2257,58.3401 88.5,70.5C 88.582,78.1844 85.2487,83.6844 78.5,87C 57.5,87.6667 36.5,87.6667 15.5,87C 10.7723,85.6044 8.27231,82.4377 8,77.5C 7.33333,57.5 7.33333,37.5 8,17.5C 9.3499,12.3193 12.5166,8.98594 17.5,7.5 Z"/></g>
<g><path style="opacity:1" fill="#33a571" d="M 18.5,9.5 C 36.1698,9.33339 53.8365,9.50006 71.5,10C 77.7037,10.8435 82.2037,14.0102 85,19.5C 85.6667,38.5 85.6667,57.5 85,76.5C 83.5,80.6667 80.6667,83.5 76.5,85C 56.8333,85.6667 37.1667,85.6667 17.5,85C 13.2579,83.7551 10.7579,80.9218 10,76.5C 9.78786,56.4975 10.1212,36.4975 11,16.5C 12.7424,13.2543 15.2424,10.921 18.5,9.5 Z"/></g>
<g><path style="opacity:1" fill="#161c1a" d="M 26.5,13.5 C 40.1826,13.5224 53.8493,14.0224 67.5,15C 73.3286,15.165 77.1619,17.9983 79,23.5C 79.6667,38.8333 79.6667,54.1667 79,69.5C 76.872,78.405 71.2053,82.405 62,81.5C 47.8444,80.766 33.6777,80.266 19.5,80C 16.1553,75.9589 14.8219,71.2922 15.5,66C 15.8724,60.6691 16.2057,55.3358 16.5,50C 15.3759,40.5165 14.8759,31.0165 15,21.5C 15.7845,19.714 16.9512,18.214 18.5,17C 21.3093,15.9066 23.976,14.7399 26.5,13.5 Z"/></g>
<g><path style="opacity:1" fill="#bde2e9" d="M 26.5,15.5 C 40.5144,15.5513 54.5144,16.0513 68.5,17C 71.5478,17.6064 74.0478,19.1064 76,21.5C 77.6207,37.4327 77.954,53.4327 77,69.5C 74.1722,77.4211 68.5055,80.7544 60,79.5C 46.5968,79.0042 33.2635,78.3375 20,77.5C 18.0254,73.9461 17.1921,70.1128 17.5,66C 17.8724,60.6691 18.2057,55.3358 18.5,50C 17.3759,40.5165 16.8759,31.0165 17,21.5C 19.6194,18.4798 22.7861,16.4798 26.5,15.5 Z"/></g>
<g><path style="opacity:1" fill="#101614" d="M 64.5,27.5 C 68.6488,28.1438 70.8155,30.4772 71,34.5C 64.2426,44.342 58.2426,54.6753 53,65.5C 51.1266,67.7089 48.96,69.5422 46.5,71C 44.3646,71.6347 42.3646,71.3014 40.5,70C 35.3063,64.8063 30.1396,59.6396 25,54.5C 22.7587,50.881 23.592,48.0477 27.5,46C 28.5,45.3333 29.5,45.3333 30.5,46C 34.1321,50.6337 38.1321,54.967 42.5,59C 43.5,59.6667 44.5,59.6667 45.5,59C 51.9703,48.5553 58.3036,38.0553 64.5,27.5 Z"/></g>
<g><path style="opacity:1" fill="#35aa74" d="M 65.5,29.5 C 66.8149,30.4756 68.1482,31.4756 69.5,32.5C 63.1602,42.5091 57.3269,52.8425 52,63.5C 49.867,67.3113 46.7003,69.1446 42.5,69C 36.6667,64.5 31.5,59.3333 27,53.5C 26.3333,51.8333 26.3333,50.1667 27,48.5C 28.1827,47.269 29.3493,47.269 30.5,48.5C 33.2735,52.7767 36.6068,56.61 40.5,60C 42.0444,61.1871 43.7111,61.5205 45.5,61C 48.0009,58.8613 50.1676,56.3613 52,53.5C 56.2587,45.3108 60.7587,37.3108 65.5,29.5 Z"/></g>
</svg>
