<?xml version="1.0" encoding="UTF-8"?>
<!DOCTYPE svg PUBLIC "-//W3C//DTD SVG 1.1//EN" "http://www.w3.org/Graphics/SVG/1.1/DTD/svg11.dtd">
<svg xmlns="http://www.w3.org/2000/svg" version="1.1" width="512px" height="512px" style="shape-rendering:geometricPrecision; text-rendering:geometricPrecision; image-rendering:optimizeQuality; fill-rule:evenodd; clip-rule:evenodd" xmlns:xlink="http://www.w3.org/1999/xlink">
<g><path style="opacity:0.935" fill="#000000" d="M 237.5,17.5 C 331.406,14.3544 401.906,53.0211 449,133.5C 461.997,158.658 469.831,185.324 472.5,213.5C 481.754,213.71 488.254,218.043 492,226.5C 493.62,242.099 493.953,257.766 493,273.5C 489.348,284.913 481.515,290.247 469.5,289.5C 457.707,352.634 445.207,415.634 432,478.5C 428.181,486.318 422.014,491.152 413.5,493C 308.167,493.667 202.833,493.667 97.5,493C 86.2483,490.081 79.415,482.914 77,471.5C 64.8428,410.881 53.0094,350.214 41.5,289.5C 29.4853,290.247 21.652,284.913 18,273.5C 17.047,257.766 17.3804,242.099 19,226.5C 22.7456,218.043 29.2456,213.71 38.5,213.5C 49.2805,130.229 92.6138,70.7292 168.5,35C 190.793,25.8438 213.793,20.0105 237.5,17.5 Z M 238.5,32.5 C 323.906,29.6083 388.74,64.2749 433,136.5C 446.292,160.543 454.459,186.209 457.5,213.5C 454.5,213.5 451.5,213.5 448.5,213.5C 437.013,136.019 395.013,82.5186 322.5,53C 251.384,29.9615 186.717,41.6282 128.5,88C 90.5869,121.321 68.5869,163.154 62.5,213.5C 59.5,213.5 56.5,213.5 53.5,213.5C 64.5622,137.971 104.229,83.4706 172.5,50C 193.789,41.0127 215.789,35.1794 238.5,32.5 Z M 240.5,56.5 C 317.385,54.1784 375.218,85.8451 414,151.5C 424.021,171.063 430.521,191.73 433.5,213.5C 314.833,213.5 196.167,213.5 77.5,213.5C 88.3144,147.204 123.981,99.7044 184.5,71C 202.628,63.559 221.295,58.7256 240.5,56.5 Z M 36.5,228.5 C 182.5,228.333 328.5,228.5 474.5,229C 476.333,229.5 477.5,230.667 478,232.5C 478.667,245.167 478.667,257.833 478,270.5C 477.5,272.333 476.333,273.5 474.5,274C 328.5,274.667 182.5,274.667 36.5,274C 34.6667,273.5 33.5,272.333 33,270.5C 32.3333,257.833 32.3333,245.167 33,232.5C 33.6897,230.65 34.8564,229.316 36.5,228.5 Z M 56.5,289.5 C 85.8333,289.5 115.167,289.5 144.5,289.5C 146.364,307.144 148.031,324.81 149.5,342.5C 121.833,342.5 94.1667,342.5 66.5,342.5C 63.4238,324.786 60.0905,307.119 56.5,289.5 Z M 159.5,289.5 C 189.167,289.5 218.833,289.5 248.5,289.5C 248.5,307.167 248.5,324.833 248.5,342.5C 220.5,342.5 192.5,342.5 164.5,342.5C 163.253,324.785 161.587,307.118 159.5,289.5 Z M 262.5,289.5 C 292.167,289.5 321.833,289.5 351.5,289.5C 349.413,307.118 347.747,324.785 346.5,342.5C 318.5,342.5 290.5,342.5 262.5,342.5C 262.5,324.833 262.5,307.167 262.5,289.5 Z M 366.5,289.5 C 395.833,289.5 425.167,289.5 454.5,289.5C 450.909,307.119 447.576,324.786 444.5,342.5C 416.833,342.5 389.167,342.5 361.5,342.5C 362.969,324.81 364.636,307.144 366.5,289.5 Z M 69.5,358.5 C 96.6616,357.502 123.995,357.169 151.5,357.5C 152.987,375.185 154.653,392.852 156.5,410.5C 131.158,410.833 105.825,410.5 80.5,409.5C 76.9394,392.355 73.2727,375.355 69.5,358.5 Z M 166.5,357.5 C 193.833,357.5 221.167,357.5 248.5,357.5C 248.5,375.167 248.5,392.833 248.5,410.5C 222.833,410.5 197.167,410.5 171.5,410.5C 169.893,392.828 168.227,375.161 166.5,357.5 Z M 262.5,357.5 C 289.833,357.5 317.167,357.5 344.5,357.5C 342.893,375.172 341.227,392.839 339.5,410.5C 313.833,410.5 288.167,410.5 262.5,410.5C 262.5,392.833 262.5,375.167 262.5,357.5 Z M 359.5,357.5 C 386.835,357.333 414.169,357.5 441.5,358C 437.705,375.308 434.038,392.641 430.5,410C 405.169,410.5 379.836,410.667 354.5,410.5C 356.365,392.854 358.031,375.187 359.5,357.5 Z M 83.5,425.5 C 108.5,425.5 133.5,425.5 158.5,425.5C 159.508,442.914 161.175,460.247 163.5,477.5C 142.174,478.666 120.841,478.833 99.5,478C 95.9421,476.108 93.4421,473.275 92,469.5C 88.9715,454.858 86.1381,440.191 83.5,425.5 Z M 173.5,425.5 C 198.5,425.5 223.5,425.5 248.5,425.5C 248.5,443.167 248.5,460.833 248.5,478.5C 225.167,478.5 201.833,478.5 178.5,478.5C 176.413,460.882 174.747,443.215 173.5,425.5 Z M 262.5,425.5 C 287.5,425.5 312.5,425.5 337.5,425.5C 336.253,443.215 334.587,460.882 332.5,478.5C 309.167,478.5 285.833,478.5 262.5,478.5C 262.5,460.833 262.5,443.167 262.5,425.5 Z M 352.5,425.5 C 377.5,425.5 402.5,425.5 427.5,425.5C 424.953,441.739 421.453,457.739 417,473.5C 415.457,475.378 413.624,476.878 411.5,478C 390.159,478.833 368.826,478.666 347.5,477.5C 349.825,460.247 351.492,442.914 352.5,425.5 Z"/></g>
</svg>
