<?xml version="1.0" encoding="UTF-8"?>
<!DOCTYPE svg PUBLIC "-//W3C//DTD SVG 1.1//EN" "http://www.w3.org/Graphics/SVG/1.1/DTD/svg11.dtd">
<svg xmlns="http://www.w3.org/2000/svg" version="1.1" width="512px" height="512px" style="shape-rendering:geometricPrecision; text-rendering:geometricPrecision; image-rendering:optimizeQuality; fill-rule:evenodd; clip-rule:evenodd" xmlns:xlink="http://www.w3.org/1999/xlink">
<g><path style="opacity:0.962" fill="#272626" d="M 62.5,3.5 C 70.5268,3.18249 77.5268,5.68249 83.5,11C 141.014,68.6803 198.68,126.18 256.5,183.5C 308.014,132.819 359.014,81.6528 409.5,30C 417.833,22.3333 426.167,14.6667 434.5,7C 443.324,2.18334 451.991,2.51668 460.5,8C 462.833,9.66667 465.167,11.3333 467.5,13C 478.667,25.5 490.5,37.3333 503,48.5C 510.174,56.8837 511.174,65.8837 506,75.5C 446.987,135.68 387.487,195.346 327.5,254.5C 386.902,314.068 446.068,373.734 505,433.5C 510.373,440.997 510.706,448.664 506,456.5C 491.719,470.904 477.552,485.404 463.5,500C 455.714,506.158 447.047,508.158 437.5,506C 433.835,504.503 430.502,502.503 427.5,500C 369.986,442.32 312.32,384.82 254.5,327.5C 203.319,377.847 152.653,428.681 102.5,480C 93.8333,488 85.1667,496 76.5,504C 67.6759,508.817 59.0092,508.483 50.5,503C 48.1667,501.333 45.8333,499.667 43.5,498C 32.3333,485.5 20.5,473.667 8,462.5C 0.826207,454.116 -0.173793,445.116 5,435.5C 64.0132,375.32 123.513,315.654 183.5,256.5C 126.819,198.986 69.6528,141.986 12,85.5C 8.50128,81.1731 5.50128,76.5064 3,71.5C 0.72483,63.5991 2.3915,56.5991 8,50.5C 19.8683,40.299 30.7016,29.1323 40.5,17C 46.8047,10.6876 54.1381,6.18763 62.5,3.5 Z M 64.5,14.5 C 65.391,15.1098 66.391,15.4431 67.5,15.5C 65.8185,17.0075 63.8185,18.0075 61.5,18.5C 62.5,17.1667 63.5,15.8333 64.5,14.5 Z M 446.5,14.5 C 448.153,14.6596 449.486,15.3263 450.5,16.5C 446.167,19.669 441.5,22.3357 436.5,24.5C 439.527,20.8062 442.86,17.4729 446.5,14.5 Z M 459.5,23.5 C 460.167,23.5 460.5,23.8333 460.5,24.5C 459.486,25.6737 458.153,26.3404 456.5,26.5C 457.306,25.2719 458.306,24.2719 459.5,23.5 Z M 84.5,31.5 C 85.1667,31.5 85.5,31.8333 85.5,32.5C 83.7837,34.0248 81.7837,35.0248 79.5,35.5C 80.5794,33.457 82.246,32.1237 84.5,31.5 Z M 467.5,32.5 C 468.833,33.1667 469.833,34.1667 470.5,35.5C 460.3,41.4329 449.967,47.0996 439.5,52.5C 448.532,45.4775 457.865,38.8108 467.5,32.5 Z M 478.5,42.5 C 479.527,44.1942 480.861,45.5275 482.5,46.5C 463.833,56.8333 445.167,67.1667 426.5,77.5C 443.796,65.8464 461.13,54.1797 478.5,42.5 Z M 100.5,47.5 C 102.389,48.604 104.055,49.9373 105.5,51.5C 97.483,55.8618 89.483,60.1951 81.5,64.5C 87.5097,58.4913 93.8431,52.8246 100.5,47.5 Z M 439.5,52.5 C 439.027,53.9063 438.027,54.573 436.5,54.5C 436.973,53.0937 437.973,52.427 439.5,52.5 Z M 489.5,53.5 C 492.838,57.1788 494.838,61.5121 495.5,66.5C 408.833,116.167 322.167,165.833 235.5,215.5C 242.833,209.167 250.167,202.833 257.5,196.5C 266.8,188.867 275.467,180.534 283.5,171.5C 352.139,132.178 420.806,92.8452 489.5,53.5 Z M 22.5,66.5 C 21.0552,68.0627 19.3885,69.396 17.5,70.5C 17.5,70.1667 17.5,69.8333 17.5,69.5C 18.6594,67.7497 20.326,66.7497 22.5,66.5 Z M 55.5,72.5 C 49.4903,78.5087 43.1569,84.1754 36.5,89.5C 34.8333,88.5 33.5,87.1667 32.5,85.5C 39.9053,80.7744 47.572,76.4411 55.5,72.5 Z M 129.5,75.5 C 131.167,76.5 132.5,77.8333 133.5,79.5C 126.403,83.9301 119.069,87.9301 111.5,91.5C 117.177,85.8241 123.177,80.4908 129.5,75.5 Z M 426.5,77.5 C 426.027,78.9063 425.027,79.573 423.5,79.5C 423.973,78.0937 424.973,77.427 426.5,77.5 Z M 477.5,89.5 C 477.167,90.1667 476.833,90.8333 476.5,91.5C 475.833,91.5 475.167,91.5 474.5,91.5C 474.973,90.0937 475.973,89.427 477.5,89.5 Z M 474.5,91.5 C 473.341,93.2503 471.674,94.2503 469.5,94.5C 470.659,92.7497 472.326,91.7497 474.5,91.5 Z M 469.5,94.5 C 469.027,95.9063 468.027,96.573 466.5,96.5C 466.973,95.0937 467.973,94.427 469.5,94.5 Z M 149.5,96.5 C 150.167,96.5 150.5,96.8333 150.5,97.5C 147.506,99.9998 144.173,102 140.5,103.5C 143.208,100.791 146.208,98.4581 149.5,96.5 Z M 83.5,101.5 C 77.392,107.061 71.0586,112.394 64.5,117.5C 63.1667,116.5 61.8333,115.5 60.5,114.5C 67.9966,109.917 75.6633,105.584 83.5,101.5 Z M 159.5,105.5 C 159.833,106.167 160.167,106.833 160.5,107.5C 157.322,110.258 153.655,112.258 149.5,113.5C 152.52,110.484 155.854,107.817 159.5,105.5 Z M 169.5,115.5 C 169.5,116.167 169.833,116.5 170.5,116.5C 167.992,118.924 164.992,120.59 161.5,121.5C 163.878,119.122 166.545,117.122 169.5,115.5 Z M 336.5,124.5 C 336.027,125.906 335.027,126.573 333.5,126.5C 333.973,125.094 334.973,124.427 336.5,124.5 Z M 442.5,124.5 C 440.833,126.5 439.167,128.5 437.5,130.5C 427.5,135.833 417.5,141.167 407.5,146.5C 418.653,138.419 430.32,131.086 442.5,124.5 Z M 178.5,125.5 C 179.167,125.5 179.5,125.833 179.5,126.5C 177.95,127.441 176.284,128.107 174.5,128.5C 175.262,126.738 176.596,125.738 178.5,125.5 Z M 333.5,126.5 C 329.852,129.66 325.852,132.327 321.5,134.5C 322.5,133.167 323.5,131.833 324.5,130.5C 327.352,128.909 330.352,127.576 333.5,126.5 Z M 90.5,129.5 C 87.8739,131.823 85.2072,134.157 82.5,136.5C 82.1667,135.833 81.8333,135.167 81.5,134.5C 84.2402,132.44 87.2402,130.774 90.5,129.5 Z M 101.5,138.5 C 98.8103,141.185 95.8103,143.518 92.5,145.5C 91.8333,145.167 91.1667,144.833 90.5,144.5C 93.678,141.742 97.3447,139.742 101.5,138.5 Z M 195.5,142.5 C 196.5,142.833 197.167,143.5 197.5,144.5C 193.299,147.1 188.966,149.434 184.5,151.5C 187.607,147.785 191.273,144.785 195.5,142.5 Z M 405.5,147.5 C 405.027,148.906 404.027,149.573 402.5,149.5C 402.973,148.094 403.973,147.427 405.5,147.5 Z M 110.5,148.5 C 110.027,149.906 109.027,150.573 107.5,150.5C 107.973,149.094 108.973,148.427 110.5,148.5 Z M 107.5,150.5 C 106.109,152.89 104.109,154.557 101.5,155.5C 101.167,154.833 100.833,154.167 100.5,153.5C 102.713,152.227 105.046,151.227 107.5,150.5 Z M 117.5,159.5 C 115.54,161.156 113.54,162.823 111.5,164.5C 110.833,164.5 110.5,164.167 110.5,163.5C 112.336,161.412 114.669,160.079 117.5,159.5 Z M 213.5,160.5 C 214.167,160.5 214.5,160.833 214.5,161.5C 212.178,163.664 209.511,165.331 206.5,166.5C 208.234,163.8 210.568,161.8 213.5,160.5 Z M 223.5,170.5 C 225.167,171.5 226.5,172.833 227.5,174.5C 219.483,178.862 211.483,183.195 203.5,187.5C 209.574,181.09 216.24,175.423 223.5,170.5 Z M 141.5,172.5 C 137.817,176.18 133.817,179.514 129.5,182.5C 128.5,182.167 127.833,181.5 127.5,180.5C 131.833,177.331 136.5,174.664 141.5,172.5 Z M 243.5,189.5 C 243.833,190.5 244.5,191.167 245.5,191.5C 241.167,194.669 236.5,197.336 231.5,199.5C 235.183,195.82 239.183,192.486 243.5,189.5 Z M 153.5,194.5 C 151.393,196.727 149.06,198.727 146.5,200.5C 146.167,199.833 145.833,199.167 145.5,198.5C 147.883,196.642 150.55,195.308 153.5,194.5 Z M 179.5,194.5 C 172.525,200.471 165.525,206.471 158.5,212.5C 157.5,210.833 156.167,209.5 154.5,208.5C 162.664,203.583 170.997,198.917 179.5,194.5 Z M 371.5,194.5 C 370.833,195.5 370.167,196.5 369.5,197.5C 367.5,198.167 365.5,198.833 363.5,199.5C 365.629,197.05 368.296,195.383 371.5,194.5 Z M 363.5,199.5 C 362.341,201.25 360.674,202.25 358.5,202.5C 359.659,200.75 361.326,199.75 363.5,199.5 Z M 358.5,202.5 C 358.027,203.906 357.027,204.573 355.5,204.5C 355.973,203.094 356.973,202.427 358.5,202.5 Z M 188.5,220.5 C 184.817,224.18 180.817,227.514 176.5,230.5C 176.167,229.5 175.5,228.833 174.5,228.5C 178.833,225.331 183.5,222.664 188.5,220.5 Z M 206.5,226.5 C 200.54,231.49 194.54,236.49 188.5,241.5C 187.167,240.833 186.167,239.833 185.5,238.5C 192.004,233.745 199.004,229.745 206.5,226.5 Z M 336.5,229.5 C 335.833,230.5 335.167,231.5 334.5,232.5C 331.648,234.091 328.648,235.424 325.5,236.5C 328.894,233.779 332.561,231.446 336.5,229.5 Z M 325.5,236.5 C 325.027,237.906 324.027,238.573 322.5,238.5C 322.973,237.094 323.973,236.427 325.5,236.5 Z M 213.5,240.5 C 213.027,241.906 212.027,242.573 210.5,242.5C 210.973,241.094 211.973,240.427 213.5,240.5 Z M 210.5,242.5 C 206.677,245.916 202.343,248.582 197.5,250.5C 196.833,250.5 196.5,250.167 196.5,249.5C 201.167,247.167 205.833,244.833 210.5,242.5 Z M 215.5,253.5 C 215.027,254.906 214.027,255.573 212.5,255.5C 212.973,254.094 213.973,253.427 215.5,253.5 Z M 212.5,255.5 C 202.178,262.664 191.511,269.331 180.5,275.5C 180.733,273.938 181.4,272.605 182.5,271.5C 192.5,266.167 202.5,260.833 212.5,255.5 Z M 130.5,331.5 C 130.027,332.906 129.027,333.573 127.5,333.5C 127.973,332.094 128.973,331.427 130.5,331.5 Z M 125.5,334.5 C 122.35,337.579 118.683,339.913 114.5,341.5C 115.527,339.806 116.861,338.473 118.5,337.5C 120.687,336.242 123.02,335.242 125.5,334.5 Z M 97.5,365.5 C 97.0269,366.906 96.0269,367.573 94.5,367.5C 94.9731,366.094 95.9731,365.427 97.5,365.5 Z M 92.5,368.5 C 92.0269,369.906 91.0269,370.573 89.5,370.5C 89.9731,369.094 90.9731,368.427 92.5,368.5 Z M 89.5,370.5 C 85.6767,373.916 81.3434,376.582 76.5,378.5C 77.1667,377.5 77.8333,376.5 78.5,375.5C 82.0171,373.576 85.6837,371.909 89.5,370.5 Z M 448.5,395.5 C 449.5,395.833 450.167,396.5 450.5,397.5C 446.728,399.934 442.728,401.934 438.5,403.5C 441.539,400.46 444.873,397.794 448.5,395.5 Z M 392.5,426.5 C 389.149,429.848 385.482,432.848 381.5,435.5C 380.5,435.167 379.833,434.5 379.5,433.5C 383.701,430.9 388.034,428.566 392.5,426.5 Z M 53.5,428.5 C 53.0269,429.906 52.0269,430.573 50.5,430.5C 50.9731,429.094 51.9731,428.427 53.5,428.5 Z M 50.5,430.5 C 39.7902,437.861 28.7902,444.861 17.5,451.5C 17.1667,450.833 16.8333,450.167 16.5,449.5C 27.5376,442.648 38.8709,436.314 50.5,430.5 Z M 68.5,458.5 C 59.8333,464.833 51.1667,471.167 42.5,477.5C 41.5987,476.71 40.9321,475.71 40.5,474.5C 49.4998,468.664 58.8331,463.331 68.5,458.5 Z M 41.5,460.5 C 38.5541,463.313 35.2208,465.646 31.5,467.5C 31.5,467.167 31.5,466.833 31.5,466.5C 34.4937,464 37.827,462 41.5,460.5 Z M 57.5,480.5 C 57.0269,481.906 56.0269,482.573 54.5,482.5C 54.9731,481.094 55.9731,480.427 57.5,480.5 Z M 54.5,482.5 C 53.5637,483.974 52.2303,484.974 50.5,485.5C 49.8333,485.5 49.5,485.167 49.5,484.5C 51.0495,483.559 52.7162,482.893 54.5,482.5 Z"/></g>
<g><path style="opacity:0.967" fill="#dc4651" d="M 446.5,14.5 C 442.86,17.4729 439.527,20.8062 436.5,24.5C 441.5,22.3357 446.167,19.669 450.5,16.5C 454.837,17.1628 457.837,19.4962 459.5,23.5C 458.306,24.2719 457.306,25.2719 456.5,26.5C 458.153,26.3404 459.486,25.6737 460.5,24.5C 461.496,24.4142 462.329,24.7476 463,25.5C 464.75,27.7343 466.25,30.0676 467.5,32.5C 457.865,38.8108 448.532,45.4775 439.5,52.5C 449.967,47.0996 460.3,41.4329 470.5,35.5C 473.784,37.117 476.451,39.4503 478.5,42.5C 461.13,54.1797 443.796,65.8464 426.5,77.5C 445.167,67.1667 463.833,56.8333 482.5,46.5C 485.833,47.8333 488.167,50.1667 489.5,53.5C 420.806,92.8452 352.139,132.178 283.5,171.5C 295.225,158.774 307.558,146.774 320.5,135.5C 321.167,135.5 321.5,135.167 321.5,134.5C 325.852,132.327 329.852,129.66 333.5,126.5C 330.352,127.576 327.352,128.909 324.5,130.5C 362.605,92.2273 400.605,53.7273 438.5,15C 441.227,13.3643 443.893,13.1976 446.5,14.5 Z M 439.5,52.5 C 439.027,53.9063 438.027,54.573 436.5,54.5C 436.973,53.0937 437.973,52.427 439.5,52.5 Z M 426.5,77.5 C 426.027,78.9063 425.027,79.573 423.5,79.5C 423.973,78.0937 424.973,77.427 426.5,77.5 Z M 336.5,124.5 C 336.027,125.906 335.027,126.573 333.5,126.5C 333.973,125.094 334.973,124.427 336.5,124.5 Z"/></g>
<g><path style="opacity:0.979" fill="#dc4651" d="M 64.5,14.5 C 63.5,15.8333 62.5,17.1667 61.5,18.5C 63.8185,18.0075 65.8185,17.0075 67.5,15.5C 68.9217,15.7086 70.255,16.2086 71.5,17C 76.3885,21.4189 80.7218,26.2522 84.5,31.5C 82.246,32.1237 80.5794,33.457 79.5,35.5C 81.7837,35.0248 83.7837,34.0248 85.5,32.5C 91.5,36.5 96.5,41.5 100.5,47.5C 93.8431,52.8246 87.5097,58.4913 81.5,64.5C 89.483,60.1951 97.483,55.8618 105.5,51.5C 106.473,51.9867 107.473,52.4867 108.5,53C 116.094,60.0888 123.094,67.5888 129.5,75.5C 123.177,80.4908 117.177,85.8241 111.5,91.5C 119.069,87.9301 126.403,83.9301 133.5,79.5C 134.239,79.369 134.906,79.5357 135.5,80C 137.832,82.3064 139.832,84.8064 141.5,87.5C 144.903,89.8998 147.57,92.8998 149.5,96.5C 146.208,98.4581 143.208,100.791 140.5,103.5C 144.173,102 147.506,99.9998 150.5,97.5C 154.1,99.4302 157.1,102.097 159.5,105.5C 155.854,107.817 152.52,110.484 149.5,113.5C 153.655,112.258 157.322,110.258 160.5,107.5C 164.1,109.43 167.1,112.097 169.5,115.5C 166.545,117.122 163.878,119.122 161.5,121.5C 164.992,120.59 167.992,118.924 170.5,116.5C 173.903,118.9 176.57,121.9 178.5,125.5C 176.596,125.738 175.262,126.738 174.5,128.5C 176.284,128.107 177.95,127.441 179.5,126.5C 185.833,130.833 191.167,136.167 195.5,142.5C 191.273,144.785 187.607,147.785 184.5,151.5C 188.966,149.434 193.299,147.1 197.5,144.5C 198.239,144.369 198.906,144.536 199.5,145C 204.523,149.973 209.19,155.14 213.5,160.5C 210.568,161.8 208.234,163.8 206.5,166.5C 209.511,165.331 212.178,163.664 214.5,161.5C 218.5,163.5 221.5,166.5 223.5,170.5C 216.24,175.423 209.574,181.09 203.5,187.5C 211.483,183.195 219.483,178.862 227.5,174.5C 233.442,178.773 238.776,183.773 243.5,189.5C 239.183,192.486 235.183,195.82 231.5,199.5C 236.5,197.336 241.167,194.669 245.5,191.5C 248.549,195.355 252.549,197.022 257.5,196.5C 250.167,202.833 242.833,209.167 235.5,215.5C 322.167,165.833 408.833,116.167 495.5,66.5C 495.216,69.8524 494.05,72.8524 492,75.5C 487.271,80.3975 482.438,85.0641 477.5,89.5C 475.973,89.427 474.973,90.0937 474.5,91.5C 475.167,91.5 475.833,91.5 476.5,91.5C 466.108,102.893 455.108,113.56 443.5,123.5C 442.833,123.5 442.5,123.833 442.5,124.5C 430.32,131.086 418.653,138.419 407.5,146.5C 417.5,141.167 427.5,135.833 437.5,130.5C 416.059,151.695 394.393,172.695 372.5,193.5C 371.833,193.5 371.5,193.833 371.5,194.5C 368.296,195.383 365.629,197.05 363.5,199.5C 365.5,198.833 367.5,198.167 369.5,197.5C 359.108,208.893 348.108,219.56 336.5,229.5C 332.561,231.446 328.894,233.779 325.5,236.5C 328.648,235.424 331.648,234.091 334.5,232.5C 246.647,320.853 158.647,409.019 70.5,497C 67.5,497.667 64.5,497.667 61.5,497C 57.9084,494.287 54.4084,491.453 51,488.5C 50.5172,487.552 50.3505,486.552 50.5,485.5C 52.2303,484.974 53.5637,483.974 54.5,482.5C 52.7162,482.893 51.0495,483.559 49.5,484.5C 46.1667,483.167 43.8333,480.833 42.5,477.5C 51.1667,471.167 59.8333,464.833 68.5,458.5C 58.8331,463.331 49.4998,468.664 40.5,474.5C 36.6367,473.306 33.6367,470.973 31.5,467.5C 35.2208,465.646 38.5541,463.313 41.5,460.5C 37.827,462 34.4937,464 31.5,466.5C 24.7724,463.439 20.1057,458.439 17.5,451.5C 28.7902,444.861 39.7902,437.861 50.5,430.5C 38.8709,436.314 27.5376,442.648 16.5,449.5C 14.9733,445.075 15.4733,440.742 18,436.5C 31.5277,422.307 45.0277,408.14 58.5,394C 64.0642,388.927 69.7309,384.094 75.5,379.5C 76.1667,379.5 76.5,379.167 76.5,378.5C 81.3434,376.582 85.6767,373.916 89.5,370.5C 85.6837,371.909 82.0171,373.576 78.5,375.5C 89.8647,364.134 101.531,353.134 113.5,342.5C 114.167,342.5 114.5,342.167 114.5,341.5C 118.683,339.913 122.35,337.579 125.5,334.5C 123.02,335.242 120.687,336.242 118.5,337.5C 138.623,316.887 158.956,296.554 179.5,276.5C 180.167,276.5 180.5,276.167 180.5,275.5C 191.511,269.331 202.178,262.664 212.5,255.5C 202.5,260.833 192.5,266.167 182.5,271.5C 187.123,265.706 191.956,260.039 197,254.5C 197.49,253.207 197.657,251.873 197.5,250.5C 202.343,248.582 206.677,245.916 210.5,242.5C 205.833,244.833 201.167,247.167 196.5,249.5C 192.833,247.833 190.167,245.167 188.5,241.5C 194.54,236.49 200.54,231.49 206.5,226.5C 199.004,229.745 192.004,233.745 185.5,238.5C 181.9,236.57 178.9,233.903 176.5,230.5C 180.817,227.514 184.817,224.18 188.5,220.5C 183.5,222.664 178.833,225.331 174.5,228.5C 168.833,223.5 163.5,218.167 158.5,212.5C 165.525,206.471 172.525,200.471 179.5,194.5C 170.997,198.917 162.664,203.583 154.5,208.5C 151.5,206.167 148.833,203.5 146.5,200.5C 149.06,198.727 151.393,196.727 153.5,194.5C 150.55,195.308 147.883,196.642 145.5,198.5C 144.761,198.631 144.094,198.464 143.5,198C 138.477,193.027 133.81,187.86 129.5,182.5C 133.817,179.514 137.817,176.18 141.5,172.5C 136.5,174.664 131.833,177.331 127.5,180.5C 126.761,180.631 126.094,180.464 125.5,180C 120.477,175.027 115.81,169.86 111.5,164.5C 113.54,162.823 115.54,161.156 117.5,159.5C 114.669,160.079 112.336,161.412 110.5,163.5C 106.9,161.57 103.9,158.903 101.5,155.5C 104.109,154.557 106.109,152.89 107.5,150.5C 105.046,151.227 102.713,152.227 100.5,153.5C 96.8333,151.833 94.1667,149.167 92.5,145.5C 95.8103,143.518 98.8103,141.185 101.5,138.5C 97.3447,139.742 93.678,141.742 90.5,144.5C 87.5,142.167 84.8333,139.5 82.5,136.5C 85.2072,134.157 87.8739,131.823 90.5,129.5C 87.2402,130.774 84.2402,132.44 81.5,134.5C 77.8333,132.833 75.1667,130.167 73.5,126.5C 74.1826,125.356 73.8493,125.356 72.5,126.5C 69.0969,124.1 66.4302,121.1 64.5,117.5C 71.0586,112.394 77.392,107.061 83.5,101.5C 75.6633,105.584 67.9966,109.917 60.5,114.5C 57.5,112.167 54.8333,109.5 52.5,106.5C 49.9117,104.582 47.245,101.916 44.5,98.5C 44.9382,98.5654 45.2716,98.3988 45.5,98C 41.3459,96.3448 38.3459,93.5114 36.5,89.5C 43.1569,84.1754 49.4903,78.5087 55.5,72.5C 47.572,76.4411 39.9053,80.7744 32.5,85.5C 26.5,81.5 21.5,76.5 17.5,70.5C 19.3885,69.396 21.0552,68.0627 22.5,66.5C 20.326,66.7497 18.6594,67.7497 17.5,69.5C 16.2502,69.4226 15.4169,68.756 15,67.5C 14.0772,61.6701 15.7439,56.6701 20,52.5C 31.5352,42.6321 42.0352,31.7987 51.5,20C 55.1464,16.5092 59.4798,14.6759 64.5,14.5 Z M 129.5,75.5 C 131.167,76.5 132.5,77.8333 133.5,79.5C 126.403,83.9301 119.069,87.9301 111.5,91.5C 117.177,85.8241 123.177,80.4908 129.5,75.5 Z M 426.5,77.5 C 426.027,78.9063 425.027,79.573 423.5,79.5C 423.973,78.0937 424.973,77.427 426.5,77.5 Z M 474.5,91.5 C 473.341,93.2503 471.674,94.2503 469.5,94.5C 470.659,92.7497 472.326,91.7497 474.5,91.5 Z M 469.5,94.5 C 469.027,95.9063 468.027,96.573 466.5,96.5C 466.973,95.0937 467.973,94.427 469.5,94.5 Z M 149.5,96.5 C 150.167,96.5 150.5,96.8333 150.5,97.5C 147.506,99.9998 144.173,102 140.5,103.5C 143.208,100.791 146.208,98.4581 149.5,96.5 Z M 159.5,105.5 C 159.833,106.167 160.167,106.833 160.5,107.5C 157.322,110.258 153.655,112.258 149.5,113.5C 152.52,110.484 155.854,107.817 159.5,105.5 Z M 169.5,115.5 C 169.5,116.167 169.833,116.5 170.5,116.5C 167.992,118.924 164.992,120.59 161.5,121.5C 163.878,119.122 166.545,117.122 169.5,115.5 Z M 336.5,124.5 C 336.027,125.906 335.027,126.573 333.5,126.5C 333.973,125.094 334.973,124.427 336.5,124.5 Z M 178.5,125.5 C 179.167,125.5 179.5,125.833 179.5,126.5C 177.95,127.441 176.284,128.107 174.5,128.5C 175.262,126.738 176.596,125.738 178.5,125.5 Z M 333.5,126.5 C 329.852,129.66 325.852,132.327 321.5,134.5C 322.5,133.167 323.5,131.833 324.5,130.5C 327.352,128.909 330.352,127.576 333.5,126.5 Z M 195.5,142.5 C 196.5,142.833 197.167,143.5 197.5,144.5C 193.299,147.1 188.966,149.434 184.5,151.5C 187.607,147.785 191.273,144.785 195.5,142.5 Z M 405.5,147.5 C 405.027,148.906 404.027,149.573 402.5,149.5C 402.973,148.094 403.973,147.427 405.5,147.5 Z M 110.5,148.5 C 110.027,149.906 109.027,150.573 107.5,150.5C 107.973,149.094 108.973,148.427 110.5,148.5 Z M 213.5,160.5 C 214.167,160.5 214.5,160.833 214.5,161.5C 212.178,163.664 209.511,165.331 206.5,166.5C 208.234,163.8 210.568,161.8 213.5,160.5 Z M 223.5,170.5 C 225.167,171.5 226.5,172.833 227.5,174.5C 219.483,178.862 211.483,183.195 203.5,187.5C 209.574,181.09 216.24,175.423 223.5,170.5 Z M 243.5,189.5 C 243.833,190.5 244.5,191.167 245.5,191.5C 241.167,194.669 236.5,197.336 231.5,199.5C 235.183,195.82 239.183,192.486 243.5,189.5 Z M 363.5,199.5 C 362.341,201.25 360.674,202.25 358.5,202.5C 359.659,200.75 361.326,199.75 363.5,199.5 Z M 358.5,202.5 C 358.027,203.906 357.027,204.573 355.5,204.5C 355.973,203.094 356.973,202.427 358.5,202.5 Z M 325.5,236.5 C 325.027,237.906 324.027,238.573 322.5,238.5C 322.973,237.094 323.973,236.427 325.5,236.5 Z M 213.5,240.5 C 213.027,241.906 212.027,242.573 210.5,242.5C 210.973,241.094 211.973,240.427 213.5,240.5 Z M 215.5,253.5 C 215.027,254.906 214.027,255.573 212.5,255.5C 212.973,254.094 213.973,253.427 215.5,253.5 Z M 130.5,331.5 C 130.027,332.906 129.027,333.573 127.5,333.5C 127.973,332.094 128.973,331.427 130.5,331.5 Z M 97.5,365.5 C 97.0269,366.906 96.0269,367.573 94.5,367.5C 94.9731,366.094 95.9731,365.427 97.5,365.5 Z M 92.5,368.5 C 92.0269,369.906 91.0269,370.573 89.5,370.5C 89.9731,369.094 90.9731,368.427 92.5,368.5 Z M 53.5,428.5 C 53.0269,429.906 52.0269,430.573 50.5,430.5C 50.9731,429.094 51.9731,428.427 53.5,428.5 Z M 57.5,480.5 C 57.0269,481.906 56.0269,482.573 54.5,482.5C 54.9731,481.094 55.9731,480.427 57.5,480.5 Z"/></g>
<g><path style="opacity:0.999" fill="#b5394e" d="M 332.5,278.5 C 325.69,284.469 318.69,290.302 311.5,296C 319.668,292.574 327.335,288.074 334.5,282.5C 335.167,282.5 335.5,282.167 335.5,281.5C 340.833,286.167 345.833,291.167 350.5,296.5C 342.374,302.787 334.374,309.287 326.5,316C 335.841,311.156 345.174,305.989 354.5,300.5C 360.5,305.833 366.167,311.5 371.5,317.5C 363.708,323.453 356.041,329.62 348.5,336C 357.666,331.746 366.666,326.913 375.5,321.5C 396.5,341.833 417.167,362.5 437.5,383.5C 430.998,389.166 424.331,394.666 417.5,400C 425.533,396.148 433.533,391.981 441.5,387.5C 444.573,389.569 446.906,392.236 448.5,395.5C 444.873,397.794 441.539,400.46 438.5,403.5C 437.833,403.5 437.5,403.833 437.5,404.5C 436.833,404.5 436.5,404.833 436.5,405.5C 431.841,408.168 427.508,411.335 423.5,415C 423.833,415.167 424.167,415.333 424.5,415.5C 433.897,409.808 443.23,404.141 452.5,398.5C 455.167,400.5 457.5,402.833 459.5,405.5C 453.356,410.803 447.022,415.969 440.5,421C 448.201,417.645 455.535,413.478 462.5,408.5C 465.167,410.5 467.5,412.833 469.5,415.5C 463.356,420.803 457.022,425.969 450.5,431C 458.201,427.645 465.535,423.478 472.5,418.5C 477.526,423.195 482.526,427.861 487.5,432.5C 479.374,438.787 471.374,445.287 463.5,452C 470.479,448.673 477.479,445.007 484.5,441C 487.043,439.618 489.043,437.785 490.5,435.5C 496.175,441.382 497.008,448.048 493,455.5C 480.137,468.029 467.637,480.862 455.5,494C 451.405,496.22 447.072,496.887 442.5,496C 434.996,489.662 427.996,482.829 421.5,475.5C 429.292,469.547 436.959,463.38 444.5,457C 435.334,461.254 426.334,466.087 417.5,471.5C 412.474,466.805 407.474,462.139 402.5,457.5C 409.885,452.961 416.885,447.795 423.5,442C 415.296,445.441 407.63,449.941 400.5,455.5C 397.5,453.167 394.833,450.5 392.5,447.5C 399.885,442.961 406.885,437.795 413.5,432C 412.833,431.333 412.167,431.333 411.5,432C 404.435,436.524 397.435,441.024 390.5,445.5C 387.5,443.167 384.833,440.5 382.5,437.5C 391.894,430.951 400.894,423.784 409.5,416C 403.851,418.45 398.517,421.617 393.5,425.5C 392.833,425.5 392.5,425.833 392.5,426.5C 388.034,428.566 383.701,430.9 379.5,433.5C 376.833,431.5 374.5,429.167 372.5,426.5C 379.577,420.114 386.91,413.947 394.5,408C 386.68,412.251 378.68,416.584 370.5,421C 369.619,421.708 368.953,422.542 368.5,423.5C 347.527,402.194 326.527,380.86 305.5,359.5C 306.922,359.291 308.255,358.791 309.5,358C 315.873,351.958 322.54,346.292 329.5,341C 319.967,345.104 310.967,350.271 302.5,356.5C 296.5,351.167 290.833,345.5 285.5,339.5C 292.643,333.198 299.976,327.031 307.5,321C 298.468,325.02 289.801,329.853 281.5,335.5C 276.167,330.833 271.167,325.833 266.5,320.5C 267.167,320.5 267.5,320.167 267.5,319.5C 267.842,318.662 268.508,318.328 269.5,318.5C 270.167,318.5 270.5,318.167 270.5,317.5C 276.623,313.217 282.623,308.717 288.5,304C 280.119,308.167 271.786,312.667 263.5,317.5C 280.965,299.535 298.632,281.701 316.5,264C 322.493,267.812 327.826,272.645 332.5,278.5 Z"/></g>
<g><path style="opacity:0.941" fill="#d94551" d="M 332.5,278.5 C 333.833,279.167 334.833,280.167 335.5,281.5C 334.833,281.5 334.5,281.833 334.5,282.5C 327.335,288.074 319.668,292.574 311.5,296C 318.69,290.302 325.69,284.469 332.5,278.5 Z"/></g>
<g><path style="opacity:1" fill="#d94551" d="M 350.5,296.5 C 352.167,297.5 353.5,298.833 354.5,300.5C 345.174,305.989 335.841,311.156 326.5,316C 334.374,309.287 342.374,302.787 350.5,296.5 Z"/></g>
<g><path style="opacity:0.928" fill="#d74551" d="M 270.5,317.5 C 269.833,317.5 269.5,317.833 269.5,318.5C 268.508,318.328 267.842,318.662 267.5,319.5C 266.833,319.5 266.5,319.833 266.5,320.5C 265.167,319.833 264.167,318.833 263.5,317.5C 271.786,312.667 280.119,308.167 288.5,304C 282.623,308.717 276.623,313.217 270.5,317.5 Z"/></g>
<g><path style="opacity:1" fill="#d94551" d="M 371.5,317.5 C 373.167,318.5 374.5,319.833 375.5,321.5C 366.666,326.913 357.666,331.746 348.5,336C 356.041,329.62 363.708,323.453 371.5,317.5 Z"/></g>
<g><path style="opacity:1" fill="#d94551" d="M 285.5,339.5 C 283.833,338.5 282.5,337.167 281.5,335.5C 289.801,329.853 298.468,325.02 307.5,321C 299.976,327.031 292.643,333.198 285.5,339.5 Z"/></g>
<g><path style="opacity:1" fill="#d94551" d="M 305.5,359.5 C 304.167,358.833 303.167,357.833 302.5,356.5C 310.967,350.271 319.967,345.104 329.5,341C 322.54,346.292 315.873,351.958 309.5,358C 308.255,358.791 306.922,359.291 305.5,359.5 Z"/></g>
<g><path style="opacity:0.791" fill="#d94551" d="M 437.5,383.5 C 438.338,383.842 438.672,384.508 438.5,385.5C 437.817,386.644 438.151,386.644 439.5,385.5C 440.5,385.833 441.167,386.5 441.5,387.5C 433.533,391.981 425.533,396.148 417.5,400C 424.331,394.666 430.998,389.166 437.5,383.5 Z"/></g>
<g><path style="opacity:0.914" fill="#da4651" d="M 450.5,397.5 C 451.492,397.328 452.158,397.662 452.5,398.5C 443.23,404.141 433.897,409.808 424.5,415.5C 424.167,415.333 423.833,415.167 423.5,415C 427.508,411.335 431.841,408.168 436.5,405.5C 437.167,405.5 437.5,405.167 437.5,404.5C 438.167,404.5 438.5,404.167 438.5,403.5C 442.728,401.934 446.728,399.934 450.5,397.5 Z"/></g>
<g><path style="opacity:1" fill="#d84551" d="M 459.5,405.5 C 460.833,406.167 461.833,407.167 462.5,408.5C 455.535,413.478 448.201,417.645 440.5,421C 447.022,415.969 453.356,410.803 459.5,405.5 Z"/></g>
<g><path style="opacity:1" fill="#d84551" d="M 469.5,415.5 C 470.833,416.167 471.833,417.167 472.5,418.5C 465.535,423.478 458.201,427.645 450.5,431C 457.022,425.969 463.356,420.803 469.5,415.5 Z"/></g>
<g><path style="opacity:0.745" fill="#d94651" d="M 372.5,426.5 C 371.5,426.167 370.833,425.5 370.5,424.5C 369.833,424.167 369.167,423.833 368.5,423.5C 368.953,422.542 369.619,421.708 370.5,421C 378.68,416.584 386.68,412.251 394.5,408C 386.91,413.947 379.577,420.114 372.5,426.5 Z"/></g>
<g><path style="opacity:0.791" fill="#db4650" d="M 382.5,437.5 C 382.167,436.833 381.833,436.167 381.5,435.5C 385.482,432.848 389.149,429.848 392.5,426.5C 393.167,426.5 393.5,426.167 393.5,425.5C 398.517,421.617 403.851,418.45 409.5,416C 400.894,423.784 391.894,430.951 382.5,437.5 Z"/></g>
<g><path style="opacity:0.998" fill="#d84551" d="M 487.5,432.5 C 488.833,433.167 489.833,434.167 490.5,435.5C 489.043,437.785 487.043,439.618 484.5,441C 477.479,445.007 470.479,448.673 463.5,452C 471.374,445.287 479.374,438.787 487.5,432.5 Z"/></g>
<g><path style="opacity:1" fill="#d64550" d="M 392.5,447.5 C 391.5,447.167 390.833,446.5 390.5,445.5C 397.435,441.024 404.435,436.524 411.5,432C 412.167,431.333 412.833,431.333 413.5,432C 406.885,437.795 399.885,442.961 392.5,447.5 Z"/></g>
<g><path style="opacity:1" fill="#d64550" d="M 402.5,457.5 C 401.5,457.167 400.833,456.5 400.5,455.5C 407.63,449.941 415.296,445.441 423.5,442C 416.885,447.795 409.885,452.961 402.5,457.5 Z"/></g>
<g><path style="opacity:0.999" fill="#da4551" d="M 421.5,475.5 C 419.833,474.5 418.5,473.167 417.5,471.5C 426.334,466.087 435.334,461.254 444.5,457C 436.959,463.38 429.292,469.547 421.5,475.5 Z"/></g>
</svg>
