<?xml version="1.0" standalone="no"?>
<!DOCTYPE svg PUBLIC "-//W3C//DTD SVG 20010904//EN"
 "http://www.w3.org/TR/2001/REC-SVG-20010904/DTD/svg10.dtd">
<svg version="1.0" xmlns="http://www.w3.org/2000/svg"
 width="300.000000pt" height="300.000000pt" viewBox="0 0 300.000000 300.000000"
 preserveAspectRatio="xMidYMid meet">
<metadata>
Created by potrace 1.10, written by Peter Selinger 2001-2011
</metadata>
<g transform="translate(0.000000,300.000000) scale(0.100000,-0.100000)"
fill="#000000" stroke="none">
<path d="M12 2988 c-17 -17 -15 -145 3 -199 21 -62 63 -109 126 -144 52 -28
60 -29 212 -33 l157 -4 0 -129 0 -129 -39 -40 -39 -40 -38 16 c-31 13 -45 14
-75 5 -82 -25 -100 -96 -49 -203 l30 -63 -39 -36 c-55 -51 -88 -105 -106 -174
-23 -90 -23 -1056 1 -1079 19 -19 48 -21 62 -3 8 9 12 180 14 543 l3 529 27
47 c59 99 140 138 288 138 125 0 183 -20 245 -83 31 -32 55 -68 63 -93 16 -55
17 -1220 1 -1278 -13 -47 -79 -120 -134 -149 -50 -26 -210 -36 -291 -18 -99
22 -186 113 -200 208 -5 34 -12 47 -31 56 -20 9 -27 7 -44 -10 -20 -20 -20
-22 -5 -84 19 -73 52 -128 108 -179 l38 -35 -30 -64 c-50 -106 -33 -177 49
-202 30 -9 44 -8 76 5 l39 17 23 -29 c49 -63 128 -66 181 -7 l32 34 36 -15
c66 -28 127 0 154 70 12 32 4 63 -30 131 -27 53 -26 60 19 100 21 19 53 63 72
97 l34 63 0 645 0 645 -33 67 c-19 39 -49 81 -72 101 -45 38 -47 48 -21 97 36
70 43 105 27 143 -8 20 -27 44 -42 54 -30 19 -99 22 -117 4 -17 -17 -23 -14
-61 27 l-36 37 0 133 0 132 153 0 c136 0 156 2 170 18 10 10 17 25 17 33 0 37
-16 39 -360 39 -189 0 -350 4 -370 10 -41 11 -94 61 -109 103 -6 16 -11 57
-11 92 0 44 -5 68 -16 79 -18 19 -45 21 -62 4z m573 -754 c9 -14 33 -32 52
-41 33 -13 40 -13 80 2 65 25 73 11 37 -69 l-29 -65 -40 7 c-51 9 -219 9 -267
0 l-37 -7 -26 56 c-39 86 -33 100 31 78 53 -18 88 -9 127 31 38 41 49 42 72 8z
m-35 -1959 c58 0 121 3 140 7 l35 7 29 -65 c33 -74 27 -97 -19 -76 -14 7 -44
12 -67 12 -34 0 -46 -6 -74 -35 -18 -19 -36 -35 -40 -35 -3 0 -24 16 -46 36
-41 37 -59 39 -153 23 -29 -6 -29 20 0 84 25 55 27 56 58 49 18 -4 79 -7 137
-7z"/>
<path d="M2926 2984 c-11 -11 -16 -35 -16 -79 0 -35 -5 -76 -11 -92 -15 -42
-68 -92 -109 -103 -22 -6 -361 -10 -893 -10 l-857 0 -12 -26 c-11 -23 -10 -29
11 -45 21 -17 42 -19 222 -19 l199 0 0 -130 0 -130 -40 -40 -39 -39 -38 15
c-30 13 -44 14 -74 5 -79 -24 -100 -100 -54 -191 14 -27 25 -57 25 -66 0 -8
-21 -36 -46 -60 -25 -25 -57 -70 -72 -102 l-27 -57 0 -640 0 -640 27 -57 c14
-31 47 -78 72 -103 25 -25 46 -52 46 -61 0 -8 -11 -37 -25 -64 -35 -69 -34
-123 4 -160 38 -38 73 -46 122 -27 l39 15 35 -36 c31 -33 40 -37 85 -37 45 0
54 4 85 37 l35 36 39 -15 c49 -19 84 -11 122 27 38 37 39 91 4 160 -14 27 -25
56 -25 64 0 9 21 36 46 61 25 25 58 72 72 103 l27 57 0 640 0 640 -27 57 c-15
32 -47 77 -72 102 -25 24 -46 52 -46 60 0 9 11 39 25 66 46 91 25 167 -54 191
-30 9 -44 8 -74 -5 l-38 -15 -39 39 -40 40 0 130 0 130 430 0 430 0 0 -132 0
-133 -36 -37 c-38 -41 -44 -44 -61 -27 -18 18 -87 15 -117 -4 -15 -10 -34 -34
-42 -54 -16 -38 -9 -73 27 -143 26 -49 24 -59 -21 -97 -23 -20 -53 -62 -72
-101 l-33 -67 0 -645 0 -645 34 -63 c19 -34 51 -78 72 -97 45 -40 46 -47 19
-100 -34 -68 -42 -99 -30 -131 27 -70 88 -98 154 -70 l36 15 32 -34 c53 -59
132 -56 181 7 l23 29 39 -17 c32 -13 46 -14 76 -5 82 25 99 96 49 202 l-30 64
38 35 c55 50 89 106 107 175 18 71 22 563 5 596 -12 22 -52 25 -68 6 -7 -8
-12 -117 -14 -302 -3 -277 -4 -292 -25 -331 -12 -23 -41 -58 -65 -78 -61 -53
-127 -69 -257 -64 -120 5 -160 20 -223 85 -71 73 -68 45 -68 719 0 451 3 617
12 648 8 25 32 61 63 93 62 63 120 83 245 83 120 0 181 -20 240 -79 75 -75 80
-101 80 -396 0 -238 1 -253 20 -270 18 -17 21 -17 45 -1 l25 16 0 248 c0 326
-12 374 -118 477 l-42 40 31 65 c49 104 31 177 -51 201 -29 9 -44 8 -74 -5
l-38 -16 -39 40 -39 40 0 129 0 129 158 4 c146 4 161 6 208 31 61 31 108 84
129 146 18 54 20 182 3 199 -17 17 -44 15 -62 -4z m-1391 -754 c41 -43 84 -55
131 -35 31 13 40 13 50 3 10 -10 7 -25 -17 -75 -29 -61 -30 -62 -62 -55 -17 4
-79 7 -137 7 -58 0 -120 -3 -137 -7 -32 -7 -33 -6 -62 55 -24 50 -27 65 -17
75 10 10 19 10 50 -3 47 -20 90 -8 131 35 16 17 32 30 35 30 3 0 19 -13 35
-30z m952 -4 c39 -40 74 -49 127 -31 64 22 70 8 31 -78 l-26 -56 -37 7 c-48 9
-216 9 -267 0 l-40 -7 -29 65 c-36 80 -28 94 37 69 40 -15 47 -15 80 -2 19 9
43 27 52 41 23 34 34 33 72 -8z m-851 -251 c65 -19 131 -76 160 -139 l24 -51
0 -610 c0 -592 -1 -611 -21 -655 -25 -55 -71 -105 -124 -133 -35 -19 -56 -22
-175 -22 -119 0 -140 3 -175 22 -53 28 -99 78 -124 133 -20 44 -21 63 -21 655
l0 610 24 50 c51 109 137 154 292 155 52 0 112 -6 140 -15z m-136 -1700 c58 0
119 3 137 7 30 7 32 6 61 -54 33 -68 32 -94 -2 -83 -11 4 -42 10 -69 12 -44 5
-50 2 -83 -31 -20 -20 -40 -36 -44 -36 -4 0 -24 16 -44 36 -33 33 -39 36 -83
31 -27 -2 -58 -8 -69 -12 -34 -11 -35 15 -2 83 29 60 31 61 61 54 18 -4 79 -7
137 -7z m950 0 c58 0 119 3 137 7 31 7 33 6 58 -49 29 -64 29 -90 0 -84 -94
16 -112 14 -153 -23 -22 -20 -43 -36 -46 -36 -4 0 -22 16 -40 35 -28 29 -40
35 -74 35 -23 0 -53 -5 -67 -12 -46 -21 -52 2 -19 76 l29 65 35 -7 c19 -4 82
-7 140 -7z"/>
<path d="M1408 1844 c-14 -29 -14 -28 62 -77 29 -19 36 -30 41 -69 11 -71 52
-133 110 -163 22 -12 29 -12 48 1 31 22 26 45 -23 92 -37 35 -44 48 -48 90 -6
62 -38 109 -92 133 -58 26 -84 24 -98 -7z"/>
<path d="M1330 1589 c-14 -26 -25 -157 -16 -192 3 -14 24 -47 46 -72 48 -55
50 -81 15 -161 -29 -66 -32 -134 -7 -181 19 -36 156 -163 176 -163 16 0 46 32
46 49 0 7 -33 44 -74 82 -41 38 -76 81 -78 94 -3 13 8 57 23 97 43 108 35 172
-26 228 -41 37 -46 62 -34 140 9 55 9 73 -1 85 -18 22 -57 19 -70 -6z"/>
<path d="M1602 1358 c-16 -16 -15 -35 5 -69 21 -34 45 -44 73 -29 25 14 25 36
0 78 -21 34 -55 43 -78 20z"/>
<path d="M1262 918 c-19 -19 -14 -44 14 -77 56 -67 114 -11 63 60 -21 30 -56
38 -77 17z"/>
<path d="M1412 707 c-42 -43 -52 -73 -30 -95 21 -21 43 -13 91 36 48 49 56 69
35 90 -22 22 -54 12 -96 -31z"/>
<path d="M1563 559 c-28 -11 -54 -27 -57 -36 -9 -23 2 -51 23 -58 19 -6 95 18
118 36 19 17 16 57 -6 69 -23 12 -15 13 -78 -11z"/>
<path d="M892 2838 c-18 -18 -14 -56 7 -68 13 -6 219 -10 601 -10 382 0 588 4
601 10 21 12 25 50 7 68 -17 17 -1199 17 -1216 0z"/>
<path d="M460 1850 c-15 -28 1 -53 49 -75 42 -18 45 -23 56 -90 10 -59 30 -90
82 -130 42 -32 48 -34 67 -21 35 22 30 44 -18 96 -38 41 -46 56 -46 88 0 52
-34 101 -90 130 -55 27 -86 28 -100 2z"/>
<path d="M2362 1858 c-7 -7 -12 -19 -12 -28 0 -18 30 -50 47 -50 6 0 22 -9 37
-21 19 -15 26 -30 26 -55 0 -49 22 -93 66 -135 51 -48 70 -53 94 -29 28 28 26
36 -25 86 -36 34 -45 50 -45 77 0 56 -39 118 -90 144 -51 25 -80 29 -98 11z"/>
<path d="M381 1593 c-13 -26 -24 -147 -17 -188 4 -19 24 -55 46 -81 48 -55 50
-80 14 -167 -32 -74 -29 -139 6 -189 32 -45 146 -148 164 -148 19 0 46 27 46
46 0 8 -34 48 -75 87 -87 84 -90 97 -50 195 40 99 32 154 -32 225 l-36 40 7
85 c4 57 3 89 -5 98 -16 20 -57 17 -68 -3z"/>
<path d="M2282 1598 c-5 -7 -15 -45 -21 -83 -13 -90 -2 -134 50 -194 46 -52
48 -70 13 -154 -29 -71 -33 -141 -10 -186 18 -34 160 -161 181 -161 8 0 21 10
29 22 20 28 12 41 -69 119 -36 34 -68 72 -71 84 -3 12 8 55 25 98 17 43 31 89
31 103 0 38 -26 92 -65 135 -38 43 -40 50 -25 132 8 40 8 62 0 77 -12 22 -52
27 -68 8z"/>
<path d="M652 1358 c-18 -18 -15 -38 14 -75 53 -70 115 -15 63 58 -21 30 -56
38 -77 17z"/>
<path d="M2552 1358 c-16 -16 -15 -33 3 -67 16 -32 39 -44 66 -36 29 10 33 42
9 80 -23 36 -55 46 -78 23z"/>
<path d="M310 909 c-22 -39 42 -115 78 -93 25 16 26 56 2 87 -26 33 -65 36
-80 6z"/>
<path d="M2211 916 c-26 -32 21 -110 61 -104 37 5 45 34 23 76 -22 41 -62 54
-84 28z"/>
<path d="M462 707 c-42 -43 -52 -73 -30 -95 22 -22 48 -12 93 36 46 49 54 69
33 90 -22 22 -54 12 -96 -31z"/>
<path d="M2358 705 c-39 -43 -47 -72 -26 -93 22 -22 45 -13 92 38 51 54 50 53
36 81 -18 33 -60 23 -102 -26z"/>
<path d="M623 562 c-24 -10 -50 -25 -59 -34 -16 -16 -16 -19 0 -42 20 -31 21
-31 91 -5 49 18 55 23 55 49 0 19 -7 33 -19 40 -23 12 -16 13 -68 -8z"/>
<path d="M2515 559 c-61 -23 -69 -32 -61 -62 8 -34 31 -40 87 -22 57 19 73 37
65 69 -8 32 -34 37 -91 15z"/>
</g>
</svg>
