<?xml version="1.0" encoding="UTF-8"?>
<!DOCTYPE svg PUBLIC "-//W3C//DTD SVG 1.1//EN" "http://www.w3.org/Graphics/SVG/1.1/DTD/svg11.dtd">
<svg xmlns="http://www.w3.org/2000/svg" version="1.1" width="512px" height="512px" style="shape-rendering:geometricPrecision; text-rendering:geometricPrecision; image-rendering:optimizeQuality; fill-rule:evenodd; clip-rule:evenodd" xmlns:xlink="http://www.w3.org/1999/xlink">
<g><path style="opacity:0.917" fill="#000000" d="M 335.5,30.5 C 341.558,31.0296 347.558,31.1962 353.5,31C 371.027,36.8921 376.694,48.7255 370.5,66.5C 370.833,67.1667 371.167,67.8333 371.5,68.5C 402.616,81.4767 432.449,96.8101 461,114.5C 462.513,192.99 463.679,271.49 464.5,350C 464.642,364.565 464.142,379.065 463,393.5C 434.37,412.401 403.87,428.068 371.5,440.5C 371.167,440.833 370.833,441.167 370.5,441.5C 375.76,458.238 370.76,470.738 355.5,479C 331.194,484.018 318.694,474.184 318,449.5C 318.944,444.113 321.11,439.28 324.5,435C 327.934,432.565 331.6,430.565 335.5,429C 340.713,428.993 345.88,428.826 351,428.5C 356.858,429.347 362.025,431.68 366.5,435.5C 392.901,418.438 419.567,401.771 446.5,385.5C 447.243,305.667 447.909,225.833 448.5,146C 448.167,137.833 447.833,129.667 447.5,121.5C 420.417,105.543 393.583,89.21 367,72.5C 355.577,83.5947 342.744,85.428 328.5,78C 315.634,65.4108 314.3,51.7441 324.5,37C 328.096,34.5394 331.763,32.3727 335.5,30.5 Z M 344.5,34.5 C 349.752,39.996 353.752,46.3294 356.5,53.5C 355.175,63.6655 349.509,67.8322 339.5,66C 333.068,62.3014 330.568,56.8014 332,49.5C 334.788,43.1994 338.955,38.1994 344.5,34.5 Z M 344.5,432.5 C 349.752,437.996 353.752,444.329 356.5,451.5C 355.175,461.666 349.509,465.832 339.5,464C 330.73,458.047 329.23,450.547 335,441.5C 337.406,437.592 340.572,434.592 344.5,432.5 Z"/></g>
<g><path style="opacity:0.92" fill="#000000" d="M 152.5,31.5 C 155.85,31.335 159.183,31.5017 162.5,32C 164.333,32.5 165.5,33.6667 166,35.5C 178.124,31.394 186.457,35.394 191,47.5C 194.62,64.0941 188.454,75.2607 172.5,81C 159.689,83.8449 149.522,80.0116 142,69.5C 116.708,88.2748 90.2077,105.275 62.5,120.5C 62.1667,135 61.8333,149.5 61.5,164C 62.4743,237.498 63.3077,310.998 64,384.5C 91.6873,399.868 118.021,417.202 143,436.5C 148.122,430.348 154.622,428.182 162.5,430C 164.333,430.5 165.5,431.667 166,433.5C 180.88,429.289 189.547,434.956 192,450.5C 191.995,468.506 182.995,478.173 165,479.5C 150.317,479.151 141.317,471.818 138,457.5C 137.387,452.567 137.887,447.733 139.5,443C 109.559,427.362 79.5592,411.695 49.5,396C 48.8742,395.25 48.3742,394.416 48,393.5C 47.2626,348.336 46.7626,303.169 46.5,258C 46.5005,209.784 47.3338,161.617 49,113.5C 61.7513,105.874 74.5846,98.3738 87.5,91C 105.148,82.5103 122.481,73.5103 139.5,64C 136.523,55.0324 137.69,46.5324 143,38.5C 145.825,35.524 148.992,33.1907 152.5,31.5 Z M 164.5,38.5 C 175.37,41.5804 179.537,48.5804 177,59.5C 170.199,67.8061 163.199,68.1395 156,60.5C 153.046,50.8544 155.879,43.5211 164.5,38.5 Z M 164.5,436.5 C 175.37,439.58 179.537,446.58 177,457.5C 170.184,465.806 163.184,466.14 156,458.5C 153.046,448.854 155.879,441.521 164.5,436.5 Z"/></g>
<g><path style="opacity:0.912" fill="#000000" d="M 253.5,111.5 C 260.595,112.47 267.595,114.637 274.5,118C 320.548,137.023 365.882,157.69 410.5,180C 414.5,183.667 414.5,187.333 410.5,191C 389.344,201.411 368.344,212.078 347.5,223C 369.706,230.621 391.206,239.787 412,250.5C 413.123,253.956 412.29,256.79 409.5,259C 388.656,269.922 367.656,280.589 346.5,291C 369.011,298.676 390.845,307.843 412,318.5C 412.667,320.833 412.667,323.167 412,325.5C 360.31,352.762 308.143,379.095 255.5,404.5C 202.894,380.698 150.894,355.531 99.5,329C 94.3164,324.375 94.3164,319.708 99.5,315C 118.605,305.631 138.272,297.631 158.5,291C 137.982,280.164 117.482,269.33 97,258.5C 94.7598,254.461 95.2598,250.794 98.5,247.5C 118.003,237.725 138.003,229.225 158.5,222C 138.956,212.061 119.29,202.395 99.5,193C 95.2119,189.229 94.3786,184.729 97,179.5C 142.388,155.818 188.888,134.652 236.5,116C 242.111,113.731 247.778,112.231 253.5,111.5 Z M 253.5,113.5 C 298.275,138.058 343.608,161.891 389.5,185C 344.881,207.226 300.048,229.059 255,250.5C 211.684,228.759 168.184,207.425 124.5,186.5C 123.167,185.833 123.167,185.167 124.5,184.5C 160.167,165.667 195.833,146.833 231.5,128C 239.07,123.392 246.403,118.558 253.5,113.5 Z M 166.5,226.5 C 195.054,239.443 223.388,252.943 251.5,267C 254.167,267.667 256.833,267.667 259.5,267C 286.226,252.97 313.226,239.47 340.5,226.5C 357.581,235.058 374.581,243.892 391.5,253C 346.314,275.092 300.981,296.926 255.5,318.5C 210.498,296.771 165.498,274.938 120.5,253C 136.386,244.898 151.719,236.064 166.5,226.5 Z M 338.5,294.5 C 356.366,302.433 373.699,311.433 390.5,321.5C 345.533,343.9 300.366,365.9 255,387.5C 210.244,365.205 165.41,343.039 120.5,321C 136.316,312.662 151.983,304.162 167.5,295.5C 196.737,309.036 225.904,322.702 255,336.5C 283.055,322.889 310.888,308.889 338.5,294.5 Z"/></g>
</svg>
