<?xml version="1.0" standalone="no"?>
<!DOCTYPE svg PUBLIC "-//W3C//DTD SVG 20010904//EN"
 "http://www.w3.org/TR/2001/REC-SVG-20010904/DTD/svg10.dtd">
<svg version="1.0" xmlns="http://www.w3.org/2000/svg"
 width="300.000000pt" height="300.000000pt" viewBox="0 0 300.000000 300.000000"
 preserveAspectRatio="xMidYMid meet">
<metadata>
Created by potrace 1.10, written by Peter Selinger 2001-2011
</metadata>
<g transform="translate(0.000000,300.000000) scale(0.100000,-0.100000)"
fill="#000000" stroke="none">
<path d="M1028 2988 c-9 -7 -49 -94 -88 -193 -171 -429 -334 -752 -556 -1101
-119 -187 -151 -247 -192 -366 -49 -137 -65 -228 -65 -373 0 -157 23 -263 88
-402 55 -116 91 -170 179 -262 283 -294 700 -372 1063 -199 73 35 93 63 75
103 -18 39 -51 41 -118 7 -105 -53 -188 -74 -319 -79 -183 -8 -323 31 -473
131 -270 179 -416 499 -373 820 24 180 83 323 221 537 187 289 360 617 504
959 44 102 81 189 84 193 2 5 30 -54 62 -130 122 -293 292 -634 419 -843 39
-64 39 -65 18 -72 -12 -3 -36 -6 -53 -7 -52 -2 -178 -38 -245 -71 -204 -99
-353 -284 -409 -504 -22 -89 -27 -205 -8 -224 17 -17 64 -15 81 3 9 8 18 45
22 87 16 164 74 286 190 404 64 64 97 90 165 123 96 47 194 71 292 71 l66 0
40 -62 c67 -107 125 -235 146 -320 l6 -28 -67 0 c-173 0 -316 -87 -388 -234
-33 -68 -49 -161 -34 -199 24 -59 109 -38 109 26 0 108 84 228 186 266 70 27
208 30 218 5 11 -30 6 -172 -10 -255 -9 -46 -31 -122 -51 -168 -39 -95 -36
-125 13 -137 38 -10 55 4 88 72 50 105 78 233 81 379 l3 130 48 6 c180 23 369
130 485 276 101 127 154 261 166 420 l6 83 43 -40 c53 -48 95 -54 120 -15 8
13 13 32 10 43 -11 32 -211 222 -235 222 -31 0 -231 -198 -231 -229 0 -74 62
-83 127 -19 l43 42 0 -59 c-1 -298 -248 -567 -562 -611 l-47 -6 -11 43 c-26
105 -102 278 -160 366 l-21 31 63 31 c152 73 269 217 314 384 10 37 14 119 14
285 0 127 3 232 6 232 4 0 26 -18 50 -40 27 -24 53 -40 69 -40 31 0 60 41 51
73 -3 12 -50 66 -104 120 -131 128 -126 128 -259 -7 -58 -58 -103 -112 -103
-123 0 -32 29 -63 59 -63 18 0 39 13 66 40 21 22 43 40 48 40 5 0 7 -98 5
-232 -4 -207 -7 -240 -27 -292 -28 -77 -71 -145 -126 -195 -46 -42 -152 -101
-183 -101 -13 0 -42 42 -104 148 -165 284 -300 564 -433 899 -73 183 -91 213
-125 213 -9 0 -24 -6 -32 -12z"/>
<path d="M1647 372 c-9 -10 -17 -28 -17 -40 0 -52 76 -72 106 -28 36 56 -45
117 -89 68z"/>
</g>
</svg>
