<?xml version="1.0" standalone="no"?>
<!DOCTYPE svg PUBLIC "-//W3C//DTD SVG 20010904//EN"
 "http://www.w3.org/TR/2001/REC-SVG-20010904/DTD/svg10.dtd">
<svg version="1.0" xmlns="http://www.w3.org/2000/svg"
 width="300.000000pt" height="300.000000pt" viewBox="0 0 300.000000 300.000000"
 preserveAspectRatio="xMidYMid meet">
<metadata>
Created by potrace 1.10, written by Peter Selinger 2001-2011
</metadata>
<g transform="translate(0.000000,300.000000) scale(0.100000,-0.100000)"
fill="#000000" stroke="none">
<path d="M2205 2982 c-68 -20 -62 -17 -170 -88 -46 -30 -94 -71 -114 -98 -20
-26 -43 -46 -53 -46 -35 0 -86 -28 -93 -52 -4 -12 -23 -40 -41 -61 -19 -20
-34 -46 -34 -56 0 -11 -9 -23 -22 -27 -12 -3 -71 -54 -133 -113 -139 -132
-244 -225 -315 -278 -188 -141 -912 -812 -923 -856 -3 -12 -26 -74 -51 -137
-45 -112 -68 -169 -140 -355 -79 -206 -99 -305 -59 -305 9 0 38 16 65 36 50
35 208 103 393 167 55 19 136 53 179 75 58 30 87 39 107 35 17 -3 36 1 50 11
13 9 29 16 37 16 7 0 106 87 220 194 273 255 519 470 612 534 127 86 309 251
396 357 48 60 87 98 95 96 50 -15 75 -12 102 13 15 14 36 26 47 26 10 0 30 14
44 31 25 29 28 42 30 115 1 25 19 51 91 129 180 195 195 230 156 364 -12 42
-33 93 -47 114 -28 43 -128 120 -194 150 -62 28 -160 31 -235 9z m156 -52 c38
-7 78 -26 132 -63 86 -58 118 -105 136 -204 17 -87 8 -105 -131 -254 l-82 -88
-41 57 c-23 31 -89 102 -146 156 -107 103 -195 167 -255 186 -19 6 -34 15 -34
19 0 21 151 129 227 163 36 16 73 26 134 37 4 1 31 -4 60 -9z m-372 -274 c109
-55 335 -298 369 -397 20 -59 14 -129 -12 -129 -7 0 -29 23 -50 50 -44 57
-125 140 -138 140 -9 0 59 -114 100 -169 19 -25 23 -38 15 -50 -18 -28 -51
-25 -70 7 -10 16 -63 72 -118 124 -55 53 -107 108 -115 122 -13 25 -151 148
-199 178 -26 16 -27 40 -1 63 19 17 20 17 48 -11 16 -16 60 -49 97 -74 37 -25
87 -63 111 -84 25 -21 47 -37 50 -34 10 11 -150 169 -206 203 -57 35 -58 36
-48 65 9 27 14 30 54 30 31 0 66 -11 113 -34z m-157 -255 l83 -79 -49 -43
c-27 -24 -61 -51 -75 -60 -14 -9 -92 -78 -172 -155 -323 -309 -531 -497 -669
-604 -80 -62 -172 -135 -205 -163 -109 -92 -99 -85 -90 -59 19 62 -29 143
-104 176 l-39 18 66 63 c37 34 159 143 271 241 113 98 245 215 295 259 50 44
118 100 152 125 87 64 235 192 326 283 55 54 85 77 102 77 17 0 50 -24 108
-79z m208 -230 c50 -49 90 -92 90 -96 0 -8 -68 -90 -135 -163 -66 -72 -216
-201 -343 -296 -142 -106 -461 -390 -686 -609 -87 -86 -116 -109 -116 -92 0 2
9 27 20 55 28 71 26 121 -6 160 -38 44 -75 60 -141 60 l-58 1 35 29 c19 17 86
69 149 118 236 182 278 216 346 281 39 37 145 133 237 214 91 81 168 151 170
156 1 5 32 29 68 54 36 25 112 84 170 131 58 47 106 85 108 85 1 1 43 -39 92
-88z m-1480 -825 c14 -11 28 -25 32 -31 16 -21 6 -72 -22 -120 -32 -55 -39
-112 -15 -121 8 -4 31 6 51 21 29 22 50 29 103 32 58 5 70 2 95 -18 25 -19 28
-27 24 -63 -3 -23 -14 -59 -24 -80 -15 -31 -27 -42 -61 -51 -22 -7 -55 -22
-71 -34 -57 -40 -343 -171 -347 -158 -2 7 -6 25 -10 40 -8 38 -47 76 -85 83
-34 7 -36 14 -16 52 8 15 33 83 56 152 99 291 91 278 190 316 40 15 65 10 100
-20z"/>
<path d="M2306 2811 c-31 -58 -99 -91 -113 -54 -4 11 4 25 27 45 29 24 31 28
14 28 -46 0 -83 -77 -52 -108 38 -38 158 29 158 89 0 31 -18 31 -34 0z"/>
<path d="M1495 2182 c-66 -41 -265 -267 -265 -302 0 -31 44 -25 104 14 56 38
206 187 206 205 0 21 -16 11 -80 -55 -98 -100 -200 -175 -200 -147 0 24 205
251 260 286 35 22 12 21 -25 -1z"/>
<path d="M854 1656 c-10 -25 0 -69 18 -80 11 -7 26 -7 45 0 22 7 28 16 28 38
0 35 -22 47 -27 14 -2 -15 -10 -23 -23 -23 -16 0 -20 6 -19 33 2 32 -12 44
-22 18z"/>
<path d="M1830 1988 c0 -30 13 -58 26 -58 15 0 18 27 8 54 -7 19 -34 22 -34 4z"/>
<path d="M1750 1933 c0 -28 23 -84 33 -80 17 5 21 55 6 73 -12 15 -39 19 -39
7z"/>
<path d="M1580 1777 c0 -23 11 -47 21 -47 15 0 10 37 -6 50 -12 10 -15 10 -15
-3z"/>
<path d="M1513 1739 c-8 -8 -8 -17 -2 -28 5 -9 13 -28 19 -43 13 -39 30 -35
30 6 0 42 -29 83 -47 65z"/>
<path d="M1460 1673 c0 -5 6 -25 13 -46 17 -46 33 -65 47 -51 12 12 -29 104
-47 104 -7 0 -13 -3 -13 -7z"/>
<path d="M1385 1640 c-3 -5 -1 -17 4 -27 5 -10 16 -38 23 -63 8 -28 20 -46 31
-48 22 -4 22 18 0 78 -24 66 -43 85 -58 60z"/>
<path d="M1134 1389 c-8 -14 31 -53 45 -45 15 10 14 22 -5 40 -18 19 -30 20
-40 5z"/>
<path d="M1060 1312 c0 -24 35 -70 46 -60 4 4 3 22 -2 40 -11 37 -44 52 -44
20z"/>
<path d="M2013 1227 c-15 -13 -159 -91 -319 -174 -257 -134 -355 -190 -509
-293 -22 -15 -53 -31 -70 -37 -18 -6 -33 -19 -37 -34 -79 -268 -113 -379 -124
-400 -7 -14 -9 -30 -6 -35 13 -19 126 -75 172 -85 25 -6 90 -27 145 -49 117
-45 318 -108 368 -117 26 -4 51 2 94 22 32 15 103 42 157 62 55 19 134 52 176
73 87 44 345 201 559 341 l144 94 92 191 c100 204 120 259 110 304 -9 43 -24
50 -126 61 -52 5 -160 23 -240 39 -193 39 -360 60 -469 60 -78 0 -92 -3 -117
-23z m222 -72 c78 -4 471 -72 520 -89 6 -2 -42 -29 -106 -59 -64 -31 -166 -85
-227 -121 -61 -36 -118 -66 -126 -66 -9 0 -44 11 -79 24 -98 37 -250 73 -382
91 -66 9 -121 18 -123 19 -1 2 70 42 160 90 89 48 172 96 186 106 14 12 34 18
50 15 15 -2 72 -7 127 -10z m551 -312 c-42 -87 -76 -163 -76 -169 0 -6 -11
-16 -25 -22 -14 -6 -91 -55 -171 -108 -209 -137 -348 -224 -353 -219 -8 8 31
130 65 204 19 41 34 84 34 97 0 12 8 42 19 66 17 41 28 49 162 124 124 70 353
183 399 196 8 3 16 1 18 -3 2 -4 -31 -79 -72 -166z m-1103 72 c20 -8 83 -21
140 -30 116 -16 333 -66 386 -88 l34 -15 -119 -71 c-65 -40 -155 -94 -199
-122 -75 -46 -83 -49 -130 -43 -27 3 -88 19 -135 34 -47 15 -159 42 -250 60
-91 17 -168 35 -173 39 -4 4 12 18 35 31 24 12 66 39 93 59 36 25 268 158 281
161 1 0 18 -7 37 -15z m553 -231 c-3 -9 -9 -27 -12 -40 -3 -13 -25 -61 -48
-107 -23 -45 -58 -126 -76 -179 l-34 -97 -66 -30 c-78 -36 -262 -103 -267 -97
-2 2 7 37 20 77 14 41 39 120 57 176 l32 102 102 50 c55 28 142 75 191 105 98
59 110 64 101 40z m-891 -94 c105 -22 231 -53 280 -69 50 -16 102 -32 116 -35
l27 -6 -53 -162 c-29 -90 -59 -177 -66 -195 l-14 -31 -70 19 c-38 10 -106 28
-150 40 -44 11 -84 24 -90 29 -5 4 -50 20 -100 35 -160 49 -220 67 -222 69 -2
2 14 38 36 82 21 43 53 121 71 172 18 50 35 92 39 92 3 0 92 -18 196 -40z"/>
<path d="M2447 659 c-4 -29 -4 -56 -1 -60 10 -16 32 -9 37 11 3 12 11 18 19
15 16 -6 38 33 38 65 0 33 -28 23 -36 -12 l-8 -33 -5 30 c-4 16 -13 31 -22 33
-13 2 -17 -9 -22 -49z"/>
<path d="M2367 628 c-22 -47 -26 -88 -8 -88 8 0 51 93 51 111 0 22 -29 6 -43
-23z"/>
</g>
</svg>
