<?xml version="1.0" encoding="UTF-8"?>
<svg version="1.1" xmlns="http://www.w3.org/2000/svg" width="100" height="100">
<path d="M0 0 C1.15925743 -0.01270432 1.15925743 -0.01270432 2.3419342 -0.02566528 C4.89357005 -0.04904112 7.44460312 -0.05005735 9.99633789 -0.04882812 C11.77226503 -0.05592929 13.54818987 -0.06362822 15.32411194 -0.07189941 C19.04556659 -0.08534549 22.7668091 -0.08691241 26.48828125 -0.08105469 C31.25458318 -0.07515794 36.01986671 -0.10574798 40.78597164 -0.14617157 C44.45347059 -0.1720355 48.12072389 -0.1749272 51.78830147 -0.17127991 C53.54537071 -0.17297234 55.30245115 -0.18262678 57.05943108 -0.20042419 C59.51817638 -0.22258969 61.97485482 -0.21292641 64.43359375 -0.1953125 C65.15739227 -0.20857574 65.8811908 -0.22183899 66.62692261 -0.23550415 C70.39546248 -0.17285323 72.17798896 0.34300035 75.23155212 2.61230469 C77.5184935 5.74451812 77.91246752 7.13259604 77.9284668 10.95703125 C77.9442276 12.04165649 77.9599884 13.12628174 77.97622681 14.24377441 C77.96610565 15.40534058 77.9559845 16.56690674 77.94555664 17.76367188 C77.95034027 18.96552124 77.9551239 20.16737061 77.96005249 21.40563965 C77.96345167 23.94410513 77.95424826 26.48261437 77.93334961 29.02099609 C77.9065882 32.9062665 77.93310097 36.78864757 77.96508789 40.67382812 C77.9617838 43.14128242 77.95537759 45.60873491 77.94555664 48.07617188 C77.96073837 49.81852112 77.96073837 49.81852112 77.97622681 51.59606934 C77.85977397 59.61010832 77.85977397 59.61010832 74.98999023 63.62890625 C70.38676177 66.67282945 66.49624758 66.55248677 61.02197266 66.58105469 C60.29790222 66.58601959 59.57383179 66.5909845 58.82781982 66.59609985 C56.43867027 66.61067449 54.04958705 66.61751471 51.66040039 66.62304688 C49.99657693 66.62880108 48.33275349 66.63455878 46.66893005 66.64031982 C43.1829294 66.65081566 39.69695172 66.65666796 36.2109375 66.66015625 C31.74757822 66.66564574 27.28452326 66.68968929 22.8212595 66.7181282 C19.38542291 66.73676273 15.94965963 66.74196056 12.51377678 66.74349213 C10.86836008 66.74651607 9.22294459 66.75453589 7.57757759 66.76767731 C5.27495313 66.78475934 2.97307252 66.78285293 0.67041016 66.77636719 C-0.63878891 66.78001282 -1.94798798 66.78365845 -3.29685974 66.78741455 C-7.8623015 66.29707559 -10.45915322 64.81790306 -13.50610352 61.43554688 C-15.39141968 56.74617409 -15.1458428 52.17724178 -15.11694336 47.16992188 C-15.11981354 46.07905273 -15.12268372 44.98818359 -15.12564087 43.86425781 C-15.12767953 41.56119263 -15.12216359 39.25811005 -15.10961914 36.95507812 C-15.09356341 33.43254836 -15.10947534 29.91116601 -15.12866211 26.38867188 C-15.12667964 24.14908601 -15.1228359 21.90950086 -15.11694336 19.66992188 C-15.12301605 18.61772461 -15.12908875 17.56552734 -15.13534546 16.48144531 C-15.07527879 10.22785895 -14.7117868 6.36231398 -10.09309387 1.82214355 C-6.79209291 -0.12713569 -3.72651236 -0.01504627 0 0 Z M1.28149414 4.41992188 C1.28149414 5.07992188 1.28149414 5.73992188 1.28149414 6.41992188 C0.20899414 6.17242187 -0.86350586 5.92492187 -1.96850586 5.66992188 C-5.68449042 5.03998667 -5.68449042 5.03998667 -8.15600586 7.04492188 C-9.97743598 9.81349566 -9.85278682 11.18643627 -9.71850586 14.41992188 C-8.85684814 14.84813232 -7.99519043 15.27634277 -7.10742188 15.7175293 C-3.86906567 17.32756385 -0.63209535 18.94036839 2.60449219 20.55395508 C3.99767826 21.24805482 5.39122453 21.94143213 6.78515625 22.6340332 C8.80445128 23.63752212 10.82238068 24.64371357 12.84008789 25.65039062 C13.49512299 25.97530487 14.15015808 26.30021912 14.82504272 26.63497925 C19.1163443 28.78025581 23.24788583 31.08967884 27.27392578 33.69848633 C32.92789969 35.73028651 38.90652283 31.98480804 43.96118164 29.60351562 C45.18032761 29.0396389 45.18032761 29.0396389 46.42410278 28.46437073 C49.00479116 27.26886028 51.5806448 26.06331772 54.15649414 24.85742188 C55.91139237 24.04230079 57.66659761 23.22784033 59.42211914 22.4140625 C63.71217025 20.42364783 67.99791568 18.42422604 72.28149414 16.41992188 C72.28149414 13.77992187 72.28149414 11.13992187 72.28149414 8.41992188 C70.63149414 9.07992188 68.98149414 9.73992188 67.28149414 10.41992188 C67.94149414 8.76992188 68.60149414 7.11992187 69.28149414 5.41992188 C66.32739713 6.79146691 63.84141038 8.40855911 61.28149414 10.41992188 C62.27149414 8.43992187 63.26149414 6.45992187 64.28149414 4.41992188 C54.54625126 4.28491851 44.98327643 4.65899777 35.28149414 5.41992188 C35.28149414 6.07992188 35.28149414 6.73992188 35.28149414 7.41992188 C34.29149414 7.41992188 33.30149414 7.41992188 32.28149414 7.41992188 C32.28149414 6.75992187 32.28149414 6.09992187 32.28149414 5.41992188 C29.31149414 5.41992188 26.34149414 5.41992188 23.28149414 5.41992188 C23.28149414 6.07992188 23.28149414 6.73992188 23.28149414 7.41992188 C21.63149414 6.75992187 19.98149414 6.09992187 18.28149414 5.41992188 C18.28149414 6.07992188 18.28149414 6.73992188 18.28149414 7.41992188 C17.29149414 6.75992187 16.30149414 6.09992187 15.28149414 5.41992188 C10.57388018 4.32512793 6.08394573 4.33712099 1.28149414 4.41992188 Z M-9.71850586 17.41992188 C-9.8174276 23.04324208 -9.88999928 28.66605521 -9.93823242 34.29003906 C-9.95834038 36.20288923 -9.98563093 38.11567799 -10.02026367 40.02832031 C-10.06881835 42.77879999 -10.09148244 45.52846664 -10.10913086 48.27929688 C-10.129776 49.13360291 -10.15042114 49.98790894 -10.17169189 50.86810303 C-10.17846994 55.72862786 -10.17846994 55.72862786 -7.94213867 59.95800781 C-5.61381279 61.4887517 -4.4979359 61.93254916 -1.74975586 61.95117188 C-1.01370117 61.95632812 -0.27764648 61.96148437 0.48071289 61.96679688 C1.2399707 61.95132813 1.99922852 61.93585938 2.78149414 61.91992188 C3.54075195 61.93539062 4.30000977 61.95085937 5.08227539 61.96679688 C9.75882818 61.94168614 9.75882818 61.94168614 13.62524414 59.45117188 C14.17180664 58.78085938 14.71836914 58.11054687 15.28149414 57.41992188 C16.76649414 56.92492187 16.76649414 56.92492187 18.28149414 56.41992188 C18.61149414 57.07992187 18.94149414 57.73992187 19.28149414 58.41992188 C19.28149414 57.75992188 19.28149414 57.09992188 19.28149414 56.41992188 C20.27149414 56.41992188 21.26149414 56.41992188 22.28149414 56.41992188 C21.29149414 58.89492187 21.29149414 58.89492187 20.28149414 61.41992188 C30.51149414 61.41992188 40.74149414 61.41992188 51.28149414 61.41992188 C51.28149414 60.75992188 51.28149414 60.09992188 51.28149414 59.41992188 C52.27149414 59.41992188 53.26149414 59.41992188 54.28149414 59.41992188 C54.28149414 60.07992187 54.28149414 60.73992187 54.28149414 61.41992188 C55.27149414 61.41992188 56.26149414 61.41992188 57.28149414 61.41992188 C58.27149414 60.42992188 58.27149414 60.42992188 59.28149414 59.41992188 C59.94149414 60.07992187 60.60149414 60.73992187 61.28149414 61.41992188 C63.42993463 61.59463446 63.42993463 61.59463446 65.78149414 61.29492188 C66.97258789 61.19824219 66.97258789 61.19824219 68.18774414 61.09960938 C70.47121793 60.60662999 70.47121793 60.60662999 71.56274414 58.36523438 C71.79993164 57.72328125 72.03711914 57.08132812 72.28149414 56.41992188 C70.79649414 55.92492187 70.79649414 55.92492187 69.28149414 55.41992188 C69.28149414 54.42992187 69.28149414 53.43992188 69.28149414 52.41992188 C70.27149414 52.41992188 71.26149414 52.41992188 72.28149414 52.41992188 C71.29149414 49.44992188 71.29149414 49.44992188 70.28149414 46.41992188 C70.94149414 46.41992188 71.60149414 46.41992188 72.28149414 46.41992188 C72.28149414 44.76992188 72.28149414 43.11992188 72.28149414 41.41992188 C70.79649414 40.92492188 70.79649414 40.92492188 69.28149414 40.41992188 C68.78649414 39.42992187 68.78649414 39.42992187 68.28149414 38.41992188 C69.60149414 38.41992188 70.92149414 38.41992188 72.28149414 38.41992188 C72.28149414 32.14992188 72.28149414 25.87992188 72.28149414 19.41992188 C70.24896166 20.33456149 68.2164987 21.24935582 66.18432617 22.16479492 C64.3999842 22.96697701 62.61447891 23.76657595 60.82788086 24.5637207 C56.09211477 26.68117451 51.38355014 28.83754045 46.71118164 31.09179688 C45.82140625 31.51340088 44.93163086 31.93500488 44.01489258 32.36938477 C42.30488662 33.18101339 40.60200284 34.00785986 38.9074707 34.85131836 C38.12597656 35.21813721 37.34448242 35.58495605 36.53930664 35.96289062 C35.86013184 36.29313232 35.18095703 36.62337402 34.48120117 36.96362305 C28.8864737 38.12417195 22.91606021 33.82484268 18.07446289 31.28710938 C17.30846268 30.89041046 16.54246246 30.49371155 15.75325012 30.08499146 C13.32301582 28.82572445 10.89584017 27.56070468 8.46899414 26.29492188 C6.0238827 25.02282092 3.57813894 23.75197227 1.13117981 22.48342896 C-0.38799065 21.69555015 -1.90601854 20.90546374 -3.42280579 20.11300659 C-6.42585782 18.25125023 -6.42585782 18.25125023 -9.71850586 17.41992188 Z " fill="#000000" transform="translate(18.718505859375,14.580078125)"/>
<path d="M0 0 C0.99 0 1.98 0 3 0 C3 0.99 3 1.98 3 3 C2.01 2.67 1.02 2.34 0 2 C0 1.34 0 0.68 0 0 Z " fill="#000000" transform="translate(24,59)"/>
<path d="M0 0 C0.66 0 1.32 0 2 0 C2 0.66 2 1.32 2 2 C1.34 2 0.68 2 0 2 C0 1.34 0 0.68 0 0 Z " fill="#000000" transform="translate(49,71)"/>
<path d="M0 0 C0.66 0 1.32 0 2 0 C2 0.66 2 1.32 2 2 C1.34 2 0.68 2 0 2 C0 1.34 0 0.68 0 0 Z " fill="#000000" transform="translate(73,33)"/>
</svg>
