<?xml version="1.0" encoding="UTF-8"?>
<!DOCTYPE svg PUBLIC "-//W3C//DTD SVG 1.1//EN" "http://www.w3.org/Graphics/SVG/1.1/DTD/svg11.dtd">
<svg xmlns="http://www.w3.org/2000/svg" version="1.1" width="512px" height="512px" style="shape-rendering:geometricPrecision; text-rendering:geometricPrecision; image-rendering:optimizeQuality; fill-rule:evenodd; clip-rule:evenodd" xmlns:xlink="http://www.w3.org/1999/xlink">
<g><path style="opacity:0.964" fill="#000000" d="M -0.5,69.5 C -0.5,66.5 -0.5,63.5 -0.5,60.5C 13.392,19.1356 42.0587,1.30229 85.5,7C 110.995,14.1605 126.495,30.6605 132,56.5C 132.799,68.9752 131.799,81.3086 129,93.5C 119.14,123.025 98.6402,139.025 67.5,141.5C 38.6033,139.425 19.4366,124.758 10,97.5C 6.02565,81.4839 12.1923,73.9839 28.5,75C 30.5,76 32.5,77 34.5,78C 38.3559,82.3549 42.0226,86.8549 45.5,91.5C 61.6502,105.116 77.4835,104.782 93,90.5C 100.002,73.3357 96.1683,59.169 81.5,48C 74.0266,43.7645 66.0266,42.4312 57.5,44C 50.1051,46.531 43.1051,49.8644 36.5,54C 28.5377,60.2935 20.871,66.9602 13.5,74C 7.61025,75.6915 2.94358,74.1915 -0.5,69.5 Z"/></g>
<g><path style="opacity:0.967" fill="#000000" d="M 511.5,72.5 C 511.5,76.1667 511.5,79.8333 511.5,83.5C 508.185,89.1664 503.185,92.333 496.5,93C 456.555,97.1377 416.555,97.6377 376.5,94.5C 331.718,95.7648 287.051,93.9314 242.5,89C 224.56,87.366 209.06,80.5327 196,68.5C 193.268,62.441 194.768,57.6077 200.5,54C 204.167,53.8333 207.833,53.6667 211.5,53.5C 240.156,53.6909 268.822,53.8576 297.5,54C 317.77,54.4927 337.77,56.9927 357.5,61.5C 393.081,58.4906 428.747,57.324 464.5,58C 476.244,58.741 487.911,60.0743 499.5,62C 504.932,63.9363 508.932,67.4363 511.5,72.5 Z"/></g>
<g><path style="opacity:0.965" fill="#000000" d="M -0.5,252.5 C -0.5,249.167 -0.5,245.833 -0.5,242.5C 13.0383,202.219 41.0383,184.385 83.5,189C 113.725,197.218 130.059,216.885 132.5,248C 133.098,268.872 126.932,287.372 114,303.5C 89.9516,325.647 63.4516,329.147 34.5,314C 20.1511,303.818 11.4844,289.984 8.5,272.5C 9.12045,261.044 15.1205,255.878 26.5,257C 33.8571,259.689 39.3571,264.522 43,271.5C 60.0407,288.816 77.0407,288.816 94,271.5C 100.369,248.401 92.2025,233.234 69.5,226C 63.6612,225.151 57.9946,225.817 52.5,228C 46.675,230.745 41.0084,233.745 35.5,237C 27.8716,242.96 20.5382,249.293 13.5,256C 7.99109,258.22 3.32442,257.053 -0.5,252.5 Z"/></g>
<g><path style="opacity:0.971" fill="#000000" d="M 511.5,254.5 C 511.5,258.5 511.5,262.5 511.5,266.5C 509.134,270.194 505.801,272.694 501.5,274C 491.261,275.992 480.928,277.325 470.5,278C 439.308,278.916 408.141,278.416 377,276.5C 333.736,278.124 290.569,276.624 247.5,272C 228.436,270.984 211.603,264.484 197,252.5C 193.301,246.653 194.135,241.486 199.5,237C 201.199,236.042 203.033,235.542 205,235.5C 239.486,236.31 273.986,236.81 308.5,237C 325.801,238.142 342.967,240.308 360,243.5C 388.141,241.651 416.308,240.318 444.5,239.5C 462.585,240.008 480.585,241.508 498.5,244C 504.523,245.534 508.856,249.034 511.5,254.5 Z"/></g>
<g><path style="opacity:0.965" fill="#000000" d="M -0.5,433.5 C -0.5,430.833 -0.5,428.167 -0.5,425.5C 13.5549,383.648 42.5549,365.815 86.5,372C 115.289,380.777 130.622,400.11 132.5,430C 133.727,454.679 125.394,475.345 107.5,492C 87.8306,506.444 66.4973,509.444 43.5,501C 23.7396,491.667 12.0729,476.167 8.5,454.5C 11.4439,440.002 19.7773,435.835 33.5,442C 38.8333,448 44.1667,454 49.5,460C 65.8407,470.125 80.674,468.292 94,454.5C 100.721,428.58 91.0545,412.913 65,407.5C 45.9491,411.534 30.1157,421.034 17.5,436C 10.5215,441.265 4.52153,440.432 -0.5,433.5 Z"/></g>
<g><path style="opacity:0.968" fill="#000000" d="M 511.5,437.5 C 511.5,441.167 511.5,444.833 511.5,448.5C 507.648,453.935 502.315,457.101 495.5,458C 456.336,462.456 417.169,462.623 378,458.5C 350.193,460.48 322.36,460.313 294.5,458C 277.808,456.972 261.141,455.639 244.5,454C 225.846,452.749 209.68,445.915 196,433.5C 193.318,427.365 194.818,422.531 200.5,419C 234.5,418.333 268.5,418.333 302.5,419C 322.765,420.388 342.932,422.554 363,425.5C 397.797,423.015 432.63,422.182 467.5,423C 477.506,423.94 487.506,424.94 497.5,426C 504.019,427.737 508.686,431.57 511.5,437.5 Z"/></g>
</svg>
