<?xml version="1.0" encoding="UTF-8"?>
<!DOCTYPE svg PUBLIC "-//W3C//DTD SVG 1.1//EN" "http://www.w3.org/Graphics/SVG/1.1/DTD/svg11.dtd">
<svg xmlns="http://www.w3.org/2000/svg" version="1.1" width="512px" height="512px" style="shape-rendering:geometricPrecision; text-rendering:geometricPrecision; image-rendering:optimizeQuality; fill-rule:evenodd; clip-rule:evenodd" xmlns:xlink="http://www.w3.org/1999/xlink">
<g><path style="opacity:0.946" fill="#000000" d="M 128.5,29.5 C 155.119,29.5706 181.619,30.9039 208,33.5C 239.97,32.9017 271.97,31.9017 304,30.5C 314.67,30.3672 324.837,32.5338 334.5,37C 343.655,43.7989 348.822,52.9656 350,64.5C 353.715,92.0898 354.382,119.756 352,147.5C 349.833,150.287 346.999,151.12 343.5,150C 342.874,149.25 342.374,148.416 342,147.5C 341.667,128.167 341.333,108.833 341,89.5C 340.657,80.7548 339.657,72.0881 338,63.5C 332.888,46.5092 321.388,39.5092 303.5,42.5C 250.078,45.8123 196.744,45.1456 143.5,40.5C 131.378,40.8675 119.378,42.3675 107.5,45C 89.668,49.831 79.168,61.331 76,79.5C 75.0142,90.0413 74.1808,100.541 73.5,111C 74.6869,138.59 75.3536,166.256 75.5,194C 73.102,271.828 72.9353,349.661 75,427.5C 75.3948,448.894 86.2281,460.06 107.5,461C 175.502,460.892 243.502,460.226 311.5,459C 325.795,458.793 334.962,451.959 339,438.5C 340.108,425.205 340.608,411.872 340.5,398.5C 340.127,380.16 339.961,361.827 340,343.5C 347.009,339.404 350.676,341.404 351,349.5C 352.314,375.489 352.647,401.489 352,427.5C 352.121,439.809 348.287,450.642 340.5,460C 344.015,459.999 347.515,459.499 351,458.5C 353.441,459.15 354.608,460.817 354.5,463.5C 353.153,469.352 349.486,473.185 343.5,475C 338.351,476.916 333.017,477.916 327.5,478C 249.84,479.784 172.173,480.784 94.5,481C 60.2707,479.099 43.7707,460.932 45,426.5C 42.8471,322.173 41.5138,217.84 41,113.5C 41.6213,86.4417 51.7879,63.9417 71.5,46C 77.3908,41.8873 83.7242,38.5539 90.5,36C 103.211,33.2809 115.877,31.1143 128.5,29.5 Z"/></g>
<g><path style="opacity:0.936" fill="#000000" d="M 372.5,146.5 C 374.527,146.338 376.527,146.505 378.5,147C 409,177.5 439.5,208 470,238.5C 470.667,240.5 470.667,242.5 470,244.5C 439.136,274.366 407.969,303.866 376.5,333C 375.128,333.402 373.795,333.902 372.5,334.5C 366.419,330.375 360.252,326.375 354,322.5C 353.219,303.809 353.385,285.142 354.5,266.5C 320.476,266.927 286.476,266.427 252.5,265C 249.01,262.509 245.843,259.675 243,256.5C 241.55,240.19 241.217,223.857 242,207.5C 245.883,203.95 250.049,200.783 254.5,198C 287.832,197.5 321.165,197.333 354.5,197.5C 354.08,183.419 354.913,169.419 357,155.5C 362.443,152.866 367.61,149.866 372.5,146.5 Z M 381.5,166.5 C 406.632,191.132 431.632,215.965 456.5,241C 430.667,265.5 404.833,290 379,314.5C 378.667,295.833 378.333,277.167 378,258.5C 377.167,257.667 376.333,256.833 375.5,256C 337.835,255.323 300.168,254.823 262.5,254.5C 262.5,239.167 262.5,223.833 262.5,208.5C 301.168,208.667 339.835,208.5 378.5,208C 379.701,207.097 380.535,205.931 381,204.5C 381.5,191.838 381.667,179.171 381.5,166.5 Z"/></g>
</svg>
