<?xml version="1.0" encoding="UTF-8"?>
<svg version="1.1" xmlns="http://www.w3.org/2000/svg" width="100" height="100">
<path d="M0 0 C5.87399441 4.85243017 8.43864224 10.53011179 9.2890625 18.0234375 C9.39347656 19.86808594 9.39347656 19.86808594 9.5 21.75 C9.57476562 22.99523437 9.64953125 24.24046875 9.7265625 25.5234375 C9.77554688 26.46445312 9.82453125 27.40546875 9.875 28.375 C10.65875 28.478125 11.4425 28.58125 12.25 28.6875 C14.875 29.375 14.875 29.375 16.875 32.375 C17.08329732 35.20654744 17.17902052 37.93725026 17.17578125 40.76953125 C17.18006638 41.59450607 17.1843515 42.4194809 17.18876648 43.26945496 C17.19450875 45.01532067 17.19501079 46.76121031 17.19067383 48.50708008 C17.18752398 51.16724995 17.21093815 53.82629658 17.23632812 56.48632812 C17.23860227 58.18489444 17.23930408 59.88346372 17.23828125 61.58203125 C17.247491 62.37285599 17.25670074 63.16368073 17.26618958 63.97846985 C17.2262026 68.79743401 16.7121113 72.29251643 13.875 76.375 C9.4888587 79.2475554 4.07776472 78.68083306 -0.9921875 78.67578125 C-1.94513702 78.68006638 -2.89808655 78.6843515 -3.87991333 78.68876648 C-5.89210212 78.69449889 -7.90431164 78.69501808 -9.91650391 78.69067383 C-12.98245929 78.68751805 -16.04744534 78.71097233 -19.11328125 78.73632812 C-21.07291546 78.73860176 -23.03255224 78.73930432 -24.9921875 78.73828125 C-26.35813553 78.75209587 -26.35813553 78.75209587 -27.75167847 78.76618958 C-33.29562534 78.72623326 -37.2479596 78.08893328 -42.125 75.375 C-44.54609425 71.74335862 -44.3981334 69.08413819 -44.35546875 64.890625 C-44.35478142 63.78989655 -44.35478142 63.78989655 -44.3540802 62.66693115 C-44.35106034 61.11354965 -44.34318196 59.56017111 -44.33081055 58.00683594 C-44.31267432 55.6476752 -44.3103002 53.28891036 -44.31054688 50.9296875 C-44.30562639 49.41666332 -44.29979577 47.90364178 -44.29296875 46.390625 C-44.29185593 45.69245667 -44.2907431 44.99428833 -44.28959656 44.27496338 C-44.180356 32.79427186 -44.180356 32.79427186 -41.3125 28.9375 C-39.125 27.375 -39.125 27.375 -35.125 27.375 C-35.02703125 26.6015625 -34.9290625 25.828125 -34.828125 25.03125 C-33.35094675 14.74193942 -30.56593392 6.75140337 -22.25 0.0625 C-15.97633689 -3.26444256 -6.30771476 -3.24942882 0 0 Z M-22.125 7.375 C-25.49828523 11.04441332 -27.0034959 14.28944802 -28.375 19.0625 C-28.71015625 20.20074219 -29.0453125 21.33898437 -29.390625 22.51171875 C-30.20781298 25.2052229 -30.20781298 25.2052229 -30.125 27.375 C-28.475 27.375 -26.825 27.375 -25.125 27.375 C-24.94324219 26.56675781 -24.76148438 25.75851563 -24.57421875 24.92578125 C-24.32285156 23.85714844 -24.07148437 22.78851563 -23.8125 21.6875 C-23.56886719 20.63175781 -23.32523438 19.57601563 -23.07421875 18.48828125 C-21.88592901 14.5908865 -20.62334968 11.49475169 -17.30078125 9.01171875 C-15.57552083 8.1328125 -13.85026042 7.25390625 -12.125 6.375 C-12.125 5.385 -12.125 4.395 -12.125 3.375 C-16.94917026 3.375 -18.35953272 4.4724523 -22.125 7.375 Z M-9.125 3.375 C-8.795 4.695 -8.465 6.015 -8.125 7.375 C-7.465 6.055 -6.805 4.735 -6.125 3.375 C-7.115 3.375 -8.105 3.375 -9.125 3.375 Z M-4.125 5.375 C-4.125 6.035 -4.125 6.695 -4.125 7.375 C-3.135 7.045 -2.145 6.715 -1.125 6.375 C-2.115 6.045 -3.105 5.715 -4.125 5.375 Z M-5.125 7.375 C-4.125 9.375 -4.125 9.375 -4.125 9.375 Z M-1.125 7.375 C-1.455 9.025 -1.785 10.675 -2.125 12.375 C-0.805 11.715 0.515 11.055 1.875 10.375 C0.885 9.385 -0.105 8.395 -1.125 7.375 Z M-19.125 14.375 C-21.48531272 18.89735916 -22.125 22.20641432 -22.125 27.375 C-15.855 27.705 -9.585 28.035 -3.125 28.375 C-2.03397995 22.91989974 -2.33907979 19.5493418 -4.125 14.375 C-5.6901419 11.72345969 -5.6901419 11.72345969 -8.125 10.375 C-13.16590516 9.51697359 -15.68924154 10.66066653 -19.125 14.375 Z M0.875 14.375 C0.215 15.035 -0.445 15.695 -1.125 16.375 C-1.14668637 19.28175183 -1.14668637 19.28175183 -0.75 22.5 C-0.63914063 23.59570312 -0.52828125 24.69140625 -0.4140625 25.8203125 C-0.31867188 26.66335937 -0.22328125 27.50640625 -0.125 28.375 C1.525 28.375 3.175 28.375 4.875 28.375 C4.545 24.085 4.215 19.795 3.875 15.375 C2.885 15.045 1.895 14.715 0.875 14.375 Z M-37.125 32.375 C-37.455 34.025 -37.785 35.675 -38.125 37.375 C-36.64 38.365 -36.64 38.365 -35.125 39.375 C-34.795 40.365 -34.465 41.355 -34.125 42.375 C-36.6 41.385 -36.6 41.385 -39.125 40.375 C-37.8160428 43.49697478 -37.8160428 43.49697478 -35.125 45.375 C-35.125 46.035 -35.125 46.695 -35.125 47.375 C-35.785 48.035 -36.445 48.695 -37.125 49.375 C-36.465 50.695 -35.805 52.015 -35.125 53.375 C-36.445 52.715 -37.765 52.055 -39.125 51.375 C-39.125 56.655 -39.125 61.935 -39.125 67.375 C-38.135 67.375 -37.145 67.375 -36.125 67.375 C-36.125 68.035 -36.125 68.695 -36.125 69.375 C-35.465 69.375 -34.805 69.375 -34.125 69.375 C-33.795 70.695 -33.465 72.015 -33.125 73.375 C-32.795 72.055 -32.465 70.735 -32.125 69.375 C-31.135 69.375 -30.145 69.375 -29.125 69.375 C-29.455 70.695 -29.785 72.015 -30.125 73.375 C-29.135 73.375 -28.145 73.375 -27.125 73.375 C-26.795 72.715 -26.465 72.055 -26.125 71.375 C-24.64 70.88 -24.64 70.88 -23.125 70.375 C-23.455 71.365 -23.785 72.355 -24.125 73.375 C-23.465 73.375 -22.805 73.375 -22.125 73.375 C-22.125 72.055 -22.125 70.735 -22.125 69.375 C-21.135 69.375 -20.145 69.375 -19.125 69.375 C-19.125 70.695 -19.125 72.015 -19.125 73.375 C-16.815 73.375 -14.505 73.375 -12.125 73.375 C-12.125 72.385 -12.125 71.395 -12.125 70.375 C-11.135 70.375 -10.145 70.375 -9.125 70.375 C-8.795 71.365 -8.465 72.355 -8.125 73.375 C-7.795 72.385 -7.465 71.395 -7.125 70.375 C-6.135 70.045 -5.145 69.715 -4.125 69.375 C-4.455 70.695 -4.785 72.015 -5.125 73.375 C-4.50625 73.065625 -3.8875 72.75625 -3.25 72.4375 C-1.875 71.75 -0.5 71.0625 0.875 70.375 C0.875 71.365 0.875 72.355 0.875 73.375 C6.33551798 73.98588336 6.33551798 73.98588336 10.9375 71.6875 C12.09667778 68.82819482 11.76410615 67.28480194 10.875 64.375 C8.895 65.035 6.915 65.695 4.875 66.375 C5.184375 65.611875 5.49375 64.84875 5.8125 64.0625 C6.55393593 62.18710323 7.23728217 60.28815348 7.875 58.375 C8.555625 57.88 9.23625 57.385 9.9375 56.875 C10.576875 56.38 11.21625 55.885 11.875 55.375 C11.875 54.385 11.875 53.395 11.875 52.375 C10.885 51.715 9.895 51.055 8.875 50.375 C9.865 50.045 10.855 49.715 11.875 49.375 C12.22400558 45.65763359 12.22400558 45.65763359 10.375 42.5625 C9.88 42.170625 9.385 41.77875 8.875 41.375 C9.865 41.375 10.855 41.375 11.875 41.375 C12.04177282 37.95843976 12.04177282 37.95843976 11.875 34.375 C9.97129126 32.03483112 9.97129126 32.03483112 6.71044922 32.14794922 C5.36682037 32.14826611 4.0231659 32.15957819 2.6796875 32.1796875 C1.61852219 32.18393234 1.61852219 32.18393234 0.53591919 32.18826294 C-1.7262251 32.19946863 -3.98797515 32.22457321 -6.25 32.25 C-7.78254637 32.26002933 -9.31509894 32.26915526 -10.84765625 32.27734375 C-14.60692301 32.29940914 -18.36589464 32.33394104 -22.125 32.375 C-21.795 34.025 -21.465 35.675 -21.125 37.375 C-22.115 37.87 -22.115 37.87 -23.125 38.375 C-23.785 36.395 -24.445 34.415 -25.125 32.375 C-25.785 32.375 -26.445 32.375 -27.125 32.375 C-27.125 33.365 -27.125 34.355 -27.125 35.375 C-27.66125 34.88 -28.1975 34.385 -28.75 33.875 C-31.71858445 32.00010456 -33.67812427 32.13998575 -37.125 32.375 Z " fill="#000000" transform="translate(65.125,10.625)"/>
<path d="M0 0 C0.70125 -0.01675781 1.4025 -0.03351562 2.125 -0.05078125 C2.74375 0.06910156 3.3625 0.18898437 4 0.3125 C6.30718378 3.77327566 6.04647945 5.65017597 5.93359375 9.6875 C6.03248023 13.59642447 6.84930498 17.30922932 7.66015625 21.125 C7.77230469 21.846875 7.88445313 22.56875 8 23.3125 C7 24.3125 7 24.3125 4.05859375 24.41015625 C2.86363281 24.39855469 1.66867188 24.38695313 0.4375 24.375 C-1.35880859 24.36146484 -1.35880859 24.36146484 -3.19140625 24.34765625 C-4.11824219 24.33605469 -5.04507813 24.32445313 -6 24.3125 C-6.94764511 20.61405174 -6.94188922 18.12264156 -6 14.4375 C-5.25652615 11.16034554 -4.89038102 8.62383945 -5.5 5.3125 C-5.665 4.3225 -5.83 3.3325 -6 2.3125 C-3.67471713 -0.01278287 -3.15334102 0.01738975 0 0 Z M-3 3.3125 C-2.9278125 3.91578125 -2.855625 4.5190625 -2.78125 5.140625 C-2.6884375 5.93984375 -2.595625 6.7390625 -2.5 7.5625 C-2.4071875 8.35140625 -2.314375 9.1403125 -2.21875 9.953125 C-2 12.3125 -2 12.3125 -2 16.3125 C-1.34 16.3125 -0.68 16.3125 0 16.3125 C0.33 16.9725 0.66 17.6325 1 18.3125 C1.66 17.9825 2.32 17.6525 3 17.3125 C3.02685938 15.16673363 3.04633088 13.02087355 3.0625 10.875 C3.07410156 9.68003906 3.08570313 8.48507813 3.09765625 7.25390625 C3.33901792 4.42376659 3.33901792 4.42376659 2 3.3125 C0.33382885 3.27186168 -1.33388095 3.269779 -3 3.3125 Z M3 18.3125 C4 21.3125 4 21.3125 4 21.3125 Z " fill="#000000" transform="translate(53,52.6875)"/>
<path d="M0 0 C0.99 0 1.98 0 3 0 C3 0.99 3 1.98 3 3 C2.01 3 1.02 3 0 3 C0 2.01 0 1.02 0 0 Z " fill="#000000" transform="translate(65,46)"/>
<path d="M0 0 C0.99 0 1.98 0 3 0 C3 0.99 3 1.98 3 3 C2.01 3 1.02 3 0 3 C0 2.01 0 1.02 0 0 Z " fill="#000000" transform="translate(57,46)"/>
<path d="M0 0 C0.99 0.33 1.98 0.66 3 1 C3 1.66 3 2.32 3 3 C2.01 3 1.02 3 0 3 C0 2.01 0 1.02 0 0 Z " fill="#000000" transform="translate(62,50)"/>
</svg>
