<?xml version="1.0" standalone="no"?>
<!DOCTYPE svg PUBLIC "-//W3C//DTD SVG 20010904//EN"
 "http://www.w3.org/TR/2001/REC-SVG-20010904/DTD/svg10.dtd">
<svg version="1.0" xmlns="http://www.w3.org/2000/svg"
 width="300.000000pt" height="300.000000pt" viewBox="0 0 300.000000 300.000000"
 preserveAspectRatio="xMidYMid meet">
<metadata>
Created by potrace 1.10, written by Peter Selinger 2001-2011
</metadata>
<g transform="translate(0.000000,300.000000) scale(0.100000,-0.100000)"
fill="#000000" stroke="none">
<path d="M1205 2965 c-136 -24 -255 -63 -380 -125 -312 -154 -550 -421 -711
-796 -230 -537 -106 -1138 322 -1568 209 -210 496 -368 784 -431 117 -26 393
-31 516 -11 129 22 284 74 411 137 141 71 169 102 127 143 -23 24 -46 20 -112
-19 -137 -82 -322 -142 -506 -165 -388 -49 -827 113 -1130 415 -185 185 -296
379 -363 635 -34 128 -43 371 -19 506 56 326 248 651 501 853 306 244 681 327
1089 242 456 -96 864 -427 1027 -833 136 -338 107 -723 -85 -1142 -39 -85 -44
-117 -22 -136 26 -21 59 -7 88 37 88 131 191 384 230 567 29 137 32 409 4 535
-125 576 -571 1001 -1201 1143 -119 27 -449 34 -570 13z"/>
<path d="M1450 2065 c-18 -46 -29 -148 -36 -328 l-7 -179 -259 3 c-247 3 -261
3 -274 -16 -18 -24 -18 -66 -1 -89 15 -21 12 -21 213 -10 77 3 184 3 237 -1
l97 -7 0 -263 c0 -246 1 -264 20 -287 24 -32 65 -40 107 -23 61 26 63 47 27
403 -9 85 -14 156 -11 158 2 3 62 0 133 -5 71 -6 188 -13 261 -17 l132 -7 30
31 c40 40 41 80 3 123 l-28 31 -204 -12 c-113 -6 -236 -10 -275 -8 l-70 3 -7
55 c-3 30 -9 138 -13 240 -8 189 -17 230 -50 230 -9 0 -20 -11 -25 -25z"/>
</g>
</svg>
