<?xml version="1.0" standalone="no"?>
<!DOCTYPE svg PUBLIC "-//W3C//DTD SVG 20010904//EN"
 "http://www.w3.org/TR/2001/REC-SVG-20010904/DTD/svg10.dtd">
<svg version="1.0" xmlns="http://www.w3.org/2000/svg"
 width="300.000000pt" height="300.000000pt" viewBox="0 0 300.000000 300.000000"
 preserveAspectRatio="xMidYMid meet">
<metadata>
Created by potrace 1.10, written by Peter Selinger 2001-2011
</metadata>
<g transform="translate(0.000000,300.000000) scale(0.100000,-0.100000)"
fill="#000000" stroke="none">
<path d="M605 2937 c-97 -25 -152 -62 -200 -135 -50 -76 -53 -110 -59 -787 -4
-346 -11 -852 -17 -1123 -12 -546 -9 -591 42 -681 35 -61 92 -101 189 -133 61
-21 88 -22 460 -26 555 -6 1295 22 1398 53 89 27 149 95 171 197 14 60 38 303
56 561 25 368 38 781 33 1131 l-4 338 -54 47 c-30 25 -152 134 -270 241 -119
107 -249 224 -289 260 l-74 64 -666 3 c-519 2 -677 0 -716 -10z m1343 -42 c2
-2 -6 -105 -17 -228 -23 -244 -20 -292 21 -350 28 -39 92 -66 171 -74 77 -7
285 11 415 36 l92 18 0 -372 0 -371 -33 -30 c-30 -27 -32 -32 -29 -86 3 -47 7
-58 21 -58 18 0 41 -18 41 -32 0 -5 -12 -5 -27 -2 -26 7 -27 6 -14 -10 12 -15
11 -20 -12 -44 -31 -32 -33 -42 -12 -42 26 0 55 -33 55 -63 0 -24 -4 -28 -22
-25 -17 2 -22 -2 -20 -13 1 -9 -5 -22 -13 -29 -19 -16 -19 -30 -1 -30 7 0 20
10 29 22 19 29 31 18 22 -21 -4 -19 -13 -31 -23 -31 -12 0 -13 -3 -4 -12 9 -9
4 -20 -24 -49 l-37 -38 37 -38 c26 -28 36 -47 36 -70 0 -35 -8 -41 -28 -21 -8
8 -9 15 0 25 24 29 -4 25 -34 -5 -18 -17 -29 -35 -25 -39 4 -3 13 -1 19 5 9 9
17 7 35 -10 19 -18 23 -32 23 -84 0 -57 -2 -62 -20 -57 -31 8 -33 20 -8 45 33
33 3 36 -33 2 -32 -31 -36 -44 -15 -44 31 0 27 -24 -13 -64 -39 -40 -52 -66
-32 -66 6 0 17 10 25 22 l16 22 25 -24 26 -24 -26 -23 c-21 -20 -28 -22 -44
-11 -27 17 -41 0 -16 -18 20 -15 20 -16 -7 -35 -16 -12 -28 -27 -28 -35 0 -20
10 -17 41 12 l27 25 26 -26 c24 -24 27 -33 21 -69 -10 -66 -26 -109 -52 -144
-20 -27 -27 -31 -39 -21 -13 10 -11 16 11 39 20 20 23 30 14 35 -7 5 -19 0
-30 -13 -20 -26 -32 -27 -49 -7 -11 13 -8 21 20 50 l34 35 28 -27 c36 -35 50
-21 15 15 -25 26 -26 29 -10 45 9 9 14 20 10 24 -4 4 -15 -1 -24 -10 -16 -16
-19 -15 -50 15 -43 41 -56 28 -15 -15 l32 -33 -35 -34 -35 -34 -37 37 -38 37
60 60 c32 33 56 63 52 67 -4 4 -33 -19 -65 -50 -32 -31 -63 -57 -70 -57 -7 0
-12 -6 -12 -13 0 -8 -11 -24 -25 -37 -24 -23 -25 -23 -45 -5 -21 19 -20 19 47
87 45 45 64 71 57 78 -6 6 -31 -12 -74 -55 -35 -36 -70 -65 -77 -65 -7 0 -13
-6 -13 -12 0 -7 -19 -33 -42 -56 l-41 -44 -24 25 -25 24 53 50 c34 33 49 54
44 63 -5 8 -41 -21 -116 -96 -107 -107 -108 -108 -129 -89 l-20 19 30 31 c33
34 37 45 17 45 -8 0 -44 -32 -82 -71 l-68 -70 -28 27 -29 28 25 26 c14 15 22
30 18 33 -4 4 -36 -22 -72 -57 l-66 -65 -22 24 c-12 14 -17 27 -12 31 5 3 9 9
9 15 0 21 -28 6 -80 -46 l-56 -55 -23 24 -22 24 25 20 c25 19 35 42 18 42 -5
0 -19 -11 -32 -25 -12 -13 -28 -23 -34 -22 -6 1 -10 -3 -9 -9 1 -6 -10 -23
-26 -38 l-27 -26 -24 25 c-22 23 -22 26 -7 43 10 10 14 22 10 26 -4 3 -27 -13
-51 -36 -28 -27 -46 -38 -49 -30 -3 6 -11 12 -19 12 -8 0 -14 7 -14 15 0 22
-13 18 -40 -10 -21 -22 -25 -23 -40 -10 -22 20 -35 7 -15 -15 13 -15 12 -19
-10 -40 -24 -23 -26 -23 -197 -17 -308 12 -411 58 -454 205 -16 53 -16 110 -5
782 6 399 11 903 11 1121 0 243 4 418 11 454 26 142 103 221 239 245 39 8
1300 2 1308 -5z m339 -279 l211 -191 -21 -23 -21 -22 -22 21 c-12 12 -20 27
-17 35 9 25 -15 15 -46 -18 -29 -31 -31 -32 -44 -14 -8 11 -12 28 -9 38 7 28
-11 21 -45 -17 -35 -40 -40 -41 -64 -19 -9 8 -20 11 -23 6 -3 -5 3 -17 14 -27
20 -18 20 -18 -7 -42 l-26 -25 -26 26 -25 26 38 39 c25 25 34 41 26 46 -6 4
-25 -9 -44 -31 -29 -34 -35 -37 -50 -25 -21 18 -33 7 -16 -14 10 -13 11 -18 1
-28 -10 -9 -15 -8 -25 6 -13 17 -36 24 -36 10 0 -3 8 -15 17 -25 12 -13 14
-21 5 -30 -16 -16 -60 36 -68 80 -4 20 1 136 11 259 l19 222 40 -36 c23 -20
136 -122 253 -227z m17 -267 c-16 -18 -18 -18 -36 -2 -18 16 -18 17 3 40 l22
23 15 -21 c12 -18 12 -22 -4 -40z m117 -2 c-18 -19 -19 -19 -41 3 -21 21 -21
22 -4 41 17 19 18 19 41 -3 23 -22 23 -22 4 -41z m128 36 c3 -2 -6 -14 -19
-28 -22 -23 -25 -24 -42 -8 -18 16 -18 17 3 40 18 19 25 21 38 11 9 -7 18 -14
20 -15z m41 -38 c10 -12 10 -15 -1 -15 -8 0 -25 -3 -39 -7 -25 -6 -25 -6 -6
15 23 26 29 27 46 7z m-461 -19 c25 -27 21 -47 -7 -39 -21 5 -45 40 -37 53 9
15 20 12 44 -14z m134 -22 c-5 -14 -73 -21 -73 -7 0 4 10 17 22 30 20 21 23
22 39 7 10 -9 15 -22 12 -30z m104 26 c21 -16 23 -21 9 -25 -9 -3 -23 -7 -32
-10 -9 -3 -23 0 -31 6 -11 10 -11 15 3 30 21 23 20 23 51 -1z m92 -22 c-42 -8
-47 -4 -24 22 17 19 19 19 38 3 18 -17 18 -18 -14 -25z m-381 -7 c3 -8 -1 -12
-9 -9 -7 2 -15 10 -17 17 -3 8 1 12 9 9 7 -2 15 -10 17 -17z m552 -867 c0 -24
-4 -44 -10 -44 -22 0 -42 74 -26 98 15 24 36 -7 36 -54z m-4 -150 c-3 -9 -6
-20 -6 -26 0 -6 -6 -5 -15 2 -12 10 -13 16 -4 26 16 19 33 18 25 -2z m-21
-362 c-3 -3 -15 4 -27 16 l-22 22 25 26 24 26 3 -42 c2 -23 1 -45 -3 -48z
m-22 -314 c-7 -55 -9 -56 -36 -30 l-22 22 25 24 c35 34 39 32 33 -16z m-17
-175 c-5 -6 -36 21 -36 32 0 3 8 17 18 30 l17 23 3 -40 c2 -22 1 -42 -2 -45z
m-236 -138 l34 -35 -27 -27 -27 -28 -37 37 -37 37 24 26 c13 14 26 25 30 25 3
0 21 -16 40 -35z m-170 -60 l-44 -45 -20 20 -20 20 44 45 c44 45 44 45 64 25
20 -20 20 -20 -24 -65z m-141 22 l22 -24 -48 -47 -47 -47 -24 25 -25 24 44 45
c24 24 47 45 50 45 3 1 15 -9 28 -21z m241 -32 c32 -33 33 -35 16 -54 -9 -10
-13 -22 -8 -25 5 -3 32 18 61 46 l51 52 35 -34 c19 -19 35 -38 35 -42 0 -13
-69 -29 -168 -38 l-104 -9 -23 27 -24 27 42 43 c23 23 44 42 47 42 3 0 21 -16
40 -35z m-423 -63 c-15 -15 -27 -35 -27 -43 0 -12 -14 -16 -57 -18 l-58 -2 22
22 c18 19 24 20 38 9 20 -17 32 -5 15 15 -11 13 -8 21 21 51 33 34 33 34 53
14 20 -20 20 -20 -7 -48z m-145 -33 l-32 -32 -25 27 c-14 15 -25 30 -25 33 0
4 12 20 27 35 l27 28 30 -30 30 -30 -32 -31z m392 63 c15 -18 15 -20 -4 -37
-11 -10 -17 -21 -15 -25 6 -9 -83 -22 -96 -14 -8 5 78 93 92 94 3 0 13 -8 23
-18z m-540 -63 c-14 -15 -39 -29 -55 -31 -44 -7 -46 19 -2 64 l37 38 23 -22
23 -22 -26 -27z m-396 21 c21 -34 -4 -60 -57 -60 -37 0 -42 2 -31 14 6 8 18
12 26 9 9 -3 14 2 14 14 0 18 17 43 30 43 3 0 11 -9 18 -20z m259 -41 c-1 -16
-9 -19 -48 -19 -54 0 -58 13 -19 55 l24 25 22 -21 c12 -12 22 -30 21 -40z
m508 31 l29 -30 -63 0 -64 0 29 29 c16 16 32 29 35 30 3 0 18 -12 34 -29z
m-657 -3 c17 -18 19 -26 10 -35 -15 -15 -112 -16 -103 -2 3 6 15 10 26 10 12
0 17 5 14 10 -7 11 11 40 24 40 4 0 17 -10 29 -23z m877 3 c18 -20 17 -20 -20
-20 -37 0 -38 0 -20 20 10 11 19 20 20 20 1 0 10 -9 20 -20z m-530 -20 c18
-20 17 -20 -20 -20 -37 0 -38 0 -20 20 10 11 19 20 20 20 1 0 10 -9 20 -20z"/>
<path d="M1132 2660 c-55 -34 -72 -86 -72 -226 l0 -121 -117 -6 c-77 -3 -133
-11 -161 -22 -104 -42 -122 -174 -30 -221 35 -18 186 -44 259 -44 l46 0 6
-107 c7 -146 21 -196 64 -232 45 -37 86 -45 129 -25 47 23 71 79 84 199 6 55
13 114 16 131 l4 31 98 6 c121 8 192 28 231 68 63 63 45 152 -39 199 -42 23
-53 25 -167 23 -110 -2 -123 0 -123 15 0 51 -22 203 -35 243 -31 94 -120 135
-193 89z m34 -46 c-9 -9 -14 -19 -11 -22 3 -3 13 2 22 11 16 16 18 15 40 -5
13 -12 26 -18 30 -14 5 4 -3 16 -16 27 -13 11 -21 22 -18 25 3 4 19 -7 35 -23
34 -33 50 -95 58 -218 9 -138 -6 -125 150 -125 140 0 181 -10 211 -49 20 -26
15 -75 -9 -99 -35 -32 -70 -41 -201 -53 -67 -6 -128 -13 -134 -15 -8 -2 -13
-23 -13 -56 0 -89 -28 -251 -49 -278 -20 -28 -60 -37 -90 -20 -38 20 -52 66
-64 213 l-12 142 -105 11 c-202 21 -219 26 -185 54 12 10 18 10 32 -1 15 -12
16 -12 11 8 -4 15 2 29 18 44 l24 22 25 -23 c28 -27 35 -8 8 22 -13 14 -14 21
-5 30 7 7 12 16 12 20 0 13 -28 9 -33 -4 -3 -10 -9 -9 -21 3 -16 15 -13 17 36
22 45 6 56 4 73 -14 l20 -20 -27 -20 c-16 -12 -28 -27 -28 -35 0 -21 10 -17
42 13 27 26 28 26 42 7 19 -25 34 -9 17 18 -11 18 -10 23 8 41 20 20 21 20 41
2 15 -14 17 -21 9 -32 -15 -17 -3 -31 13 -15 9 9 15 9 25 0 17 -14 31 -2 15
14 -9 9 -6 18 14 39 14 15 21 29 16 33 -5 3 -20 -6 -32 -19 -22 -23 -25 -24
-42 -8 -18 17 -25 68 -9 77 4 3 16 -3 26 -14 21 -24 35 -26 35 -5 0 8 -10 19
-21 26 -21 11 -20 12 22 56 35 36 39 45 22 40 -14 -3 -29 3 -42 17 l-21 22 24
23 c16 15 26 19 31 12 3 -6 11 -8 17 -5 6 4 6 10 -1 17 -8 8 -6 16 6 29 21 24
9 36 -15 15 -17 -16 -20 -15 -41 7 l-22 24 22 16 c28 19 37 13 15 -10z m-23
-52 c16 -17 15 -20 -7 -41 -28 -26 -39 -16 -30 28 7 36 14 38 37 13z m-4 -159
c-29 -30 -39 -21 -39 34 l0 47 30 -29 30 -29 -21 -23z m-104 -143 c-3 -5 -13
-10 -21 -10 -8 0 -14 5 -14 10 0 6 9 10 21 10 11 0 17 -4 14 -10z m-182 -28
c16 -17 15 -20 -8 -42 l-25 -24 -30 29 -30 29 22 13 c32 17 52 16 71 -5z m-74
-56 c20 -21 21 -27 9 -45 -24 -40 -48 -20 -48 40 0 35 9 37 39 5z"/>
<path d="M690 1355 c-6 -8 -9 -19 -5 -25 4 -7 266 -10 821 -10 738 0 815 2
821 16 3 9 0 20 -8 25 -8 5 -369 9 -815 9 -690 0 -803 -2 -814 -15z"/>
<path d="M690 970 c0 -20 7 -20 805 -20 798 0 805 0 805 20 0 20 -7 20 -805
20 -798 0 -805 0 -805 -20z"/>
<path d="M685 620 c-3 -5 -3 -14 0 -20 4 -6 213 -10 596 -10 582 0 589 0 589
20 0 20 -7 20 -589 20 -383 0 -592 -4 -596 -10z"/>
</g>
</svg>
