<?xml version="1.0" encoding="UTF-8"?>
<svg version="1.1" xmlns="http://www.w3.org/2000/svg" width="1000" height="1080">
<path d="M0 0 C307.23 0 614.46 0 931 0 C931 299.64 931 599.28 931 908 C623.77 908 316.54 908 0 908 C0 608.36 0 308.72 0 0 Z " fill="#A73031" transform="translate(31,38)"/>
<path d="M0 0 C307.23 0 614.46 0 931 0 C931 299.64 931 599.28 931 908 C623.77 908 316.54 908 0 908 C0 608.36 0 308.72 0 0 Z M284 104 C283.39027344 104.31259766 282.78054688 104.62519531 282.15234375 104.94726562 C259.78345853 116.41666219 238.63600941 130.31754953 219 146 C218.07058594 146.73605469 217.14117187 147.47210938 216.18359375 148.23046875 C210.15075877 153.07904878 204.42518561 158.19719463 198.7578125 163.4609375 C196.60295403 165.44487236 194.42456898 167.36156514 192.1875 169.25 C182.80126236 177.39394148 173.9838483 186.48547926 166 196 C165.0809449 197.05731085 164.16020341 198.11315691 163.23828125 199.16796875 C156.814661 206.53952085 150.69769105 214.04653163 145 222 C144.47116211 222.73524902 143.94232422 223.47049805 143.39746094 224.22802734 C136.19314447 234.27827006 129.19762642 244.37786526 123.06982422 255.125 C122.34571696 256.39408804 121.61537889 257.65963778 120.87939453 258.921875 C92.20642541 308.11011751 75.27770749 361.69504323 68 418 C67.90780685 418.71265015 67.81561371 419.42530029 67.72062683 420.1595459 C66.8415809 427.76372704 66.83609564 435.35386196 66.83203125 443 C66.82880661 444.44474315 66.8254417 445.889486 66.82194519 447.33422852 C66.81598923 450.35319777 66.81410144 453.37213857 66.81469727 456.39111328 C66.81477825 459.44944203 66.80787586 462.50762012 66.79418945 465.56591797 C66.58991978 489.36164174 66.58991978 489.36164174 69 513 C69.11630768 513.75047607 69.23261536 514.50095215 69.35244751 515.27416992 C70.23784538 520.94781634 71.22328575 526.60039629 72.25 532.25 C72.4030661 533.09962311 72.5561322 533.94924622 72.71383667 534.82461548 C74.97259576 547.29245683 77.57598277 559.53753593 81.296875 571.66259766 C81.99314079 573.97719789 82.62834442 576.30108397 83.25 578.63671875 C96.37345883 626.79941255 121.97999331 673.15982355 153 712 C153.73605469 712.92941406 154.47210938 713.85882812 155.23046875 714.81640625 C160.03698854 720.79690787 165.10144843 726.48376384 170.3203125 732.1015625 C172.70804891 734.68421617 175.04633644 737.30175993 177.375 739.9375 C185.36864264 748.83527098 193.86307922 757.28003485 203 765 C204.01289941 765.88667391 205.02449966 766.77483301 206.03515625 767.6640625 C227.3350996 786.31957806 250.91811699 802.13995522 275.72509766 815.74951172 C277.74649719 816.86065235 279.7554522 817.99077237 281.76171875 819.12890625 C323.06973782 842.02640842 370.36212378 855.80050756 417 862 C418.05896484 862.15098145 419.11792969 862.30196289 420.20898438 862.45751953 C435.52594761 864.61539566 450.6181365 865.26753905 466.0625 865.25 C466.91474152 865.24931519 467.76698303 865.24863037 468.64505005 865.2479248 C484.02494437 865.20709536 499.65311969 865.15761087 514.875 862.75 C516.13231934 862.56038696 516.13231934 862.56038696 517.41503906 862.36694336 C520.27936245 861.92669387 523.13975986 861.46603529 526 861 C527.14952148 860.8138916 528.29904297 860.6277832 529.48339844 860.43603516 C593.77920654 849.92957352 657.63056308 825.88533722 709.2578125 785.36132812 C710.96115217 784.03035531 712.6798118 782.72269823 714.40625 781.421875 C735.16580534 765.74579242 755.25311923 747.95761172 772 728 C772.82886719 727.03707031 773.65773438 726.07414063 774.51171875 725.08203125 C823.80476297 667.70014086 855.80721843 597.19028044 867.375 522.5625 C867.56687897 521.32530212 867.56687897 521.32530212 867.76263428 520.06311035 C868.12896214 517.66956084 868.48487127 515.27473818 868.8359375 512.87890625 C868.99165222 511.84586113 868.99165222 511.84586113 869.1505127 510.79194641 C870.79618731 499.22297929 871.16208861 487.58444299 871.203125 475.9140625 C871.20882507 474.61463715 871.21452515 473.31521179 871.22039795 471.97640991 C871.23079804 469.24191918 871.23671075 466.50745683 871.24023438 463.77294922 C871.24459605 461.02541662 871.25842036 458.27820209 871.28125 455.53076172 C871.41579482 439.00228727 870.88942271 422.84752685 868.37741089 406.48054504 C868.00011493 404.00075536 867.65729938 401.51837383 867.32470703 399.03222656 C855.1986022 309.11758409 804.60768843 217.63691145 735 159 C734.0821875 158.20464844 733.164375 157.40929687 732.21875 156.58984375 C665.34802534 98.85087071 575.02221456 60.47601599 486 59 C484.28345215 58.96132812 484.28345215 58.96132812 482.53222656 58.921875 C413.38121104 57.51386247 345.50611171 71.95750784 284 104 Z " fill="#FEFEFE" transform="translate(31,38)"/>
<path d="M0 0 C0.73004242 0.00221558 1.46008484 0.00443115 2.21224976 0.00671387 C40.59721675 0.1430595 79.2768413 5.45486439 115.9375 17.125 C116.84387207 17.40537109 117.75024414 17.68574219 118.68408203 17.97460938 C158.51942215 30.33659538 195.60629154 48.55552183 229.9375 72.125 C230.5572168 72.54749023 231.17693359 72.96998047 231.81542969 73.40527344 C245.70082732 82.90983961 258.55053673 93.75407037 270.9375 105.125 C271.70707031 105.80304688 272.47664062 106.48109375 273.26953125 107.1796875 C283.45360057 116.16272764 293.18142489 125.73900615 301.9375 136.125 C302.78054688 137.07890625 303.62359375 138.0328125 304.4921875 139.015625 C345.1393817 185.17863241 374.15002758 241.83883497 389.9375 301.125 C390.20014648 302.09518066 390.46279297 303.06536133 390.73339844 304.06494141 C397.56630405 329.61865703 402.08174082 356.48249782 402.10546875 382.9609375 C402.10879715 384.27550934 402.11212555 385.59008118 402.11555481 386.94448853 C402.12150815 389.71967387 402.12339895 392.49482827 402.12280273 395.27001953 C402.12272193 398.07216918 402.12959562 400.87415376 402.14331055 403.67626953 C402.21993746 419.5929777 402.04534777 435.32122876 399.9375 451.125 C399.76373533 452.50939704 399.5903071 453.89383635 399.41723633 455.27832031 C393.91791663 498.06687823 381.85819483 539.31573949 362.9375 578.125 C362.12394043 579.795625 362.12394043 579.795625 361.29394531 581.5 C350.43549484 603.55524851 338.00846347 624.67424834 322.9375 644.125 C322.48955078 644.70894531 322.04160156 645.29289063 321.58007812 645.89453125 C305.00591394 667.47620887 286.8103722 688.57632596 265.9375 706.125 C264.61492187 707.28128906 264.61492187 707.28128906 263.265625 708.4609375 C249.0700796 720.80499077 233.85361256 732.09690638 217.9375 742.125 C216.87305664 742.79813232 216.87305664 742.79813232 215.78710938 743.48486328 C187.92936108 760.96482185 158.30026708 775.05335791 127.08642578 785.40478516 C125.12140782 786.06336309 123.16742948 786.75464733 121.21484375 787.44921875 C34.75294548 817.80184528 -64.97879806 811.42167188 -171.28857422 768.07128906 C-175.24303934 766.17054967 -179.15446292 764.19534101 -183.04638672 762.16992188 C-185.22309981 761.04176348 -187.41007059 759.93504058 -189.59765625 758.828125 C-230.25645672 738.06743162 -269.60477011 707.98244652 -299.3203125 673.1484375 C-301.35535455 670.78486849 -303.45850844 668.48984767 -305.5625 666.1875 C-309.63855637 661.65930965 -313.39596942 656.98729498 -317.0625 652.125 C-317.94349105 650.98527543 -318.82504763 649.84598788 -319.70703125 648.70703125 C-332.22743161 632.42004222 -343.12177482 615.09046139 -353.0625 597.125 C-353.54041992 596.26632324 -354.01833984 595.40764648 -354.51074219 594.52294922 C-366.17066422 573.40519325 -375.57869068 551.05680761 -383.0625 528.125 C-383.4028125 527.08988281 -383.743125 526.05476562 -384.09375 524.98828125 C-385.13361974 521.71353017 -386.10505571 518.42482645 -387.0625 515.125 C-387.28405762 514.38282227 -387.50561523 513.64064453 -387.73388672 512.87597656 C-392.10167039 498.16497772 -395.0300495 483.36540915 -397.53320312 468.23291016 C-398.00695572 465.45114332 -398.53602804 462.68698735 -399.078125 459.91796875 C-402.17150892 442.4612257 -402.40800802 425.13437988 -402.37817383 407.45996094 C-402.37355306 404.49724096 -402.3804365 401.53493253 -402.39868164 398.57226562 C-402.50365203 381.37944589 -402.08289912 364.58670344 -399.43374634 347.54870605 C-399.06370538 345.1328694 -398.73474753 342.71473452 -398.41894531 340.29125977 C-390.6380177 280.94406278 -365.11101594 221.88326462 -331.0625 173.125 C-330.65515625 172.54153809 -330.2478125 171.95807617 -329.828125 171.35693359 C-327.63150016 168.23410507 -325.3659946 165.1695779 -323.0625 162.125 C-322.3096875 161.11824219 -321.556875 160.11148438 -320.78125 159.07421875 C-305.03395122 138.17682024 -287.03700314 118.06450796 -267.0625 101.125 C-265.62777344 99.8565625 -265.62777344 99.8565625 -264.1640625 98.5625 C-245.32594479 81.97998787 -224.74471896 67.71040205 -203.0625 55.125 C-202.09376953 54.56232422 -202.09376953 54.56232422 -201.10546875 53.98828125 C-148.89360033 23.81455847 -91.65269971 6.35727351 -31.63549805 1.42382812 C-29.42219591 1.23871833 -27.20980355 1.04181673 -24.99926758 0.82617188 C-16.66319446 0.03286297 -8.36434148 -0.03384106 0 0 Z M-68.0625 47.125 C-69.69123635 47.4111251 -71.32013204 47.69634527 -72.94921875 47.98046875 C-78.54803661 48.97806513 -83.7757117 49.99103082 -89.0625 52.125 C-91.0243629 52.63005394 -92.98685731 53.13330513 -94.95654297 53.60693359 C-109.33013673 57.14284432 -124.03802487 61.53681181 -137.40625 67.88671875 C-140.15480725 69.16803147 -142.93641592 70.30677199 -145.75 71.4375 C-153.39122948 74.59666464 -160.71748262 78.33958678 -168.0625 82.125 C-168.69591309 82.44871582 -169.32932617 82.77243164 -169.98193359 83.10595703 C-181.08201453 88.79630345 -191.68340749 95.20560499 -202.0625 102.125 C-202.0625 102.785 -202.0625 103.445 -202.0625 104.125 C-202.84367187 104.22748047 -202.84367187 104.22748047 -203.640625 104.33203125 C-207.1505912 105.48126212 -209.872908 107.64143392 -212.8125 109.8125 C-213.43141113 110.26367188 -214.05032227 110.71484375 -214.68798828 111.1796875 C-215.9186729 112.07847679 -217.14740303 112.97994931 -218.37402344 113.88427734 C-219.8266214 114.9516722 -221.29111886 116.00283927 -222.7578125 117.05078125 C-223.47710937 117.57027344 -224.19640625 118.08976562 -224.9375 118.625 C-225.55367187 119.0684375 -226.16984375 119.511875 -226.8046875 119.96875 C-227.21976563 120.3503125 -227.63484375 120.731875 -228.0625 121.125 C-228.0625 121.785 -228.0625 122.445 -228.0625 123.125 C-228.62453125 123.3828125 -229.1865625 123.640625 -229.765625 123.90625 C-232.32954579 125.26669777 -234.51476365 126.85288962 -236.8125 128.625 C-237.61171875 129.2334375 -238.4109375 129.841875 -239.234375 130.46875 C-240.13929688 131.28859375 -240.13929688 131.28859375 -241.0625 132.125 C-241.0625 132.785 -241.0625 133.445 -241.0625 134.125 C-241.61679687 134.35058594 -242.17109375 134.57617188 -242.7421875 134.80859375 C-245.74756155 136.51366286 -247.79237003 138.70299951 -250.1875 141.1875 C-254.86805556 146.02777778 -254.86805556 146.02777778 -257.0625 147.125 C-257.0625 147.785 -257.0625 148.445 -257.0625 149.125 C-258.5475 149.62 -258.5475 149.62 -260.0625 150.125 C-261.64266767 151.64569973 -261.64266767 151.64569973 -263.1875 153.5625 C-265.88197656 156.74379375 -268.62516639 159.85966636 -271.4375 162.9375 C-280.34018492 172.83271399 -288.31045203 183.32306082 -296.0625 194.125 C-296.81402344 195.16269531 -297.56554687 196.20039063 -298.33984375 197.26953125 C-315.1900893 221.00613393 -330.47623018 248.14908562 -339.04296875 276.0859375 C-339.92254256 278.70780886 -340.90852941 281.21834731 -341.9609375 283.7734375 C-350.87494437 305.84602094 -355.4497118 329.71961631 -358.8125 353.1875 C-358.9195929 353.93230621 -359.02668579 354.67711243 -359.13702393 355.44448853 C-365.19782098 398.03525552 -363.41548482 442.31881148 -353.0625 484.125 C-352.8547998 484.97674805 -352.64709961 485.82849609 -352.43310547 486.70605469 C-348.53579923 502.53295742 -343.6741891 517.91924315 -337.81982422 533.125 C-337.06548468 535.11711783 -336.34279871 537.11806553 -335.62890625 539.125 C-332.14195296 548.85782773 -327.87640861 557.98145047 -323.0625 567.125 C-322.485 568.23617187 -321.9075 569.34734375 -321.3125 570.4921875 C-313.1800619 585.89110965 -304.13691955 601.2029909 -293.60424805 615.08764648 C-292.11805852 617.05158181 -290.65728365 619.03180534 -289.203125 621.01953125 C-283.94150997 628.1706467 -278.60670602 635.03271857 -272.51171875 641.5 C-270.58887009 643.56085215 -268.74523778 645.64817768 -266.91015625 647.78515625 C-262.42869517 652.92663077 -257.63184878 657.73967405 -252.8125 662.5625 C-251.93464844 663.45259766 -251.05679688 664.34269531 -250.15234375 665.25976562 C-244.10315814 671.32223641 -237.76286273 676.79837041 -231.0625 682.125 C-229.6525371 683.28091975 -228.24476467 684.43951988 -226.83984375 685.6015625 C-216.35070244 694.21902064 -205.59866055 701.95387317 -194.0625 709.125 C-193.14597656 709.69863281 -192.22945312 710.27226563 -191.28515625 710.86328125 C-190.40730469 711.40339844 -189.52945313 711.94351563 -188.625 712.5 C-187.84253906 712.98210938 -187.06007813 713.46421875 -186.25390625 713.9609375 C-184.17022731 715.06777587 -182.36776513 715.67339909 -180.0625 716.125 C-180.0625 716.785 -180.0625 717.445 -180.0625 718.125 C-167.98139956 724.74456669 -155.70192192 730.65015637 -143.0625 736.125 C-141.99612305 736.59268799 -141.99612305 736.59268799 -140.90820312 737.06982422 C-128.2499983 742.59949282 -115.23588423 746.9927265 -102.0625 751.125 C-101.19093262 751.40230957 -100.31936523 751.67961914 -99.42138672 751.96533203 C-47.05189899 768.3593469 11.63538583 769.40615547 65.28125 759.60546875 C67.66379823 759.17450782 70.04859052 758.76882385 72.4375 758.375 C81.22468003 756.89053728 89.52655284 754.56845419 97.96386719 751.76904297 C100.50793826 750.93885253 103.07001835 750.17039329 105.63232422 749.39868164 C122.85762279 744.1674722 139.66475318 737.8233631 155.9375 730.125 C156.61474121 729.80563477 157.29198242 729.48626953 157.98974609 729.15722656 C168.66441634 724.07896035 178.84697082 718.27308621 188.9375 712.125 C189.65566895 711.68833008 190.37383789 711.25166016 191.11376953 710.80175781 C198.62941465 706.21496653 206.04409573 701.62130006 212.9375 696.125 C213.56785156 695.64289062 214.19820312 695.16078125 214.84765625 694.6640625 C237.73715606 677.12257666 260.18062336 657.97548269 277.9375 635.125 C279.57912128 633.18392989 281.2251752 631.24660231 282.875 629.3125 C288.27403949 622.8369905 293.15215861 616.06187575 297.9375 609.125 C298.35 608.53348145 298.7625 607.94196289 299.1875 607.33251953 C305.64950925 598.04085702 311.3269272 588.43552263 316.67871094 578.46630859 C317.94384861 576.11319178 319.22535696 573.76949548 320.5078125 571.42578125 C325.99964608 561.29296155 330.71488513 550.99744838 335.02807617 540.31323242 C335.97568391 538.03312286 336.98769747 535.78969488 338.01171875 533.54296875 C339.77654684 529.60237192 341.12889268 525.69750663 342.375 521.5625 C342.80285717 520.14697564 343.23125642 518.73161504 343.66015625 517.31640625 C343.8730127 516.61016113 344.08586914 515.90391602 344.30517578 515.17626953 C344.88198138 513.30510326 345.49944188 511.44659275 346.12109375 509.58984375 C354.05965852 485.67003713 358.42124408 461.13754824 360.9375 436.125 C361.09327515 434.58900146 361.09327515 434.58900146 361.25219727 433.02197266 C362.12653424 423.23281205 362.13732726 413.44514828 362.125 403.625 C362.12439575 402.73527496 362.1237915 401.84554993 362.12316895 400.92886353 C362.09910758 387.87748228 361.72966383 375.06703592 359.9375 362.125 C359.81391113 361.13983398 359.69032227 360.15466797 359.56298828 359.13964844 C356.57636207 335.34076274 351.88492791 311.56172226 343.61962891 288.9921875 C342.96087506 287.18898443 342.32951557 285.37584604 341.69921875 283.5625 C340.48058279 280.06934153 339.21925562 276.59548452 337.9375 273.125 C337.68387695 272.43438477 337.43025391 271.74376953 337.16894531 271.03222656 C333.35902788 260.72223493 329.07738875 250.83806155 323.97021484 241.10498047 C322.94682015 239.14286913 321.95001459 237.16905321 320.95703125 235.19140625 C316.47849736 226.38159547 311.47735938 217.94873358 306.25 209.5625 C305.6202124 208.55123047 304.9904248 207.53996094 304.34155273 206.49804688 C300.77247567 200.83717375 297.03840642 195.41080922 292.9375 190.125 C291.89875113 188.75465496 290.86101257 187.38354357 289.82421875 186.01171875 C278.5316002 171.01244988 278.5316002 171.01244988 265.9375 157.125 C264.09194046 155.00575027 262.28766784 152.85768471 260.48828125 150.69921875 C259.97652344 150.17972656 259.46476563 149.66023438 258.9375 149.125 C258.2775 149.125 257.6175 149.125 256.9375 149.125 C256.9375 148.465 256.9375 147.805 256.9375 147.125 C255.32797765 145.35452541 253.68975891 143.75011087 251.9375 142.125 C251.25558594 141.48433594 250.57367187 140.84367187 249.87109375 140.18359375 C244.47140968 135.21090282 238.84544647 130.63216003 233.04345703 126.14648438 C229.69586877 123.5471591 226.48959257 120.87985306 223.375 118 C218.93676326 113.96598928 214.08570674 110.62521403 209.125 107.28125 C206.37719842 105.42244305 203.6870668 103.50708781 201 101.5625 C196.93575538 98.71016358 192.7366207 96.16441152 188.4375 93.6875 C187.51916382 93.15564087 187.51916382 93.15564087 186.58227539 92.61303711 C183.456328 90.72468632 183.456328 90.72468632 179.9375 90.125 C179.9375 89.465 179.9375 88.805 179.9375 88.125 C178.968125 87.6403125 177.99875 87.155625 177 86.65625 C176.36143066 86.33672363 175.72286133 86.01719727 175.06494141 85.68798828 C173.62007971 84.96605486 172.17441207 84.24573265 170.72802734 83.52685547 C167.20770263 81.77465422 163.69866986 80.01020739 160.2265625 78.1640625 C147.92087706 71.68851824 134.97120676 66.91981451 121.9375 62.125 C120.51872559 61.5997876 120.51872559 61.5997876 119.07128906 61.06396484 C108.14885704 57.04293874 97.27041534 53.75364119 85.9375 51.125 C84.0619948 50.62689835 82.18696712 50.12699404 80.3125 49.625 C54.06920757 43.0820538 27.39869339 40.90292123 0.4375 40.9375 C-0.43890137 40.93810425 -1.31530273 40.9387085 -2.21826172 40.93933105 C-24.59408194 40.9810542 -46.04966347 43.10713076 -68.0625 47.125 Z " fill="#851313" transform="translate(500.0625,96.875)"/>
<path d="M0 0 C9.11313623 6.41008735 16.35358201 16.49564176 18.4921875 27.49609375 C19.90122957 40.77820238 18.20892109 52.22349776 10.31640625 63.296875 C4.51900335 70.28603524 -1.85283539 75.61640467 -10.5078125 78.49609375 C-11.7040625 78.90859375 -12.9003125 79.32109375 -14.1328125 79.74609375 C-25.82965728 82.34279329 -37.95478878 81.16120379 -48.1328125 74.80859375 C-58.23740028 67.49699942 -65.87645194 58.00997341 -68.5078125 45.49609375 C-69.42693106 30.29296875 -67.83356483 18.42719337 -57.5078125 6.49609375 C-41.60856319 -9.21027039 -19.08763496 -11.44663467 0 0 Z " fill="#DD7979" transform="translate(619.5078125,580.50390625)"/>
<path d="M0 0 C1.051875 0.5775 2.10375 1.155 3.1875 1.75 C12.28869285 9.03095428 19.48097034 17.29181458 22 29 C22.89491966 43.67081403 21.66916768 55.4693598 12.328125 67.45703125 C4.67268587 75.81892869 -4.9136487 81.64763287 -16.34375 82.33984375 C-30.71724484 82.81876007 -42.119675 80.06085998 -53.07421875 70.1171875 C-62.92780514 59.55824677 -65.64474467 47.1175696 -65.3125 33.1328125 C-65.02526852 27.84057239 -63.63218198 23.59405676 -61 19 C-60.56429688 18.23429687 -60.12859375 17.46859375 -59.6796875 16.6796875 C-52.89295104 5.73931998 -44.22943005 -1.27549494 -31.609375 -4.63671875 C-20.17960875 -6.2279886 -10.24650132 -5.64871226 0 0 Z " fill="#DD7979" transform="translate(452,229)"/>
<path d="M0 0 C0.66386719 0.25523437 1.32773437 0.51046875 2.01171875 0.7734375 C11.73644992 4.93845006 17.47880729 12.90549531 21.90625 22.203125 C25.7677165 32.07744647 25.03160504 43.45273632 21.328125 53.24609375 C16.55025116 63.15315568 8.25143029 71.01439719 -2 75 C-13.12895685 78.6071757 -24.05491854 77.77300672 -34.56640625 72.78125 C-44.03830981 67.57531827 -50.50292822 60.23353637 -54 50 C-54.22429687 49.36578125 -54.44859375 48.7315625 -54.6796875 48.078125 C-57.69674941 38.07635812 -56.50493668 28.30367357 -52 19 C-46.16519814 8.21079537 -37.81079516 1.64772717 -26.3125 -2.25 C-17.33601245 -4.21139787 -8.39436331 -3.69159381 0 0 Z " fill="#DD7979" transform="translate(555,436)"/>
<path d="M0 0 C7.28703354 4.23756842 11.28608521 9.59279055 14.3125 17.375 C16.15094726 27.06863099 15.02356316 34.90595606 9.52734375 43.23046875 C5.32532838 48.5252068 0.54504809 52.15787881 -6 54 C-14.43742312 54.95057708 -22.92786656 55.3496466 -30 50 C-30.62261719 49.55269531 -31.24523437 49.10539063 -31.88671875 48.64453125 C-38.16365775 43.73614918 -41.37628091 37.8479756 -43 30 C-43.88525099 21.5512888 -41.91482132 13.51470406 -36.7265625 6.703125 C-26.63209221 -3.25431628 -12.91560518 -6.38551375 0 0 Z " fill="#DD7979" transform="translate(388,659)"/>
<path d="M0 0 C2.046875 1.39453125 2.046875 1.39453125 3.9375 2.9375 C4.90429688 3.71673828 4.90429688 3.71673828 5.890625 4.51171875 C11.44511566 9.5177618 14.42823876 14.83458401 15.3515625 22.2734375 C15.75070874 31.95798578 13.30358411 37.94266551 8 45.8125 C1.94383216 52.05218808 -5.24518258 55.01906704 -13.8125 55.5 C-21.55437273 55.28440354 -28.11057587 52.27044806 -34.0078125 47.296875 C-35.59182293 45.5934668 -36.8336833 43.91093079 -38.0625 41.9375 C-38.47242188 41.28136719 -38.88234375 40.62523437 -39.3046875 39.94921875 C-43.09273406 32.8041792 -43.35980946 24.51791278 -41.171875 16.79296875 C-38.26935328 9.32204137 -34.10162373 3.93439847 -27.0625 -0.0625 C-19.14850542 -3.31528591 -7.75168585 -4.06295258 0 0 Z " fill="#DD7979" transform="translate(221.0625,393.0625)"/>
<path d="M0 0 C7.37221961 3.49597768 12.97565077 9.40360308 15.9453125 17.01171875 C17.77857344 24.40277711 17.16717841 32.3963316 14.5625 39.5 C9.15720237 48.38363115 2.58773158 52.86888269 -7.4375 55.5 C-15.20559134 56.55349674 -22.24793481 55.23590264 -28.82421875 50.94140625 C-36.03802387 45.20613309 -39.76080983 38.24201175 -40.83984375 29.0859375 C-41.02076234 22.78997063 -40.60441152 17.96019228 -37.4375 12.5 C-37.14359375 11.93023437 -36.8496875 11.36046875 -36.546875 10.7734375 C-28.95993811 -2.07906007 -13.26354399 -4.50267776 0 0 Z " fill="#DD7979" transform="translate(585.4375,258.5)"/>
<path d="M0 0 C7.41265337 4.19584153 13.72698949 8.36288549 16.3125 16.875 C17.4865492 25.55937923 17.44049959 33.41737794 12.15625 40.8203125 C6.96824919 46.60185578 1.45238889 50.32963388 -6.375 51.16015625 C-13.91144431 51.5350559 -19.47861203 50.23491765 -25.6875 45.875 C-31.10003868 40.90483227 -34.27515873 35.01929074 -34.99609375 27.7734375 C-35.30687774 19.278675 -34.4950697 13.32258758 -28.6875 6.875 C-20.11698746 -0.34227372 -10.96269729 -3.34455172 0 0 Z " fill="#DD7979" transform="translate(253.6875,661.125)"/>
<path d="M0 0 C7.00657074 3.22153404 11.0395513 7.76840908 14.88671875 14.30859375 C17.2147484 22.19802756 17.02093624 29.79997956 13.203125 37.15625 C8.89790072 44.25634119 3.79493167 47.52668944 -3.98828125 50.12109375 C-12.6643577 50.97288246 -19.86119502 50.45349703 -26.98828125 45.12109375 C-32.98768728 39.15981954 -36.03984822 32.13651176 -36.48828125 23.74609375 C-36.27046984 16.91817961 -33.90229798 11.33328894 -29.30859375 6.26953125 C-20.89334336 -1.32289466 -10.96441959 -3.22482929 0 0 Z " fill="#DD7979" transform="translate(707.98828125,434.87890625)"/>
<path d="M0 0 C5.89405142 3.84640592 10.12001023 8.45613044 12.03515625 15.328125 C13.09381745 23.72604422 12.00825381 30.38975516 7.03515625 37.328125 C2.14946772 42.73548869 -2.34468258 45.85086301 -9.6875 46.609375 C-18.0232833 47.03090639 -23.54579643 45.32077302 -29.74609375 39.71875 C-34.80071111 34.31724714 -37.07187934 28.63464629 -37.33984375 21.265625 C-37.01752306 12.8208228 -33.00873536 6.94553232 -26.96484375 1.328125 C-19.16910624 -4.66988855 -8.5340715 -4.39868658 0 0 Z " fill="#DD7979" transform="translate(296.96484375,239.671875)"/>
<path d="M0 0 C6.05128699 2.71391053 9.73826841 6.48075046 13.078125 12.15625 C13.45066406 12.77113281 13.82320313 13.38601563 14.20703125 14.01953125 C16.4538792 19.53085783 15.9127135 26.42520817 14.203125 32.01953125 C10.92202967 39.13216883 6.49229537 43.22370073 -0.234375 47.03125 C-7.68007818 49.30282046 -13.98147952 48.84519774 -20.953125 45.359375 C-23.75704642 43.64586746 -25.79387324 41.64905206 -27.921875 39.15625 C-28.64375 38.351875 -29.365625 37.5475 -30.109375 36.71875 C-34.31552378 30.77212586 -34.65176755 24.69459183 -33.52734375 17.703125 C-31.88930301 10.81278588 -28.54519396 6.42051814 -22.921875 2.15625 C-15.81183299 -2.07847928 -7.9069982 -2.28330429 0 0 Z " fill="#DD7979" transform="translate(339.921875,509.84375)"/>
<path d="M0 0 C5.63433144 3.09140309 9.77719744 7.17519369 11.765625 13.28125 C12.62893195 21.61160152 11.69052781 27.08888931 6.890625 33.96875 C2.17602223 39.09934713 -2.33322537 40.04345085 -9.046875 40.59375 C-14.60602675 40.48905788 -18.92048196 38.39549298 -23 34.66796875 C-27.95655364 29.24222679 -29.75232408 23.90946767 -29.54296875 16.58203125 C-28.64467993 9.88466273 -25.01202967 5.57389869 -19.91796875 1.41015625 C-14.63380678 -2.13305212 -5.88560805 -1.89327252 0 0 Z " fill="#DD7878" transform="translate(498.234375,592.71875)"/>
<path d="M0 0 C4.46934804 2.56696756 7.62702948 5.30754166 9.7890625 10.08203125 C10.6313932 16.01707397 10.29261888 21.06026711 6.7890625 26.08203125 C2.80335744 30.08951612 -0.7610895 32.20520063 -6.4609375 32.39453125 C-11.27773691 32.30851697 -14.57577808 31.28421883 -18.2109375 28.08203125 C-21.5600749 24.32591007 -23.51226889 20.64700757 -23.8359375 15.58203125 C-23.4689106 9.83855624 -20.92320853 5.47125263 -16.63671875 1.6953125 C-11.50208336 -1.71580891 -5.71811997 -2.37413108 0 0 Z " fill="#DD7878" transform="translate(635.2109375,769.91796875)"/>
<path d="M0 0 C4.30517742 2.27443336 7.6690143 4.69664179 10 9 C10.75597263 14.41523253 10.93152356 19.98498266 8.5 25 C4.51141879 29.78629745 0.53003413 31.69465105 -5.625 32.4375 C-11.95743339 31.616629 -15.889982 28.795021 -20 24 C-22.22203751 19.97917022 -22.46262478 16.54914366 -22 12 C-20.08281902 6.18309863 -17.5051258 2.92825841 -12 0 C-7.80628719 -1.39790427 -4.28383365 -0.94625778 0 0 Z " fill="#DD7878" transform="translate(491,739)"/>
<path d="M0 0 C4.881441 2.26638332 7.70028068 5.13520912 10 10 C10.78954684 15.40597889 10.72016927 19.6093283 8.1875 24.5 C7.1046875 25.7375 7.1046875 25.7375 6 27 C5.525625 27.5775 5.05125 28.155 4.5625 28.75 C0.78404121 31.77276703 -3.14305061 32.45231932 -7.9453125 32.31640625 C-12.75369292 31.57595223 -16.09858458 28.97257979 -19.375 25.4375 C-22.42236342 20.86645487 -22.76755452 16.33838482 -22 11 C-17.73519318 0.75384586 -10.53020955 -1.27162639 0 0 Z " fill="#DD7878" transform="translate(708,565)"/>
<path d="M0 0 C3.87158307 1.93997251 6.32244932 4.5504599 8.21484375 8.3515625 C9.85230315 13.3224214 9.42728018 17.79228258 7.68359375 22.65625 C4.67923018 27.11099598 1.05607504 29.89677848 -4.12890625 31.34375 C-8.90676033 31.79878372 -11.1091815 31.87322247 -15.37890625 29.65625 C-19.56620194 26.13511499 -22.63234712 22.94025681 -23.40234375 17.36328125 C-23.69135394 11.08286749 -22.17734533 7.14774735 -18.12890625 2.34375 C-13.42431893 -2.08409689 -5.93332719 -1.82898893 0 0 Z " fill="#DD7978" transform="translate(580.12890625,679.65625)"/>
<path d="M0 0 C3.81252879 2.19924315 5.89071458 4.25736674 7.6875 8.375 C8.59173215 13.99846282 8.42041432 18.86208879 5.5625 23.875 C3.03331974 27.31299433 0.85524314 29.11681339 -3.3125 30.375 C-8.35213672 31.0244801 -12.09560738 30.98344631 -16.6875 28.6875 C-20.75072604 25.10799135 -23.89354122 21.91897916 -24.55078125 16.359375 C-24.73698395 10.75369377 -24.08172653 6.6795013 -20.3125 2.375 C-14.35359765 -2.84289895 -7.08773012 -3.13546425 0 0 Z " fill="#DD7878" transform="translate(204.3125,549.625)"/>
<path d="M0 0 C4.74932306 2.37068387 9.15960066 5.93890181 11 11 C11.65798215 15.88072832 11.67370944 20.40258111 9.4375 24.875 C6.01954005 29.25699993 2.97495119 31.54267787 -2.46484375 32.37890625 C-8.14619158 32.64375104 -11.60867624 31.86854712 -16 28 C-20.39893104 23.00661882 -21.35676337 20.08984773 -21.28125 13.5390625 C-20.73016315 8.56397287 -17.99302299 5.87480597 -14.375 2.6875 C-9.73764578 -0.60746221 -5.58952985 -0.86494914 0 0 Z " fill="#DD7878" transform="translate(414,329)"/>
<path d="M0 0 C4.31742818 2.2145429 6.89007122 4.93784419 8.875 9.3046875 C9.63033274 14.52972121 9.53106361 18.82854437 7.375 23.6796875 C3.23524652 28.02642865 -1.04132732 31.5430193 -7.25 31.8046875 C-12.54905178 31.12093888 -15.6880771 29.82143945 -19.375 25.9296875 C-22.72309052 20.90755172 -24.04799899 16.37340589 -23.125 10.3046875 C-21.7105963 6.33471348 -19.60221946 3.75862796 -16.5625 0.8671875 C-11.19596787 -1.57214529 -5.6494582 -1.84853595 0 0 Z " fill="#DD7978" transform="translate(775.125,661.6953125)"/>
<path d="M0 0 C3.77702297 2.63513231 6.60374735 5.7074947 8.6875 9.875 C9.55358472 15.83861192 8.73465604 20.21857395 5.234375 25.14453125 C2.25988022 28.4720595 -0.82149956 30.50490851 -5.36328125 31.1796875 C-11.15843496 31.37613339 -14.70563548 30.29501981 -19 26.5 C-23.20946235 21.72169139 -23.86660147 17.99281644 -23.765625 11.70703125 C-23.03139582 7.1180989 -20.70040663 3.9754008 -17.3125 0.875 C-12.04394927 -2.44223564 -5.71408579 -1.94063291 0 0 Z " fill="#DD7878" transform="translate(329.3125,390.125)"/>
<path d="M0 0 C4.51776141 2.20026703 8.16560753 5.25216067 10 10 C11.01815575 15.96021515 10.04213503 20.39886821 6.55078125 25.3359375 C3.16319977 28.97097455 -0.69541589 29.7865226 -5.4375 30.5625 C-10.33056763 29.78991037 -13.52664928 27.48133543 -17 24 C-19.79335175 19.60657297 -19.63014565 15.04116521 -19 10 C-16.92146189 5.51035769 -14.2719793 2.90215618 -9.921875 0.69921875 C-6.50931956 -0.54234105 -3.54938472 -0.80889711 0 0 Z " fill="#DD7878" transform="translate(400,480)"/>
<path d="M0 0 C3.6592612 1.27664523 6.27198652 3.22501791 8.9375 6.0625 C10.61498248 10.70024569 10.64332654 15.13216255 10 20 C7.8642148 24.42977671 5.60987286 27.19613671 1 29 C-3.53487552 29.53879709 -7.54304103 29.58278359 -11.8125 27.875 C-18.68872727 21.98109091 -18.68872727 21.98109091 -19.41796875 17.33984375 C-19.56240512 12.2295476 -19.58286605 7.94115265 -16 4 C-11.04052137 -0.47562706 -6.40078495 -1.0026546 0 0 Z " fill="#DD7878" transform="translate(633,212)"/>
<path d="M0 0 C3.5677811 2.35149209 5.84221079 4.99692157 7.75 8.8125 C8.31735892 13.46298294 8.2098631 16.90980577 6.0625 21.125 C0.53742515 27.54603293 0.53742515 27.54603293 -3.58203125 28.16015625 C-8.82072379 28.34080082 -12.8751828 27.93736943 -17.25 24.8125 C-20.71987891 21.15999588 -21.55013186 18.2159317 -21.75 13.3125 C-21.55013186 8.4090683 -20.71987891 5.46500412 -17.25 1.8125 C-11.61225045 -2.03142015 -6.27673045 -2.29342074 0 0 Z " fill="#DD7878" transform="translate(409.25,606.1875)"/>
<path d="M0 0 C3.62330073 1.30550527 6.28743796 3.24146622 8.9375 6.0625 C10.61391872 10.69730468 10.65006862 15.13520079 10 20 C7.97890809 24.04218383 5.81775645 26.62239367 2 29 C-2.94035827 29.76120324 -7.65314312 29.39181291 -12.4375 28 C-16.52351928 24.81091178 -18.45144803 20.99464597 -19.3828125 15.91015625 C-19.67771789 10.78863268 -18.29124053 7.81091009 -15 4 C-10.25428396 -0.19388859 -6.10982138 -1.05195185 0 0 Z " fill="#DD7978" transform="translate(648,280)"/>
<path d="M0 0 C5.32468076 2.66234038 7.41755658 5.83511316 10 11 C10.54280937 17.40515061 9.8679143 20.80885186 6 26 C1.12645934 29.59713715 -4.1504729 29.84651693 -10 29 C-13.7292443 27.23708451 -15.49195941 25.71125683 -17.875 22.375 C-19.41216614 17.76350158 -20.05306531 13.79402459 -19 9 C-14.25948491 1.27612074 -8.87894589 -1.09279334 0 0 Z " fill="#DD7979" transform="translate(337,601)"/>
<path d="M0 0 C5.61971831 2.85915493 5.61971831 2.85915493 7 7 C7.66 7 8.32 7 9 7 C10.676194 12.02858199 10.60642735 16.34030411 8.8125 21.25 C6.46100791 24.8177811 3.81557843 27.09221079 0 29 C-1.62165752 29.12148305 -3.24884327 29.17543652 -4.875 29.1875 C-6.17050781 29.20876953 -6.17050781 29.20876953 -7.4921875 29.23046875 C-11.56764376 28.85593305 -13.4726757 27.58758994 -16.1875 24.5625 C-19.13104475 20.40093674 -19.50677759 16.62365972 -19.4921875 11.6484375 C-18.6230304 6.97154454 -15.50448131 4.03668855 -12 1 C-8.29207405 -0.85396298 -4.04657692 -0.45857074 0 0 Z " fill="#DD7978" transform="translate(786,457)"/>
<path d="M0 0 C3.98444521 2.06600863 6.62808993 4.20899844 9 8 C9.89343272 12.52257029 10.02849442 17.06643049 7.828125 21.203125 C4.18290066 25.67510125 0.83875596 27.69800468 -4.9375 28.3125 C-8.70920653 27.92763199 -10.84693242 27.12489337 -14 25 C-17.68811015 20.24427902 -18.70407478 16.38248636 -18.45703125 10.37109375 C-17.68827922 6.38278194 -15.99056066 4.7186915 -13 2 C-8.75761873 -0.53146208 -4.82988853 -0.6875883 0 0 Z " fill="#DD7878" transform="translate(710,245)"/>
<path d="M0 0 C2.87029869 1.79393668 4.49131638 2.98263276 6 6 C6.40710593 10.23390162 6.25575965 12.51588352 4.25 16.3125 C1.26087444 19.88284442 -0.33309354 20.74634032 -4.875 21.4375 C-9.2682371 20.82244681 -10.84565969 19.08098355 -14 16 C-15.60086627 12.79826746 -15.49917089 9.47422941 -15 6 C-11.03690229 -0.20885308 -7.02452124 -0.90991208 0 0 Z " fill="#DD7878" transform="translate(557,196)"/>
<path d="M0 0 C3.07682827 2.99990757 4.86817755 5.51699748 5.25 9.8125 C4.96536066 13.44165156 4.22214094 15.14296165 2 18 C-0.98841367 20.32432174 -4.29702619 20.47116644 -8.03125 20.39453125 C-11.38693026 19.72206358 -12.95936396 17.59717314 -15 15 C-16.60847182 11.78305636 -16.61309149 8.47862778 -16 5 C-11.15198947 -0.99622356 -7.29468855 -1.93400106 0 0 Z " fill="#DC7877" transform="translate(653,521)"/>
<path d="M0 0 C3.6578218 2.03993908 5.66946174 3.50419262 8 7 C8.45971784 11.96495273 8.15065843 15.06167696 5 19 C2.01158633 21.32432174 -1.29702619 21.47116644 -5.03125 21.39453125 C-8.38693026 20.72206358 -9.95936396 18.59717314 -12 16 C-13.57455739 12.85088521 -13.34799118 10.47991184 -13 7 C-9.6917275 1.44506484 -6.43313684 -0.61857085 0 0 Z " fill="#DD7878" transform="translate(691,675)"/>
<path d="M0 0 C3.20267069 0.82136087 5.448146 2.4168886 7.96484375 4.50390625 C9.70116011 7.97653898 9.56674777 11.71583638 8.96484375 15.50390625 C6.7832523 18.25960072 5.09306881 19.93979372 1.96484375 21.50390625 C-1.94312105 21.94799316 -3.78063771 21.64095469 -7.28515625 19.75390625 C-10.89763634 16.79824072 -11.73228878 15.2075358 -12.53515625 10.69140625 C-11.46621204 3.87688689 -7.04755899 -0.63576828 0 0 Z " fill="#DC7878" transform="translate(473.03515625,488.49609375)"/>
<path d="M0 0 C2.875 2.5 2.875 2.5 5 5 C5.33 5.33 5.66 5.66 6 6 C6.38387346 10.99035504 6.08713243 13.99816167 3 18 C-1.01858595 20.6790573 -4.27641721 20.69610694 -9 20 C-11.87029869 18.20606332 -13.49131638 17.01736724 -15 14 C-15.57791538 6.9494324 -15.57791538 6.9494324 -13.25 3.125 C-8.7761967 -1.10025867 -6.10309491 -1.60607761 0 0 Z " fill="#DC7877" transform="translate(783,319)"/>
<path d="M0 0 C2.92810762 1.81651121 5.43591638 3.87183276 7 7 C7.67660495 12.86390959 7.67660495 12.86390959 5.953125 15.7578125 C2.77208909 19.63119152 1.16641693 20.88527047 -3.8125 21.375 C-7.4220118 21.34874901 -7.92687846 21.05911955 -10.9375 18.625 C-13.61291619 15.21992485 -14.18486174 13.85446733 -13.8125 9.625 C-13.41219919 6.39140125 -13.12786514 5.17048685 -11.125 2.5 C-7.48801531 -0.06728331 -4.35947679 -0.51287962 0 0 Z " fill="#DD7878" transform="translate(284,318)"/>
<path d="M0 0 C2.8268603 1.69611618 3.67246262 2.92990894 4.62890625 6.0546875 C5.24370219 9.34467661 5.6030459 11.85563731 4.0078125 14.8828125 C2.2360828 17.05291929 0.51706601 18.74146699 -2 20 C-9.13230769 20.70153846 -9.13230769 20.70153846 -12.9375 17.625 C-15.72363778 14.07900646 -16.54048976 11.71087779 -16.46484375 7.11328125 C-15.71262991 3.69355277 -13.88916011 2.05413467 -11.140625 0.00390625 C-7.29481835 -1.79969285 -3.94957209 -1.29869875 0 0 Z " fill="#DD7878" transform="translate(344,219)"/>
<path d="M0 0 C5.57894737 3.15789474 5.57894737 3.15789474 7 6 C7.42071592 9.05920574 7.48514117 11.9467746 7 15 C4.81840855 17.75569447 3.12822506 19.43588747 0 21 C-4.07909806 21.38482057 -6.29089873 21.44121857 -9.8125 19.25 C-13.21387283 15.75144509 -13.21387283 15.75144509 -14 13 C-13.80829763 7.72818487 -12.74181444 4.74181444 -9 1 C-5.64870516 -0.11709828 -3.51689744 -0.34479387 0 0 Z " fill="#DD7878" transform="translate(448,814)"/>
<path d="M0 0 C3.22656234 2.5969892 3.85460363 4.46687999 4.9375 8.4375 C5.00947972 12.54034414 4.16295247 14.55529792 2 18 C-0.55782957 20.55782957 -1.75394953 20.38443138 -5.3125 20.5 C-10.31762656 20.39490548 -10.31762656 20.39490548 -12.8359375 18.9375 C-15.36490146 16.24773487 -16.3312435 13.52197569 -16.5625 9.9375 C-15.94840565 5.63883954 -15.0775461 3.98703004 -12 1 C-8.28247743 -0.85876129 -4.04870201 -0.56904212 0 0 Z " fill="#DC7878" transform="translate(832,538)"/>
<path d="M0 0 C5.57894737 3.15789474 5.57894737 3.15789474 7 6 C7.55512815 10.63213493 7.6364242 13.98172127 5.125 18 C1.62142946 21.29747816 -1.06242886 21.41854976 -5.734375 21.328125 C-8 21 -8 21 -11.0625 19.125 C-13.77455796 14.75071297 -14.05508586 11.01990068 -13 6 C-9.14049112 1.02326486 -6.24979557 -0.60094188 0 0 Z " fill="#DD7878" transform="translate(284,464)"/>
<path d="M0 0 C5.53846154 3.07692308 5.53846154 3.07692308 7 6 C7.55112923 10.59876684 7.61753151 13.97787887 5.1875 18 C2.33756556 20.60565434 0.45051314 20.95828582 -3.375 21.3125 C-7.59334314 20.94884973 -9.04884992 19.95115008 -12 17 C-13.72869779 13.54260443 -13.48966895 9.78024432 -13 6 C-9.42276748 0.27642798 -6.63835245 -0.55319604 0 0 Z " fill="#DD7878" transform="translate(524,358)"/>
<path d="M0 0 C5.57894737 3.15789474 5.57894737 3.15789474 7 6 C7.55512815 10.63213493 7.6364242 13.98172127 5.125 18 C1.85159987 21.08084718 -0.46126475 21.33387487 -4.9609375 21.29296875 C-8.13134567 20.83745033 -9.8192402 19.24684343 -12 17 C-13.73631636 13.52736727 -13.60190402 9.78806987 -13 6 C-9.08606917 1.05608737 -6.27104539 -0.60298513 0 0 Z " fill="#DD7878" transform="translate(355,737)"/>
<path d="M0 0 C2.75569447 2.18159145 4.43588747 3.87177494 6 7 C6.59873168 12.26883876 5.25400021 14.8846468 2 19 C-1.45739557 20.72869779 -5.21975568 20.48966895 -9 20 C-11.87029869 18.20606332 -13.49131638 17.01736724 -15 14 C-15.5811138 6.91041162 -15.5811138 6.91041162 -13.125 3.0625 C-9.24699241 -0.70144855 -5.21240222 -0.82822281 0 0 Z " fill="#DD7878" transform="translate(739,543)"/>
<path d="M0 0 C4.07390532 1.33327811 5.42613937 2.35369882 7.4375 6.125 C7.4375 9.75575827 6.84926127 11.54548414 4.75 14.5 C1.7230819 16.62702353 0.06894937 16.65458637 -3.5625 16.125 C-5.875 15.125 -5.875 15.125 -7.5625 13.125 C-8.5328055 10.39157842 -8.88215921 8.013149 -8.5625 5.125 C-5.98636568 1.18029432 -4.74154148 0.16636988 0 0 Z " fill="#DB7575" transform="translate(525.5625,825.875)"/>
<path d="M0 0 C2.9375 2.0625 2.9375 2.0625 5 5 C5.07003547 8.99202191 4.58571574 11.15396616 2.3125 14.4375 C-0.73777543 16.49849691 -2.38639069 16.60226822 -6 16 C-8.98496444 13.90245742 -9.85227852 12.50647364 -10.875 9 C-11.00658928 5.84185738 -10.8163322 4.54286509 -9 2 C-5.48175489 -0.34549674 -4.14224306 -0.57991403 0 0 Z " fill="#DB7676" transform="translate(201,648)"/>
<path d="M0 0 C7.38907176 0.4845293 7.38907176 0.4845293 10 2.6875 C11.30419556 5.70345223 11.40721219 7.74230247 11 11 C10 13.3125 10 13.3125 8 15 C5.25133736 16.02926112 2.91533293 16.4310609 0 16 C-3.12265407 13.26767768 -4.73480854 11.42540412 -5.5 7.3125 C-4.91501916 4.60696362 -4.21990857 3.62224088 -2 2 C-1.34 2 -0.68 2 0 2 C0 1.34 0 0.68 0 0 Z " fill="#DB7676" transform="translate(527,651)"/>
<path d="M0 0 C3.72975427 1.15283314 5.35163561 1.75988138 7.4375 5.0625 C7.37702191 8.50975099 7.09986979 10.95855036 5.3125 13.9375 C2.28014294 15.75691423 -0.04116855 16.0625 -3.5625 16.0625 C-6.98514067 13.65936932 -8.33064736 12.17539267 -9.1875 8.0625 C-8.06449489 2.67207546 -5.55537361 0.09746269 0 0 Z " fill="#DB7675" transform="translate(689.5625,618.9375)"/>
<path d="M0 0 C4.11289267 0.85685264 5.59686932 2.20235933 8 5.625 C8 9.14455419 7.63108355 11.47420059 5.9375 14.5625 C2.73774742 16.31720303 -0.4994894 16.251852 -4 15.625 C-6.5 14 -6.5 14 -8 11.625 C-8.5625 8.6875 -8.5625 8.6875 -8 5.625 C-5.54405875 2.30225596 -4.0743356 0.84881992 0 0 Z " fill="#DB7676" transform="translate(225,527.375)"/>
<path d="M0 0 C4.7693662 1.41314554 4.7693662 1.41314554 6.375 4 C7.3125 6.875 7.3125 6.875 7.375 10 C5.875 12.8125 5.875 12.8125 3.375 15 C-0.125 16.0625 -0.125 16.0625 -3.625 16 C-6.92761862 13.91413561 -7.53466686 12.29225427 -8.6875 8.5625 C-8.625 5 -8.625 5 -6.625 2 C-3.625 0 -3.625 0 0 0 Z " fill="#DB7676" transform="translate(444.625,415)"/>
<path d="M0 0 C2.875 1.5 2.875 1.5 5 4 C5.71773256 6.82462492 5.71070236 9.17452478 5 12 C2.9375 14.5625 2.9375 14.5625 0 16 C-3.77910616 16 -6.00693033 15.83289714 -8.9375 13.375 C-10.43699866 10.02317947 -10.45377473 7.63019782 -10 4 C-7.25657347 -0.1151398 -4.81370572 -0.78591114 0 0 Z " fill="#DC7676" transform="translate(638,372)"/>
<path d="M0 0 C3.9375 0.4375 3.9375 0.4375 6.9375 2.4375 C8.06915812 7.03957636 8.5665893 9.1793214 6.4375 13.4375 C3.9375 15.4375 3.9375 15.4375 0.4375 16 C-3.0625 15.4375 -3.0625 15.4375 -5.4375 13.8125 C-7.46244536 10.85296447 -8.0625 9.0323199 -8.0625 5.4375 C-6.0576417 1.4277834 -4.38673954 0.12140423 0 0 Z " fill="#DB7676" transform="translate(166.0625,454.5625)"/>
<path d="M0 0 C4.4480437 0.78035854 5.91226997 2.01104996 8.5625 5.625 C9.1875 8.125 9.1875 8.125 8.5625 10.625 C5.9053669 14.24836332 4.47649461 15.48068506 0 16.1875 C-3.4375 15.625 -3.4375 15.625 -5.875 14 C-7.92134007 10.88956309 -8.03557728 9.28822334 -7.4375 5.625 C-5.35210259 1.78786876 -4.33645599 0.78844654 0 0 Z " fill="#DC7776" transform="translate(421.4375,644.375)"/>
<path d="M0 0 C7.25581395 -0.48372093 7.25581395 -0.48372093 10.5 1.625 C12.48198314 4.76313998 12.67064058 6.34873465 12 10 C9.50915752 13.36996335 8.11411135 14.81810427 3.9375 15.5 C0.57122759 14.92701746 -0.79003464 14.6192182 -3 12 C-3.63443694 9.29697877 -3.81703246 6.79025492 -4 4 C-3.34 4 -2.68 4 -2 4 C-1.34 2.68 -0.68 1.36 0 0 Z " fill="#DB7676" transform="translate(285,588)"/>
<path d="M0 0 C3.375 1.0625 3.375 1.0625 5.3125 2.75 C6.7363395 5.8489448 6.92653827 7.68432812 6.375 11.0625 C3.88897551 14.42594489 2.46074477 15.86307749 -1.6875 16.625 C-4.625 16.0625 -4.625 16.0625 -7 14.5 C-9.27470619 11.08794071 -9.26034983 9.08638226 -8.625 5.0625 C-5.94590469 1.1656341 -4.7824172 0.08245547 0 0 Z " fill="#DC7676" transform="translate(284.625,525.9375)"/>
<path d="M0 0 C2.9375 2.0625 2.9375 2.0625 5 5 C5 8.51955419 4.63108355 10.84920059 2.9375 13.9375 C-0.27905997 15.70141999 -3.49385409 15.73924763 -7 15 C-9.5625 12.9375 -9.5625 12.9375 -11 10 C-11 6.1862249 -10.84985071 3.97575452 -8.3125 1.0625 C-5.2135552 -0.3613395 -3.37817188 -0.55153827 0 0 Z " fill="#DC7777" transform="translate(508,234)"/>
<path d="M0 0 C2.55078958 2.22165544 2.93332671 3.60829443 3.5 6.9375 C3 10 3 10 0.9375 12.9375 C-2 15 -2 15 -5.625 15.0625 C-9 14 -9 14 -10.9375 12.375 C-12.45259656 8.98831357 -12.52368962 6.66582737 -12 3 C-8.33340589 -1.4443565 -5.38867153 -1.59664341 0 0 Z " fill="#DC7777" transform="translate(802,562)"/>
<path d="M0 0 C1.9375 1.0625 1.9375 1.0625 3 3 C3.39302445 6.09506752 3.62908496 8.04448766 3 11 C0.875 13.5625 0.875 13.5625 -2 15 C-5.92828036 14.84286879 -7.70894108 14.19403928 -11 12 C-12.01654361 9.00812733 -12.26757052 6.14395363 -12 3 C-8.48851357 -1.60882594 -5.35655533 -1.48793204 0 0 Z " fill="#DC7777" transform="translate(205,341)"/>
<path d="M0 0 C2.69199568 1.56309426 2.95380694 2.87008201 4 5.8125 C4 9 4 9 2 12.375 C-1 15 -1 15 -4.5625 15.625 C-8 15 -8 15 -10.4375 13.4375 C-12.60396028 10.05782196 -12.56288002 7.94016013 -12 4 C-8.93537785 -0.980011 -5.34000819 -0.59333424 0 0 Z " fill="#DC7777" transform="translate(320,673)"/>
<path d="M0 0 C4.11289267 0.85685264 5.59686932 2.20235933 8 5.625 C8.06584389 9.44394541 7.85572029 11.60471812 5.375 14.5625 C2.02317947 16.06199866 -0.36980218 16.07877473 -4 15.625 C-6.4375 14 -6.4375 14 -8 11.625 C-8.5625 8.6875 -8.5625 8.6875 -8 5.625 C-5.54405875 2.30225596 -4.0743356 0.84881992 0 0 Z " fill="#DC7776" transform="translate(433,186.375)"/>
<path d="M0 0 C3.0099077 2.29014716 4.69783903 3.79135614 5.625 7.5 C4.68875582 11.24497671 3.06965937 12.71408345 0 15 C-3.5625 15.625 -3.5625 15.625 -7 15 C-9.5 12.9375 -9.5 12.9375 -11 10 C-11 6.1862249 -10.84985071 3.97575452 -8.3125 1.0625 C-5.2135552 -0.3613395 -3.37817188 -0.55153827 0 0 Z " fill="#DD7878" transform="translate(819,402)"/>
<path d="M0 0 C1.9375 1.1875 1.9375 1.1875 3 3 C3.41158832 6.86893019 3.29427725 9.78801186 1 13 C-1.56265486 14.92199114 -2.83198949 15.01028636 -6.0625 14.8125 C-10.49877351 13.58544563 -10.49877351 13.58544563 -12 11 C-12.39309578 7.90437069 -12.62338668 5.95663395 -12 3 C-8.3655827 -1.51548816 -5.40521016 -1.50144727 0 0 Z " fill="#DD7878" transform="translate(437,545)"/>
<path d="M0 0 C2.4375 1.625 2.4375 1.625 4 4 C4 7.91243098 3.51020494 10.21506933 1.375 13.5 C-1 15 -1 15 -4.5625 14.9375 C-8 14 -8 14 -9.9375 12.9375 C-11.67884819 9.76210035 -11.55995469 6.5291881 -11 3 C-7.93907656 -1.31311939 -4.90010554 -1.27402744 0 0 Z " fill="#DC7777" transform="translate(384,391)"/>
<path d="M0 0 C2.4375 1.5625 2.4375 1.5625 4 4 C4.4495791 7.59663278 4.36454848 10.05217395 3.0625 13.4375 C0.13463409 15.65558023 -2.30093951 15.56044045 -5.90234375 15.37890625 C-8 15 -8 15 -10.0625 13.4375 C-11.36454848 10.05217395 -11.4495791 7.59663278 -11 4 C-8.11188513 -0.5054592 -5.11821063 -0.73117295 0 0 Z " fill="#DC7777" transform="translate(663,468)"/>
<path d="M0 0 C2.4375 1 2.4375 1 4 3 C4.5659239 7.45665069 4.82483134 9.73102871 2.375 13.5 C-0.76313998 15.48198314 -2.34873465 15.67064058 -6 15 C-9.36344489 12.51397551 -10.80057749 11.08574477 -11.5625 6.9375 C-11 4 -11 4 -9.4375 1.625 C-6.08716465 -0.6085569 -3.9518567 -0.49398209 0 0 Z " fill="#DC7777" transform="translate(587,774)"/>
<path d="M0 0 C2.4375 1.5625 2.4375 1.5625 4 4 C4.56288002 7.94016013 4.60396028 10.05782196 2.4375 13.4375 C-0.96719488 15.61999672 -3.03430012 15.63734462 -7 15 C-9.96135546 12.41830549 -10.86756104 10.81118865 -11.5 6.9375 C-11 4 -11 4 -9.4375 1.625 C-6.06489221 -0.62340519 -3.97487617 -0.56783945 0 0 Z " fill="#DD7877" transform="translate(445,743)"/>
<path d="M0 0 C2.875 1.625 2.875 1.625 5 4 C5.72567326 7.78962702 5.27777899 9.48888666 3.4375 12.875 C1 15 1 15 -2.5 15.5 C-7.9368932 14.72330097 -7.9368932 14.72330097 -10 12 C-10.55983906 8.90068481 -10.56550984 6.09876311 -10 3 C-7.25336657 -0.48611166 -4.24872854 -0.60696122 0 0 Z " fill="#DC7777" transform="translate(558,718)"/>
<path d="M0 0 C2.875 1.5625 2.875 1.5625 5 4 C5.63734462 7.96569988 5.61999672 10.03280512 3.4375 13.4375 C0.05782196 15.60396028 -2.05983987 15.56288002 -6 15 C-8.4375 13.4375 -8.4375 13.4375 -10 11 C-10.56783945 7.02512383 -10.62340519 4.93510779 -8.375 1.5625 C-5.26456309 -0.48384007 -3.66322334 -0.59807728 0 0 Z " fill="#DD7978" transform="translate(269,736)"/>
<path d="M0 0 C2.4375 1 2.4375 1 4 3 C4.56153595 7.42209561 4.79893062 9.72171101 2.4375 13.5 C-0.97532932 15.60020266 -3.06688873 15.63210717 -7 15 C-9.5 12.9375 -9.5 12.9375 -11 10 C-10.93977486 6.50694211 -10.63658168 4.09633511 -8.875 1.0625 C-5.85228899 -0.65036957 -3.39414695 -0.35727863 0 0 Z " fill="#DD7878" transform="translate(710,341)"/>
<path d="M0 0 C2.5881216 2.25417042 2.94242643 3.60520979 3.4375 7 C3 10 3 10 1.5 12.375 C-2.26897129 14.82483134 -4.54334931 14.5659239 -9 14 C-11.90460477 11.73077752 -11.97856495 10.15004537 -12.5 6.5 C-12 3 -12 3 -9.9375 0.5 C-6.08739354 -1.46601181 -4.10799908 -1.21718491 0 0 Z " fill="#DD7878" transform="translate(484,171)"/>
<path d="M0 0 C0.33 0 0.66 0 1 0 C1.33 2.97 1.66 5.94 2 9 C2.66 8.67 3.32 8.34 4 8 C3.48041715 12.37934119 2.94324258 16.68803391 2 21 C0.04933807 19.38819592 -0.92886446 18.56985222 -1.2487793 16.00708008 C-1.16237183 14.89949341 -1.16237183 14.89949341 -1.07421875 13.76953125 C-1.01943359 12.96708984 -0.96464844 12.16464844 -0.90820312 11.33789062 C-0.83537109 10.50451172 -0.76253906 9.67113281 -0.6875 8.8125 C-0.62626953 7.96751953 -0.56503906 7.12253906 -0.50195312 6.25195312 C-0.34881209 4.16687905 -0.17625843 2.08324724 0 0 Z " fill="#9D3F40" transform="translate(99,456)"/>
<path d="M0 0 C2.97 0.33 5.94 0.66 9 1 C8.01 1.495 8.01 1.495 7 2 C6.67 2.99 6.34 3.98 6 5 C4.35 5.33 2.7 5.66 1 6 C-0.0625 4.125 -0.0625 4.125 -1 2 C-0.67 1.34 -0.34 0.68 0 0 Z " fill="#89191B" transform="translate(577,105)"/>
<path d="M0 0 C0.99 0 1.98 0 3 0 C3 0.66 3 1.32 3 2 C2.01 2.495 2.01 2.495 1 3 C1.33 3.66 1.66 4.32 2 5 C-2.29299643 6.26264601 -4.87831311 5.62950412 -9 4 C-8.34 3.67 -7.68 3.34 -7 3 C-6.67 2.34 -6.34 1.68 -6 1 C-3.03 1.495 -3.03 1.495 0 2 C0 1.34 0 0.68 0 0 Z " fill="#8C2021" transform="translate(389,881)"/>
<path d="M0 0 C0.94875 0.04125 1.8975 0.0825 2.875 0.125 C2.875 0.785 2.875 1.445 2.875 2.125 C4.298125 2.0321875 4.298125 2.0321875 5.75 1.9375 C6.78125 1.999375 7.8125 2.06125 8.875 2.125 C9.865 3.61 9.865 3.61 10.875 5.125 C5.45701328 4.43334212 0.1927215 3.36700752 -5.125 2.125 C-3.125 0.125 -3.125 0.125 0 0 Z " fill="#922C2C" transform="translate(415.125,890.875)"/>
<path d="M0 0 C1.02230536 3.7816987 1.35761381 7.06624807 1 11 C-1 12.9375 -1 12.9375 -3 14 C-4.37095624 10.30962722 -3.60010967 8.29116165 -2.0625 4.75 C-1.68222656 3.85796875 -1.30195313 2.9659375 -0.91015625 2.046875 C-0.60980469 1.37140625 -0.30945313 0.6959375 0 0 Z " fill="#8A2022" transform="translate(130,340)"/>
<path d="M0 0 C0.66 0.33 1.32 0.66 2 1 C1.67 1.66 1.34 2.32 1 3 C0.01 2.67 -0.98 2.34 -2 2 C-1.34 1.34 -0.68 0.68 0 0 Z M-4 3 C-3.01 3.33 -2.02 3.66 -1 4 C-2.98 6.31 -4.96 8.62 -7 11 C-7.66 10.34 -8.32 9.68 -9 9 C-7.35 7.02 -5.7 5.04 -4 3 Z " fill="#D97271" transform="translate(192,394)"/>
<path d="M0 0 C2.475 0.99 2.475 0.99 5 2 C3.9024777 4.99324263 3.32317108 5.84610901 0.375 7.25 C-0.40875 7.4975 -1.1925 7.745 -2 8 C-2 4.23312136 -1.76462683 3.08809695 0 0 Z " fill="#881A1B" transform="translate(154,293)"/>
<path d="M0 0 C0.33 0 0.66 0 1 0 C1.36552803 1.41377782 1.71695495 2.83120576 2.0625 4.25 C2.25972656 5.03890625 2.45695313 5.8278125 2.66015625 6.640625 C3.01497267 9.10394822 2.76877544 10.65604132 2 13 C2 12.01 2 11.02 2 10 C0.68 9.67 -0.64 9.34 -2 9 C-2 7.35 -2 5.7 -2 4 C-1.34 4 -0.68 4 0 4 C0 2.68 0 1.36 0 0 Z " fill="#923231" transform="translate(893,414)"/>
<path d="M0 0 C0.66 0.33 1.32 0.66 2 1 C1.67 3.97 1.34 6.94 1 10 C-0.32 9.67 -1.64 9.34 -3 9 C-2.25 2.25 -2.25 2.25 0 0 Z " fill="#D77170" transform="translate(500,235)"/>
<path d="M0 0 C0.33 0.66 0.66 1.32 1 2 C2.65 2 4.3 2 6 2 C6 6 6 6 5 8 C2.69 6.02 0.38 4.04 -2 2 C-1.34 1.34 -0.68 0.68 0 0 Z " fill="#881B1E" transform="translate(247,810)"/>
<path d="M0 0 C0 0.99 0 1.98 0 3 C-0.66 3 -1.32 3 -2 3 C-2.66 4.65 -3.32 6.3 -4 8 C-4.66 8 -5.32 8 -6 8 C-6 7.34 -6 6.68 -6 6 C-6.66 6 -7.32 6 -8 6 C-8 5.34 -8 4.68 -8 4 C-5.36 2.68 -2.72 1.36 0 0 Z " fill="#881F21" transform="translate(313,143)"/>
<path d="M0 0 C2.875 -0.125 2.875 -0.125 6 0 C6.66 0.66 7.32 1.32 8 2 C7.01 2.99 6.02 3.98 5 5 C4.01 4.67 3.02 4.34 2 4 C2 3.34 2 2.68 2 2 C1.34 2 0.68 2 0 2 C0 1.34 0 0.68 0 0 Z M2 5 C2.33 5.66 2.66 6.32 3 7 C2.34 6.67 1.68 6.34 1 6 C1.33 5.67 1.66 5.34 2 5 Z " fill="#871B1C" transform="translate(608,113)"/>
<path d="M0 0 C1.25425781 0.00902344 2.50851562 0.01804687 3.80078125 0.02734375 C4.75339844 0.03894531 5.70601562 0.05054687 6.6875 0.0625 C6.6875 0.3925 6.6875 0.7225 6.6875 1.0625 C5.53121094 1.13597656 5.53121094 1.13597656 4.3515625 1.2109375 C3.34867188 1.28570312 2.34578125 1.36046875 1.3125 1.4375 C0.31476562 1.50710937 -0.68296875 1.57671875 -1.7109375 1.6484375 C-4.46758879 1.82613964 -4.46758879 1.82613964 -6.3125 4.0625 C-8.2925 3.4025 -10.2725 2.7425 -12.3125 2.0625 C-12.3125 1.7325 -12.3125 1.4025 -12.3125 1.0625 C-8.15623632 0.05323521 -4.26884906 -0.03989579 0 0 Z " fill="#973B3A" transform="translate(529.3125,97.9375)"/>
<path d="M0 0 C0.99 0.33 1.98 0.66 3 1 C3 1.66 3 2.32 3 3 C4.32 3.33 5.64 3.66 7 4 C7.33 5.32 7.66 6.64 8 8 C5.03 6.02 2.06 4.04 -1 2 C-0.67 1.34 -0.34 0.68 0 0 Z " fill="#881B1D" transform="translate(276,832)"/>
<path d="M0 0 C1.5625 1.25 1.5625 1.25 3 3 C2.6875 5.1875 2.6875 5.1875 2 7 C1.67 6.34 1.34 5.68 1 5 C-0.98 5 -2.96 5 -5 5 C-3.35 3.35 -1.7 1.7 0 0 Z " fill="#881C1D" transform="translate(251,183)"/>
<path d="M0 0 C-0.33 0.66 -0.66 1.32 -1 2 C-9 2 -9 2 -12 0 C-7.66726186 -0.92844389 -4.33273814 -0.92844389 0 0 Z " fill="#8F2728" transform="translate(430,105)"/>
<path d="M0 0 C0.99 0.33 1.98 0.66 3 1 C3 2.32 3 3.64 3 5 C3.99 5 4.98 5 6 5 C5.34 6.32 4.68 7.64 4 9 C0 4.5 0 4.5 0 0 Z " fill="#8B1D1F" transform="translate(179,740)"/>
<path d="M0 0 C2.93200474 2.85276137 5.64315404 5.65079784 8 9 C7.01 9 6.02 9 5 9 C0 3.76744186 0 3.76744186 0 0 Z " fill="#8B2223" transform="translate(806,239)"/>
<path d="M0 0 C0.66 0.66 1.32 1.32 2 2 C-1.3 2.33 -4.6 2.66 -8 3 C-8 2.34 -8 1.68 -8 1 C-4.9553071 -0.84856355 -3.35670253 -1.34268101 0 0 Z " fill="#8C1F21" transform="translate(584,892)"/>
<path d="M0 0 C2.0625 0.4375 2.0625 0.4375 4 1 C2.68 3.31 1.36 5.62 0 8 C-0.33 8 -0.66 8 -1 8 C-1.04241723 5.66705225 -1.04092937 3.33297433 -1 1 C-0.67 0.67 -0.34 0.34 0 0 Z " fill="#871A1B" transform="translate(851,690)"/>
<path d="M0 0 C1.65 0 3.3 0 5 0 C5.33 1.32 5.66 2.64 6 4 C4.35 4.33 2.7 4.66 1 5 C0.67 3.35 0.34 1.7 0 0 Z " fill="#871A1B" transform="translate(120,632)"/>
<path d="M0 0 C1.5 1.1875 1.5 1.1875 3 3 C3.1875 5.6875 3.1875 5.6875 3 8 C2.01 7.67 1.02 7.34 0 7 C0 5.35 0 3.7 0 2 C-0.66 1.67 -1.32 1.34 -2 1 C-1.34 0.67 -0.68 0.34 0 0 Z " fill="#D66E6F" transform="translate(821,404)"/>
<path d="M0 0 C1.8125 2 1.8125 2 3 4 C2.319375 3.855625 1.63875 3.71125 0.9375 3.5625 C-2.36273082 2.93054091 -5.67144426 2.45686059 -9 2 C-5.89608238 0.16064141 -3.60570855 -0.55472439 0 0 Z " fill="#913031" transform="translate(418,106)"/>
<path d="M0 0 C0.33 0 0.66 0 1 0 C1.33 2.31 1.66 4.62 2 7 C0.02 7.99 0.02 7.99 -2 9 C-2 6.69 -2 4.38 -2 2 C-1.34 2 -0.68 2 0 2 C0 1.34 0 0.68 0 0 Z " fill="#8A2021" transform="translate(101,531)"/>
<path d="M0 0 C0.66 0.99 1.32 1.98 2 3 C1.67 3.66 1.34 4.32 1 5 C0.01 5 -0.98 5 -2 5 C-2.33 6.32 -2.66 7.64 -3 9 C-3.66 8.34 -4.32 7.68 -5 7 C-3.35 4.69 -1.7 2.38 0 0 Z " fill="#8D2628" transform="translate(176,260)"/>
<path d="M0 0 C0.66 0.99 1.32 1.98 2 3 C1.67 3.66 1.34 4.32 1 5 C0.34 5 -0.32 5 -1 5 C-1.33 5.66 -1.66 6.32 -2 7 C-2.66 6.67 -3.32 6.34 -4 6 C-2.84826645 3.53199953 -1.95216435 1.95216435 0 0 Z " fill="#8C2224" transform="translate(193,239)"/>
<path d="M0 0 C-0.33 1.98 -0.66 3.96 -1 6 C-3.97 5.505 -3.97 5.505 -7 5 C-2.25 0 -2.25 0 0 0 Z " fill="#D87372" transform="translate(567,680)"/>
<path d="M0 0 C0.66 1.32 1.32 2.64 2 4 C-0.35438733 5.42944945 -1.48032433 6.08661261 -4.25 5.625 C-4.8275 5.41875 -5.405 5.2125 -6 5 C-2.25 2 -2.25 2 0 2 C0 1.34 0 0.68 0 0 Z " fill="#D77271" transform="translate(436,554)"/>
<path d="M0 0 C1.8871875 0.0309375 1.8871875 0.0309375 3.8125 0.0625 C0.87421403 2.56548434 -1.36652761 3.53180939 -5.1875 4.0625 C-5.1875 3.4025 -5.1875 2.7425 -5.1875 2.0625 C-5.8475 1.7325 -6.5075 1.4025 -7.1875 1.0625 C-4.43671116 0.14557039 -2.82801087 -0.04636083 0 0 Z " fill="#D26B6B" transform="translate(396.1875,479.9375)"/>
<path d="M0 0 C1.32 0 2.64 0 4 0 C4.33 0.99 4.66 1.98 5 3 C2.29120665 4.35439668 -0.00933268 4.06501451 -3 4 C-1.75 2 -1.75 2 0 0 Z " fill="#D46C6B" transform="translate(552,213)"/>
<path d="M0 0 C1.65 1.65 3.3 3.3 5 5 C4.67 5.66 4.34 6.32 4 7 C2.02 5.35 0.04 3.7 -2 2 C-1.34 1.34 -0.68 0.68 0 0 Z " fill="#F3EEEC" transform="translate(755,185)"/>
<path d="M0 0 C2.475 0.99 2.475 0.99 5 2 C4 5 4 5 2 6 C2 5.34 2 4.68 2 4 C1.34 4 0.68 4 0 4 C0 2.68 0 1.36 0 0 Z " fill="#F7F3F2" transform="translate(330,865)"/>
<path d="M0 0 C0.33 0.66 0.66 1.32 1 2 C0.01 3.485 0.01 3.485 -1 5 C-1.66 5 -2.32 5 -3 5 C-3.33 5.99 -3.66 6.98 -4 8 C-4.66 7.34 -5.32 6.68 -6 6 C-4.02 4.02 -2.04 2.04 0 0 Z " fill="#FAF4F3" transform="translate(781,788)"/>
<path d="M0 0 C0.66 0.33 1.32 0.66 2 1 C-0.475 4.465 -0.475 4.465 -3 8 C-3.33 6.68 -3.66 5.36 -4 4 C-2.0625 1.75 -2.0625 1.75 0 0 Z " fill="#D97171" transform="translate(263,736)"/>
<path d="M0 0 C0.33 0.66 0.66 1.32 1 2 C1.99 2 2.98 2 4 2 C4.33 1.34 4.66 0.68 5 0 C4.67 1.65 4.34 3.3 4 5 C2.35 5 0.7 5 -1 5 C-0.67 3.35 -0.34 1.7 0 0 Z " fill="#8B1F21" transform="translate(882,387)"/>
<path d="M0 0 C0.66 0 1.32 0 2 0 C2.33 1.98 2.66 3.96 3 6 C1.68 5.67 0.36 5.34 -1 5 C-0.67 3.35 -0.34 1.7 0 0 Z " fill="#871D1F" transform="translate(147,305)"/>
<path d="M0 0 C0.66 0.99 1.32 1.98 2 3 C1.01 4.485 1.01 4.485 0 6 C-1.32 5.67 -2.64 5.34 -4 5 C-2.68 3.35 -1.36 1.7 0 0 Z " fill="#8C2627" transform="translate(186,247)"/>
<path d="M0 0 C1 2 1 2 0.0625 5.125 C-0.288125 6.07375 -0.63875 7.0225 -1 8 C-1.99 7.01 -2.98 6.02 -4 5 C-2.68 3.35 -1.36 1.7 0 0 Z " fill="#8D2929" transform="translate(208,222)"/>
</svg>
