<?xml version="1.0" encoding="UTF-8"?>
<!DOCTYPE svg PUBLIC "-//W3C//DTD SVG 1.1//EN" "http://www.w3.org/Graphics/SVG/1.1/DTD/svg11.dtd">
<svg xmlns="http://www.w3.org/2000/svg" version="1.1" width="2048px" height="1536px" style="shape-rendering:geometricPrecision; text-rendering:geometricPrecision; image-rendering:optimizeQuality; fill-rule:evenodd; clip-rule:evenodd" xmlns:xlink="http://www.w3.org/1999/xlink">
<g><path style="opacity:0.004" fill="#fefffe" d="M 1503.5,1.5 C 1504.25,0.426544 1505.25,0.259877 1506.5,1C 1505.55,1.48278 1504.55,1.64945 1503.5,1.5 Z"/></g>
<g><path style="opacity:0.004" fill="#fefffe" d="M 664.5,56.5 C 665.833,57.1667 665.833,57.1667 664.5,56.5 Z"/></g>
<g><path style="opacity:0.004" fill="#fefffe" d="M 664.5,57.5 C 664.103,58.525 663.437,58.6917 662.5,58C 663.094,57.5357 663.761,57.369 664.5,57.5 Z"/></g>
<g><path style="opacity:0.082" fill="#a25959" d="M 1027.5,74.5 C 1009.83,74.6779 992.163,75.0112 974.5,75.5C 984.45,73.9498 994.617,73.2831 1005,73.5C 1012.67,73.5003 1020.17,73.8336 1027.5,74.5 Z"/></g>
<g><path style="opacity:0.298" fill="#bb8281" d="M 1039.5,74.5 C 1048.33,73.856 1057.33,73.856 1066.5,74.5C 1057.67,75.3225 1048.67,75.3225 1039.5,74.5 Z"/></g>
<g><path style="opacity:0.004" fill="#fefffe" d="M 909.5,76.5 C 910.251,75.4265 911.251,75.2599 912.5,76C 911.552,76.4828 910.552,76.6495 909.5,76.5 Z"/></g>
<g><path style="opacity:0.09" fill="#b26a68" d="M 1067.5,75.5 C 1080.22,75.9486 1092.88,76.9486 1105.5,78.5C 1106.83,79.1667 1108.17,79.8333 1109.5,80.5C 1095.33,79.2186 1081.33,77.5519 1067.5,75.5 Z"/></g>
<g><path style="opacity:0.01" fill="#fefffe" d="M 1140.5,76.5 C 1140.56,75.9569 1140.89,75.6236 1141.5,75.5C 1143.44,76.1892 1145.44,76.6892 1147.5,77C 1147,77.5 1146.5,78 1146,78.5C 1144.19,77.7556 1142.35,77.0889 1140.5,76.5 Z"/></g>
<g><path style="opacity:0.361" fill="#d7b6b4" d="M 1105.5,78.5 C 1110.03,78.7704 1114.36,79.4371 1118.5,80.5C 1115.5,80.5 1112.5,80.5 1109.5,80.5C 1108.17,79.8333 1106.83,79.1667 1105.5,78.5 Z"/></g>
<g><path style="opacity:1" fill="#851313" d="M 1039.5,74.5 C 1048.67,75.3225 1057.67,75.3225 1066.5,74.5C 1067.17,74.5 1067.5,74.8333 1067.5,75.5C 1081.33,77.5519 1095.33,79.2186 1109.5,80.5C 1112.5,80.5 1115.5,80.5 1118.5,80.5C 1118.61,81.1174 1118.94,81.6174 1119.5,82C 1124.92,82.5702 1130.26,83.5702 1135.5,85C 1141.09,85.2753 1146.59,86.1087 1152,87.5C 1153.07,87.472 1153.9,87.1386 1154.5,86.5C 1155.17,86.5 1155.5,86.8333 1155.5,87.5C 1163.95,89.9543 1172.61,91.9543 1181.5,93.5C 1187.09,94.262 1192.43,95.5953 1197.5,97.5C 1198.43,98.3149 1199.43,99.1482 1200.5,100C 1208.51,101.332 1216.18,103.665 1223.5,107C 1225.47,107.495 1227.47,107.662 1229.5,107.5C 1247.55,113.403 1265.22,120.069 1282.5,127.5C 1285.8,130.621 1289.8,132.288 1294.5,132.5C 1298,135.246 1302,136.913 1306.5,137.5C 1313.74,142.677 1321.74,146.677 1330.5,149.5C 1334.43,152.143 1338.43,154.81 1342.5,157.5C 1344.71,158.635 1347.04,159.301 1349.5,159.5C 1351.03,159.427 1352.03,160.094 1352.5,161.5C 1355.05,163.943 1358.05,165.61 1361.5,166.5C 1370.82,172.14 1380.15,177.806 1389.5,183.5C 1389.63,185.09 1390.29,186.423 1391.5,187.5C 1396.51,190.19 1401.51,192.857 1406.5,195.5C 1421.42,206.831 1436.08,217.831 1450.5,228.5C 1452.64,231.973 1455.64,234.306 1459.5,235.5C 1460.69,238.938 1463.03,241.271 1466.5,242.5C 1470.79,245.123 1474.46,248.456 1477.5,252.5C 1480.18,256.183 1483.52,259.183 1487.5,261.5C 1495.17,268.5 1502.5,275.833 1509.5,283.5C 1511.77,287.436 1514.77,290.769 1518.5,293.5C 1521.86,295.895 1524.53,298.895 1526.5,302.5C 1528.77,306.436 1531.77,309.769 1535.5,312.5C 1537.26,313.262 1538.26,314.596 1538.5,316.5C 1539.42,319.089 1541.09,321.089 1543.5,322.5C 1545.46,325.185 1546.96,328.185 1548,331.5C 1551,333.668 1553.83,336.001 1556.5,338.5C 1557.67,344.508 1561,348.841 1566.5,351.5C 1573.41,360.984 1580.08,370.651 1586.5,380.5C 1586.34,382.857 1586.5,385.19 1587,387.5C 1587.33,387.167 1587.67,386.833 1588,386.5C 1589.74,389.362 1591.9,391.696 1594.5,393.5C 1596.95,395.629 1598.62,398.296 1599.5,401.5C 1599.76,404.457 1600.76,407.124 1602.5,409.5C 1601.17,411.167 1601.17,412.833 1602.5,414.5C 1603.73,415.59 1604.56,416.924 1605,418.5C 1605.54,416.729 1606.37,416.396 1607.5,417.5C 1608.01,419.225 1608.68,420.892 1609.5,422.5C 1610.96,424.47 1612.63,426.137 1614.5,427.5C 1622.85,441.539 1630.19,456.206 1636.5,471.5C 1637.75,476.67 1639.58,481.67 1642,486.5C 1643.05,489.314 1644.55,491.647 1646.5,493.5C 1646.32,498.304 1647.99,502.304 1651.5,505.5C 1653.2,508.939 1654.54,512.605 1655.5,516.5C 1657.48,526.753 1660.81,536.419 1665.5,545.5C 1665.41,548.152 1666.08,550.485 1667.5,552.5C 1669.97,559.368 1672.31,566.368 1674.5,573.5C 1673.21,575.68 1673.54,577.68 1675.5,579.5C 1675.46,583.363 1675.8,587.196 1676.5,591C 1677.11,594.376 1678.44,597.209 1680.5,599.5C 1683.47,611.013 1685.8,622.68 1687.5,634.5C 1689.7,653.186 1692.04,671.853 1694.5,690.5C 1695.34,692.379 1695.67,694.379 1695.5,696.5C 1697.22,724.801 1697.89,753.135 1697.5,781.5C 1697.5,787.833 1697.5,794.167 1697.5,800.5C 1695.86,805.234 1695.19,810.234 1695.5,815.5C 1695.5,817.167 1695.5,818.833 1695.5,820.5C 1694.2,822.397 1693.53,824.731 1693.5,827.5C 1693.08,832.499 1692.75,837.499 1692.5,842.5C 1685.28,902.469 1669.95,960.136 1646.5,1015.5C 1645.07,1015.88 1644.24,1016.88 1644,1018.5C 1643.67,1018.17 1643.33,1017.83 1643,1017.5C 1642.67,1019.5 1642.33,1021.5 1642,1023.5C 1641.67,1023.17 1641.33,1022.83 1641,1022.5C 1640.8,1024.26 1640.3,1025.92 1639.5,1027.5C 1638.91,1027.29 1638.41,1026.96 1638,1026.5C 1637.95,1032.16 1636.79,1037.5 1634.5,1042.5C 1633.89,1045.33 1632.89,1047.99 1631.5,1050.5C 1630.5,1050.41 1629.67,1050.75 1629,1051.5C 1628.67,1050.83 1628.33,1050.17 1628,1049.5C 1627.02,1053.95 1625.69,1058.28 1624,1062.5C 1623.67,1061.5 1623.33,1060.5 1623,1059.5C 1622.5,1062.15 1622.34,1064.81 1622.5,1067.5C 1622.5,1068.17 1622.5,1068.83 1622.5,1069.5C 1621.66,1069.84 1621.33,1070.51 1621.5,1071.5C 1620.66,1071.84 1620.33,1072.51 1620.5,1073.5C 1619.83,1073.5 1619.5,1073.83 1619.5,1074.5C 1618.83,1074.5 1618.5,1074.83 1618.5,1075.5C 1618.5,1075.83 1618.5,1076.17 1618.5,1076.5C 1618.96,1077.77 1618.29,1078.77 1616.5,1079.5C 1612.75,1086.66 1608.75,1093.66 1604.5,1100.5C 1601.14,1103.88 1598.81,1107.88 1597.5,1112.5C 1595.53,1116.46 1593.19,1120.12 1590.5,1123.5C 1588.26,1124.3 1587.26,1125.97 1587.5,1128.5C 1585.47,1129.54 1584.14,1131.21 1583.5,1133.5C 1583.57,1135.03 1582.91,1136.03 1581.5,1136.5C 1575.78,1143.89 1570.45,1151.55 1565.5,1159.5C 1562.24,1165.69 1558.24,1171.36 1553.5,1176.5C 1551.46,1175.48 1549.46,1175.48 1547.5,1176.5C 1548.31,1178.07 1548.64,1179.74 1548.5,1181.5C 1546.8,1181.34 1545.13,1181.51 1543.5,1182C 1544.55,1183.39 1544.72,1184.89 1544,1186.5C 1540.36,1188.43 1536.86,1190.6 1533.5,1193C 1534.41,1194.7 1534.74,1196.53 1534.5,1198.5C 1532.09,1199.91 1530.42,1201.91 1529.5,1204.5C 1526.51,1208.82 1523.18,1212.82 1519.5,1216.5C 1516.51,1217.78 1513.84,1220.11 1511.5,1223.5C 1510.27,1223.28 1509.27,1222.61 1508.5,1221.5C 1506.42,1223.14 1506.08,1225.14 1507.5,1227.5C 1505.88,1227.64 1504.71,1226.97 1504,1225.5C 1501.95,1228.26 1500.45,1231.26 1499.5,1234.5C 1496.48,1234.11 1495.48,1235.11 1496.5,1237.5C 1495.89,1239.48 1494.89,1239.81 1493.5,1238.5C 1492.61,1239.32 1492.28,1240.32 1492.5,1241.5C 1491.13,1241.34 1489.79,1241.51 1488.5,1242C 1489.31,1242.31 1489.97,1242.81 1490.5,1243.5C 1488.58,1244.31 1486.58,1244.81 1484.5,1245C 1485.45,1245.48 1486.45,1245.65 1487.5,1245.5C 1487.5,1246.5 1487.5,1247.5 1487.5,1248.5C 1485.08,1249.89 1482.41,1250.72 1479.5,1251C 1480.45,1251.72 1480.62,1252.55 1480,1253.5C 1479.09,1252.67 1478.42,1251.67 1478,1250.5C 1476.75,1253.01 1476.25,1255.68 1476.5,1258.5C 1475.5,1260.17 1474.17,1261.5 1472.5,1262.5C 1469.57,1263.76 1467.24,1265.76 1465.5,1268.5C 1463.45,1271.55 1460.78,1273.88 1457.5,1275.5C 1455.93,1275.06 1454.76,1274.06 1454,1272.5C 1453.03,1274.39 1452.36,1276.39 1452,1278.5C 1449.9,1279.99 1447.57,1280.99 1445,1281.5C 1444.69,1280.26 1445.19,1279.26 1446.5,1278.5C 1445.68,1277.61 1444.68,1277.28 1443.5,1277.5C 1443.5,1280.17 1443.5,1282.83 1443.5,1285.5C 1441.47,1285.34 1439.47,1285.5 1437.5,1286C 1438.57,1287.28 1439.91,1287.62 1441.5,1287C 1440.75,1287.67 1440.41,1288.5 1440.5,1289.5C 1435.8,1291.69 1431.46,1294.52 1427.5,1298C 1426.18,1298.82 1425.51,1299.98 1425.5,1301.5C 1424.04,1302.74 1422.37,1303.74 1420.5,1304.5C 1417.28,1305.07 1414.95,1306.74 1413.5,1309.5C 1410.91,1310.13 1408.58,1311.3 1406.5,1313C 1403.04,1312.91 1400.04,1313.91 1397.5,1316C 1399.93,1317.09 1399.6,1317.59 1396.5,1317.5C 1396.5,1318.83 1396.5,1320.17 1396.5,1321.5C 1396.17,1321.5 1395.83,1321.5 1395.5,1321.5C 1393.8,1322.54 1392.13,1322.54 1390.5,1321.5C 1389.61,1322.32 1389.28,1323.32 1389.5,1324.5C 1388.07,1324.58 1386.74,1324.25 1385.5,1323.5C 1384.83,1324.5 1384.17,1325.5 1383.5,1326.5C 1380.11,1324.85 1377.44,1325.68 1375.5,1329C 1377.17,1329.33 1378.83,1329.67 1380.5,1330C 1378.38,1331.05 1376.72,1332.55 1375.5,1334.5C 1375.03,1335.91 1374.03,1336.57 1372.5,1336.5C 1371.45,1336.35 1370.45,1336.52 1369.5,1337C 1366.36,1339.21 1363.36,1341.38 1360.5,1343.5C 1358.16,1343.5 1356.16,1344.34 1354.5,1346C 1352.19,1346.5 1349.86,1346.66 1347.5,1346.5C 1347.04,1349.3 1345.71,1351.64 1343.5,1353.5C 1342.13,1353.34 1340.79,1353.51 1339.5,1354C 1331.8,1359.1 1323.63,1363.27 1315,1366.5C 1313.97,1366.84 1313.47,1367.5 1313.5,1368.5C 1308.37,1369.82 1303.37,1371.65 1298.5,1374C 1296.68,1374.74 1295.35,1375.91 1294.5,1377.5C 1289.89,1377.54 1286.23,1379.2 1283.5,1382.5C 1283.16,1383.34 1282.49,1383.67 1281.5,1383.5C 1272.04,1385.77 1263.04,1389.11 1254.5,1393.5C 1246.1,1397.02 1237.43,1400.02 1228.5,1402.5C 1225.99,1402.05 1223.99,1402.72 1222.5,1404.5C 1210.76,1408.41 1198.76,1411.74 1186.5,1414.5C 1183.92,1414.92 1181.75,1414.25 1180,1412.5C 1179.17,1414 1178,1415.17 1176.5,1416C 1168.32,1417.86 1160.32,1420.03 1152.5,1422.5C 1139.54,1423.38 1126.88,1425.72 1114.5,1429.5C 1114.17,1429.5 1113.83,1429.5 1113.5,1429.5C 1103.84,1428.88 1094.51,1429.88 1085.5,1432.5C 1078.28,1432.35 1071.28,1433.02 1064.5,1434.5C 1064.17,1434.5 1063.83,1434.5 1063.5,1434.5C 1039.17,1434.5 1014.83,1434.5 990.5,1434.5C 977.129,1434.5 963.796,1433.83 950.5,1432.5C 919.085,1429.99 888.085,1424.99 857.5,1417.5C 855.485,1416.08 853.152,1415.41 850.5,1415.5C 844.102,1414.03 837.768,1412.37 831.5,1410.5C 825.501,1407.72 819.167,1405.72 812.5,1404.5C 809.215,1404.07 806.215,1403.07 803.5,1401.5C 801.485,1400.08 799.152,1399.41 796.5,1399.5C 782.001,1394.56 767.668,1389.22 753.5,1383.5C 750.686,1381.93 747.686,1380.6 744.5,1379.5C 737.593,1376.87 730.927,1373.87 724.5,1370.5C 723.089,1368.46 721.089,1367.46 718.5,1367.5C 717.156,1365.97 715.489,1364.63 713.5,1363.5C 711.929,1362.69 710.262,1362.36 708.5,1362.5C 706.911,1359.92 704.578,1358.59 701.5,1358.5C 700.116,1355.63 697.782,1353.96 694.5,1353.5C 693.614,1352.68 693.281,1351.68 693.5,1350.5C 691.194,1350.01 688.861,1349.67 686.5,1349.5C 685.833,1349.5 685.167,1349.5 684.5,1349.5C 682.911,1346.92 680.578,1345.59 677.5,1345.5C 677.279,1344.27 676.612,1343.27 675.5,1342.5C 675.833,1341.83 676.167,1341.17 676.5,1340.5C 672.895,1339.46 669.228,1338.79 665.5,1338.5C 662.269,1334.03 657.935,1331.36 652.5,1330.5C 649.63,1329.57 647.296,1327.9 645.5,1325.5C 645.092,1324.36 644.425,1323.36 643.5,1322.5C 640.078,1320.68 636.745,1319.01 633.5,1317.5C 627.067,1313.58 620.733,1309.42 614.5,1305C 594.057,1289.39 574.391,1272.89 555.5,1255.5C 551.773,1250.77 547.44,1246.77 542.5,1243.5C 534.202,1234.7 525.702,1226.04 517,1217.5C 503.752,1200.25 489.752,1183.58 475,1167.5C 462.884,1150.24 451.05,1132.9 439.5,1115.5C 440.833,1115.17 440.833,1114.83 439.5,1114.5C 439.5,1114.17 439.5,1113.83 439.5,1113.5C 439.5,1112.83 439.167,1112.5 438.5,1112.5C 438.5,1112.17 438.5,1111.83 438.5,1111.5C 438.5,1110.83 438.167,1110.5 437.5,1110.5C 437.5,1110.17 437.5,1109.83 437.5,1109.5C 437.167,1108.17 436.833,1108.17 436.5,1109.5C 436.167,1109.5 435.833,1109.5 435.5,1109.5C 435.5,1108.83 435.5,1108.17 435.5,1107.5C 436.833,1107.17 436.833,1106.83 435.5,1106.5C 431.662,1100.38 427.995,1094.05 424.5,1087.5C 424.043,1086.7 423.376,1086.37 422.5,1086.5C 421.087,1083.34 419.42,1080.34 417.5,1077.5C 418.043,1077.44 418.376,1077.11 418.5,1076.5C 417.157,1072.87 415.157,1069.87 412.5,1067.5C 404.634,1049.09 396.134,1030.76 387,1012.5C 383.202,1003.24 379.702,993.911 376.5,984.5C 373.008,972.217 369.008,960.217 364.5,948.5C 362.898,944.761 361.898,940.761 361.5,936.5C 361.125,932.129 360.459,927.796 359.5,923.5C 358.935,921.456 357.935,919.79 356.5,918.5C 354.989,912.788 353.322,907.121 351.5,901.5C 352.139,900.903 352.472,900.07 352.5,899C 351.877,895.519 351.377,892.019 351,888.5C 350.998,885.949 350.164,883.949 348.5,882.5C 348.167,882.5 347.833,882.5 347.5,882.5C 347.833,881.833 348.167,881.167 348.5,880.5C 348.167,878.5 347.833,876.5 347.5,874.5C 347.5,873.833 347.167,873.5 346.5,873.5C 346.634,871.708 346.301,870.042 345.5,868.5C 346.152,867.551 346.486,866.385 346.5,865C 342.756,841.957 340.089,818.791 338.5,795.5C 338.471,792.731 337.805,790.397 336.5,788.5C 336.169,765.994 336.503,743.66 337.5,721.5C 339.456,713.212 339.789,704.878 338.5,696.5C 339.176,692.295 340.176,688.129 341.5,684C 342.423,666.794 344.423,649.627 347.5,632.5C 348.117,632.389 348.617,632.056 349,631.5C 349.702,625.769 350.702,620.102 352,614.5C 352.333,614.833 352.667,615.167 353,615.5C 353.498,612.183 353.665,608.85 353.5,605.5C 354.362,597.181 356.362,589.181 359.5,581.5C 363.054,573.169 365.388,564.503 366.5,555.5C 368.431,548.04 370.765,540.706 373.5,533.5C 376.743,526.973 379.91,520.307 383,513.5C 383.026,516.105 384.193,517.271 386.5,517C 385.642,515.43 384.975,513.763 384.5,512C 385.759,505.798 387.093,499.631 388.5,493.5C 391.632,489.253 394.299,484.586 396.5,479.5C 397.466,477.604 397.799,475.604 397.5,473.5C 399.633,467.237 402.299,461.237 405.5,455.5C 409.714,451.907 412.048,447.24 412.5,441.5C 415.112,440.723 416.945,439.056 418,436.5C 418.333,436.833 418.667,437.167 419,437.5C 419.333,436.167 419.667,434.833 420,433.5C 420.667,434.833 421.333,434.833 422,433.5C 423.231,428.843 424.398,424.176 425.5,419.5C 427.287,417.524 429.454,416.191 432,415.5C 432.683,411.109 433.516,406.776 434.5,402.5C 436.822,401.198 438.155,399.198 438.5,396.5C 441.077,391.406 443.911,386.406 447,381.5C 453.083,373.598 458.917,365.598 464.5,357.5C 467.124,355.542 469.458,353.209 471.5,350.5C 472.325,349.614 473.325,349.281 474.5,349.5C 474.284,347.319 475.117,345.653 477,344.5C 478.073,345.28 479.24,345.113 480.5,344C 479.426,343.261 478.759,342.261 478.5,341C 479.703,339.632 480.703,338.132 481.5,336.5C 483.891,335.306 486.224,334.306 488.5,333.5C 487.515,331.902 487.349,330.235 488,328.5C 489.442,326.609 490.609,324.609 491.5,322.5C 495.938,316.61 500.605,310.943 505.5,305.5C 510.752,301.645 515.085,296.978 518.5,291.5C 518.833,290.5 519.5,289.833 520.5,289.5C 521.815,288.524 523.148,287.524 524.5,286.5C 525.167,286.833 525.833,287.167 526.5,287.5C 526.742,283.907 528.409,281.241 531.5,279.5C 532.127,278.583 532.461,277.583 532.5,276.5C 535.554,272.779 538.888,269.446 542.5,266.5C 548.275,261.9 553.941,257.066 559.5,252C 561.79,250.223 563.457,248.056 564.5,245.5C 589.935,223.293 616.935,203.293 645.5,185.5C 649.683,183.913 653.35,181.579 656.5,178.5C 658.027,178.573 659.027,177.906 659.5,176.5C 661.674,176.25 663.341,175.25 664.5,173.5C 666.027,173.573 667.027,172.906 667.5,171.5C 670.331,170.921 672.664,169.588 674.5,167.5C 676.434,166.89 678.101,165.89 679.5,164.5C 681.674,164.25 683.341,163.25 684.5,161.5C 722.858,138.697 763.525,120.697 806.5,107.5C 814.861,106.657 822.861,104.491 830.5,101C 833.789,100.118 837.123,99.4517 840.5,99C 842.889,98.2612 844.889,97.0946 846.5,95.5C 851.273,95.8757 855.607,94.8757 859.5,92.5C 897.176,83.359 935.509,77.6924 974.5,75.5C 992.163,75.0112 1009.83,74.6779 1027.5,74.5C 1031.4,73.994 1035.4,73.994 1039.5,74.5 Z"/></g>
<g><path style="opacity:0.718" fill="#c48f8e" d="M 1118.5,80.5 C 1130.61,81.856 1142.61,83.856 1154.5,86.5C 1153.9,87.1386 1153.07,87.472 1152,87.5C 1146.59,86.1087 1141.09,85.2753 1135.5,85C 1130.26,83.5702 1124.92,82.5702 1119.5,82C 1118.94,81.6174 1118.61,81.1174 1118.5,80.5 Z"/></g>
<g><path style="opacity:0.004" fill="#fefffe" d="M 873.5,82.5 C 874.833,83.1667 874.833,83.1667 873.5,82.5 Z"/></g>
<g><path style="opacity:0.009" fill="#fefffe" d="M 873.5,83.5 C 872.399,84.5983 871.066,84.765 869.5,84C 870.793,83.51 872.127,83.3433 873.5,83.5 Z"/></g>
<g><path style="opacity:0.004" fill="#fefffe" d="M 864.5,85.5 C 865.251,84.4265 866.251,84.2599 867.5,85C 866.552,85.4828 865.552,85.6495 864.5,85.5 Z"/></g>
<g><path style="opacity:0.31" fill="#c79898" d="M 1155.5,87.5 C 1164.56,88.2671 1173.23,90.2671 1181.5,93.5C 1172.61,91.9543 1163.95,89.9543 1155.5,87.5 Z"/></g>
<g><path style="opacity:0.894" fill="#ab5b58" d="M 859.5,92.5 C 855.607,94.8757 851.273,95.8757 846.5,95.5C 850.68,94.2686 855.014,93.2686 859.5,92.5 Z"/></g>
<g><path style="opacity:0.004" fill="#fefffe" d="M 1215.5,97.5 C 1214.83,96.1667 1214.83,96.1667 1215.5,97.5 Z"/></g>
<g><path style="opacity:0.004" fill="#fefffe" d="M 1215.5,97.5 C 1216.24,97.369 1216.91,97.5357 1217.5,98C 1216.56,98.6917 1215.9,98.525 1215.5,97.5 Z"/></g>
<g><path style="opacity:1" fill="#a5524d" d="M 846.5,95.5 C 844.889,97.0946 842.889,98.2612 840.5,99C 837.123,99.4517 833.789,100.118 830.5,101C 822.861,104.491 814.861,106.657 806.5,107.5C 819.362,102.28 832.696,98.2796 846.5,95.5 Z"/></g>
<g><path style="opacity:0.392" fill="#bb807c" d="M 1197.5,97.5 C 1208.54,99.9216 1219.21,103.255 1229.5,107.5C 1227.47,107.662 1225.47,107.495 1223.5,107C 1216.18,103.665 1208.51,101.332 1200.5,100C 1199.43,99.1482 1198.43,98.3149 1197.5,97.5 Z"/></g>
<g><path style="opacity:0.004" fill="#fefffe" d="M 800.5,104.5 C 800.897,103.475 801.563,103.308 802.5,104C 801.906,104.464 801.239,104.631 800.5,104.5 Z"/></g>
<g><path style="opacity:0.004" fill="#fefffe" d="M 1274.5,114.5 C 1275.83,115.167 1275.83,115.167 1274.5,114.5 Z"/></g>
<g><path style="opacity:0.008" fill="#fefffe" d="M 1285.5,118.5 C 1286.83,119.167 1286.83,119.167 1285.5,118.5 Z"/></g>
<g><path style="opacity:0.004" fill="#fefffe" d="M 1287.5,119.5 C 1288.83,120.167 1288.83,120.167 1287.5,119.5 Z"/></g>
<g><path style="opacity:0.961" fill="#ad5e5a" d="M 1282.5,127.5 C 1286.79,128.648 1290.79,130.315 1294.5,132.5C 1289.8,132.288 1285.8,130.621 1282.5,127.5 Z"/></g>
<g><path style="opacity:0.231" fill="#c99a9a" d="M 1294.5,132.5 C 1298.89,133.403 1302.89,135.069 1306.5,137.5C 1302,136.913 1298,135.246 1294.5,132.5 Z"/></g>
<g><path style="opacity:0.176" fill="#d1a7a3" d="M 1306.5,137.5 C 1315.09,140.459 1323.09,144.459 1330.5,149.5C 1321.74,146.677 1313.74,142.677 1306.5,137.5 Z"/></g>
<g><path style="opacity:1" fill="#a83031" d="M 984.5,142.5 C 1009.17,142.333 1033.84,142.5 1058.5,143C 1098.54,146.938 1138.2,153.605 1177.5,163C 1183.94,166.217 1190.6,168.883 1197.5,171C 1204.4,172.94 1211.4,174.607 1218.5,176C 1240.07,184.857 1261.74,193.524 1283.5,202C 1284.93,203.886 1286.6,205.553 1288.5,207C 1296.07,210.622 1303.74,213.955 1311.5,217C 1312.17,218 1312.83,219 1313.5,220C 1321.14,223.818 1328.8,227.651 1336.5,231.5C 1340.58,236.2 1345.58,239.367 1351.5,241C 1364.75,250.327 1378.08,259.66 1391.5,269C 1399.57,277.401 1408.57,284.734 1418.5,291C 1426.75,298.394 1434.42,306.227 1441.5,314.5C 1443.96,315.794 1446.3,317.294 1448.5,319C 1457.96,330.463 1468.13,341.296 1479,351.5C 1485.93,360.768 1493.26,369.768 1501,378.5C 1502.14,382.448 1504.47,385.448 1508,387.5C 1512.43,396.283 1518.1,404.283 1525,411.5C 1532.05,425.677 1540.38,439.01 1550,451.5C 1555.17,463.834 1560.84,475.834 1567,487.5C 1572.12,493.629 1575.45,500.629 1577,508.5C 1581.27,515.085 1584.11,522.251 1585.5,530C 1588.85,534.024 1590.85,538.69 1591.5,544C 1593.52,546.589 1595.02,549.422 1596,552.5C 1597.96,563.92 1601.29,574.92 1606,585.5C 1623.49,647.441 1631.16,710.774 1629,775.5C 1627.36,796.421 1626.03,817.421 1625,838.5C 1617.94,868.055 1611.61,897.722 1606,927.5C 1596.73,952.077 1587.73,976.744 1579,1001.5C 1577.33,1003.83 1575.67,1006.17 1574,1008.5C 1571.64,1014.2 1569.3,1019.86 1567,1025.5C 1559.85,1037.75 1553.35,1050.42 1547.5,1063.5C 1546.37,1064.26 1545.21,1064.93 1544,1065.5C 1528.21,1092.77 1510.21,1118.44 1490,1142.5C 1488.23,1144.6 1486.9,1146.93 1486,1149.5C 1477.37,1157.8 1469.04,1166.47 1461,1175.5C 1458.63,1178.37 1456.46,1181.37 1454.5,1184.5C 1419.15,1217.9 1381.48,1248.06 1341.5,1275C 1337.3,1276.1 1333.3,1277.77 1329.5,1280C 1325.82,1283.5 1321.82,1286.5 1317.5,1289C 1310.06,1290.88 1303.72,1294.55 1298.5,1300C 1287.58,1303.86 1277.25,1308.86 1267.5,1315C 1253.66,1318.61 1240.33,1323.61 1227.5,1330C 1220.17,1331.33 1213.17,1333.66 1206.5,1337C 1199.55,1338.07 1192.88,1340.07 1186.5,1343C 1113.64,1363.59 1039.31,1371.26 963.5,1366C 939.755,1362.77 916.088,1359.1 892.5,1355C 870.969,1350.11 849.969,1344.11 829.5,1337C 825.5,1336.33 821.5,1335.67 817.5,1335C 810.549,1332.24 803.883,1328.91 797.5,1325C 784.646,1320.72 771.979,1316.05 759.5,1311C 741.415,1301.63 723.415,1292.29 705.5,1283C 700.962,1279.91 696.629,1276.58 692.5,1273C 691.207,1272.51 689.873,1272.34 688.5,1272.5C 688.079,1270.09 686.746,1268.26 684.5,1267C 680.43,1265.53 676.43,1263.86 672.5,1262C 668.369,1257.86 663.702,1254.53 658.5,1252C 655.392,1248.22 651.725,1245.22 647.5,1243C 637.12,1234.61 626.787,1226.28 616.5,1218C 610.099,1209.42 602.099,1202.92 592.5,1198.5C 592.649,1197.45 592.483,1196.45 592,1195.5C 583.973,1187.47 575.973,1179.47 568,1171.5C 566.657,1169.16 565.324,1166.83 564,1164.5C 559.236,1160.96 555.403,1156.63 552.5,1151.5C 539.324,1137.16 527.49,1121.83 517,1105.5C 510.868,1099.12 506.202,1091.78 503,1083.5C 501.009,1081.54 499.009,1079.54 497,1077.5C 496.226,1073.95 494.893,1070.62 493,1067.5C 488.058,1060.97 484.058,1053.97 481,1046.5C 479.245,1043.96 477.245,1041.62 475,1039.5C 465.448,1020.4 456.448,1001.06 448,981.5C 444.819,966.293 439.819,951.626 433,937.5C 401.515,833.741 396.848,728.741 419,622.5C 423.12,609.452 426.453,596.119 429,582.5C 431.976,572.157 435.976,562.157 441,552.5C 442.073,548.916 442.74,545.25 443,541.5C 447.25,530.185 452.25,519.185 458,508.5C 458.667,505.833 459.333,503.167 460,500.5C 468.229,485.503 475.895,470.17 483,454.5C 485.106,452.623 486.439,450.29 487,447.5C 488.684,445.649 490.517,443.982 492.5,442.5C 496.533,435.768 500.033,428.768 503,421.5C 505.333,418.833 507.667,416.167 510,413.5C 514.908,404.919 520.241,396.586 526,388.5C 528,385.167 530.667,382.5 534,380.5C 534.862,378.913 535.529,377.246 536,375.5C 542.787,370.541 547.953,364.208 551.5,356.5C 567.488,339.679 583.988,323.346 601,307.5C 601.333,306.5 601.667,305.5 602,304.5C 613.206,294.292 624.706,284.459 636.5,275C 637.833,274.667 639.167,274.333 640.5,274C 644.833,271 648.5,267.333 651.5,263C 660.631,256.927 669.631,250.594 678.5,244C 684.841,242.335 690.174,239.001 694.5,234C 729.417,212.742 766.084,194.742 804.5,180C 831.655,172.457 858.655,164.457 885.5,156C 918.442,149.95 951.442,145.45 984.5,142.5 Z"/></g>
<g><path style="opacity:0.576" fill="#c89393" d="M 1330.5,149.5 C 1337.32,152.073 1343.65,155.406 1349.5,159.5C 1347.04,159.301 1344.71,158.635 1342.5,157.5C 1338.43,154.81 1334.43,152.143 1330.5,149.5 Z"/></g>
<g><path style="opacity:0.004" fill="#fefffe" d="M 690.5,155.5 C 691.833,156.167 691.833,156.167 690.5,155.5 Z"/></g>
<g><path style="opacity:0.006" fill="#fefffe" d="M 688.5,157.5 C 688.842,156.662 689.508,156.328 690.5,156.5C 690.158,157.338 689.492,157.672 688.5,157.5 Z"/></g>
<g><path style="opacity:0.004" fill="#fefffe" d="M 1358.5,156.5 C 1359.83,157.167 1359.83,157.167 1358.5,156.5 Z"/></g>
<g><path style="opacity:0.004" fill="#fefffe" d="M 688.5,157.5 C 687.833,158.167 687.833,158.167 688.5,157.5 Z"/></g>
<g><path style="opacity:0.004" fill="#fefffe" d="M 685.5,159.5 C 685.842,158.662 686.508,158.328 687.5,158.5C 687.158,159.338 686.492,159.672 685.5,159.5 Z"/></g>
<g><path style="opacity:0.004" fill="#f3d6cf" d="M 685.5,159.5 C 685.167,160.167 684.833,160.833 684.5,161.5C 682.207,160.699 682.54,160.032 685.5,159.5 Z"/></g>
<g><path style="opacity:0.161" fill="#cda1a2" d="M 1352.5,161.5 C 1355.99,162.41 1358.99,164.076 1361.5,166.5C 1358.05,165.61 1355.05,163.943 1352.5,161.5 Z"/></g>
<g><path style="opacity:0.004" fill="#676767" d="M 679.5,164.5 C 677.025,164.253 677.025,163.587 679.5,162.5C 680.463,162.97 680.463,163.637 679.5,164.5 Z"/></g>
<g><path style="opacity:0.024" fill="#bea4a3" d="M 674.5,167.5 C 669.354,168.589 669.354,167.923 674.5,165.5C 675.463,165.97 675.463,166.637 674.5,167.5 Z"/></g>
<g><path style="opacity:0.004" fill="#e97a63" d="M 667.5,171.5 C 666.833,171.5 666.167,171.5 665.5,171.5C 667.394,168.813 668.061,168.813 667.5,171.5 Z"/></g>
<g><path style="opacity:0.004" fill="#fefffe" d="M 1375.5,171.5 C 1376.83,172.167 1376.83,172.167 1375.5,171.5 Z"/></g>
<g><path style="opacity:0.006" fill="#f3beb9" d="M 665.5,171.5 C 665.167,172.167 664.833,172.833 664.5,173.5C 663.167,173.833 661.833,174.167 660.5,174.5C 661.659,172.75 663.326,171.75 665.5,171.5 Z"/></g>
<g><path style="opacity:0.004" fill="#fefffe" d="M 1378.5,173.5 C 1377.83,172.167 1377.83,172.167 1378.5,173.5 Z"/></g>
<g><path style="opacity:0.004" fill="#fefffe" d="M 1378.5,173.5 C 1379.83,174.167 1379.83,174.167 1378.5,173.5 Z"/></g>
<g><path style="opacity:0.008" fill="#fefffe" d="M 1380.5,174.5 C 1381.83,175.167 1381.83,175.167 1380.5,174.5 Z"/></g>
<g><path style="opacity:0.004" fill="#6c6b5f" d="M 660.5,174.5 C 660.167,175.167 659.833,175.833 659.5,176.5C 658.833,176.5 658.167,176.5 657.5,176.5C 657.973,175.094 658.973,174.427 660.5,174.5 Z"/></g>
<g><path style="opacity:0.008" fill="#fefffe" d="M 1383.5,176.5 C 1382.83,175.167 1382.83,175.167 1383.5,176.5 Z"/></g>
<g><path style="opacity:0.004" fill="#fefffe" d="M 1383.5,176.5 C 1384.49,176.328 1385.16,176.662 1385.5,177.5C 1384.51,177.672 1383.84,177.338 1383.5,176.5 Z"/></g>
<g><path style="opacity:0.006" fill="#fefffe" d="M 1385.5,177.5 C 1386.49,177.328 1387.16,177.662 1387.5,178.5C 1386.51,178.672 1385.84,178.338 1385.5,177.5 Z"/></g>
<g><path style="opacity:0.012" fill="#965e5d" d="M 657.5,176.5 C 657.167,177.167 656.833,177.833 656.5,178.5C 655.153,179.028 653.819,179.195 652.5,179C 653.91,177.628 655.577,176.795 657.5,176.5 Z"/></g>
<g><path style="opacity:1" fill="#db7575" d="M 970.5,176.5 C 974.605,176.234 978.605,176.734 982.5,178C 983.333,180.167 984.833,181.667 987,182.5C 988.363,186.761 988.696,191.095 988,195.5C 978.485,206.523 969.818,205.857 962,193.5C 960.97,188.72 961.97,184.387 965,180.5C 967.463,179.968 969.297,178.634 970.5,176.5 Z"/></g>
<g><path style="opacity:0.008" fill="#fefffe" d="M 1387.5,178.5 C 1388.24,178.369 1388.91,178.536 1389.5,179C 1388.56,179.692 1387.9,179.525 1387.5,178.5 Z"/></g>
<g><path style="opacity:0.008" fill="#80fffe" d="M 1396.5,183.5 C 1395.83,182.167 1395.83,182.167 1396.5,183.5 Z"/></g>
<g><path style="opacity:0.007" fill="#fefffe" d="M 1396.5,183.5 C 1397.92,183.709 1399.26,184.209 1400.5,185C 1398.65,185.773 1397.31,185.273 1396.5,183.5 Z"/></g>
<g><path style="opacity:0.004" fill="#f77962" d="M 645.5,185.5 C 643.025,185.253 643.025,184.587 645.5,183.5C 646.463,183.97 646.463,184.637 645.5,185.5 Z"/></g>
<g><path style="opacity:0.894" fill="#be766b" d="M 1389.5,183.5 C 1395.38,187.267 1401.05,191.267 1406.5,195.5C 1401.51,192.857 1396.51,190.19 1391.5,187.5C 1390.29,186.423 1389.63,185.09 1389.5,183.5 Z"/></g>
<g><path style="opacity:1" fill="#dc7877" d="M 1103.5,188.5 C 1108.6,188.175 1113.6,188.675 1118.5,190C 1122,192.833 1125.17,196 1128,199.5C 1130.47,209.502 1127.31,217.002 1118.5,222C 1099.22,225.383 1091.05,217.216 1094,197.5C 1096.41,193.584 1099.58,190.584 1103.5,188.5 Z"/></g>
<g><path style="opacity:0.024" fill="#d9adac" d="M 1450.5,228.5 C 1454.05,230.111 1457.05,232.444 1459.5,235.5C 1455.64,234.306 1452.64,231.973 1450.5,228.5 Z"/></g>
<g><path style="opacity:0.016" fill="#c58b8b" d="M 1459.5,235.5 C 1462.5,237.167 1464.83,239.5 1466.5,242.5C 1463.03,241.271 1460.69,238.938 1459.5,235.5 Z"/></g>
<g><path style="opacity:1" fill="#dd7878" d="M 791.5,244.5 C 798.241,244.171 804.908,244.671 811.5,246C 829.495,257.866 832.328,272.699 820,290.5C 811.434,298.952 801.267,301.452 789.5,298C 784.421,295.706 779.921,292.539 776,288.5C 770.735,276.405 771.402,264.739 778,253.5C 782.224,249.862 786.724,246.862 791.5,244.5 Z"/></g>
<g><path style="opacity:0.004" fill="#fefffe" d="M 548.5,253.5 C 549.833,254.167 549.833,254.167 548.5,253.5 Z"/></g>
<g><path style="opacity:0.018" fill="#fefffe" d="M 548.5,254.5 C 548.217,255.289 547.717,255.956 547,256.5C 546.472,255.184 546.972,254.517 548.5,254.5 Z"/></g>
<g><path style="opacity:0.573" fill="#c08786" d="M 564.5,245.5 C 563.457,248.056 561.79,250.223 559.5,252C 553.941,257.066 548.275,261.9 542.5,266.5C 549.201,258.798 556.534,251.798 564.5,245.5 Z"/></g>
<g><path style="opacity:0.008" fill="#a37574" d="M 1477.5,252.5 C 1481.44,254.766 1484.77,257.766 1487.5,261.5C 1483.52,259.183 1480.18,256.183 1477.5,252.5 Z"/></g>
<g><path style="opacity:0.008" fill="#fefffe" d="M 1508.5,260.5 C 1509.29,260.783 1509.96,261.283 1510.5,262C 1509.18,262.528 1508.52,262.028 1508.5,260.5 Z"/></g>
<g><path style="opacity:1" fill="#db7675" d="M 870.5,266.5 C 878.357,265.608 884.523,268.275 889,274.5C 890.773,282.588 887.94,288.421 880.5,292C 869.943,294.264 863.943,290.097 862.5,279.5C 862.024,274.061 864.357,270.561 869.5,269C 870.252,268.329 870.586,267.496 870.5,266.5 Z"/></g>
<g><path style="opacity:0.008" fill="#fefffe" d="M 523.5,274.5 C 524.833,275.167 524.833,275.167 523.5,274.5 Z"/></g>
<g><path style="opacity:0.008" fill="#fefffe" d="M 523.5,275.5 C 522.833,276.167 522.833,276.167 523.5,275.5 Z"/></g>
<g><path style="opacity:0.008" fill="#fefffe" d="M 522.5,276.5 C 521.833,277.167 521.833,277.167 522.5,276.5 Z"/></g>
<g><path style="opacity:0.008" fill="#fefffe" d="M 521.5,277.5 C 520.833,278.167 520.833,278.167 521.5,277.5 Z"/></g>
<g><path style="opacity:0.004" fill="#fefffe" d="M 520.5,278.5 C 519.833,279.167 519.833,279.167 520.5,278.5 Z"/></g>
<g><path style="opacity:0.004" fill="#fefffe" d="M 519.5,279.5 C 518.833,280.167 518.833,280.167 519.5,279.5 Z"/></g>
<g><path style="opacity:0.004" fill="#fefffe" d="M 518.5,280.5 C 517.833,281.167 517.833,281.167 518.5,280.5 Z"/></g>
<g><path style="opacity:0.004" fill="#fefffe" d="M 517.5,281.5 C 516.833,282.167 516.833,282.167 517.5,281.5 Z"/></g>
<g><path style="opacity:0.004" fill="#fefffe" d="M 516.5,282.5 C 515.833,283.167 515.833,283.167 516.5,282.5 Z"/></g>
<g><path style="opacity:0.004" fill="#fefffe" d="M 515.5,283.5 C 514.833,284.167 514.833,284.167 515.5,283.5 Z"/></g>
<g><path style="opacity:0.631" fill="#c78a8a" d="M 1509.5,283.5 C 1513.23,286.231 1516.23,289.564 1518.5,293.5C 1514.77,290.769 1511.77,287.436 1509.5,283.5 Z"/></g>
<g><path style="opacity:1" fill="#9c4944" d="M 532.5,276.5 C 532.461,277.583 532.127,278.583 531.5,279.5C 528.409,281.241 526.742,283.907 526.5,287.5C 525.833,287.167 525.167,286.833 524.5,286.5C 523.148,287.524 521.815,288.524 520.5,289.5C 523.77,284.56 527.77,280.227 532.5,276.5 Z"/></g>
<g><path style="opacity:1" fill="#dc7878" d="M 1036.5,297.5 C 1062.81,297.813 1073.15,310.813 1067.5,336.5C 1061.17,345.663 1052.5,350.663 1041.5,351.5C 1027.23,350.432 1018.39,342.765 1015,328.5C 1014.05,322.627 1014.72,316.96 1017,311.5C 1020.13,307.367 1023.63,303.534 1027.5,300C 1030.74,299.594 1033.74,298.761 1036.5,297.5 Z"/></g>
<g><path style="opacity:0.467" fill="#be827b" d="M 518.5,291.5 C 515.085,296.978 510.752,301.645 505.5,305.5C 509.105,300.226 513.438,295.559 518.5,291.5 Z"/></g>
<g><path style="opacity:0.349" fill="#c38d8b" d="M 1526.5,302.5 C 1530.23,305.231 1533.23,308.564 1535.5,312.5C 1531.77,309.769 1528.77,306.436 1526.5,302.5 Z"/></g>
<g><path style="opacity:0.635" fill="#b97b7a" d="M 1538.5,316.5 C 1540.91,317.911 1542.58,319.911 1543.5,322.5C 1541.09,321.089 1539.42,319.089 1538.5,316.5 Z"/></g>
<g><path style="opacity:1" fill="#dc7676" d="M 1109.5,318.5 C 1127.98,317.772 1132.98,325.605 1124.5,342C 1107.92,346.474 1101.09,340.307 1104,323.5C 1105.73,321.598 1107.56,319.931 1109.5,318.5 Z"/></g>
<g><path style="opacity:1" fill="#db7776" d="M 1260.5,318.5 C 1265.21,318.173 1269.88,318.507 1274.5,319.5C 1276.45,321.622 1278.78,323.122 1281.5,324C 1288.7,333.506 1287.7,342.173 1278.5,350C 1262.18,357.341 1252.51,352.341 1249.5,335C 1249.65,333.293 1249.98,331.626 1250.5,330C 1252.44,327.737 1253.94,325.237 1255,322.5C 1257.02,321.303 1258.85,319.97 1260.5,318.5 Z"/></g>
<g><path style="opacity:0.992" fill="#a75b57" d="M 1543.5,322.5 C 1548.58,327.248 1552.92,332.581 1556.5,338.5C 1553.83,336.001 1551,333.668 1548,331.5C 1546.96,328.185 1545.46,325.185 1543.5,322.5 Z"/></g>
<g><path style="opacity:1" fill="#dc7777" d="M 1409.5,329.5 C 1411.86,329.337 1414.19,329.503 1416.5,330C 1419.33,332.167 1422.17,334.333 1425,336.5C 1427.66,344.973 1425.16,351.14 1417.5,355C 1402.8,356.284 1397.63,349.784 1402,335.5C 1404.13,332.847 1406.63,330.847 1409.5,329.5 Z"/></g>
<g><path style="opacity:1" fill="#b06662" d="M 1556.5,338.5 C 1560.59,342.258 1563.93,346.591 1566.5,351.5C 1561,348.841 1557.67,344.508 1556.5,338.5 Z"/></g>
<g><path style="opacity:0.999" fill="#993f3a" d="M 491.5,322.5 C 490.609,324.609 489.442,326.609 488,328.5C 487.349,330.235 487.515,331.902 488.5,333.5C 486.224,334.306 483.891,335.306 481.5,336.5C 480.703,338.132 479.703,339.632 478.5,341C 478.759,342.261 479.426,343.261 480.5,344C 479.24,345.113 478.073,345.28 477,344.5C 475.117,345.653 474.284,347.319 474.5,349.5C 473.325,349.281 472.325,349.614 471.5,350.5C 469.458,353.209 467.124,355.542 464.5,357.5C 469.668,349.828 474.835,342.162 480,334.5C 484.065,330.605 487.898,326.605 491.5,322.5 Z"/></g>
<g><path style="opacity:1" fill="#db7675" d="M 920.5,359.5 C 934.337,359.784 939.503,366.784 936,380.5C 927.617,388.727 919.617,388.394 912,379.5C 909.58,370.179 912.413,363.512 920.5,359.5 Z"/></g>
<g><path style="opacity:1" fill="#aa5a56" d="M 1586.5,380.5 C 1589.95,384.299 1592.62,388.632 1594.5,393.5C 1591.9,391.696 1589.74,389.362 1588,386.5C 1587.67,386.833 1587.33,387.167 1587,387.5C 1586.5,385.19 1586.34,382.857 1586.5,380.5 Z"/></g>
<g><path style="opacity:0.004" fill="#fefffe" d="M 1597.5,388.5 C 1596.83,387.167 1596.83,387.167 1597.5,388.5 Z"/></g>
<g><path style="opacity:0.004" fill="#fefffe" d="M 1597.5,388.5 C 1598.83,389.167 1598.83,389.167 1597.5,388.5 Z"/></g>
<g><path style="opacity:0.007" fill="#fefffe" d="M 430.5,396.5 C 431.04,393.161 432.707,390.994 435.5,390C 433.97,392.352 432.303,394.519 430.5,396.5 Z"/></g>
<g><path style="opacity:1" fill="#dd7979" d="M 1220.5,394.5 C 1251.11,391.558 1270.61,404.892 1279,434.5C 1280.87,455.777 1273.04,472.443 1255.5,484.5C 1224.67,498.393 1201.17,490.726 1185,461.5C 1180.49,445.05 1182.16,429.383 1190,414.5C 1195.49,410.005 1200.66,405.172 1205.5,400C 1210.61,398.168 1215.61,396.334 1220.5,394.5 Z"/></g>
<g><path style="opacity:0.008" fill="#fefffe" d="M 430.5,396.5 C 430.672,397.492 430.338,398.158 429.5,398.5C 429.328,397.508 429.662,396.842 430.5,396.5 Z"/></g>
<g><path style="opacity:1" fill="#dd7878" d="M 1439.5,396.5 C 1466.36,394.154 1484.19,405.487 1493,430.5C 1494.92,442.355 1492.92,453.355 1487,463.5C 1475.82,479.665 1460.32,486.499 1440.5,484C 1434.57,482.696 1429.24,480.362 1424.5,477C 1410.21,465.071 1404.04,449.904 1406,431.5C 1407.63,426.362 1409.63,421.362 1412,416.5C 1415.01,412.243 1418.51,408.41 1422.5,405C 1428.08,401.897 1433.75,399.064 1439.5,396.5 Z"/></g>
<g><path style="opacity:0.006" fill="#fefffe" d="M 429.5,398.5 C 429.672,399.492 429.338,400.158 428.5,400.5C 428.328,399.508 428.662,398.842 429.5,398.5 Z"/></g>
<g><path style="opacity:0.365" fill="#b17c79" d="M 438.5,396.5 C 438.155,399.198 436.822,401.198 434.5,402.5C 435.34,400.147 436.674,398.147 438.5,396.5 Z"/></g>
<g><path style="opacity:1" fill="#dc7777" d="M 888.5,397.5 C 898.67,396.555 907.336,399.555 914.5,406.5C 920.885,414.377 923.052,423.377 921,433.5C 912.33,450.508 898.83,456.008 880.5,450C 873.969,445.161 869.469,438.995 867,431.5C 864.739,420.926 867.572,412.092 875.5,405C 879.928,402.459 884.262,399.959 888.5,397.5 Z"/></g>
<g><path style="opacity:0.005" fill="#fefffe" d="M 428.5,400.5 C 428.573,402.027 427.906,403.027 426.5,403.5C 426.427,401.973 427.094,400.973 428.5,400.5 Z"/></g>
<g><path style="opacity:0.009" fill="#fefffe" d="M 303.5,402.5 C 304.629,404.666 304.129,406.666 302,408.5C 301.591,406.305 302.091,404.305 303.5,402.5 Z"/></g>
<g><path style="opacity:0.004" fill="#fefffe" d="M 426.5,403.5 C 426.631,404.239 426.464,404.906 426,405.5C 425.308,404.563 425.475,403.897 426.5,403.5 Z"/></g>
<g><path style="opacity:1" fill="#983b36" d="M 1599.5,401.5 C 1605.51,409.505 1610.51,418.172 1614.5,427.5C 1612.63,426.137 1610.96,424.47 1609.5,422.5C 1608.68,420.892 1608.01,419.225 1607.5,417.5C 1606.37,416.396 1605.54,416.729 1605,418.5C 1604.56,416.924 1603.73,415.59 1602.5,414.5C 1601.17,412.833 1601.17,411.167 1602.5,409.5C 1600.76,407.124 1599.76,404.457 1599.5,401.5 Z"/></g>
<g><path style="opacity:1" fill="#dc7777" d="M 692.5,422.5 C 702.454,421.728 710.287,425.394 716,433.5C 717.577,452.918 708.744,460.752 689.5,457C 681.525,450.093 679.358,441.593 683,431.5C 685.43,427.566 688.597,424.566 692.5,422.5 Z"/></g>
<g><path style="opacity:1" fill="#933731" d="M 434.5,402.5 C 433.516,406.776 432.683,411.109 432,415.5C 429.454,416.191 427.287,417.524 425.5,419.5C 424.398,424.176 423.231,428.843 422,433.5C 421.333,434.833 420.667,434.833 420,433.5C 419.667,434.833 419.333,436.167 419,437.5C 418.667,437.167 418.333,436.833 418,436.5C 416.945,439.056 415.112,440.723 412.5,441.5C 419.077,428.006 426.41,415.006 434.5,402.5 Z"/></g>
<g><path style="opacity:1" fill="#dc7878" d="M 556.5,428.5 C 562.05,428.237 567.55,428.57 573,429.5C 576.113,431.662 579.28,433.829 582.5,436C 590.539,443.456 593.372,452.623 591,463.5C 586.808,472.842 579.974,479.008 570.5,482C 559.364,485.004 550.197,482.171 543,473.5C 541.518,470.727 539.852,468.06 538,465.5C 534.795,448.27 540.962,435.936 556.5,428.5 Z"/></g>
<g><path style="opacity:1" fill="#da7474" d="M 1324.5,436.5 C 1338.2,435.7 1344.04,442.033 1342,455.5C 1337.02,463.708 1330.19,466.041 1321.5,462.5C 1321.08,459.561 1319.58,457.228 1317,455.5C 1316.05,449.895 1316.88,444.562 1319.5,439.5C 1321.36,438.675 1323.03,437.675 1324.5,436.5 Z"/></g>
<g><path style="opacity:1" fill="#ab5d5a" d="M 412.5,441.5 C 412.048,447.24 409.714,451.907 405.5,455.5C 407.326,450.516 409.659,445.849 412.5,441.5 Z"/></g>
<g><path style="opacity:1" fill="#db7776" d="M 963.5,472.5 C 966.518,472.335 969.518,472.502 972.5,473C 974.816,475.735 976.982,478.568 979,481.5C 979.84,494.655 973.673,500.155 960.5,498C 953.604,492.74 951.604,485.906 954.5,477.5C 958.291,476.997 961.291,475.33 963.5,472.5 Z"/></g>
<g><path style="opacity:0.984" fill="#ae6968" d="M 1636.5,471.5 C 1640.4,478.503 1643.73,485.837 1646.5,493.5C 1644.55,491.647 1643.05,489.314 1642,486.5C 1639.58,481.67 1637.75,476.67 1636.5,471.5 Z"/></g>
<g><path style="opacity:1" fill="#dc7676" d="M 1523.5,477.5 C 1536.16,476.996 1541.66,482.996 1540,495.5C 1537.61,503.084 1532.45,505.917 1524.5,504C 1516.26,500.979 1513.1,495.146 1515,486.5C 1517.02,482.644 1519.86,479.644 1523.5,477.5 Z"/></g>
<g><path style="opacity:0.859" fill="#a85857" d="M 397.5,473.5 C 397.799,475.604 397.466,477.604 396.5,479.5C 394.299,484.586 391.632,489.253 388.5,493.5C 390.989,486.528 393.989,479.861 397.5,473.5 Z"/></g>
<g><path style="opacity:1" fill="#dd7979" d="M 842.5,482.5 C 881.914,478.782 910.414,494.449 928,529.5C 937.619,561.111 930.786,588.444 907.5,611.5C 903.921,614.898 900.254,618.065 896.5,621C 888.366,624.12 880.032,626.787 871.5,629C 860.833,629.667 850.167,629.667 839.5,629C 828.788,625.254 818.788,620.254 809.5,614C 808.809,612.933 808.309,611.766 808,610.5C 805.012,608.51 802.345,606.177 800,603.5C 796.601,599.098 793.601,594.432 791,589.5C 784.994,575.124 782.994,560.124 785,544.5C 787.552,524.432 797.052,508.432 813.5,496.5C 822.857,491.148 832.524,486.481 842.5,482.5 Z"/></g>
<g><path style="opacity:1" fill="#db7676" d="M 1145.5,483.5 C 1154.13,482.653 1159.63,486.32 1162,494.5C 1163.84,502.007 1161.01,506.841 1153.5,509C 1139.28,509.789 1134.11,503.289 1138,489.5C 1139.98,486.74 1142.48,484.74 1145.5,483.5 Z"/></g>
<g><path style="opacity:0.894" fill="#bb7574" d="M 1646.5,493.5 C 1648.68,497.203 1650.35,501.203 1651.5,505.5C 1647.99,502.304 1646.32,498.304 1646.5,493.5 Z"/></g>
<g><path style="opacity:1" fill="#9a3e3b" d="M 388.5,493.5 C 387.093,499.631 385.759,505.798 384.5,512C 384.975,513.763 385.642,515.43 386.5,517C 384.193,517.271 383.026,516.105 383,513.5C 379.91,520.307 376.743,526.973 373.5,533.5C 377.987,519.88 382.987,506.547 388.5,493.5 Z"/></g>
<g><path style="opacity:1" fill="#dd7877" d="M 693.5,527.5 C 700.916,526.242 706.749,528.576 711,534.5C 713.1,543.092 709.933,548.926 701.5,552C 688.607,552.422 683.774,546.255 687,533.5C 689.335,531.6 691.502,529.6 693.5,527.5 Z"/></g>
<g><path style="opacity:1" fill="#dc7878" d="M 1173.5,528.5 C 1182.17,527.662 1190.51,528.829 1198.5,532C 1206.3,539.486 1209.14,548.652 1207,559.5C 1200.24,574.936 1188.74,580.436 1172.5,576C 1156.98,565.62 1153.81,552.453 1163,536.5C 1166.02,533.029 1169.52,530.362 1173.5,528.5 Z"/></g>
<g><path style="opacity:1" fill="#dd7878" d="M 1027.5,530.5 C 1046.76,528.305 1060.26,535.972 1068,553.5C 1072.9,574.485 1065.74,589.651 1046.5,599C 1023.83,603.914 1008.66,595.414 1001,573.5C 997.991,551.544 1006.82,537.211 1027.5,530.5 Z"/></g>
<g><path style="opacity:0.851" fill="#b77574" d="M 1655.5,516.5 C 1659.6,525.805 1662.94,535.471 1665.5,545.5C 1660.81,536.419 1657.48,526.753 1655.5,516.5 Z"/></g>
<g><path style="opacity:1" fill="#dc7878" d="M 1292.5,535.5 C 1307.12,532.689 1317.96,537.689 1325,550.5C 1327.38,560.942 1325.21,570.109 1318.5,578C 1295.82,590.66 1281.49,584.327 1275.5,559C 1275.92,555.083 1276.75,551.249 1278,547.5C 1281.2,544.631 1284.04,541.465 1286.5,538C 1288.85,537.76 1290.85,536.927 1292.5,535.5 Z"/></g>
<g><path style="opacity:0.78" fill="#be8b8a" d="M 1665.5,545.5 C 1666.92,547.515 1667.59,549.848 1667.5,552.5C 1666.08,550.485 1665.41,548.152 1665.5,545.5 Z"/></g>
<g><path style="opacity:0.005" fill="#fefffe" d="M 354.5,573.5 C 354.312,571.897 354.812,570.563 356,569.5C 356.348,571.14 355.848,572.473 354.5,573.5 Z"/></g>
<g><path style="opacity:0.82" fill="#a04c4b" d="M 366.5,555.5 C 365.388,564.503 363.054,573.169 359.5,581.5C 361.464,572.627 363.797,563.96 366.5,555.5 Z"/></g>
<g><path style="opacity:0.004" fill="#fefffe" d="M 354.5,573.5 C 354.631,574.239 354.464,574.906 354,575.5C 353.308,574.563 353.475,573.897 354.5,573.5 Z"/></g>
<g><path style="opacity:0.655" fill="#b9787b" d="M 1674.5,573.5 C 1675.15,575.435 1675.48,577.435 1675.5,579.5C 1673.54,577.68 1673.21,575.68 1674.5,573.5 Z"/></g>
<g><path style="opacity:1" fill="#db7675" d="M 1370.5,581.5 C 1374.92,581.305 1379.25,581.805 1383.5,583C 1388.97,590.712 1388.64,598.212 1382.5,605.5C 1373.35,609.323 1366.51,606.989 1362,598.5C 1361.37,594.129 1361.54,589.796 1362.5,585.5C 1365.41,584.575 1368.08,583.241 1370.5,581.5 Z"/></g>
<g><path style="opacity:0.004" fill="#fefffe" d="M 1687.5,591.5 C 1688.83,592.167 1688.83,592.167 1687.5,591.5 Z"/></g>
<g><path style="opacity:1" fill="#a34f4c" d="M 1675.5,579.5 C 1677.77,585.906 1679.43,592.573 1680.5,599.5C 1678.44,597.209 1677.11,594.376 1676.5,591C 1675.8,587.196 1675.46,583.363 1675.5,579.5 Z"/></g>
<g><path style="opacity:1" fill="#dc7878" d="M 669.5,591.5 C 685.596,589.785 696.43,596.452 702,611.5C 704.484,623.616 700.984,633.45 691.5,641C 672.226,651.445 658.226,646.612 649.5,626.5C 645.63,608.553 652.297,596.886 669.5,591.5 Z"/></g>
<g><path style="opacity:0.929" fill="#ad5a56" d="M 353.5,605.5 C 353.665,608.85 353.498,612.183 353,615.5C 352.667,615.167 352.333,614.833 352,614.5C 350.702,620.102 349.702,625.769 349,631.5C 348.617,632.056 348.117,632.389 347.5,632.5C 346.957,632.44 346.624,632.107 346.5,631.5C 348.849,622.714 351.183,614.048 353.5,605.5 Z"/></g>
<g><path style="opacity:1" fill="#dc7878" d="M 1522.5,619.5 C 1529.17,618.988 1535.67,619.655 1542,621.5C 1557.39,629.212 1562.39,641.545 1557,658.5C 1552.76,664.735 1547.26,669.569 1540.5,673C 1523.69,676.785 1511.86,670.952 1505,655.5C 1502.24,639.152 1508.07,627.152 1522.5,619.5 Z"/></g>
<g><path style="opacity:1" fill="#db7675" d="M 510.5,625.5 C 518.563,624.239 524.397,627.239 528,634.5C 527.798,648.364 520.964,653.531 507.5,650C 501.885,645.032 500.052,638.865 502,631.5C 504.84,629.405 507.673,627.405 510.5,625.5 Z"/></g>
<g><path style="opacity:1" fill="#dc7777" d="M 616.5,647.5 C 619.518,647.335 622.518,647.502 625.5,648C 638.332,652.177 642.166,660.677 637,673.5C 630.891,682.133 622.724,684.966 612.5,682C 602.381,673.043 601.048,663.043 608.5,652C 611.359,650.74 614.026,649.24 616.5,647.5 Z"/></g>
<g><path style="opacity:1" fill="#dc7777" d="M 460.5,655.5 C 464.936,655.21 469.27,655.71 473.5,657C 483.514,665.056 485.181,674.556 478.5,685.5C 467.005,693.392 457.172,691.725 449,680.5C 445.935,670.896 448.435,663.063 456.5,657C 458.058,656.79 459.391,656.29 460.5,655.5 Z"/></g>
<g><path style="opacity:1" fill="#dc7777" d="M 1129.5,654.5 C 1141.23,654.077 1146.07,659.744 1144,671.5C 1139.31,680.981 1132.48,682.981 1123.5,677.5C 1119.44,671.942 1118.61,665.942 1121,659.5C 1123.3,656.802 1126.13,655.135 1129.5,654.5 Z"/></g>
<g><path style="opacity:1" fill="#dd7878" d="M 1294.5,657.5 C 1311.47,655.837 1325.64,661.17 1337,673.5C 1339.33,677.5 1341.67,681.5 1344,685.5C 1347.47,700.393 1344.97,713.893 1336.5,726C 1331.47,729.707 1326.47,733.373 1321.5,737C 1292.38,745.761 1272.88,735.927 1263,707.5C 1262.33,700.833 1262.33,694.167 1263,687.5C 1265.82,684.397 1267.48,680.73 1268,676.5C 1274.8,667.349 1283.63,661.016 1294.5,657.5 Z"/></g>
<g><path style="opacity:1" fill="#db7675" d="M 1478.5,680.5 C 1486.46,680.064 1492.29,683.398 1496,690.5C 1496.67,693.5 1496.67,696.5 1496,699.5C 1493.4,701.818 1490.9,704.318 1488.5,707C 1481.04,709.174 1475.2,707.007 1471,700.5C 1468.28,694.131 1469.62,688.797 1475,684.5C 1475.48,683.552 1475.65,682.552 1475.5,681.5C 1476.79,681.737 1477.79,681.404 1478.5,680.5 Z"/></g>
<g><path style="opacity:1" fill="#dc7777" d="M 1380.5,684.5 C 1393.69,684.511 1398.86,690.844 1396,703.5C 1390.34,710.788 1383.51,712.122 1375.5,707.5C 1368.97,697.788 1370.64,690.121 1380.5,684.5 Z"/></g>
<g><path style="opacity:1" fill="#dc7877" d="M 761.5,685.5 C 770.848,683.342 778.348,686.009 784,693.5C 788.039,704.173 785.539,712.673 776.5,719C 771.868,720.564 767.201,720.731 762.5,719.5C 761.286,717.931 759.619,717.098 757.5,717C 747.069,704.877 748.402,694.377 761.5,685.5 Z"/></g>
<g><path style="opacity:0.318" fill="#bd7b77" d="M 1687.5,634.5 C 1692.84,652.858 1695.17,671.525 1694.5,690.5C 1692.04,671.853 1689.7,653.186 1687.5,634.5 Z"/></g>
<g><path style="opacity:0.655" fill="#a55250" d="M 338.5,696.5 C 339.789,704.878 339.456,713.212 337.5,721.5C 337.543,713.152 337.876,704.819 338.5,696.5 Z"/></g>
<g><path style="opacity:1" fill="#dd7979" d="M 939.5,732.5 C 954.474,731.553 968.807,734.053 982.5,740C 994.279,747.779 1004.11,757.612 1012,769.5C 1027.25,811.226 1015.42,842.559 976.5,863.5C 954.814,870.306 934.148,868.472 914.5,858C 886.245,836.899 877.412,809.399 888,775.5C 890.885,768.069 895.052,761.403 900.5,755.5C 905.185,751.811 909.851,748.144 914.5,744.5C 919.474,741.571 924.474,738.738 929.5,736C 933.052,735.122 936.386,733.956 939.5,732.5 Z"/></g>
<g><path style="opacity:1" fill="#dc7777" d="M 1187.5,738.5 C 1200.12,736.731 1209.95,741.064 1217,751.5C 1223.07,769.222 1217.57,781.388 1200.5,788C 1193.39,789.356 1186.72,788.356 1180.5,785C 1171.45,777.191 1167.95,767.358 1170,755.5C 1173.78,747.555 1179.61,741.889 1187.5,738.5 Z"/></g>
<g><path style="opacity:1" fill="#dc7777" d="M 1060.5,738.5 C 1076.83,737.663 1084,745.33 1082,761.5C 1077.09,772.043 1068.92,775.877 1057.5,773C 1047.01,765.886 1044.51,756.719 1050,745.5C 1053.04,742.246 1056.54,739.913 1060.5,738.5 Z"/></g>
<g><path style="opacity:0.267" fill="#b1716e" d="M 1695.5,696.5 C 1696.9,702.279 1697.73,708.279 1698,714.5C 1698.83,737.004 1698.66,759.337 1697.5,781.5C 1697.89,753.135 1697.22,724.801 1695.5,696.5 Z"/></g>
<g><path style="opacity:0.009" fill="#fefffe" d="M 1710.5,761.5 C 1711.61,762.946 1711.78,764.613 1711,766.5C 1710.51,764.866 1710.34,763.199 1710.5,761.5 Z"/></g>
<g><path style="opacity:1" fill="#dd7878" d="M 533.5,778.5 C 539.176,778.334 544.843,778.501 550.5,779C 555.271,782.138 559.771,785.638 564,789.5C 571.21,812.41 563.044,825.077 539.5,827.5C 525.592,825.657 518.258,817.657 517.5,803.5C 517.766,799.14 518.266,794.807 519,790.5C 523.216,785.657 528.049,781.657 533.5,778.5 Z"/></g>
<g><path style="opacity:1" fill="#db7676" d="M 1380.5,780.5 C 1391.17,778.062 1399.34,781.395 1405,790.5C 1408.05,802.171 1403.88,810.337 1392.5,815C 1385.76,816.702 1379.92,815.202 1375,810.5C 1372.89,806.609 1371.05,802.609 1369.5,798.5C 1369.09,789.925 1372.76,783.925 1380.5,780.5 Z"/></g>
<g><path style="opacity:1" fill="#dd7878" d="M 672.5,779.5 C 690.614,777.59 705.78,783.256 718,796.5C 718.333,797.833 718.667,799.167 719,800.5C 724.922,807.066 727.422,814.899 726.5,824C 725.676,831.463 723.843,838.63 721,845.5C 717.782,848.258 715.282,851.591 713.5,855.5C 707.408,859.544 701.075,863.044 694.5,866C 666.144,870.965 647.811,859.799 639.5,832.5C 636.685,814.083 642.352,798.916 656.5,787C 661.899,784.496 667.232,781.996 672.5,779.5 Z"/></g>
<g><path style="opacity:1" fill="#db7676" d="M 744.5,782.5 C 747.959,782.531 751.292,783.198 754.5,784.5C 762.742,793.13 762.075,801.297 752.5,809C 748.833,809.667 745.167,809.667 741.5,809C 739.333,806.167 737.167,803.333 735,800.5C 733.208,791.615 736.375,785.615 744.5,782.5 Z"/></g>
<g><path style="opacity:1" fill="#db7675" d="M 1575.5,805.5 C 1591.51,804.004 1597.68,811.004 1594,826.5C 1586.6,832.748 1578.93,833.082 1571,827.5C 1567.99,819.141 1569.49,811.807 1575.5,805.5 Z"/></g>
<g><path style="opacity:0.478" fill="#b9767f" d="M 1697.5,800.5 C 1697.26,805.694 1696.59,810.694 1695.5,815.5C 1695.19,810.234 1695.86,805.234 1697.5,800.5 Z"/></g>
<g><path style="opacity:0.608" fill="#a65a53" d="M 1695.5,820.5 C 1694.97,828.032 1693.97,835.365 1692.5,842.5C 1692.75,837.499 1693.08,832.499 1693.5,827.5C 1693.53,824.731 1694.2,822.397 1695.5,820.5 Z"/></g>
<g><path style="opacity:1" fill="#dd7979" d="M 1506.5,843.5 C 1523.56,842.196 1538.06,847.529 1550,859.5C 1560.98,875.485 1563.48,892.818 1557.5,911.5C 1540.64,940.255 1516.97,947.755 1486.5,934C 1461.51,912.552 1457.68,887.718 1475,859.5C 1484.2,851.316 1494.7,845.982 1506.5,843.5 Z"/></g>
<g><path style="opacity:0.486" fill="#b17372" d="M 336.5,788.5 C 337.805,790.397 338.471,792.731 338.5,795.5C 340.089,818.791 342.756,841.957 346.5,865C 346.486,866.385 346.152,867.551 345.5,868.5C 341.514,841.945 338.514,815.278 336.5,788.5 Z"/></g>
<g><path style="opacity:0.004" fill="#e3e3e3" d="M 346.5,873.5 C 347.167,873.5 347.5,873.833 347.5,874.5C 346.732,875.263 346.232,876.263 346,877.5C 345.235,875.934 345.402,874.601 346.5,873.5 Z"/></g>
<g><path style="opacity:1" fill="#dc7777" d="M 1108.5,872.5 C 1121.98,872.142 1127.15,878.475 1124,891.5C 1116.18,900.793 1108.51,900.793 1101,891.5C 1098.17,882.784 1100.67,876.451 1108.5,872.5 Z"/></g>
<g><path style="opacity:0.004" fill="#fffed8" d="M 348.5,880.5 C 348.167,881.167 347.833,881.833 347.5,882.5C 347.031,883.745 346.697,883.579 346.5,882C 346.836,880.97 347.503,880.47 348.5,880.5 Z"/></g>
<g><path style="opacity:1" fill="#dc7877" d="M 1310.5,888.5 C 1317.39,887.901 1324.06,888.735 1330.5,891C 1347.21,900.151 1351.21,913.318 1342.5,930.5C 1333.04,942.041 1321.04,945.541 1306.5,941C 1288.6,927.217 1286.93,911.55 1301.5,894C 1304.75,892.434 1307.75,890.601 1310.5,888.5 Z"/></g>
<g><path style="opacity:0.329" fill="#b77c7b" d="M 348.5,882.5 C 350.164,883.949 350.998,885.949 351,888.5C 351.377,892.019 351.877,895.519 352.5,899C 352.472,900.07 352.139,900.903 351.5,901.5C 350.371,895.187 349.371,888.854 348.5,882.5 Z"/></g>
<g><path style="opacity:1" fill="#da7373" d="M 478.5,895.5 C 485.016,894.237 490.516,895.904 495,900.5C 499.185,914.99 493.685,921.824 478.5,921C 470,916.561 467.5,909.728 471,900.5C 472.913,897.72 475.413,896.053 478.5,895.5 Z"/></g>
<g><path style="opacity:1" fill="#db7575" d="M 1215.5,914.5 C 1230.01,913.838 1235.51,920.505 1232,934.5C 1227.82,940.112 1222.32,941.945 1215.5,940C 1207.17,935.787 1204.67,929.287 1208,920.5C 1210.13,917.847 1212.63,915.847 1215.5,914.5 Z"/></g>
<g><path style="opacity:0.357" fill="#a95b58" d="M 356.5,918.5 C 357.935,919.79 358.935,921.456 359.5,923.5C 360.459,927.796 361.125,932.129 361.5,936.5C 359.231,930.769 357.565,924.769 356.5,918.5 Z"/></g>
<g><path style="opacity:1" fill="#db7676" d="M 784.5,944.5 C 789.605,944.146 794.105,945.479 798,948.5C 798.14,951.043 798.806,953.377 800,955.5C 800.667,958.5 800.667,961.5 800,964.5C 794.707,970.692 788.207,972.192 780.5,969C 778.333,968.167 776.833,966.667 776,964.5C 773.257,955.177 776.09,948.511 784.5,944.5 Z"/></g>
<g><path style="opacity:1" fill="#dc7776" d="M 976.5,959.5 C 987.248,958.387 995.081,962.72 1000,972.5C 1001.22,983.633 996.386,990.8 985.5,994C 979.986,994.26 974.653,993.26 969.5,991C 959.735,977.587 962.068,967.087 976.5,959.5 Z"/></g>
<g><path style="opacity:0.004" fill="#fefffe" d="M 368.5,976.5 C 369.833,977.167 369.833,977.167 368.5,976.5 Z"/></g>
<g><path style="opacity:0.188" fill="#c28f8c" d="M 364.5,948.5 C 369.008,960.217 373.008,972.217 376.5,984.5C 371.407,972.954 367.407,960.954 364.5,948.5 Z"/></g>
<g><path style="opacity:0.005" fill="#fefffe" d="M 368.5,980.5 C 369.573,981.251 369.74,982.251 369,983.5C 368.517,982.552 368.351,981.552 368.5,980.5 Z"/></g>
<g><path style="opacity:0.004" fill="#fefffe" d="M 369.5,984.5 C 370.833,985.167 370.833,985.167 369.5,984.5 Z"/></g>
<g><path style="opacity:1" fill="#dd7878" d="M 1164.5,989.5 C 1179.25,987.955 1190.08,993.622 1197,1006.5C 1200.83,1022 1195.99,1033.83 1182.5,1042C 1166.25,1047.2 1153.92,1042.54 1145.5,1028C 1141.44,1017.19 1143.11,1007.52 1150.5,999C 1154.79,995.04 1159.46,991.873 1164.5,989.5 Z"/></g>
<g><path style="opacity:1" fill="#dc7777" d="M 661.5,998.5 C 675.484,996.156 681.484,1001.82 679.5,1015.5C 676.225,1023.11 670.558,1025.61 662.5,1023C 655.255,1019.22 652.922,1013.39 655.5,1005.5C 657.271,1002.95 659.271,1000.62 661.5,998.5 Z"/></g>
<g><path style="opacity:1" fill="#db7676" d="M 1520.5,998.5 C 1526.53,997.87 1531.37,999.87 1535,1004.5C 1537.62,1011.73 1536.45,1018.23 1531.5,1024C 1515.06,1027.56 1508.56,1021.06 1512,1004.5C 1514.64,1002.11 1517.47,1000.11 1520.5,998.5 Z"/></g>
<g><path style="opacity:1" fill="#dc7877" d="M 539.5,1027.5 C 546.618,1026.64 553.285,1027.81 559.5,1031C 566.655,1040.52 565.989,1049.52 557.5,1058C 546.95,1064.94 538.116,1063.1 531,1052.5C 527.394,1041.81 530.228,1033.48 539.5,1027.5 Z"/></g>
<g><path style="opacity:1" fill="#dc7878" d="M 1382.5,1027.5 C 1386.51,1027.33 1390.51,1027.5 1394.5,1028C 1397.42,1029.77 1400.42,1031.27 1403.5,1032.5C 1407.44,1040.12 1407.44,1047.78 1403.5,1055.5C 1393.92,1064.81 1384.42,1064.81 1375,1055.5C 1371.48,1050.3 1370.65,1044.64 1372.5,1038.5C 1374.97,1036.36 1376.64,1033.69 1377.5,1030.5C 1379.14,1029.3 1380.81,1028.3 1382.5,1027.5 Z"/></g>
<g><path style="opacity:0.925" fill="#9b4440" d="M 1646.5,1015.5 C 1643.07,1023.37 1639.9,1031.37 1637,1039.5C 1636.15,1040.57 1635.31,1041.57 1634.5,1042.5C 1636.79,1037.5 1637.95,1032.16 1638,1026.5C 1638.41,1026.96 1638.91,1027.29 1639.5,1027.5C 1640.3,1025.92 1640.8,1024.26 1641,1022.5C 1641.33,1022.83 1641.67,1023.17 1642,1023.5C 1642.33,1021.5 1642.67,1019.5 1643,1017.5C 1643.33,1017.83 1643.67,1018.17 1644,1018.5C 1644.24,1016.88 1645.07,1015.88 1646.5,1015.5 Z"/></g>
<g><path style="opacity:0.004" fill="#fefffe" d="M 386.5,1038.5 C 387.833,1039.17 387.833,1039.17 386.5,1038.5 Z"/></g>
<g><path style="opacity:0.004" fill="#fefffe" d="M 1636.5,1043.5 C 1636.37,1042.76 1636.54,1042.09 1637,1041.5C 1637.69,1042.44 1637.53,1043.1 1636.5,1043.5 Z"/></g>
<g><path style="opacity:0.004" fill="#fefffe" d="M 1636.5,1043.5 C 1636.67,1044.49 1636.34,1045.16 1635.5,1045.5C 1635.33,1044.51 1635.66,1043.84 1636.5,1043.5 Z"/></g>
<g><path style="opacity:0.004" fill="#fefffe" d="M 1635.5,1045.5 C 1634.83,1046.17 1634.83,1046.17 1635.5,1045.5 Z"/></g>
<g><path style="opacity:0.992" fill="#a04545" d="M 1631.5,1050.5 C 1629.23,1054.71 1627.23,1059.04 1625.5,1063.5C 1624.66,1063.84 1624.33,1064.51 1624.5,1065.5C 1623.66,1065.84 1623.33,1066.51 1623.5,1067.5C 1623.17,1067.5 1622.83,1067.5 1622.5,1067.5C 1622.34,1064.81 1622.5,1062.15 1623,1059.5C 1623.33,1060.5 1623.67,1061.5 1624,1062.5C 1625.69,1058.28 1627.02,1053.95 1628,1049.5C 1628.33,1050.17 1628.67,1050.83 1629,1051.5C 1629.67,1050.75 1630.5,1050.41 1631.5,1050.5 Z"/></g>
<g><path style="opacity:0.004" fill="#fefffe" d="M 1627.5,1060.5 C 1628.83,1061.17 1628.83,1061.17 1627.5,1060.5 Z"/></g>
<g><path style="opacity:0.004" fill="#fefffe" d="M 1626.5,1062.5 C 1627.83,1063.17 1627.83,1063.17 1626.5,1062.5 Z"/></g>
<g><path style="opacity:0.004" fill="#fefffe" d="M 1625.5,1063.5 C 1625.83,1063.5 1626.17,1063.5 1626.5,1063.5C 1626.67,1064.49 1626.34,1065.16 1625.5,1065.5C 1625.5,1064.83 1625.5,1064.17 1625.5,1063.5 Z"/></g>
<g><path style="opacity:0.004" fill="#fffebe" d="M 1624.5,1065.5 C 1624.83,1065.5 1625.17,1065.5 1625.5,1065.5C 1625.67,1066.49 1625.34,1067.16 1624.5,1067.5C 1624.5,1066.83 1624.5,1066.17 1624.5,1065.5 Z"/></g>
<g><path style="opacity:0.004" fill="#fefffe" d="M 1623.5,1067.5 C 1623.83,1067.5 1624.17,1067.5 1624.5,1067.5C 1624.67,1068.49 1624.34,1069.16 1623.5,1069.5C 1623.5,1068.83 1623.5,1068.17 1623.5,1067.5 Z"/></g>
<g><path style="opacity:0.004" fill="#fefffe" d="M 1622.5,1069.5 C 1622.83,1069.5 1623.17,1069.5 1623.5,1069.5C 1623.67,1070.49 1623.34,1071.16 1622.5,1071.5C 1622.5,1070.83 1622.5,1070.17 1622.5,1069.5 Z"/></g>
<g><path style="opacity:1" fill="#dd7878" d="M 881.5,1069.5 C 892.041,1068.99 902.375,1070.15 912.5,1073C 914.596,1074.77 916.929,1076.1 919.5,1077C 921.298,1079.47 923.632,1081.14 926.5,1082C 943.505,1101.13 946.005,1121.96 934,1144.5C 928.709,1150.29 923.209,1155.96 917.5,1161.5C 882.359,1174.51 858.192,1163.51 845,1128.5C 841.889,1099.16 854.055,1079.49 881.5,1069.5 Z"/></g>
<g><path style="opacity:0.004" fill="#fefffe" d="M 1621.5,1071.5 C 1621.83,1071.5 1622.17,1071.5 1622.5,1071.5C 1622.67,1072.49 1622.34,1073.16 1621.5,1073.5C 1621.5,1072.83 1621.5,1072.17 1621.5,1071.5 Z"/></g>
<g><path style="opacity:0.024" fill="#b67269" d="M 412.5,1067.5 C 415.157,1069.87 417.157,1072.87 418.5,1076.5C 418.376,1077.11 418.043,1077.44 417.5,1077.5C 415.306,1074.45 413.639,1071.11 412.5,1067.5 Z"/></g>
<g><path style="opacity:1" fill="#dd7979" d="M 1124.5,1074.5 C 1151.77,1071.41 1174.27,1080.07 1192,1100.5C 1194.57,1105.73 1197.9,1110.4 1202,1114.5C 1214.77,1145.19 1210.44,1173.19 1189,1198.5C 1169.94,1217.96 1146.78,1225.46 1119.5,1221C 1111.37,1218.37 1103.37,1215.37 1095.5,1212C 1085.14,1203.65 1076.31,1194.15 1069,1183.5C 1066.38,1176.59 1064.04,1169.59 1062,1162.5C 1057.31,1129.84 1068.15,1104 1094.5,1085C 1104.07,1079.76 1114.07,1076.26 1124.5,1074.5 Z"/></g>
<g><path style="opacity:0.005" fill="#fffbfa" d="M 1620.5,1073.5 C 1620.83,1073.5 1621.17,1073.5 1621.5,1073.5C 1620.96,1075.59 1620.12,1077.59 1619,1079.5C 1618.23,1080.6 1617.4,1080.6 1616.5,1079.5C 1618.29,1078.77 1618.96,1077.77 1618.5,1076.5C 1619.83,1076.17 1619.83,1075.83 1618.5,1075.5C 1618.5,1074.83 1618.83,1074.5 1619.5,1074.5C 1620.17,1074.5 1620.5,1074.17 1620.5,1073.5 Z"/></g>
<g><path style="opacity:1" fill="#dc7877" d="M 770.5,1076.5 C 793.095,1078.37 802.095,1090.37 797.5,1112.5C 788.161,1126.67 775.828,1130.17 760.5,1123C 749.475,1114.07 746.642,1102.9 752,1089.5C 756.711,1082.93 762.878,1078.6 770.5,1076.5 Z"/></g>
<g><path style="opacity:0.004" fill="#fefffe" d="M 1616.5,1081.5 C 1617.83,1082.17 1617.83,1082.17 1616.5,1081.5 Z"/></g>
<g><path style="opacity:0.012" fill="#b77877" d="M 422.5,1086.5 C 423.376,1086.37 424.043,1086.7 424.5,1087.5C 427.995,1094.05 431.662,1100.38 435.5,1106.5C 435.5,1106.83 435.5,1107.17 435.5,1107.5C 435.5,1108.17 435.5,1108.83 435.5,1109.5C 430.929,1102.03 426.596,1094.36 422.5,1086.5 Z"/></g>
<g><path style="opacity:0.392" fill="#c38b87" d="M 1604.5,1100.5 C 1602.96,1105.02 1600.62,1109.02 1597.5,1112.5C 1598.81,1107.88 1601.14,1103.88 1604.5,1100.5 Z"/></g>
<g><path style="opacity:0.008" fill="#c4b3b3" d="M 435.5,1109.5 C 435.833,1109.5 436.167,1109.5 436.5,1109.5C 436.833,1109.5 437.167,1109.5 437.5,1109.5C 437.5,1109.83 437.5,1110.17 437.5,1110.5C 438.167,1110.5 438.5,1110.83 438.5,1111.5C 438.5,1111.83 438.5,1112.17 438.5,1112.5C 439.167,1112.5 439.5,1112.83 439.5,1113.5C 439.5,1113.83 439.5,1114.17 439.5,1114.5C 439.5,1114.83 439.5,1115.17 439.5,1115.5C 437.684,1113.88 436.351,1111.88 435.5,1109.5 Z"/></g>
<g><path style="opacity:1" fill="#dd7878" d="M 1371.5,1116.5 C 1389.62,1115.14 1404.78,1121.14 1417,1134.5C 1426.5,1152.91 1425.17,1170.58 1413,1187.5C 1398.44,1199.67 1382.11,1202.67 1364,1196.5C 1342.45,1183.38 1335.78,1164.72 1344,1140.5C 1347.32,1137.19 1349.82,1133.35 1351.5,1129C 1354.5,1126.67 1357.5,1124.33 1360.5,1122C 1364.51,1120.66 1368.17,1118.83 1371.5,1116.5 Z"/></g>
<g><path style="opacity:0.706" fill="#b98381" d="M 1590.5,1123.5 C 1589.89,1125.43 1588.89,1127.1 1587.5,1128.5C 1587.26,1125.97 1588.26,1124.3 1590.5,1123.5 Z"/></g>
<g><path style="opacity:0.02" fill="#b97d7c" d="M 1587.5,1128.5 C 1586.88,1130.75 1585.54,1132.42 1583.5,1133.5C 1584.14,1131.21 1585.47,1129.54 1587.5,1128.5 Z"/></g>
<g><path style="opacity:1" fill="#dc7878" d="M 665.5,1139.5 C 682.436,1138.27 691.436,1146.11 692.5,1163C 690.167,1181.26 679.834,1188.92 661.5,1186C 646.83,1177.53 642.83,1165.36 649.5,1149.5C 653.994,1144.6 659.328,1141.26 665.5,1139.5 Z"/></g>
<g><path style="opacity:0.408" fill="#b97e7c" d="M 1581.5,1136.5 C 1577.41,1145 1572.08,1152.67 1565.5,1159.5C 1570.45,1151.55 1575.78,1143.89 1581.5,1136.5 Z"/></g>
<g><path style="opacity:0.007" fill="#fefffe" d="M 454.5,1164.5 C 452.926,1164.06 451.759,1163.06 451,1161.5C 450.333,1160.83 450.333,1160.17 451,1159.5C 452.669,1160.85 453.836,1162.51 454.5,1164.5 Z"/></g>
<g><path style="opacity:0.005" fill="#fefffe" d="M 454.5,1164.5 C 456.262,1165.26 457.262,1166.6 457.5,1168.5C 455.738,1167.74 454.738,1166.4 454.5,1164.5 Z"/></g>
<g><path style="opacity:0.004" fill="#fefffe" d="M 457.5,1168.5 C 458.167,1168.5 458.5,1168.83 458.5,1169.5C 458.167,1169.17 457.833,1168.83 457.5,1168.5 Z"/></g>
<g><path style="opacity:0.004" fill="#fefffe" d="M 458.5,1169.5 C 459.833,1170.17 459.833,1170.17 458.5,1169.5 Z"/></g>
<g><path style="opacity:0.004" fill="#fefffe" d="M 460.5,1172.5 C 459.833,1171.17 459.833,1171.17 460.5,1172.5 Z"/></g>
<g><path style="opacity:0.004" fill="#fefffe" d="M 460.5,1172.5 C 461.525,1172.9 461.692,1173.56 461,1174.5C 460.536,1173.91 460.369,1173.24 460.5,1172.5 Z"/></g>
<g><path style="opacity:0.004" fill="#fefffe" d="M 462.5,1175.5 C 463.833,1176.17 463.833,1176.17 462.5,1175.5 Z"/></g>
<g><path style="opacity:1" fill="#db7676" d="M 1003.5,1179.5 C 1019.56,1178.31 1025.06,1185.31 1020,1200.5C 1012.3,1207.39 1004.96,1207.06 998,1199.5C 994.882,1191.37 996.715,1184.7 1003.5,1179.5 Z"/></g>
<g><path style="opacity:0.004" fill="#fefffe" d="M 468.5,1182.5 C 467.833,1181.17 467.833,1181.17 468.5,1182.5 Z"/></g>
<g><path style="opacity:0.004" fill="#fefffe" d="M 468.5,1182.5 C 469.167,1182.5 469.5,1182.83 469.5,1183.5C 469.167,1183.17 468.833,1182.83 468.5,1182.5 Z"/></g>
<g><path style="opacity:0.004" fill="#fefffe" d="M 469.5,1183.5 C 470.167,1183.5 470.5,1183.83 470.5,1184.5C 470.167,1184.17 469.833,1183.83 469.5,1183.5 Z"/></g>
<g><path style="opacity:0.005" fill="#fefffe" d="M 470.5,1184.5 C 472.262,1185.26 473.262,1186.6 473.5,1188.5C 471.738,1187.74 470.738,1186.4 470.5,1184.5 Z"/></g>
<g><path style="opacity:0.004" fill="#fefffe" d="M 473.5,1188.5 C 474.167,1188.5 474.5,1188.83 474.5,1189.5C 474.167,1189.17 473.833,1188.83 473.5,1188.5 Z"/></g>
<g><path style="opacity:0.004" fill="#fefffe" d="M 474.5,1189.5 C 475.833,1190.17 475.833,1190.17 474.5,1189.5 Z"/></g>
<g><path style="opacity:1" fill="#9b413b" d="M 1553.5,1176.5 C 1547.88,1184.45 1541.55,1191.78 1534.5,1198.5C 1534.74,1196.53 1534.41,1194.7 1533.5,1193C 1536.86,1190.6 1540.36,1188.43 1544,1186.5C 1544.72,1184.89 1544.55,1183.39 1543.5,1182C 1545.13,1181.51 1546.8,1181.34 1548.5,1181.5C 1548.64,1179.74 1548.31,1178.07 1547.5,1176.5C 1549.46,1175.48 1551.46,1175.48 1553.5,1176.5 Z"/></g>
<g><path style="opacity:1" fill="#dc7877" d="M 794.5,1192.5 C 808.624,1191.97 818.791,1197.97 825,1210.5C 826.22,1216.88 825.387,1222.88 822.5,1228.5C 818.946,1234.55 813.946,1239.05 807.5,1242C 792.114,1244.89 781.614,1239.06 776,1224.5C 773.232,1208.34 779.399,1197.67 794.5,1192.5 Z"/></g>
<g><path style="opacity:1" fill="#dc7777" d="M 1284.5,1196.5 C 1288.85,1196.33 1293.18,1196.5 1297.5,1197C 1301.3,1199.8 1304.8,1202.96 1308,1206.5C 1310.49,1216.37 1307.66,1224.2 1299.5,1230C 1278.85,1233.68 1270.68,1225.18 1275,1204.5C 1277.79,1201.19 1280.96,1198.52 1284.5,1196.5 Z"/></g>
<g><path style="opacity:0.008" fill="#c08381" d="M 1534.5,1198.5 C 1533.58,1201.09 1531.91,1203.09 1529.5,1204.5C 1530.42,1201.91 1532.09,1199.91 1534.5,1198.5 Z"/></g>
<g><path style="opacity:0.004" fill="#fefffe" d="M 1550.5,1212.5 C 1551.83,1213.17 1551.83,1213.17 1550.5,1212.5 Z"/></g>
<g><path style="opacity:0.004" fill="#fefffe" d="M 1550.5,1213.5 C 1549.83,1214.17 1549.83,1214.17 1550.5,1213.5 Z"/></g>
<g><path style="opacity:0.004" fill="#fefffe" d="M 1549.5,1214.5 C 1548.83,1215.17 1548.83,1215.17 1549.5,1214.5 Z"/></g>
<g><path style="opacity:0.004" fill="#fefffe" d="M 1548.5,1215.5 C 1547.83,1216.17 1547.83,1216.17 1548.5,1215.5 Z"/></g>
<g><path style="opacity:0.005" fill="#fefffe" d="M 1547.5,1216.5 C 1545.2,1219.3 1542.7,1221.96 1540,1224.5C 1541.2,1220.8 1543.7,1218.13 1547.5,1216.5 Z"/></g>
<g><path style="opacity:0.039" fill="#cfa4a4" d="M 1519.5,1216.5 C 1517.17,1219.5 1514.5,1222.17 1511.5,1224.5C 1511.5,1224.17 1511.5,1223.83 1511.5,1223.5C 1513.84,1220.11 1516.51,1217.78 1519.5,1216.5 Z"/></g>
<g><path style="opacity:1" fill="#993c36" d="M 1511.5,1223.5 C 1511.5,1223.83 1511.5,1224.17 1511.5,1224.5C 1503.81,1232.86 1495.81,1240.86 1487.5,1248.5C 1487.5,1247.5 1487.5,1246.5 1487.5,1245.5C 1486.45,1245.65 1485.45,1245.48 1484.5,1245C 1486.58,1244.81 1488.58,1244.31 1490.5,1243.5C 1489.97,1242.81 1489.31,1242.31 1488.5,1242C 1489.79,1241.51 1491.13,1241.34 1492.5,1241.5C 1492.28,1240.32 1492.61,1239.32 1493.5,1238.5C 1494.89,1239.81 1495.89,1239.48 1496.5,1237.5C 1495.48,1235.11 1496.48,1234.11 1499.5,1234.5C 1500.45,1231.26 1501.95,1228.26 1504,1225.5C 1504.71,1226.97 1505.88,1227.64 1507.5,1227.5C 1506.08,1225.14 1506.42,1223.14 1508.5,1221.5C 1509.27,1222.61 1510.27,1223.28 1511.5,1223.5 Z"/></g>
<g><path style="opacity:0.004" fill="#fefffe" d="M 346.5,1235.5 C 347.598,1236.6 347.765,1237.93 347,1239.5C 345.666,1238.12 345.499,1236.79 346.5,1235.5 Z"/></g>
<g><path style="opacity:1" fill="#dc7777" d="M 921.5,1235.5 C 931.64,1233.58 939.807,1236.58 946,1244.5C 946.667,1249.5 946.667,1254.5 946,1259.5C 943.508,1261.79 941.008,1264.12 938.5,1266.5C 937.614,1267.32 937.281,1268.32 937.5,1269.5C 916.771,1272.03 908.604,1263.03 913,1242.5C 915.431,1239.56 918.264,1237.22 921.5,1235.5 Z"/></g>
<g><path style="opacity:0.553" fill="#c38583" d="M 542.5,1243.5 C 547.44,1246.77 551.773,1250.77 555.5,1255.5C 550.56,1252.23 546.227,1248.23 542.5,1243.5 Z"/></g>
<g><path style="opacity:0.997" fill="#9e4742" d="M 1487.5,1248.5 C 1484.44,1252.52 1480.78,1255.86 1476.5,1258.5C 1476.25,1255.68 1476.75,1253.01 1478,1250.5C 1478.42,1251.67 1479.09,1252.67 1480,1253.5C 1480.62,1252.55 1480.45,1251.72 1479.5,1251C 1482.41,1250.72 1485.08,1249.89 1487.5,1248.5 Z"/></g>
<g><path style="opacity:1" fill="#db7675" d="M 1126.5,1257.5 C 1133.45,1257.06 1138.95,1259.72 1143,1265.5C 1144.94,1273.12 1142.77,1279.29 1136.5,1284C 1122.9,1285.24 1116.9,1279.07 1118.5,1265.5C 1120.35,1261.93 1123.02,1259.26 1126.5,1257.5 Z"/></g>
<g><path style="opacity:0.012" fill="#d6b6b5" d="M 1472.5,1262.5 C 1470.76,1265.24 1468.43,1267.24 1465.5,1268.5C 1467.24,1265.76 1469.57,1263.76 1472.5,1262.5 Z"/></g>
<g><path style="opacity:1" fill="#a0473f" d="M 1457.5,1275.5 C 1452.06,1280.4 1446.39,1285.06 1440.5,1289.5C 1440.41,1288.5 1440.75,1287.67 1441.5,1287C 1439.91,1287.62 1438.57,1287.28 1437.5,1286C 1439.47,1285.5 1441.47,1285.34 1443.5,1285.5C 1443.5,1282.83 1443.5,1280.17 1443.5,1277.5C 1444.68,1277.28 1445.68,1277.61 1446.5,1278.5C 1445.19,1279.26 1444.69,1280.26 1445,1281.5C 1447.57,1280.99 1449.9,1279.99 1452,1278.5C 1452.36,1276.39 1453.03,1274.39 1454,1272.5C 1454.76,1274.06 1455.93,1275.06 1457.5,1275.5 Z"/></g>
<g><path style="opacity:1" fill="#dc7676" d="M 1049.5,1286.5 C 1062.8,1286.71 1067.63,1293.38 1064,1306.5C 1058.95,1312.49 1052.79,1313.99 1045.5,1311C 1037.56,1303.13 1037.56,1295.46 1045.5,1288C 1047.06,1287.79 1048.39,1287.29 1049.5,1286.5 Z"/></g>
<g><path style="opacity:0.004" fill="#fefffe" d="M 1466.5,1288.5 C 1467.83,1289.17 1467.83,1289.17 1466.5,1288.5 Z"/></g>
<g><path style="opacity:0.267" fill="#d1a5a0" d="M 1440.5,1289.5 C 1435.72,1293.73 1430.72,1297.73 1425.5,1301.5C 1425.51,1299.98 1426.18,1298.82 1427.5,1298C 1431.46,1294.52 1435.8,1291.69 1440.5,1289.5 Z"/></g>
<g><path style="opacity:0.349" fill="#c3928f" d="M 1420.5,1304.5 C 1418.47,1306.52 1416.14,1308.19 1413.5,1309.5C 1414.95,1306.74 1417.28,1305.07 1420.5,1304.5 Z"/></g>
<g><path style="opacity:1" fill="#a5524b" d="M 1413.5,1309.5 C 1408.05,1313.73 1402.38,1317.73 1396.5,1321.5C 1396.5,1320.17 1396.5,1318.83 1396.5,1317.5C 1399.6,1317.59 1399.93,1317.09 1397.5,1316C 1400.04,1313.91 1403.04,1312.91 1406.5,1313C 1408.58,1311.3 1410.91,1310.13 1413.5,1309.5 Z"/></g>
<g><path style="opacity:1" fill="#ae6562" d="M 633.5,1317.5 C 636.745,1319.01 640.078,1320.68 643.5,1322.5C 644.425,1323.36 645.092,1324.36 645.5,1325.5C 640.655,1323.97 636.655,1321.3 633.5,1317.5 Z"/></g>
<g><path style="opacity:0.004" fill="#fefffe" d="M 1393.5,1324.5 C 1394.83,1325.17 1394.83,1325.17 1393.5,1324.5 Z"/></g>
<g><path style="opacity:0.004" fill="#fefffe" d="M 1391.5,1326.5 C 1391.5,1326.17 1391.5,1325.83 1391.5,1325.5C 1392.17,1325.5 1392.83,1325.5 1393.5,1325.5C 1393.16,1326.34 1392.49,1326.67 1391.5,1326.5 Z"/></g>
<g><path style="opacity:0.004" fill="#fefffe" d="M 1391.5,1326.5 C 1390.83,1327.17 1390.83,1327.17 1391.5,1326.5 Z"/></g>
<g><path style="opacity:1" fill="#953932" d="M 1395.5,1321.5 C 1394.17,1322.83 1392.83,1324.17 1391.5,1325.5C 1389.97,1325.43 1388.97,1326.09 1388.5,1327.5C 1386.33,1327.75 1384.66,1328.75 1383.5,1330.5C 1381.08,1332.24 1378.41,1333.57 1375.5,1334.5C 1376.72,1332.55 1378.38,1331.05 1380.5,1330C 1378.83,1329.67 1377.17,1329.33 1375.5,1329C 1377.44,1325.68 1380.11,1324.85 1383.5,1326.5C 1384.17,1325.5 1384.83,1324.5 1385.5,1323.5C 1386.74,1324.25 1388.07,1324.58 1389.5,1324.5C 1389.28,1323.32 1389.61,1322.32 1390.5,1321.5C 1392.13,1322.54 1393.8,1322.54 1395.5,1321.5 Z"/></g>
<g><path style="opacity:0.004" fill="#fefffe" d="M 1388.5,1327.5 C 1389.83,1328.17 1389.83,1328.17 1388.5,1327.5 Z"/></g>
<g><path style="opacity:0.006" fill="#fefffe" d="M 1383.5,1330.5 C 1385.79,1331.3 1385.46,1331.97 1382.5,1332.5C 1382.83,1331.83 1383.17,1331.17 1383.5,1330.5 Z"/></g>
<g><path style="opacity:1" fill="#b46d68" d="M 652.5,1330.5 C 657.935,1331.36 662.269,1334.03 665.5,1338.5C 660.657,1336.58 656.323,1333.92 652.5,1330.5 Z"/></g>
<g><path style="opacity:0.004" fill="#fefffe" d="M 1382.5,1332.5 C 1381.83,1333.17 1381.83,1333.17 1382.5,1332.5 Z"/></g>
<g><path style="opacity:1" fill="#a04b44" d="M 665.5,1338.5 C 669.228,1338.79 672.895,1339.46 676.5,1340.5C 676.167,1341.17 675.833,1341.83 675.5,1342.5C 676.612,1343.27 677.279,1344.27 677.5,1345.5C 672.835,1344.17 668.835,1341.84 665.5,1338.5 Z"/></g>
<g><path style="opacity:0.008" fill="#da867d" d="M 1372.5,1336.5 C 1369.02,1339.62 1365.02,1341.96 1360.5,1343.5C 1363.36,1341.38 1366.36,1339.21 1369.5,1337C 1370.45,1336.52 1371.45,1336.35 1372.5,1336.5 Z"/></g>
<g><path style="opacity:0.694" fill="#bd7778" d="M 677.5,1345.5 C 680.578,1345.59 682.911,1346.92 684.5,1349.5C 681.669,1348.92 679.336,1347.59 677.5,1345.5 Z"/></g>
<g><path style="opacity:1" fill="#b2605a" d="M 1360.5,1343.5 C 1355.34,1347.59 1349.67,1350.92 1343.5,1353.5C 1345.71,1351.64 1347.04,1349.3 1347.5,1346.5C 1349.86,1346.66 1352.19,1346.5 1354.5,1346C 1356.16,1344.34 1358.16,1343.5 1360.5,1343.5 Z"/></g>
<g><path style="opacity:0.106" fill="#e1baba" d="M 684.5,1349.5 C 685.167,1349.5 685.833,1349.5 686.5,1349.5C 686.833,1350.17 687.167,1350.83 687.5,1351.5C 685.973,1351.57 684.973,1350.91 684.5,1349.5 Z"/></g>
<g><path style="opacity:1" fill="#a34f4d" d="M 686.5,1349.5 C 688.861,1349.67 691.194,1350.01 693.5,1350.5C 693.281,1351.68 693.614,1352.68 694.5,1353.5C 697.782,1353.96 700.116,1355.63 701.5,1358.5C 696.547,1356.69 691.88,1354.36 687.5,1351.5C 687.167,1350.83 686.833,1350.17 686.5,1349.5 Z"/></g>
<g><path style="opacity:0.082" fill="#cda3a0" d="M 1343.5,1353.5 C 1343.08,1354.22 1342.42,1354.72 1341.5,1355C 1343.3,1355.32 1343.63,1355.98 1342.5,1357C 1340.92,1357.71 1339.42,1358.54 1338,1359.5C 1337.27,1357.84 1336.11,1357.34 1334.5,1358C 1329.24,1361.46 1323.9,1364.62 1318.5,1367.5C 1316.88,1368.04 1315.22,1368.37 1313.5,1368.5C 1313.47,1367.5 1313.97,1366.84 1315,1366.5C 1323.63,1363.27 1331.8,1359.1 1339.5,1354C 1340.79,1353.51 1342.13,1353.34 1343.5,1353.5 Z"/></g>
<g><path style="opacity:0.106" fill="#b07e79" d="M 701.5,1358.5 C 704.578,1358.59 706.911,1359.92 708.5,1362.5C 705.669,1361.92 703.336,1360.59 701.5,1358.5 Z"/></g>
<g><path style="opacity:0.004" fill="#fefffe" d="M 1322.5,1365.5 C 1323.83,1366.17 1323.83,1366.17 1322.5,1365.5 Z"/></g>
<g><path style="opacity:0.031" fill="#c79492" d="M 708.5,1362.5 C 710.262,1362.36 711.929,1362.69 713.5,1363.5C 715.489,1364.63 717.156,1365.97 718.5,1367.5C 714.691,1366.67 711.357,1365 708.5,1362.5 Z"/></g>
<g><path style="opacity:0.004" fill="#fefffe" d="M 1322.5,1366.5 C 1322.1,1367.53 1321.44,1367.69 1320.5,1367C 1321.09,1366.54 1321.76,1366.37 1322.5,1366.5 Z"/></g>
<g><path style="opacity:0.004" fill="#fefffe" d="M 1318.5,1367.5 C 1319.83,1368.17 1319.83,1368.17 1318.5,1367.5 Z"/></g>
<g><path style="opacity:0.02" fill="#d1999b" d="M 718.5,1367.5 C 721.089,1367.46 723.089,1368.46 724.5,1370.5C 722.181,1370.01 720.181,1369.01 718.5,1367.5 Z"/></g>
<g><path style="opacity:0.639" fill="#ba7a76" d="M 1313.5,1368.5 C 1307.6,1372.28 1301.27,1375.28 1294.5,1377.5C 1295.35,1375.91 1296.68,1374.74 1298.5,1374C 1303.37,1371.65 1308.37,1369.82 1313.5,1368.5 Z"/></g>
<g><path style="opacity:0.007" fill="#fafafa" d="M 744.5,1379.5 C 747.686,1380.6 750.686,1381.93 753.5,1383.5C 752.883,1383.61 752.383,1383.94 752,1384.5C 749.176,1383.18 746.676,1381.52 744.5,1379.5 Z"/></g>
<g><path style="opacity:0.306" fill="#cc9797" d="M 1294.5,1377.5 C 1291.16,1379.73 1287.5,1381.4 1283.5,1382.5C 1286.23,1379.2 1289.89,1377.54 1294.5,1377.5 Z"/></g>
<g><path style="opacity:0.357" fill="#cb9796" d="M 1281.5,1383.5 C 1272.87,1387.64 1263.87,1390.97 1254.5,1393.5C 1263.04,1389.11 1272.04,1385.77 1281.5,1383.5 Z"/></g>
<g><path style="opacity:0.827" fill="#c68a87" d="M 796.5,1399.5 C 799.152,1399.41 801.485,1400.08 803.5,1401.5C 800.848,1401.59 798.515,1400.92 796.5,1399.5 Z"/></g>
<g><path style="opacity:0.102" fill="#b07877" d="M 1228.5,1402.5 C 1226.79,1403.74 1224.79,1404.41 1222.5,1404.5C 1223.99,1402.72 1225.99,1402.05 1228.5,1402.5 Z"/></g>
<g><path style="opacity:0.004" fill="#fefffe" d="M 755.5,1405.5 C 755.897,1404.47 756.563,1404.31 757.5,1405C 756.906,1405.46 756.239,1405.63 755.5,1405.5 Z"/></g>
<g><path style="opacity:0.004" fill="#fefffe" d="M 1223.5,1405.5 C 1224.83,1406.17 1224.83,1406.17 1223.5,1405.5 Z"/></g>
<g><path style="opacity:0.005" fill="#fefffe" d="M 762.5,1407.5 C 763.601,1406.4 764.934,1406.24 766.5,1407C 765.207,1407.49 763.873,1407.66 762.5,1407.5 Z"/></g>
<g><path style="opacity:0.005" fill="#fefffe" d="M 767.5,1408.5 C 769.517,1407.13 771.517,1407.29 773.5,1409C 771.512,1409.18 769.512,1409.01 767.5,1408.5 Z"/></g>
<g><path style="opacity:0.863" fill="#c18787" d="M 812.5,1404.5 C 819.167,1405.72 825.501,1407.72 831.5,1410.5C 824.833,1409.28 818.499,1407.28 812.5,1404.5 Z"/></g>
<g><path style="opacity:0.005" fill="#fffef2" d="M 1187.5,1415.5 C 1189.38,1415.39 1189.71,1415.89 1188.5,1417C 1187.17,1417.67 1185.83,1417.67 1184.5,1417C 1185.74,1416.77 1186.74,1416.27 1187.5,1415.5 Z"/></g>
<g><path style="opacity:0.467" fill="#c89b99" d="M 850.5,1415.5 C 853.152,1415.41 855.485,1416.08 857.5,1417.5C 854.848,1417.59 852.515,1416.92 850.5,1415.5 Z"/></g>
<g><path style="opacity:0.89" fill="#a3524e" d="M 1186.5,1414.5 C 1175.49,1418.08 1164.16,1420.75 1152.5,1422.5C 1160.32,1420.03 1168.32,1417.86 1176.5,1416C 1178,1415.17 1179.17,1414 1180,1412.5C 1181.75,1414.25 1183.92,1414.92 1186.5,1414.5 Z"/></g>
<g><path style="opacity:0.004" fill="#fefffe" d="M 1181.5,1417.5 C 1182.83,1418.17 1182.83,1418.17 1181.5,1417.5 Z"/></g>
<g><path style="opacity:0.878" fill="#b4706e" d="M 1152.5,1422.5 C 1140.19,1426.11 1127.52,1428.44 1114.5,1429.5C 1126.88,1425.72 1139.54,1423.38 1152.5,1422.5 Z"/></g>
<g><path style="opacity:0.686" fill="#ad6160" d="M 1113.5,1429.5 C 1104.4,1431.33 1095.06,1432.33 1085.5,1432.5C 1094.51,1429.88 1103.84,1428.88 1113.5,1429.5 Z"/></g>
<g><path style="opacity:0.847" fill="#b57171" d="M 950.5,1432.5 C 963.796,1433.83 977.129,1434.5 990.5,1434.5C 1005.83,1435.17 1021.17,1435.83 1036.5,1436.5C 1018.16,1436.67 999.83,1436.5 981.5,1436C 970.923,1435.72 960.589,1434.55 950.5,1432.5 Z"/></g>
<g><path style="opacity:0.192" fill="#b17374" d="M 1085.5,1432.5 C 1078.73,1434.07 1071.73,1434.74 1064.5,1434.5C 1071.28,1433.02 1078.28,1432.35 1085.5,1432.5 Z"/></g>
<g><path style="opacity:0.955" fill="#99413f" d="M 990.5,1434.5 C 1014.83,1434.5 1039.17,1434.5 1063.5,1434.5C 1054.63,1435.22 1045.63,1435.89 1036.5,1436.5C 1021.17,1435.83 1005.83,1435.17 990.5,1434.5 Z"/></g>
</svg>
