<?xml version="1.0" encoding="utf-8"?>
<!DOCTYPE svg PUBLIC "-//W3C//DTD SVG 1.0//EN" "http://www.w3.org/TR/2001/REC-SVG-20010904/DTD/svg10.dtd">
<svg version="1.0" xmlns="http://www.w3.org/2000/svg" width="512px" height="512px" viewBox="0 0 512 512" preserveAspectRatio="xMidYMid meet">
 <g fill="#da4a54">
  <path d="M114 379.9 c-22.7 -1.9 -44.9 -10.4 -63.9 -24.4 -7.1 -5.2 -20.2 -17.9 -22 -21.3 -1.1 -2.1 -1 -2.2 2.1 -2.2 1.8 0 4.7 0.9 6.3 2.1 17.8 12.1 50.2 21.1 70 19.4 17.7 -1.5 38.5 -7.1 38.5 -10.4 0 -1.4 1.1 -2 5.2 -2.4 2.9 -0.4 5.4 -1.1 5.6 -1.7 0.2 -0.5 1.2 -1 2.3 -1 1.2 0 1.9 -0.7 1.9 -2 0 -1.5 0.7 -2 2.9 -2 2.1 0 5.4 -1.8 10.9 -5.9 10.8 -8.2 27.5 -26.1 24.3 -26.1 -0.6 0 -1.1 -1.6 -1.1 -3.5 0 -3.3 0.2 -3.5 3.6 -3.5 3.1 0 3.7 -0.4 5 -3.6 0.9 -2.1 2.1 -4.3 2.9 -5 4.2 -4.3 11.8 -29.1 13.5 -44.3 2.5 -22.2 -4.3 -49.9 -17.4 -71.6 -2.7 -4.5 -4.6 -8.8 -4.6 -10.5 0 -2.9 0.2 -3 4.4 -3 4.2 0 4.7 0.3 13.3 9.4 18.8 19.6 30 42.3 33.9 68.8 2.3 16 1.5 38.4 -2.1 52.6 -10.6 42.9 -42.1 77 -83.3 90.2 -8.8 2.9 -10 3 -26 2.9 -9.2 -0.1 -21 -0.5 -26.2 -1z"/>
 </g>
 <g fill="#aa7a63">
  <path d="M146.3 379.4 c24.7 -4.6 46.7 -15.8 64.8 -33.1 l7.6 -7.3 56 0 c62.3 0 65.2 -0.2 84.3 -6.6 36.3 -12.1 66.3 -42.4 77.9 -78.4 4.6 -14.3 5 -16.8 3.5 -22.9 -0.7 -3.1 -1.3 -7.7 -1.4 -10.2 l0 -4.6 6.3 -2.8 c6.4 -2.8 15.6 -4.2 20.1 -3.1 3.3 0.8 5.6 5.3 5.6 10.9 0 5.7 -2.5 8.9 -8.2 10.6 -2.4 0.7 -6.5 2.4 -9.1 3.8 -4.2 2.1 -4.8 2.8 -4.5 5.1 0.3 2.5 0.7 2.7 5.5 3.2 7.6 0.8 9.3 2.8 9.3 11 0 8.2 -1.7 10.2 -9.3 11 -4.7 0.5 -5.2 0.7 -5.5 3.2 -0.3 2.3 0.3 3 3.9 4.8 2.3 1.2 6 2.8 8.2 3.6 3.8 1.3 4.2 1.3 8.2 -1.1 6.7 -3.9 14.8 -10.9 19 -16.4 2.7 -3.5 4.6 -5.1 6.2 -5.1 2.7 0 2.7 0 11.3 35.6 5.7 23.7 6 25.4 4.9 30.4 -1.9 8.9 -10.8 16 -20 16 -3.6 0 -13 -3.4 -21.4 -7.6 -9.1 -4.6 -17.5 -10.7 -25.2 -18.3 -3.5 -3.3 -6.4 -6.1 -6.6 -6.1 -0.2 0 -2.3 3.8 -4.7 8.5 -14.3 27.8 -40.8 50.4 -70.8 60.5 -19.3 6.5 -15.8 6.3 -124.7 6.6 -88.8 0.2 -98.2 0.1 -91.2 -1.2z"/>
 </g>
 <g fill="#dd636e">
  <path d="M82 355.4 c-15.6 -2.5 -37.2 -10.6 -48.4 -18.3 -1.7 -1.1 -3.3 -1.8 -3.7 -1.5 -1 0.6 -12 -15.8 -16.1 -24.1 -14.9 -29.6 -17.2 -66 -6.2 -96.7 15.1 -42.1 52.2 -73.6 95.9 -81.3 10.4 -1.8 59.2 -2.2 60.9 -0.5 0.6 0.6 2 1 3.2 1 1.3 0 2.6 0.4 2.9 1 0.3 0.5 3 1.7 5.9 2.5 2.9 0.9 8 3.3 11.4 5.5 3.4 2.2 6.4 4 6.8 4 0.4 0 3.6 2.1 7 4.7 4.1 3.1 6.4 5.5 6.4 6.8 0 1.1 0.7 3.2 1.7 4.5 1.5 2.4 1.5 2.4 -1.3 -0.2 -5.2 -4.8 -5.5 -3 -0.8 4.7 13.6 22.5 20.2 50.9 17.5 76.1 -1.7 16.3 -9.1 41.3 -13.7 45.8 -0.7 0.8 -1 1.6 -0.7 2 0.4 0.3 0.1 0.6 -0.5 0.6 -0.7 0 -1.1 0.4 -0.9 0.9 0.5 2.2 -11.5 18.4 -20.2 27.2 -8.6 8.5 -24.1 20.2 -28.1 21.1 -0.8 0.2 -1.7 0.6 -2 1 -0.3 0.3 -1.2 0.8 -2 1 -0.8 0.2 -2 0.8 -2.7 1.4 -2.1 2 -18.3 7.5 -27.8 9.5 -12.5 2.7 -32.5 3.3 -44.5 1.3z m73.8 -16.4 c3.8 -2.3 7.2 -7.5 7.2 -11 0 -6 -7.4 -13 -13.9 -13 -4.8 0 -12.1 7.3 -12.1 12.1 0 4.3 3.1 9.4 7.2 11.9 4.2 2.5 7.4 2.5 11.6 0z m-59.3 -2.2 c1.4 -0.6 3.5 -2.6 4.6 -4.4 1.9 -3.1 1.9 -3.5 0.4 -6.3 -3.4 -6.6 -9.3 -7.6 -14.1 -2.4 -3.3 3.6 -3.1 6.8 1 10.9 3.8 3.8 4.4 3.9 8.1 2.2z m107.4 -44.3 c4.1 -3.5 4.6 -5.9 2.2 -9.9 -4 -6.4 -9.4 -6.8 -14 -1 -2.9 3.7 -2.6 6.3 1.1 10.1 3.8 4 6.6 4.2 10.7 0.8z m-129.4 -1.9 c9.9 -4.7 17.7 -15.7 17.7 -25.2 0 -5.8 -4.9 -16.2 -9.5 -20 -5 -4.3 -13.3 -7.6 -18.7 -7.6 -5.7 0 -15.7 4.8 -19.7 9.6 -3.6 4.2 -7.3 12.7 -7.5 16.8 -0.2 5.9 3.1 13.8 8.1 19.1 8.7 9.4 19.5 12.1 29.6 7.3z m60.5 -11.1 c3.5 -1.8 6 -5.2 6 -8.1 0 -2.9 -5.5 -8.4 -8.4 -8.4 -2.6 0 -7.1 3.2 -8.6 6.1 -1.4 2.6 1.1 7.9 4.8 10.1 3.3 2.1 2.7 2.1 6.2 0.3z m48.6 -36 c5.1 -3 9.4 -9.7 9.4 -14.6 0 -4.9 -4.9 -12.3 -9.9 -14.9 -5.8 -2.9 -10.9 -2.6 -15.9 1 -9.8 7.1 -11.2 16.2 -3.8 24.5 6.2 6.9 13 8.2 20.2 4z m-76.3 -41.9 c4.8 -2 9.7 -8 9.7 -11.9 0 -4.8 -4.1 -10.2 -9.4 -12.2 -4.5 -1.7 -4.6 -1.7 -8.9 0.8 -10.5 6.2 -9.6 17.2 1.8 23.5 2.6 1.5 3 1.5 6.8 -0.2z"/>
 </g>
 <g fill="#b78b7a">
  <path d="M222.4 334.2 c39 -48.4 36.2 -118.6 -6.6 -163.8 -9.1 -9.5 -18 -16.9 -25.3 -20.9 -2.7 -1.5 -5.7 -3.3 -6.5 -4 -2 -1.7 -5.8 -3.6 -7.9 -4 -0.9 -0.2 -3.5 -1.1 -5.7 -2.1 -2.1 -0.9 -4.8 -1.9 -5.8 -2.1 -1.1 -0.2 -2.5 -0.8 -3.1 -1.3 -0.7 -0.5 -1.4 -0.7 -1.7 -0.5 -0.3 0.3 -1.8 0 -3.4 -0.6 -1.6 -0.7 -3.6 -1.1 -4.6 -1 -0.9 0.1 -1.9 -0.3 -2.3 -0.9 -0.4 -0.7 27.8 -1 92.3 -1 78.8 0 94.3 0.2 101.8 1.5 24.9 4.3 48.3 16.4 66.4 34.4 10 10 16.1 18.3 22.8 31 l4.8 9 6.5 -6.5 c11.3 -11.4 30 -22.6 42.7 -25.6 12.4 -2.8 24.2 6.4 24.2 19 0 2.8 -2.8 16.7 -6.6 31.9 -3.6 14.7 -6.6 27.8 -6.7 29 -0.1 1.3 -0.6 2.3 -1.2 2.3 -0.5 0 -3.1 2.6 -5.6 5.8 -4.8 6.1 -14.4 13.9 -21.2 17.4 -3.8 1.9 -3.9 1.9 -10 -0.2 -3.4 -1.1 -8 -3.1 -10.2 -4.3 -3.9 -2.3 -4 -2.4 -3.6 -7.2 0.1 -2.8 0.5 -5.3 0.8 -5.7 0.2 -0.5 2.4 -0.8 4.7 -0.8 6.1 0 9.6 -2.9 9.6 -7.9 0 -5.1 -2.7 -7.4 -9.3 -8.1 -4.8 -0.5 -5.2 -0.7 -5.5 -3.2 -0.4 -3.8 -1.9 -3.5 -2.7 0.5 -0.4 1.7 -1.8 6.8 -3.2 11.2 -11.7 37.3 -41.3 67.5 -78.3 79.9 -19.2 6.4 -21.7 6.6 -87.1 6.6 l-58.9 0 6.4 -7.8z m227.9 -101.3 c2.3 -1.2 6.4 -2.9 9.1 -3.9 8.5 -2.9 10.8 -8.8 5.5 -14.1 -2.7 -2.7 -7.9 -2.2 -16.7 1.7 -6.6 2.8 -6.8 3.3 -5.3 9.4 0.5 1.9 1.2 4.7 1.5 6.3 0.8 3.3 0.6 3.2 5.9 0.6z"/>
 </g>
 <g fill="#f1d0a5">
  <path d="M140.9 341.7 c-5 -3.3 -8.3 -10.5 -7.4 -16.3 1.7 -11.8 14.9 -17.7 25.4 -11.3 10.2 6.2 9.4 23.2 -1.2 28.3 -5.1 2.4 -12.7 2.1 -16.8 -0.7z"/>
  <path d="M86.1 338.5 c-7.4 -6.3 -5.9 -17.4 2.8 -20.8 4.1 -1.7 9.8 -1 12.7 1.4 6.3 5.3 5.4 16.6 -1.8 20.5 -4 2.3 -10.3 1.7 -13.7 -1.1z"/>
  <path d="M195.5 298.3 c-3.3 -0.8 -8.3 -6.3 -8.9 -9.9 -0.8 -4.2 1.3 -9.4 4.9 -12.2 3.2 -2.5 9.6 -2.9 13.3 -0.8 3.4 1.8 6.2 6.6 6.2 10.6 0 3.9 -2.9 9.3 -5.7 10.8 -2.5 1.3 -7.4 2.1 -9.8 1.5z"/>
  <path d="M58.9 296 c-15.1 -2.5 -27.2 -18.6 -25.4 -33.7 0.8 -6.5 5.6 -16.4 9.7 -19.8 6.6 -5.6 12.7 -7.9 20.8 -7.9 13 0 22.6 5.8 28.2 17.1 2.7 5.6 3.2 7.7 3.2 13.7 0 19.4 -17.1 33.7 -36.5 30.6z"/>
  <path d="M125.8 282.2 c-5.6 -3.4 -7.6 -12.7 -3.7 -17.6 5 -6.3 13.3 -7 18.8 -1.6 10 10.1 -3.1 26.7 -15.1 19.2z"/>
  <path d="M169.6 248.8 c-5.5 -1.5 -11.9 -8.2 -13.5 -14 -2.6 -9.3 0.5 -17.5 8.8 -23.3 3.7 -2.6 5.1 -3 10.5 -2.9 8.3 0.1 13.9 3.1 18 9.8 9.9 15.9 -5.5 35.5 -23.8 30.4z"/>
  <path d="M96.5 204.1 c-9 -5.5 -11.6 -15.9 -6.2 -24.2 2.4 -3.6 8.8 -6.9 13.3 -6.9 15.1 0.1 22.7 17.6 12.2 27.7 -5.8 5.5 -13.6 6.9 -19.3 3.4z"/>
 </g>
</svg>