<?xml version="1.0" standalone="no"?>
<!DOCTYPE svg PUBLIC "-//W3C//DTD SVG 20010904//EN"
 "http://www.w3.org/TR/2001/REC-SVG-20010904/DTD/svg10.dtd">
<svg version="1.0" xmlns="http://www.w3.org/2000/svg"
 width="300.000000pt" height="225.000000pt" viewBox="0 0 300.000000 225.000000"
 preserveAspectRatio="xMidYMid meet">
<metadata>
Created by potrace 1.10, written by Peter Selinger 2001-2011
</metadata>
<g transform="translate(0.000000,225.000000) scale(0.100000,-0.100000)"
fill="#000000" stroke="none">
<path d="M1345 2130 c-177 -27 -365 -115 -518 -242 -122 -103 -256 -320 -296
-483 -28 -113 -32 -146 -32 -267 -1 -450 301 -840 744 -960 69 -19 107 -23
247 -23 197 0 276 17 435 95 124 60 203 118 297 220 243 261 328 645 218 980
-136 411 -528 695 -954 689 -50 -1 -113 -5 -141 -9z m299 -27 c5 -4 19 -8 30
-9 154 -17 344 -114 490 -249 27 -25 115 -130 142 -170 52 -78 116 -231 136
-330 14 -71 18 -301 7 -360 -6 -27 -12 -61 -15 -74 -32 -161 -183 -408 -304
-499 -25 -19 -60 -46 -78 -61 -38 -30 -214 -123 -220 -116 -3 2 -17 -2 -32
-10 -51 -26 -174 -48 -280 -49 -138 -1 -271 15 -297 37 -7 5 -13 7 -13 4 0 -9
-79 20 -156 59 -77 38 -199 127 -253 184 -109 114 -213 299 -253 450 -32 123
-32 338 0 464 41 162 125 315 242 439 59 63 166 147 187 147 7 0 13 4 13 8 0
13 142 80 218 104 109 34 217 48 326 42 55 -3 104 -8 110 -11z"/>
<path d="M1359 2043 c-41 -7 -83 -14 -94 -16 -36 -9 -150 -49 -160 -57 -5 -4
-32 -20 -60 -35 -181 -99 -314 -252 -395 -453 -59 -146 -79 -278 -65 -417 11
-104 11 -107 18 -125 3 -8 13 -42 22 -75 14 -52 46 -123 89 -200 21 -38 79
-110 130 -160 57 -55 114 -105 120 -105 2 0 40 -22 83 -49 43 -26 82 -48 86
-49 4 0 20 -4 35 -10 59 -22 68 -25 82 -27 8 -1 35 -8 60 -15 47 -13 262 -19
315 -8 17 3 50 10 75 14 63 10 187 64 278 120 96 59 235 199 282 283 19 34 41
69 48 77 7 8 10 14 6 14 -3 0 -2 6 3 13 17 21 62 168 74 242 60 383 -139 772
-487 949 -69 35 -119 53 -204 77 -70 19 -256 26 -341 12z m366 -32 c314 -90
553 -333 637 -646 29 -111 31 -318 4 -425 -114 -447 -523 -738 -968 -689 -462
52 -801 430 -801 894 0 133 14 207 64 335 105 274 378 496 677 550 81 15 308
4 387 -19z"/>
<path d="M1401 1982 c-8 -15 -6 -23 8 -36 15 -13 20 -14 35 -3 10 7 17 22 14
33 -5 26 -44 30 -57 6z m44 -12 c0 -22 -29 -18 -33 3 -3 14 1 18 15 15 10 -2
18 -10 18 -18z"/>
<path d="M1597 1972 c-22 -25 -21 -38 4 -56 17 -11 27 -12 45 -4 29 14 32 53
5 68 -27 14 -35 13 -54 -8z m48 -8 c12 -12 13 -19 4 -30 -6 -8 -18 -14 -26
-14 -19 0 -28 27 -13 45 15 19 15 19 35 -1z"/>
<path d="M1134 1897 c-38 -43 -4 -115 48 -102 37 9 62 49 48 75 -20 37 -74 52
-96 27z m71 -41 c0 -36 -27 -56 -52 -40 -40 25 -20 77 26 72 21 -2 26 -8 26
-32z"/>
<path d="M1261 1867 c-18 -18 -13 -45 11 -58 18 -10 24 -8 35 7 19 26 16 39
-11 52 -17 7 -27 7 -35 -1z m39 -27 c0 -21 -24 -28 -35 -10 -8 14 3 30 21 30
8 0 14 -9 14 -20z"/>
<path d="M1487 1812 c-24 -27 -21 -58 9 -81 32 -25 36 -26 63 -3 30 23 33 53
8 80 -25 27 -58 28 -80 4z m67 -11 c21 -24 14 -57 -15 -66 -42 -14 -69 52 -31
74 24 14 26 14 46 -8z"/>
<path d="M1605 1780 c-8 -25 10 -50 35 -50 21 0 33 25 25 51 -9 26 -52 25 -60
-1z m44 -26 c-9 -11 -15 -12 -25 -3 -11 9 -12 15 -3 25 9 11 15 12 25 3 11 -9
12 -15 3 -25z"/>
<path d="M1822 1780 c-17 -28 -15 -37 12 -55 20 -14 28 -14 45 -3 23 14 28 47
9 66 -18 18 -52 14 -66 -8z m63 -19 c0 -8 -8 -19 -17 -25 -22 -13 -44 5 -34
29 7 20 51 16 51 -4z"/>
<path d="M2044 1766 c-10 -26 1 -51 23 -54 17 -3 24 3 29 22 3 14 3 30 -1 35
-9 16 -45 13 -51 -3z m44 -19 c2 -12 -3 -17 -17 -17 -12 0 -21 6 -21 13 0 31
32 34 38 4z"/>
<path d="M1332 1728 c-7 -7 -12 -20 -12 -31 0 -10 -5 -15 -11 -12 -18 12 -49
-26 -49 -60 0 -56 48 -77 89 -39 19 18 23 28 18 53 -4 17 -2 31 3 31 15 0 22
40 10 55 -15 18 -32 19 -48 3z m41 -14 c9 -10 -4 -34 -18 -34 -17 0 -28 17
-20 30 7 11 28 13 38 4z m-42 -54 c41 -22 8 -91 -35 -74 -26 10 -32 55 -11 71
22 16 21 16 46 3z"/>
<path d="M1758 1679 c-40 -23 -56 -92 -29 -125 41 -51 90 -57 132 -15 33 34
37 69 12 111 -22 38 -76 52 -115 29z m97 -29 c42 -47 8 -120 -55 -120 -31 0
-70 39 -70 70 0 10 9 29 21 44 26 33 77 36 104 6z"/>
<path d="M2077 1668 c-14 -13 -28 -38 -32 -55 -6 -28 -2 -38 25 -64 26 -26 36
-30 63 -25 45 9 70 38 70 81 0 69 -77 108 -126 63z m93 -18 c11 -11 20 -31 20
-45 0 -14 -9 -34 -20 -45 -11 -11 -31 -20 -45 -20 -14 0 -34 9 -45 20 -11 11
-20 31 -20 45 0 14 9 34 20 45 11 11 31 20 45 20 14 0 34 -9 45 -20z"/>
<path d="M995 1630 c-16 -18 -17 -23 -5 -45 17 -31 55 -33 70 -4 9 16 8 26 -5
45 -19 29 -36 30 -60 4z m50 -25 c0 -13 -8 -21 -22 -23 -17 -3 -23 2 -23 16 0
10 3 22 7 26 13 13 38 1 38 -19z"/>
<path d="M792 1624 c-28 -19 -28 -57 0 -83 36 -34 88 -11 88 40 0 27 -30 59
-55 59 -6 0 -21 -7 -33 -16z m68 -19 c15 -18 10 -45 -12 -59 -33 -20 -69 20
-54 60 7 18 50 18 66 -1z"/>
<path d="M1926 1614 c-20 -19 -20 -23 0 -45 20 -22 54 -9 54 21 0 29 -35 44
-54 24z m39 -24 c0 -8 -8 -16 -17 -18 -13 -2 -18 3 -18 18 0 15 5 20 18 18 9
-2 17 -10 17 -18z"/>
<path d="M1386 1555 c-14 -38 25 -66 55 -39 14 13 16 21 8 35 -12 23 -54 25
-63 4z m49 -16 c0 -7 -8 -15 -17 -17 -18 -3 -25 18 -11 32 10 10 28 1 28 -15z"/>
<path d="M1192 1540 c-56 -34 -76 -108 -47 -167 20 -41 33 -50 83 -61 80 -18
152 40 152 123 0 101 -101 158 -188 105z m131 -20 c14 -11 31 -36 37 -55 19
-57 -6 -106 -68 -132 -90 -38 -177 68 -128 156 29 51 112 68 159 31z"/>
<path d="M1668 1549 c-24 -14 -23 -46 2 -59 15 -8 19 -17 15 -31 -9 -28 2 -55
30 -67 19 -9 28 -7 49 9 31 25 32 38 5 73 -14 18 -27 25 -39 21 -15 -5 -17 -2
-13 15 5 19 -11 50 -26 50 -3 0 -14 -5 -23 -11z m40 -26 c5 -17 -26 -29 -40
-15 -6 6 -7 15 -3 22 9 14 37 9 43 -7z m50 -55 c17 -17 15 -43 -4 -59 -31 -26
-70 25 -44 56 15 18 32 19 48 3z"/>
<path d="M2217 1554 c-11 -12 -8 -41 6 -53 19 -15 50 9 45 35 -3 19 -38 31
-51 18z m39 -15 c10 -17 -13 -36 -27 -22 -12 12 -4 33 11 33 5 0 12 -5 16 -11z"/>
<path d="M1001 1487 c-15 -15 -14 -42 3 -56 26 -21 63 10 50 43 -7 19 -40 26
-53 13z m39 -27 c0 -21 -24 -28 -35 -10 -8 14 3 30 21 30 8 0 14 -9 14 -20z"/>
<path d="M1470 1470 c-29 -29 -26 -74 6 -99 35 -27 55 -26 88 4 31 29 33 48 5
86 -25 35 -69 39 -99 9z m94 -32 c20 -57 -57 -93 -90 -43 -15 23 -15 27 0 51
24 36 76 31 90 -8z"/>
<path d="M1872 1469 c-28 -22 -28 -50 1 -77 28 -27 49 -28 70 -4 47 52 -18
125 -71 81z m56 -11 c17 -17 15 -43 -4 -59 -31 -26 -70 25 -44 56 15 18 32 19
48 3z"/>
<path d="M1992 1408 c-30 -30 11 -85 44 -57 20 16 17 46 -5 59 -24 13 -24 13
-39 -2z m42 -23 c3 -9 -1 -18 -10 -22 -19 -7 -39 11 -30 26 10 16 33 13 40 -4z"/>
<path d="M950 1380 c-12 -12 -20 -29 -18 -38 2 -11 -6 -20 -27 -27 -41 -14
-48 -60 -11 -76 30 -14 56 1 56 32 0 15 7 19 35 19 26 0 39 6 52 26 15 24 15
29 2 53 -19 34 -61 39 -89 11z m78 -28 c4 -25 -13 -52 -32 -52 -28 0 -49 27
-42 54 6 24 11 27 39 24 25 -2 33 -8 35 -26z m-93 -77 c0 -21 -31 -33 -46 -18
-5 5 -7 17 -3 27 9 24 49 17 49 -9z"/>
<path d="M2207 1342 c-20 -22 -22 -63 -5 -80 20 -20 76 -15 88 7 16 31 12 59
-12 75 -29 21 -51 20 -71 -2z m74 -23 c9 -18 7 -25 -9 -41 -35 -35 -85 -1 -62
43 14 26 56 25 71 -2z"/>
<path d="M725 1331 c-3 -10 -2 -26 1 -36 7 -17 6 -17 -19 -1 -21 15 -29 15
-46 4 -36 -22 -21 -78 19 -78 18 0 48 28 49 45 0 6 10 12 22 15 32 8 46 34 30
54 -18 22 -48 20 -56 -3z m44 -27 c-9 -11 -15 -12 -25 -3 -11 9 -12 15 -3 25
9 11 15 12 25 3 11 -9 12 -15 3 -25z m-62 -30 c3 -8 -1 -22 -9 -30 -13 -14
-17 -14 -32 1 -13 13 -14 20 -5 31 15 19 38 18 46 -2z"/>
<path d="M1629 1289 c-9 -18 -7 -25 10 -42 l21 -21 22 21 c21 22 21 23 3 43
-23 26 -41 25 -56 -1z m49 -16 c-2 -10 -10 -18 -18 -18 -8 0 -16 8 -18 18 -2
12 3 17 18 17 15 0 20 -5 18 -17z"/>
<path d="M1893 1303 c-29 -6 -63 -49 -63 -80 0 -36 42 -73 84 -73 28 0 40 7
58 30 15 20 25 27 32 20 18 -18 45 -11 52 14 3 14 3 30 -1 35 -8 13 -42 14
-49 2 -3 -5 -21 6 -40 25 -19 19 -38 33 -42 33 -5 -1 -19 -4 -31 -6z m57 -33
c33 -33 24 -85 -17 -101 -25 -9 -60 2 -75 25 -23 34 10 96 52 96 11 0 29 -9
40 -20z m95 -41 c0 -7 -8 -15 -17 -17 -18 -3 -25 18 -11 32 10 10 28 1 28 -15z"/>
<path d="M2152 1258 c-31 -31 6 -79 41 -53 9 6 17 19 17 27 0 17 -19 38 -35
38 -6 0 -16 -5 -23 -12z m38 -22 c0 -20 -19 -31 -32 -18 -6 6 -7 15 -4 21 10
16 36 13 36 -3z"/>
<path d="M1088 1234 c-11 -23 -10 -29 11 -45 21 -17 26 -18 45 -6 41 27 27 77
-20 77 -17 0 -28 -9 -36 -26z m57 -15 c0 -17 -6 -24 -20 -24 -23 0 -33 34 -13
46 20 13 33 5 33 -22z"/>
<path d="M1339 1177 c-57 -39 -74 -98 -44 -157 20 -39 53 -60 93 -60 130 0
168 165 52 225 -40 21 -61 19 -101 -8z m89 -8 c101 -35 72 -189 -36 -189 -44
0 -85 32 -96 75 -10 39 18 93 56 110 41 17 38 17 76 4z"/>
<path d="M1730 1177 c-61 -30 -17 -123 45 -95 22 10 26 17 23 46 -4 46 -33 66
-68 49z m50 -22 c14 -17 5 -51 -15 -59 -35 -13 -63 21 -45 55 13 23 43 25 60
4z"/>
<path d="M1532 1171 c-21 -13 -10 -54 17 -68 22 -10 27 -9 39 8 21 30 12 64
-18 67 -14 1 -31 -2 -38 -7z m55 -17 c3 -8 -2 -23 -11 -32 -15 -15 -17 -15
-33 0 -13 14 -14 20 -3 32 16 20 39 20 47 0z"/>
<path d="M757 1112 c-33 -36 -8 -92 40 -92 23 0 53 29 53 51 -1 45 -64 73 -93
41z m61 -14 c30 -30 -3 -77 -40 -57 -18 9 -25 49 -11 62 10 11 38 8 51 -5z"/>
<path d="M958 1106 c-24 -15 -34 -31 -36 -53 -9 -95 109 -124 156 -38 10 16
25 36 35 43 9 7 17 19 17 26 0 21 -28 39 -47 31 -10 -5 -22 -7 -28 -5 -5 1
-22 6 -37 10 -21 7 -35 3 -60 -14z m80 -13 c31 -28 35 -56 11 -86 -38 -50
-111 -24 -111 40 0 29 33 63 62 63 10 0 27 -8 38 -17z m78 -4 c3 -6 1 -16 -4
-21 -13 -13 -45 8 -36 23 7 12 31 11 40 -2z"/>
<path d="M2004 1109 c-14 -16 -15 -24 -6 -44 13 -29 43 -33 66 -9 19 19 20 26
4 46 -21 25 -45 28 -64 7z m54 -25 c3 -22 -21 -39 -39 -28 -11 6 -12 38 -2 48
13 13 38 1 41 -20z"/>
<path d="M2287 1066 c-11 -28 4 -47 32 -44 20 2 26 8 26 28 0 20 -6 26 -26 28
-17 2 -29 -3 -32 -12z m48 -16 c0 -8 -8 -16 -17 -18 -13 -2 -18 3 -18 18 0 15
5 20 18 18 9 -2 17 -10 17 -18z"/>
<path d="M2173 1020 c-52 -21 -59 -97 -13 -140 36 -34 82 -33 116 2 36 37 37
82 4 118 -29 31 -63 38 -107 20z m70 -11 c56 -26 59 -98 6 -128 -38 -21 -76
-7 -96 34 -15 31 -15 36 1 60 14 21 34 35 63 44 1 1 13 -4 26 -10z"/>
<path d="M1602 969 c-11 -18 -11 -24 4 -40 13 -14 21 -16 35 -8 22 11 25 39 7
57 -17 17 -31 15 -46 -9z m46 -16 c-2 -10 -10 -18 -18 -18 -8 0 -16 8 -18 18
-2 12 3 17 18 17 15 0 20 -5 18 -17z"/>
<path d="M1897 952 c-46 -51 4 -124 61 -91 35 19 40 54 11 85 -27 29 -50 31
-72 6z m63 -16 c19 -23 8 -61 -18 -64 -44 -7 -67 32 -36 62 19 20 38 20 54 2z"/>
<path d="M681 939 c-11 -19 -10 -24 8 -42 17 -17 22 -18 35 -7 19 15 21 41 4
58 -18 18 -31 15 -47 -9z m44 -19 c0 -8 -8 -16 -17 -18 -13 -2 -18 3 -18 18 0
15 5 20 18 18 9 -2 17 -10 17 -18z"/>
<path d="M1761 912 c-10 -10 -11 -19 -3 -38 9 -19 16 -22 34 -15 33 12 37 57
6 63 -13 2 -30 -2 -37 -10z m44 -22 c0 -8 -8 -16 -17 -18 -13 -2 -18 3 -18 18
0 15 5 20 18 18 9 -2 17 -10 17 -18z"/>
<path d="M1130 866 c-27 -33 18 -72 48 -42 13 13 14 20 6 34 -15 23 -38 26
-54 8z m39 -32 c-9 -11 -15 -12 -25 -3 -11 9 -12 15 -3 25 9 11 15 12 25 3 11
-9 12 -15 3 -25z"/>
<path d="M1417 852 c-39 -42 -3 -97 42 -66 27 19 24 51 -5 70 -18 13 -23 12
-37 -4z m43 -17 c10 -12 10 -18 0 -30 -16 -19 -39 -19 -46 0 -6 15 11 45 26
45 4 0 13 -7 20 -15z"/>
<path d="M1676 802 c-20 -23 -21 -51 -1 -79 15 -21 14 -22 -22 -29 -75 -14
-113 -59 -113 -135 0 -36 6 -48 38 -78 57 -55 118 -54 179 2 57 51 32 171 -42
202 -20 8 -20 8 0 13 26 6 52 29 58 53 12 46 -65 86 -97 51z m76 -27 c14 -32
-5 -57 -41 -53 -20 2 -27 9 -29 32 -6 48 50 65 70 21z m-42 -110 c39 -20 60
-53 60 -92 0 -45 -19 -82 -51 -99 -110 -56 -217 74 -135 165 38 42 79 50 126
26z"/>
<path d="M946 785 c-7 -20 15 -56 33 -53 20 4 35 32 28 52 -8 20 -53 21 -61 1z
m49 -16 c0 -7 -8 -15 -17 -17 -18 -3 -25 18 -11 32 10 10 28 1 28 -15z"/>
<path d="M2205 779 c-14 -43 45 -66 61 -24 8 19 -13 45 -37 45 -10 0 -21 -10
-24 -21z m43 -12 c2 -10 -3 -17 -12 -17 -18 0 -29 16 -21 31 9 14 29 6 33 -14z"/>
<path d="M772 748 c-16 -16 -15 -38 4 -59 19 -21 48 -14 62 15 18 41 -34 76
-66 44z m48 -14 c11 -12 10 -18 -3 -32 -16 -15 -18 -15 -34 0 -13 14 -14 20
-3 32 7 9 16 16 20 16 4 0 13 -7 20 -16z"/>
<path d="M1999 736 c-15 -33 4 -58 39 -54 55 7 54 70 -1 76 -21 3 -30 -3 -38
-22z m59 -20 c-2 -13 -10 -21 -23 -21 -23 0 -33 34 -14 45 20 13 40 -1 37 -24z"/>
<path d="M1249 671 c-40 -40 -39 -83 2 -122 41 -38 78 -38 119 1 29 27 32 35
27 68 -13 78 -93 107 -148 53z m111 -11 c26 -26 25 -68 -2 -97 -43 -46 -118
-16 -118 47 0 17 9 39 20 50 11 11 33 20 50 20 17 0 39 -9 50 -20z"/>
<path d="M1100 670 c-25 -25 -25 -52 -1 -74 26 -24 62 -17 80 15 13 24 13 29
-2 53 -21 31 -50 33 -77 6z m65 -35 c0 -27 -3 -30 -30 -30 -21 0 -31 5 -33 18
-6 33 6 49 35 45 24 -3 28 -8 28 -33z"/>
<path d="M1973 608 c-37 -40 -31 -94 13 -123 21 -13 31 -14 60 -5 38 13 54 35
54 77 0 66 -83 98 -127 51z m101 -20 c21 -30 20 -47 -6 -75 -28 -30 -62 -29
-87 3 -25 32 -26 43 -5 72 10 15 25 22 49 22 24 0 39 -7 49 -22z"/>
<path d="M944 575 c-14 -21 -15 -31 -6 -50 7 -14 17 -26 24 -27 36 -4 44 -2
59 17 18 21 15 39 -9 68 -21 24 -49 21 -68 -8z m67 -11 c17 -21 0 -49 -32 -49
-24 0 -36 23 -25 51 7 19 40 18 57 -2z"/>
<path d="M1451 522 c-13 -25 5 -52 34 -52 21 0 25 5 25 29 0 40 -41 57 -59 23z
m47 -19 c-2 -10 -10 -18 -18 -18 -8 0 -16 8 -18 18 -2 12 3 17 18 17 15 0 20
-5 18 -17z"/>
<path d="M1137 502 c-24 -26 -21 -59 8 -78 48 -31 98 12 73 64 -16 34 -57 41
-81 14z m68 -22 c13 -41 -43 -70 -64 -33 -13 25 5 53 34 53 15 0 26 -7 30 -20z"/>
<path d="M1867 502 c-20 -22 -22 -43 -5 -60 20 -20 54 -14 66 13 10 21 8 28
-10 45 -27 25 -31 25 -51 2z m37 -8 c20 -8 20 -28 0 -44 -12 -11 -18 -10 -31
3 -13 13 -14 19 -3 31 14 18 13 18 34 10z"/>
<path d="M1338 449 c-25 -14 -23 -56 3 -69 16 -9 26 -8 45 5 29 19 30 29 4 55
-23 23 -28 24 -52 9z m47 -34 c0 -23 -34 -33 -45 -14 -13 20 1 40 24 37 13 -2
21 -10 21 -23z"/>
<path d="M1635 410 c-19 -21 -14 -47 11 -57 19 -7 58 32 48 48 -14 24 -42 28
-59 9z m40 -21 c0 -7 -8 -15 -17 -17 -18 -3 -25 18 -11 32 10 10 28 1 28 -15z"/>
<path d="M1526 371 c-24 -26 -17 -56 13 -56 37 0 50 30 25 55 -20 21 -20 21
-38 1z m31 -35 c-4 -9 -13 -13 -22 -10 -18 7 -20 31 -2 37 17 6 31 -9 24 -27z"/>
</g>
</svg>
