<?xml version="1.0" standalone="no"?>
<!DOCTYPE svg PUBLIC "-//W3C//DTD SVG 20010904//EN"
 "http://www.w3.org/TR/2001/REC-SVG-20010904/DTD/svg10.dtd">
<svg version="1.0" xmlns="http://www.w3.org/2000/svg"
 width="300.000000pt" height="300.000000pt" viewBox="0 0 300.000000 300.000000"
 preserveAspectRatio="xMidYMid meet">
<metadata>
Created by potrace 1.10, written by Peter Selinger 2001-2011
</metadata>
<g transform="translate(0.000000,300.000000) scale(0.100000,-0.100000)"
fill="#000000" stroke="none">
<path d="M1477 2911 c-48 -49 -87 -96 -87 -106 0 -20 154 -182 182 -191 25 -8
49 9 136 97 50 51 72 80 72 98 0 35 -156 191 -191 191 -19 0 -49 -24 -112 -89z
m161 -148 c-23 -24 -47 -43 -52 -43 -13 0 -86 71 -86 84 0 6 19 30 42 53 l42
43 48 -47 48 -47 -42 -43z"/>
<path d="M2160 2364 c-66 -64 -90 -94 -90 -113 0 -18 23 -48 83 -108 60 -60
90 -83 108 -83 19 0 49 24 113 90 74 75 87 93 81 112 -9 30 -153 174 -183 183
-19 6 -37 -7 -112 -81z m150 -65 c22 -23 40 -44 40 -47 0 -4 -19 -26 -42 -49
l-42 -43 -48 47 -48 47 42 43 c23 24 46 43 50 43 4 0 26 -19 48 -41z"/>
<path d="M999 2303 c-110 -110 -110 -114 -8 -218 111 -114 117 -114 227 -1 55
56 82 91 82 107 0 15 -27 50 -83 106 -109 108 -114 108 -218 6z m156 -70 l44
-48 -44 -45 -45 -45 -47 47 -47 48 44 45 c24 25 46 45 47 45 2 0 24 -21 48
-47z"/>
<path d="M1640 1981 c-70 -23 -130 -72 -410 -340 l-305 -290 -167 -1 c-176 0
-203 -5 -237 -41 -51 -54 -6 -315 93 -539 4 -11 -76 -106 -276 -324 -156 -169
-291 -320 -301 -334 -21 -32 -15 -69 15 -94 19 -17 85 -18 1083 -18 1060 0
1062 0 1089 21 46 36 36 68 -49 163 l-74 84 163 4 164 3 55 38 c67 46 220 203
265 271 29 44 31 52 18 70 -28 43 -50 32 -120 -58 -64 -82 -182 -197 -229
-223 -15 -8 -81 -12 -213 -13 l-191 0 -97 109 c-117 130 -157 156 -241 155
-80 0 -115 -19 -202 -112 l-72 -76 -41 47 c-57 64 -110 65 -110 1 0 -8 21 -37
46 -64 l46 -49 -128 -141 -128 -140 -474 0 c-450 0 -474 1 -461 17 62 79 637
697 660 708 69 36 110 15 233 -119 96 -104 126 -118 148 -72 12 28 14 26 -109
162 -90 100 -137 128 -217 128 -64 -1 -101 -15 -154 -59 l-30 -25 -21 53 c-45
113 -91 350 -72 370 4 4 522 6 1152 5 l1144 -3 -3 -60 c-4 -81 -35 -220 -66
-298 -31 -77 -32 -103 -6 -117 34 -18 56 4 88 87 58 151 91 362 67 421 -23 53
-59 62 -250 62 l-165 0 -122 115 c-66 63 -127 115 -134 115 -19 0 -44 -29 -44
-50 0 -10 38 -54 87 -99 l87 -81 -686 0 -687 0 97 93 c391 374 447 424 488
443 22 9 66 17 100 17 85 1 128 -24 274 -160 66 -62 126 -113 134 -113 18 0
46 27 46 45 0 16 -8 24 -146 157 -130 124 -180 151 -294 154 -47 2 -96 0 -110
-5z m86 -1453 c15 -7 114 -107 220 -223 l192 -210 -228 -3 c-126 -1 -335 -1
-464 0 l-236 3 186 205 c103 113 200 213 218 223 36 20 74 22 112 5z"/>
<path d="M1632 408 c-34 -34 6 -90 48 -68 25 13 28 65 4 74 -24 9 -39 7 -52
-6z"/>
<path d="M1481 271 c-25 -25 -17 -59 15 -67 14 -4 31 -1 39 6 21 18 19 57 -4
70 -26 13 -28 13 -50 -9z"/>
<path d="M1696 1777 c-38 -27 2 -95 42 -71 24 16 28 55 6 71 -10 7 -21 13 -24
13 -3 0 -14 -6 -24 -13z"/>
<path d="M1460 1646 c-28 -35 11 -93 48 -70 35 22 22 84 -18 84 -10 0 -23 -7
-30 -14z"/>
<path d="M1630 1541 c-16 -31 4 -63 37 -59 34 4 52 32 37 56 -16 26 -60 28
-74 3z"/>
<path d="M830 675 c-15 -19 -6 -61 16 -69 18 -7 64 18 64 35 0 42 -54 65 -80
34z"/>
<path d="M666 514 c-34 -33 -8 -82 38 -70 33 8 43 42 20 67 -21 23 -37 24 -58
3z"/>
<path d="M852 458 c-16 -16 -15 -53 3 -68 19 -16 45 -10 61 15 26 39 -31 86
-64 53z"/>
<path d="M570 331 c-5 -11 -10 -24 -10 -30 0 -17 46 -42 64 -35 22 8 31 50 16
69 -18 21 -57 19 -70 -4z"/>
</g>
</svg>
