<?xml version="1.0" encoding="UTF-8"?>
<!DOCTYPE svg PUBLIC "-//W3C//DTD SVG 1.1//EN" "http://www.w3.org/Graphics/SVG/1.1/DTD/svg11.dtd">
<svg xmlns="http://www.w3.org/2000/svg" version="1.1" width="512px" height="512px" style="shape-rendering:geometricPrecision; text-rendering:geometricPrecision; image-rendering:optimizeQuality; fill-rule:evenodd; clip-rule:evenodd" xmlns:xlink="http://www.w3.org/1999/xlink">
<g><path style="opacity:0.884" fill="#000000" d="M 398.5,31.5 C 405.503,30.6727 408.003,33.6727 406,40.5C 400.333,54.8333 394.667,69.1667 389,83.5C 383.943,88.075 380.109,87.2417 377.5,81C 383.605,63.9758 390.605,47.4758 398.5,31.5 Z"/></g>
<g><path style="opacity:0.886" fill="#000000" d="M 438.5,53.5 C 444.778,54.3885 446.611,57.7219 444,63.5C 432.137,75.0291 420.637,86.8624 409.5,99C 401.6,102.431 398.433,99.9306 400,91.5C 412.807,78.5249 425.64,65.8583 438.5,53.5 Z"/></g>
<g><path style="opacity:0.94" fill="#000000" d="M 355.5,94.5 C 361.29,94.0962 366.956,94.5962 372.5,96C 377.805,100.299 381.972,105.466 385,111.5C 385.667,136.5 385.667,161.5 385,186.5C 384.5,187.667 383.667,188.5 382.5,189C 273.06,199.784 163.726,198.784 54.5,186C 53.0692,185.535 51.9025,184.701 51,183.5C 49.3055,161.822 49.6388,140.155 52,118.5C 52.4659,113.102 54.1326,108.102 57,103.5C 58.7309,101.383 60.8976,99.8834 63.5,99C 120.494,99.5304 177.494,99.5304 234.5,99C 275.022,98.2796 315.355,96.7796 355.5,94.5 Z M 137.5,120.5 C 216.167,120.5 294.833,120.5 373.5,120.5C 373.421,139.843 373.754,159.176 374.5,178.5C 270.065,187.356 165.731,186.356 61.5,175.5C 61.2588,157.459 61.9254,139.459 63.5,121.5C 88.339,121.831 113.006,121.498 137.5,120.5 Z"/></g>
<g><path style="opacity:0.895" fill="#000000" d="M 409.5,119.5 C 425.88,119.948 442.214,121.115 458.5,123C 461.936,126.06 462.269,129.393 459.5,133C 443.11,133.162 426.777,132.162 410.5,130C 406.983,126.777 406.65,123.277 409.5,119.5 Z"/></g>
<g><path style="opacity:0.93" fill="#000000" d="M 344.5,217.5 C 352.37,215.645 358.537,217.978 363,224.5C 365.333,228.5 367.667,232.5 370,236.5C 370.635,238.635 370.301,240.635 369,242.5C 317.652,323.847 261.652,401.847 201,476.5C 198.388,479.576 195.221,480.243 191.5,478.5C 163.386,420.265 133.219,363.265 101,307.5C 89.8339,288.497 78.1673,269.83 66,251.5C 65.3333,249.167 65.3333,246.833 66,244.5C 71.1667,238 77,232.167 83.5,227C 170.814,228.09 257.814,224.923 344.5,217.5 Z M 350.5,244.5 C 351.552,244.351 352.552,244.517 353.5,245C 314.614,304.881 273.781,363.381 231,420.5C 219.667,434.5 208.333,448.5 197,462.5C 162.133,391.079 123.967,321.745 82.5,254.5C 172.02,255.452 261.353,252.119 350.5,244.5 Z"/></g>
</svg>
