<?xml version="1.0" encoding="UTF-8"?>
<!DOCTYPE svg PUBLIC "-//W3C//DTD SVG 1.1//EN" "http://www.w3.org/Graphics/SVG/1.1/DTD/svg11.dtd">
<svg xmlns="http://www.w3.org/2000/svg" version="1.1" width="512px" height="512px" style="shape-rendering:geometricPrecision; text-rendering:geometricPrecision; image-rendering:optimizeQuality; fill-rule:evenodd; clip-rule:evenodd" xmlns:xlink="http://www.w3.org/1999/xlink">
<g><path style="opacity:0.896" fill="#000000" d="M 388.5,25.5 C 394.076,24.2507 396.743,26.4174 396.5,32C 393.39,49.3801 391.223,66.8801 390,84.5C 386.94,87.9355 383.607,88.2688 380,85.5C 379.319,67.6265 380.986,49.9598 385,32.5C 385.139,29.5547 386.306,27.2214 388.5,25.5 Z"/></g>
<g><path style="opacity:0.882" fill="#000000" d="M 446.5,34.5 C 453.693,33.8467 456.193,36.8467 454,43.5C 442.333,59.5 430.667,75.5 419,91.5C 413.88,97.1707 410.046,96.504 407.5,89.5C 407.577,87.701 408.077,86.0344 409,84.5C 421.748,67.9325 434.248,51.2658 446.5,34.5 Z"/></g>
<g><path style="opacity:0.907" fill="#000000" d="M 215.5,62.5 C 218.272,62.22 220.772,62.8866 223,64.5C 228.673,80.018 233.839,95.6847 238.5,111.5C 254.759,112.019 270.426,115.352 285.5,121.5C 294.784,106.04 305.45,91.5398 317.5,78C 318.667,77.8333 319.833,77.6667 321,77.5C 344.429,84.2146 365.763,94.8812 385,109.5C 382.422,128.573 376.588,146.739 367.5,164C 372.868,173.233 378.368,182.4 384,191.5C 384.739,192.574 385.739,193.241 387,193.5C 403.018,189.762 419.185,188.429 435.5,189.5C 438.845,194.857 441.678,200.523 444,206.5C 449.946,222.178 455.78,237.845 461.5,253.5C 461.24,255.187 460.573,256.687 459.5,258C 443.314,266.427 426.314,272.594 408.5,276.5C 407.34,285.639 405.007,294.472 401.5,303C 414.746,314.243 428.58,324.743 443,334.5C 443.315,342.967 442.315,351.3 440,359.5C 430.784,377.043 419.617,393.21 406.5,408C 404.167,408.667 401.833,408.667 399.5,408C 386.849,401.424 374.016,395.258 361,389.5C 352.586,394.96 344.42,400.793 336.5,407C 335.056,408.126 334.39,409.626 334.5,411.5C 336.558,424.399 339.558,437.066 343.5,449.5C 339.858,458.291 334.192,465.458 326.5,471C 305.314,478.103 283.647,482.77 261.5,485C 254.06,469.611 247.56,453.777 242,437.5C 234.736,435.35 227.403,433.35 220,431.5C 218.11,431.785 216.777,432.785 216,434.5C 209.754,446.66 203.254,458.66 196.5,470.5C 184.953,473.092 173.287,474.592 161.5,475C 140.213,468.689 120.547,459.189 102.5,446.5C 101.071,444.669 100.571,442.669 101,440.5C 110.117,424.269 118.117,407.602 125,390.5C 115.5,380.333 106,370.167 96.5,360C 80.4696,361.949 64.4696,364.449 48.5,367.5C 44.9651,367.649 42.1317,366.316 40,363.5C 35.3519,341.944 31.6852,320.277 29,298.5C 29.5,297.333 30.3333,296.5 31.5,296C 49.5775,292.586 66.2442,285.753 81.5,275.5C 84.1594,261.591 85.1594,247.591 84.5,233.5C 68.742,223.539 53.242,213.205 38,202.5C 37.3333,200.167 37.3333,197.833 38,195.5C 50.5653,175.624 63.0653,155.79 75.5,136C 78.7829,135.257 81.7829,135.924 84.5,138C 99.3333,147.5 114.167,157 129,166.5C 140.876,154.959 152.376,143.125 163.5,131C 159.955,115.285 157.455,99.4517 156,83.5C 156.903,82.2986 158.069,81.4652 159.5,81C 178.51,75.4962 197.177,69.3295 215.5,62.5 Z M 211.5,76.5 C 212.833,76.5 214.167,76.5 215.5,76.5C 219.968,90.4041 224.135,104.404 228,118.5C 228.5,120.333 229.667,121.5 231.5,122C 250.282,122.529 268.282,126.529 285.5,134C 289.354,134.836 292.521,133.669 295,130.5C 302.603,115.619 311.936,101.952 323,89.5C 339.435,96.1341 355.268,103.967 370.5,113C 371.357,113.689 372.023,114.522 372.5,115.5C 369.252,131.329 363.752,146.329 356,160.5C 355.629,164.65 356.296,168.65 358,172.5C 365.042,183.419 372.209,194.252 379.5,205C 390.843,204.112 402.176,202.778 413.5,201C 418.5,200.333 423.5,200.333 428.5,201C 435.621,217.03 441.954,233.363 447.5,250C 432.273,258.128 416.273,263.462 399.5,266C 397.028,283.08 391.528,299.247 383,314.5C 381.959,317.636 382.793,320.136 385.5,322C 392.994,326.253 399.994,331.253 406.5,337C 413.333,343.167 420.167,349.333 427,355.5C 420.818,370.169 412.318,383.503 401.5,395.5C 387.717,388.607 373.717,382.274 359.5,376.5C 348.86,382.619 338.86,389.785 329.5,398C 323.646,401.864 317.813,405.697 312,409.5C 312.837,427.205 314.337,444.872 316.5,462.5C 300.434,467.113 284.101,470.447 267.5,472.5C 262.012,457.697 256.679,442.863 251.5,428C 233.446,422.236 215.113,417.902 196.5,415C 185.223,431.042 174.056,447.209 163,463.5C 147.462,458.147 132.629,451.314 118.5,443C 116.388,442.094 115.555,440.594 116,438.5C 123.97,422.061 131.803,405.561 139.5,389C 139.138,387.775 138.638,386.609 138,385.5C 125.525,373.358 113.359,360.858 101.5,348C 84.8848,349.454 68.3848,351.954 52,355.5C 51.5,355.167 51,354.833 50.5,354.5C 46.8566,338.283 43.8566,321.95 41.5,305.5C 59.084,301.14 75.4174,293.974 90.5,284C 93.5545,281.924 94.5545,279.258 93.5,276C 95.2194,262.591 96.5527,249.091 97.5,235.5C 97.5474,232.705 97.0474,230.039 96,227.5C 81.0919,216.962 65.9252,206.795 50.5,197C 60.0416,182.753 69.2082,168.253 78,153.5C 78.9057,151.388 80.4057,150.555 82.5,151C 97.5094,160.17 112.176,169.836 126.5,180C 128.5,180.667 130.5,180.667 132.5,180C 145.333,167.167 158.167,154.333 171,141.5C 172.711,139.044 174.044,136.377 175,133.5C 173.048,119.457 170.548,105.457 167.5,91.5C 182.22,86.4825 196.887,81.4825 211.5,76.5 Z M 233.5,182.5 C 271.878,179.609 301.711,193.942 323,225.5C 344.616,269.415 337.45,307.915 301.5,341C 293.875,347.977 284.875,351.977 274.5,353C 237.181,356.421 208.348,342.588 188,311.5C 166.23,265.079 175.397,225.913 215.5,194C 221.406,189.909 227.406,186.076 233.5,182.5 Z"/></g>
<g><path style="opacity:0.886" fill="#000000" d="M 470.5,102.5 C 473.85,102.335 477.183,102.502 480.5,103C 483.333,106.663 483,109.996 479.5,113C 465.945,115.222 452.612,118.389 439.5,122.5C 434.934,121.698 433.1,119.032 434,114.5C 434.5,112.667 435.667,111.5 437.5,111C 448.506,107.666 459.506,104.833 470.5,102.5 Z"/></g>
<g><path style="opacity:0.939" fill="#000000" d="M 234.5,170.5 C 279.307,168.48 313.14,186.48 336,224.5C 356.371,271.458 348.205,312.625 311.5,348C 279.659,374.074 244.326,380.074 205.5,366C 152.554,340.938 132.72,299.771 146,242.5C 161.031,200.628 190.531,176.628 234.5,170.5 Z M 233.5,182.5 C 227.406,186.076 221.406,189.909 215.5,194C 175.397,225.913 166.23,265.079 188,311.5C 208.348,342.588 237.181,356.421 274.5,353C 284.875,351.977 293.875,347.977 301.5,341C 337.45,307.915 344.616,269.415 323,225.5C 301.711,193.942 271.878,179.609 233.5,182.5 Z"/></g>
</svg>
