<?xml version="1.0" standalone="no"?>
<!DOCTYPE svg PUBLIC "-//W3C//DTD SVG 20010904//EN"
 "http://www.w3.org/TR/2001/REC-SVG-20010904/DTD/svg10.dtd">
<svg version="1.0" xmlns="http://www.w3.org/2000/svg"
 width="300.000000pt" height="225.000000pt" viewBox="0 0 300.000000 225.000000"
 preserveAspectRatio="xMidYMid meet">
<metadata>
Created by potrace 1.10, written by Peter Selinger 2001-2011
</metadata>
<g transform="translate(0.000000,225.000000) scale(0.050000,-0.050000)"
fill="#000000" stroke="none">
<path d="M2891 3029 c-65 -16 -156 -52 -201 -78 -70 -41 -95 -46 -161 -31
-871 191 -2013 -49 -2263 -474 -94 -162 -26 -569 103 -618 15 -6 32 -45 39
-88 16 -101 160 -250 320 -330 129 -66 251 -179 251 -236 3 -172 339 -416 694
-505 931 -231 2097 -96 2447 283 74 80 90 90 129 72 221 -101 908 -147 1139
-77 375 114 523 495 313 803 -31 44 -79 130 -107 190 -303 640 -1913 1290
-2703 1089z m357 -74 c-11 -20 -8 -20 13 0 43 40 151 34 117 -7 -33 -40 36
-100 137 -120 130 -25 165 28 60 92 -36 22 -56 40 -45 39 38 -1 247 -55 270
-69 13 -8 68 -18 123 -22 54 -4 114 -16 133 -27 25 -14 13 -16 -43 -7 -106 16
-96 -50 13 -91 89 -34 140 -9 94 47 -22 26 -21 29 7 18 18 -7 33 -19 33 -28 0
-8 25 -20 55 -26 195 -39 266 -61 384 -116 72 -34 179 -85 238 -113 143 -67
399 -262 490 -373 499 -608 -331 -899 -1456 -511 -1177 405 -1651 1215 -771
1316 83 10 153 19 156 20 4 2 0 -8 -8 -22z m-1238 -81 c121 -6 291 -10 377
-11 171 0 207 -36 69 -69 -82 -19 -188 -114 -129 -114 19 0 40 -16 48 -35 11
-29 15 -27 25 15 6 27 28 53 48 57 31 6 34 -2 19 -60 -9 -37 -17 -121 -17
-187 0 -112 -3 -121 -50 -130 -77 -16 -63 -69 20 -76 60 -5 85 -25 168 -130
116 -148 231 -243 259 -215 12 12 10 30 -6 50 -14 17 -18 31 -8 32 9 0 -5 13
-33 29 -31 18 -39 29 -20 30 17 1 3 13 -30 27 -33 14 -56 34 -51 44 6 11 -15
31 -46 46 -31 14 -72 53 -91 85 -20 32 -40 53 -46 47 -17 -16 -39 190 -24 215
8 13 33 -16 61 -69 97 -192 422 -480 718 -637 65 -35 158 -84 205 -111 47 -26
94 -47 105 -47 11 0 54 -15 95 -33 41 -18 81 -35 89 -38 8 -2 20 -6 25 -9 6
-3 17 -7 25 -9 95 -24 198 -63 210 -80 8 -12 15 -15 15 -8 0 7 79 -5 175 -27
96 -22 193 -43 215 -47 22 -5 67 -14 100 -22 316 -70 854 31 1026 193 l46 43
-3 -96 c-5 -128 -19 -189 -41 -176 -10 6 -13 -1 -7 -16 52 -135 -280 -238
-751 -233 -119 1 -48 35 78 37 49 0 84 5 79 11 -6 5 -63 9 -128 9 -325 -1
-387 3 -339 22 29 12 16 16 -50 16 -68 0 -80 -4 -50 -17 33 -14 34 -17 6 -19
-18 0 -38 7 -44 16 -39 63 -352 -66 -527 -217 -14 -12 -25 -17 -25 -12 0 5
-52 -9 -115 -31 -63 -23 -128 -44 -145 -46 -16 -3 -46 -12 -65 -20 -20 -9 -53
-11 -75 -5 -22 6 -40 3 -40 -6 0 -34 -115 -51 -530 -79 -355 -24 -592 -24
-500 -1 33 8 119 18 190 22 117 5 110 7 -70 17 -110 6 -206 3 -213 -6 -6 -10
-62 -3 -123 15 -60 18 -142 32 -182 32 -117 0 -372 67 -542 142 l-80 36 70 -9
c39 -5 57 -4 40 2 -126 48 -220 100 -220 121 0 14 -16 35 -35 46 -19 12 -27
21 -16 21 19 1 -76 92 -185 176 -83 65 -75 71 47 33 54 -16 133 -33 174 -38
42 -4 145 -19 230 -33 526 -87 1362 11 1750 206 138 69 138 65 22 116 -51 23
-138 74 -193 113 l-100 72 -252 -61 c-1157 -284 -2528 130 -2212 668 57 98
250 237 377 271 46 12 106 34 134 49 48 24 52 23 50 -17 -1 -52 187 -77 241
-32 33 27 4 78 -44 78 -89 0 -6 38 107 50 227 23 248 26 262 40 7 7 62 9 123
4 60 -6 209 -15 330 -20z m-1439 -993 c203 -198 1414 -340 1888 -221 112 28
145 19 277 -77 l105 -77 -95 1 c-53 1 -195 -14 -316 -34 -362 -60 -1109 -50
-1286 17 -14 5 -21 1 -14 -10 7 -11 24 -20 39 -20 15 0 32 -13 38 -29 15 -39
-42 -19 -103 37 -26 23 -105 60 -175 83 l-129 42 0 -52 c-1 -49 -2 -49 -33 14
-18 36 -47 66 -64 67 -26 2 -26 5 4 12 28 7 18 19 -44 49 -54 27 -77 50 -69
69 6 16 -8 46 -32 66 -42 37 -56 82 -26 82 9 0 25 -8 35 -19z m2389 -184 c0
-12 13 -16 29 -10 17 6 35 3 42 -8 6 -10 2 -19 -10 -19 -11 0 -21 -9 -21 -19
0 -11 13 -15 28 -9 29 11 65 -26 45 -46 -6 -6 -34 -10 -62 -8 -28 2 -67 3 -86
4 -97 3 -148 23 -136 53 9 23 6 26 -14 9 -20 -17 -27 -13 -30 17 -1 22 10 39
26 39 16 0 29 10 29 21 0 12 7 17 16 12 9 -6 28 -3 44 7 32 20 100 -10 100
-43z"/>
<path d="M3195 2889 c-62 -34 -68 -63 -27 -120 32 -43 145 -57 159 -19 6 15
-7 21 -37 15 -56 -11 -130 26 -130 66 0 39 79 38 136 -2 26 -19 44 -22 44 -10
0 12 -13 27 -30 34 -16 6 -30 24 -30 39 0 35 -16 34 -85 -3z"/>
<path d="M2960 2761 c0 -32 86 -81 144 -81 67 0 72 27 12 69 -49 34 -156 42
-156 12z"/>
<path d="M3442 2647 c-38 -36 -76 -61 -85 -55 -9 6 -17 -4 -17 -21 0 -17 -7
-31 -16 -31 -8 0 -17 -16 -18 -35 -2 -20 -5 -44 -7 -55 -8 -43 2 -72 21 -60
11 7 20 -2 20 -19 0 -17 14 -31 30 -31 17 0 30 -8 30 -17 0 -9 43 -10 95 -2
52 8 102 11 110 6 8 -5 21 4 27 22 7 17 22 25 33 18 12 -8 15 -4 7 10 -8 13
-6 23 4 23 26 0 12 148 -19 220 -20 45 -40 60 -80 60 -30 0 -57 7 -60 16 -4 9
-38 -13 -75 -49z m147 -30 c64 -29 67 -77 5 -77 -60 0 -124 47 -106 77 18 29
37 29 101 0z m-49 -142 c95 -49 122 -88 72 -107 -89 -34 -271 54 -246 119 17
45 69 41 174 -12z"/>
<path d="M3854 2687 c-27 -27 -13 -48 54 -80 66 -31 132 -27 132 9 0 34 -162
95 -186 71z"/>
<path d="M4322 2682 c-42 -27 -11 -80 67 -113 89 -37 164 -37 178 0 23 61
-179 155 -245 113z"/>
<path d="M2810 2560 c-26 -42 59 -104 158 -115 73 -8 92 -4 92 20 0 66 -217
149 -250 95z"/>
<path d="M4380 2480 c-70 -70 86 -201 225 -188 37 4 51 -2 42 -16 -7 -12 -5
-17 6 -11 10 7 19 42 21 78 1 37 -2 51 -7 32 -18 -66 -228 -28 -269 49 -12 22
-18 42 -15 45 4 3 25 15 47 27 22 13 29 23 15 23 -14 1 -43 -17 -65 -39z"/>
<path d="M4490 2504 c42 -43 167 -79 145 -43 -14 22 -34 40 -45 41 -11 1 -40
4 -65 6 -25 3 -41 1 -35 -4z"/>
<path d="M3831 2481 c-17 -28 70 -81 133 -81 71 0 74 46 5 77 -61 28 -122 30
-138 4z"/>
<path d="M4680 2481 c0 -32 86 -81 144 -81 67 0 72 27 12 69 -49 34 -156 42
-156 12z"/>
<path d="M4851 2321 c-19 -30 17 -71 88 -100 64 -27 161 -21 164 9 4 60 -221
141 -252 91z"/>
<path d="M3945 2287 c-42 -17 -28 -45 40 -87 65 -40 184 -54 203 -24 34 56
-160 144 -243 111z"/>
<path d="M3480 2253 c0 -32 84 -73 151 -73 61 0 63 28 5 69 -55 38 -156 41
-156 4z"/>
<path d="M4260 2250 c0 -77 241 -140 256 -66 9 44 -91 96 -185 96 -49 0 -71
-9 -71 -30z"/>
<path d="M3080 2173 c0 -30 82 -73 141 -73 50 0 51 52 0 79 -55 30 -141 26
-141 -6z"/>
<path d="M3834 2113 c-36 -56 -24 -87 52 -126 43 -23 65 -25 70 -10 4 13 15
18 25 13 9 -6 26 5 36 25 46 85 -130 180 -183 98z m141 -24 c65 -45 38 -90
-40 -68 -75 22 -104 48 -86 77 19 31 75 27 126 -9z"/>
<path d="M3373 2067 c-25 -26 -12 -48 52 -87 80 -49 195 -54 195 -9 0 52 -209
133 -247 96z"/>
<path d="M4500 2061 c0 -32 86 -81 144 -81 66 0 76 48 17 79 -48 26 -161 27
-161 2z"/>
<path d="M5220 1973 c0 -30 82 -73 141 -73 52 0 49 30 -5 69 -55 38 -136 41
-136 4z"/>
<path d="M4493 1870 c6 -16 24 -30 40 -30 16 0 24 -9 17 -20 -7 -11 1 -14 20
-7 35 13 28 60 -7 52 -13 -3 -23 4 -23 15 0 11 -13 20 -29 20 -18 0 -25 -12
-18 -30z"/>
<path d="M3725 1865 c-44 -15 -27 -45 43 -78 79 -38 151 -24 113 22 -29 34
-122 68 -156 56z"/>
<path d="M4921 1802 c-25 -17 -24 -25 8 -61 65 -72 268 -101 246 -35 -23 68
-198 133 -254 96z"/>
<path d="M4642 1764 c-1 -15 -9 -22 -17 -17 -8 5 -27 -4 -41 -19 -21 -23 -17
-28 26 -28 28 0 82 -13 121 -29 41 -17 69 -21 69 -9 0 34 -55 78 -97 78 -22 0
-44 11 -50 25 -8 19 -10 19 -11 -1z"/>
<path d="M4104 1725 c13 -67 230 -128 250 -71 13 36 -113 106 -190 106 -53 0
-66 -7 -60 -35z"/>
<path d="M1604 2865 c-30 -5 -44 -20 -40 -42 7 -38 128 -55 176 -24 55 36 -43
84 -136 66z"/>
<path d="M1969 2830 c-39 -30 -39 -30 0 -60 66 -51 251 -36 251 21 0 66 -180
94 -251 39z"/>
<path d="M1535 2678 c-20 -11 -31 -29 -24 -39 16 -27 184 -24 200 3 31 50
-105 78 -176 36z"/>
<path d="M837 2639 c-46 -40 -46 -41 -2 -20 54 27 145 7 145 -31 0 -38 -87
-56 -138 -29 -34 18 -39 17 -29 -9 16 -41 94 -58 145 -31 56 30 58 121 2 121
-22 0 -40 9 -40 20 0 32 -32 24 -83 -21z"/>
<path d="M1187 2567 c-24 -25 -38 -49 -32 -56 7 -6 -3 -11 -22 -11 -29 0 -38
-28 -32 -94 1 -8 -14 -20 -33 -27 -19 -6 -36 -31 -38 -54 -2 -29 6 -38 27 -30
16 7 24 3 18 -7 -18 -30 36 -89 97 -105 109 -30 360 150 263 188 -14 5 -26 38
-27 73 -2 37 -18 73 -40 89 -21 14 -48 34 -61 45 -12 11 -29 14 -36 6 -7 -7
-19 -4 -27 7 -8 11 -32 2 -57 -24z m164 -69 c8 -12 2 -30 -13 -40 -59 -37
-178 -6 -149 40 7 12 44 22 81 22 37 0 74 -10 81 -22z m10 -139 c88 -46 34
-99 -101 -99 -102 0 -140 17 -140 61 0 54 163 80 241 38z"/>
<path d="M2287 2586 c-120 -15 -167 -291 -80 -476 75 -158 313 -396 261 -261
-9 21 0 27 30 21 23 -4 42 1 42 11 0 11 -9 19 -20 19 -11 0 -20 18 -20 40 0
22 10 40 21 40 12 0 15 10 7 23 -9 14 -23 6 -40 -25 -15 -27 -27 -36 -27 -22
-1 15 -10 21 -21 14 -11 -7 -20 -2 -20 10 0 13 -11 16 -25 7 -16 -10 -15 -3 3
20 24 30 23 38 -10 63 -36 27 -36 29 -2 29 34 1 34 3 4 34 -26 26 -37 28 -56
7 -19 -20 -18 -23 1 -12 16 9 21 4 13 -17 -21 -53 -48 -12 -48 70 0 44 -10 79
-21 79 -12 0 -16 -11 -9 -25 7 -14 -1 -8 -19 14 -44 55 -39 89 19 111 58 22
63 45 19 89 -18 17 -22 31 -10 31 11 0 21 14 21 30 0 17 14 30 30 30 17 0 30
14 30 30 0 17 -2 29 -5 27 -3 -2 -33 -7 -68 -11z"/>
<path d="M1585 2507 c-73 -30 28 -90 121 -73 59 12 72 55 22 74 -36 14 -107
13 -143 -1z"/>
<path d="M663 2473 c-32 -39 -8 -53 89 -53 89 0 133 32 86 62 -43 27 -150 21
-175 -9z"/>
<path d="M2075 2446 c-44 -11 -46 -58 -3 -74 53 -20 63 -14 63 38 0 28 -6 49
-12 48 -7 -2 -29 -7 -48 -12z"/>
<path d="M1755 2338 c-50 -29 -43 -56 19 -80 110 -41 287 31 204 84 -38 24
-180 22 -223 -4z"/>
<path d="M605 2239 c-60 -24 -57 -55 6 -79 75 -29 156 -24 200 10 81 63 -84
118 -206 69z"/>
<path d="M1325 2187 c-49 -20 -24 -65 43 -78 95 -18 176 24 122 64 -37 27
-116 33 -165 14z"/>
<path d="M1693 2187 c-36 -37 -7 -170 32 -144 3 2 24 -6 47 -19 31 -16 48 -16
65 1 33 33 28 55 -12 52 -108 -9 -177 39 -100 70 19 8 19 10 -1 11 -15 1 -21
11 -14 22 14 23 3 27 -17 7z"/>
<path d="M949 1958 c-18 -29 27 -57 91 -57 28 0 62 7 78 17 45 29 4 62 -78 62
-43 0 -84 -10 -91 -22z"/>
<path d="M1285 1947 c-35 -14 -31 -60 7 -75 47 -18 194 -14 227 7 80 51 -127
111 -234 68z"/>
<path d="M2105 1899 c-70 -28 -55 -75 28 -91 146 -27 247 53 113 91 -88 24
-82 24 -141 0z"/>
<path d="M1675 1858 c-55 -32 -21 -58 75 -58 98 0 131 27 72 59 -49 26 -101
26 -147 -1z"/>
<path d="M3300 1618 c0 -36 349 -187 382 -166 11 6 -1 30 -26 52 -25 22 -44
48 -41 57 2 10 -10 12 -29 5 -24 -10 -28 -6 -15 16 14 24 12 24 -17 1 -29 -24
-34 -24 -34 1 0 16 -11 30 -25 31 -14 1 -63 6 -110 11 -47 4 -85 1 -85 -8z"/>
<path d="M3141 1434 c-80 -13 -100 -23 -76 -36 19 -11 54 -10 88 3 31 12 88
16 127 9 56 -11 65 -8 45 12 -32 33 -53 34 -184 12z"/>
<path d="M3550 1311 c-547 -261 -1495 -282 -2116 -48 -170 64 -369 95 -299 47
316 -220 1211 -346 1815 -257 110 16 218 32 240 35 22 3 63 15 90 26 233 93
246 95 377 50 l123 -41 105 79 c133 100 132 114 -15 160 -144 45 -104 51 -320
-51z"/>
<path d="M2715 1297 c-13 -8 -30 -10 -38 -5 -8 5 -21 -2 -28 -14 -21 -34 27
-54 135 -55 102 -1 152 42 94 79 -32 20 -128 17 -163 -5z"/>
<path d="M2260 1259 c-27 -17 -26 -21 0 -39 54 -35 194 -7 155 31 -23 23 -124
28 -155 8z"/>
<path d="M2415 846 c36 -5 90 -5 120 0 30 4 1 8 -65 8 -66 0 -91 -4 -55 -8z"/>
</g>
</svg>
