<?xml version="1.0" encoding="UTF-8"?>
<!DOCTYPE svg PUBLIC "-//W3C//DTD SVG 1.1//EN" "http://www.w3.org/Graphics/SVG/1.1/DTD/svg11.dtd">
<svg xmlns="http://www.w3.org/2000/svg" version="1.1" width="512px" height="512px" style="shape-rendering:geometricPrecision; text-rendering:geometricPrecision; image-rendering:optimizeQuality; fill-rule:evenodd; clip-rule:evenodd" xmlns:xlink="http://www.w3.org/1999/xlink">
<g><path style="opacity:0.637" fill="#66aa6d" d="M 482.5,4.5 C 479.689,5.47499 476.689,6.14166 473.5,6.5C 475.944,3.54367 478.944,2.87701 482.5,4.5 Z"/></g>
<g><path style="opacity:0.961" fill="#262626" d="M 482.5,4.5 C 498.431,4.76668 507.431,12.7667 509.5,28.5C 509.144,34.1671 507.644,39.5004 505,44.5C 438.505,160.161 371.505,275.494 304,390.5C 291.175,415.486 277.842,440.152 264,464.5C 258.156,473.521 251.822,482.188 245,490.5C 222.325,513.936 200.658,512.936 180,487.5C 122.719,409.218 65.0524,331.218 7,253.5C -3.26328,232.128 2.90339,217.794 25.5,210.5C 27.7354,210.795 29.7354,210.461 31.5,209.5C 37.0753,209.582 42.4086,210.748 47.5,213C 97.0806,240.373 146.581,267.873 196,295.5C 276.967,208.199 358.3,121.199 440,34.5C 445.377,28.7921 450.377,22.7921 455,16.5C 460.112,11.2222 466.279,7.88884 473.5,6.5C 476.689,6.14166 479.689,5.47499 482.5,4.5 Z M 480.5,14.5 C 480.027,15.9063 479.027,16.573 477.5,16.5C 477.973,15.0937 478.973,14.427 480.5,14.5 Z M 495.5,29.5 C 495.5,31.1667 495.5,32.8333 495.5,34.5C 486.833,39.1667 478.167,43.8333 469.5,48.5C 477.774,41.6898 486.441,35.3564 495.5,29.5 Z M 487.5,52.5 C 487.167,53.1667 486.833,53.8333 486.5,54.5C 484.062,56.2672 481.395,57.6006 478.5,58.5C 480.975,55.7589 483.975,53.7589 487.5,52.5 Z M 456.5,105.5 C 455.89,106.391 455.557,107.391 455.5,108.5C 450.167,111.167 444.833,113.833 439.5,116.5C 444.892,112.447 450.559,108.78 456.5,105.5 Z M 439.5,116.5 C 439.027,117.906 438.027,118.573 436.5,118.5C 436.973,117.094 437.973,116.427 439.5,116.5 Z M 443.5,127.5 C 443.267,129.062 442.6,130.395 441.5,131.5C 435.127,135.687 428.461,139.353 421.5,142.5C 428.796,137.513 436.13,132.513 443.5,127.5 Z M 421.5,142.5 C 421.027,143.906 420.027,144.573 418.5,144.5C 418.973,143.094 419.973,142.427 421.5,142.5 Z M 429.5,151.5 C 429.5,151.833 429.5,152.167 429.5,152.5C 427.784,154.025 425.784,155.025 423.5,155.5C 425.147,153.674 427.147,152.34 429.5,151.5 Z M 418.5,170.5 C 416.434,174.966 414.1,179.299 411.5,183.5C 341.969,223.765 272.302,263.765 202.5,303.5C 207.796,296.869 213.463,290.535 219.5,284.5C 285.969,246.765 352.302,208.765 418.5,170.5 Z M 309.5,187.5 C 310.167,187.5 310.833,187.5 311.5,187.5C 311.027,188.906 310.027,189.573 308.5,189.5C 308.833,188.833 309.167,188.167 309.5,187.5 Z M 399.5,203.5 C 398.18,206.14 396.847,208.807 395.5,211.5C 371.968,225.099 348.301,238.432 324.5,251.5C 348.983,234.755 373.983,218.755 399.5,203.5 Z M 284.5,218.5 C 284.027,219.906 283.027,220.573 281.5,220.5C 281.973,219.094 282.973,218.427 284.5,218.5 Z M 279.5,220.5 C 280.167,220.5 280.833,220.5 281.5,220.5C 281.027,221.906 280.027,222.573 278.5,222.5C 278.833,221.833 279.167,221.167 279.5,220.5 Z M 43.5,224.5 C 45.8185,224.992 47.8185,225.992 49.5,227.5C 45.1667,229.5 40.8333,231.5 36.5,233.5C 38.4821,230.19 40.8154,227.19 43.5,224.5 Z M 384.5,230.5 C 383.4,231.605 382.733,232.938 382.5,234.5C 372.3,240.433 361.967,246.1 351.5,251.5C 361.984,243.754 372.984,236.754 384.5,230.5 Z M 60.5,233.5 C 61.1667,233.5 61.5,233.833 61.5,234.5C 60.1007,235.89 58.4341,236.89 56.5,237.5C 57.5,235.833 58.8333,234.5 60.5,233.5 Z M 21.5,235.5 C 20.2993,237.909 18.6326,239.909 16.5,241.5C 16.5,240.5 16.5,239.5 16.5,238.5C 17.6594,236.75 19.326,235.75 21.5,235.5 Z M 73.5,240.5 C 75.2303,241.026 76.5637,242.026 77.5,243.5C 73.167,246.669 68.5003,249.336 63.5,251.5C 66.8333,247.833 70.1667,244.167 73.5,240.5 Z M 89.5,249.5 C 90.1667,249.833 90.8333,250.167 91.5,250.5C 89.8185,252.008 87.8185,253.008 85.5,253.5C 86.5,251.833 87.8333,250.5 89.5,249.5 Z M 27.5,251.5 C 26.8333,252.833 25.8333,253.833 24.5,254.5C 24.5,253.833 24.1667,253.5 23.5,253.5C 24.5137,252.326 25.847,251.66 27.5,251.5 Z M 324.5,251.5 C 323.341,253.25 321.674,254.25 319.5,254.5C 320.659,252.75 322.326,251.75 324.5,251.5 Z M 349.5,252.5 C 349.027,253.906 348.027,254.573 346.5,254.5C 346.973,253.094 347.973,252.427 349.5,252.5 Z M 370.5,253.5 C 370.5,254.167 370.5,254.833 370.5,255.5C 368.313,256.758 365.98,257.758 363.5,258.5C 365.531,256.478 367.865,254.811 370.5,253.5 Z M 319.5,254.5 C 319.027,255.906 318.027,256.573 316.5,256.5C 316.973,255.094 317.973,254.427 319.5,254.5 Z M 102.5,256.5 C 104.332,257.248 105.999,258.248 107.5,259.5C 101.43,263.558 95.097,267.225 88.5,270.5C 92.8604,265.473 97.5271,260.806 102.5,256.5 Z M 41.5,258.5 C 39.0584,261.729 36.3918,264.729 33.5,267.5C 33.2671,265.938 32.6005,264.605 31.5,263.5C 34.8599,261.82 38.1932,260.153 41.5,258.5 Z M 130.5,272.5 C 130.833,272.5 131.167,272.5 131.5,272.5C 130.486,273.674 129.153,274.34 127.5,274.5C 127.973,273.094 128.973,272.427 130.5,272.5 Z M 45.5,274.5 C 44.7377,276.262 43.4044,277.262 41.5,277.5C 41.5,277.167 41.5,276.833 41.5,276.5C 42.5137,275.326 43.847,274.66 45.5,274.5 Z M 358.5,274.5 C 357.833,276.167 357.167,277.833 356.5,279.5C 348.009,283.578 339.676,287.912 331.5,292.5C 340.291,286.265 349.291,280.265 358.5,274.5 Z M 142.5,278.5 C 144.537,279.846 146.537,281.18 148.5,282.5C 139.806,287.179 131.14,291.846 122.5,296.5C 128.843,290.158 135.509,284.158 142.5,278.5 Z M 62.5,279.5 C 59.1667,283.5 55.5,287.167 51.5,290.5C 50.5116,289.205 49.5116,287.872 48.5,286.5C 53.1667,284.167 57.8333,281.833 62.5,279.5 Z M 159.5,288.5 C 160.492,288.328 161.158,288.662 161.5,289.5C 157.167,292.669 152.5,295.336 147.5,297.5C 150.929,293.738 154.929,290.738 159.5,288.5 Z M 331.5,292.5 C 331.027,293.906 330.027,294.573 328.5,294.5C 328.973,293.094 329.973,292.427 331.5,292.5 Z M 122.5,296.5 C 122.027,297.906 121.027,298.573 119.5,298.5C 119.973,297.094 120.973,296.427 122.5,296.5 Z M 183.5,301.5 C 184.167,301.5 184.5,301.833 184.5,302.5C 182.664,304.588 180.331,305.921 177.5,306.5C 179.091,304.367 181.091,302.701 183.5,301.5 Z M 95.5,305.5 C 88.8735,311.157 82.2068,316.823 75.5,322.5C 74.0256,321.564 73.0256,320.23 72.5,318.5C 79.9053,313.774 87.572,309.441 95.5,305.5 Z M 177.5,306.5 C 177.027,307.906 176.027,308.573 174.5,308.5C 174.973,307.094 175.973,306.427 177.5,306.5 Z M 208.5,312.5 C 207.341,314.25 205.674,315.25 203.5,315.5C 204.659,313.75 206.326,312.75 208.5,312.5 Z M 203.5,315.5 C 173.374,335.402 143.04,355.069 112.5,374.5C 111.89,372.566 110.89,370.899 109.5,369.5C 140.499,350.998 171.832,332.998 203.5,315.5 Z M 333.5,317.5 C 333.107,319.284 332.441,320.95 331.5,322.5C 322.833,327.167 314.167,331.833 305.5,336.5C 314.45,329.685 323.783,323.351 333.5,317.5 Z M 95.5,324.5 C 95.0269,325.906 94.0269,326.573 92.5,326.5C 92.9731,325.094 93.9731,324.427 95.5,324.5 Z M 92.5,326.5 C 89.8103,329.185 86.8103,331.518 83.5,333.5C 82.5,333.167 81.8333,332.5 81.5,331.5C 85.0171,329.576 88.6837,327.909 92.5,326.5 Z M 319.5,342.5 C 318.833,343.833 318.167,345.167 317.5,346.5C 312.167,349.167 306.833,351.833 301.5,354.5C 307.148,350.007 313.148,346.007 319.5,342.5 Z M 103.5,347.5 C 101.54,349.156 99.5398,350.823 97.5,352.5C 96.8333,352.5 96.5,352.167 96.5,351.5C 98.3356,349.412 100.669,348.079 103.5,347.5 Z M 169.5,353.5 C 169.027,354.906 168.027,355.573 166.5,355.5C 166.973,354.094 167.973,353.427 169.5,353.5 Z M 166.5,355.5 C 165.341,357.25 163.674,358.25 161.5,358.5C 162.659,356.75 164.326,355.75 166.5,355.5 Z M 161.5,358.5 C 148.349,367.913 134.682,376.58 120.5,384.5C 120.167,383.833 119.833,383.167 119.5,382.5C 133.166,373.998 147.166,365.998 161.5,358.5 Z M 304.5,367.5 C 303.773,369.954 302.773,372.287 301.5,374.5C 292.167,379.5 282.833,384.5 273.5,389.5C 283.62,381.933 293.953,374.6 304.5,367.5 Z M 177.5,378.5 C 164.041,387.735 150.375,396.735 136.5,405.5C 135.599,404.71 134.932,403.71 134.5,402.5C 148.699,394.234 163.032,386.234 177.5,378.5 Z M 149.5,380.5 C 149.027,381.906 148.027,382.573 146.5,382.5C 146.973,381.094 147.973,380.427 149.5,380.5 Z M 146.5,382.5 C 140.795,386.859 134.795,390.859 128.5,394.5C 127.833,394.5 127.5,394.167 127.5,393.5C 133.334,389.079 139.668,385.412 146.5,382.5 Z M 273.5,389.5 C 273.027,390.906 272.027,391.573 270.5,391.5C 270.973,390.094 271.973,389.427 273.5,389.5 Z M 194.5,396.5 C 180.463,406.525 166.129,416.192 151.5,425.5C 150.094,425.027 149.427,424.027 149.5,422.5C 164.002,413.079 179.002,404.412 194.5,396.5 Z M 193.5,413.5 C 193.027,414.906 192.027,415.573 190.5,415.5C 190.973,414.094 191.973,413.427 193.5,413.5 Z M 190.5,415.5 C 180.463,422.858 170.13,429.858 159.5,436.5C 158.599,435.71 157.932,434.71 157.5,433.5C 168.367,427.234 179.367,421.234 190.5,415.5 Z M 217.5,415.5 C 201.801,427.19 185.801,438.523 169.5,449.5C 167.457,448.421 166.124,446.754 165.5,444.5C 182.833,434.833 200.167,425.167 217.5,415.5 Z M 191.5,449.5 C 187.135,453.189 182.469,456.522 177.5,459.5C 176.508,459.672 175.842,459.338 175.5,458.5C 180.502,454.997 185.835,451.997 191.5,449.5 Z M 192.5,463.5 C 189.833,465.833 187.167,468.167 184.5,470.5C 183.662,470.158 183.328,469.492 183.5,468.5C 186.24,466.44 189.24,464.774 192.5,463.5 Z M 211.5,492.5 C 210.5,494.167 209.167,495.5 207.5,496.5C 206.508,496.672 205.842,496.338 205.5,495.5C 207.181,493.992 209.181,492.992 211.5,492.5 Z"/></g>
<g><path style="opacity:0.987" fill="#6ab476" d="M 481.5,13.5 C 480.833,13.5 480.5,13.8333 480.5,14.5C 481.492,14.6716 482.158,14.3382 482.5,13.5C 491.189,15.1974 495.523,20.5307 495.5,29.5C 486.441,35.3564 477.774,41.6898 469.5,48.5C 478.167,43.8333 486.833,39.1667 495.5,34.5C 494.178,41.1463 491.511,47.1463 487.5,52.5C 483.975,53.7589 480.975,55.7589 478.5,58.5C 481.395,57.6006 484.062,56.2672 486.5,54.5C 477.268,71.9661 467.268,88.9661 456.5,105.5C 450.559,108.78 444.892,112.447 439.5,116.5C 444.833,113.833 450.167,111.167 455.5,108.5C 452.236,115.376 448.236,121.71 443.5,127.5C 436.13,132.513 428.796,137.513 421.5,142.5C 428.461,139.353 435.127,135.687 441.5,131.5C 438.603,138.297 434.936,144.63 430.5,150.5C 429.833,150.5 429.5,150.833 429.5,151.5C 427.147,152.34 425.147,153.674 423.5,155.5C 425.784,155.025 427.784,154.025 429.5,152.5C 426.834,159.176 423.167,165.176 418.5,170.5C 352.302,208.765 285.969,246.765 219.5,284.5C 228.55,273.786 238.216,263.786 248.5,254.5C 251.097,254.279 251.097,253.779 248.5,253C 257.754,242.581 267.421,232.748 277.5,223.5C 278.167,223.5 278.5,223.167 278.5,222.5C 280.027,222.573 281.027,221.906 281.5,220.5C 280.833,220.5 280.167,220.5 279.5,220.5C 288.856,209.813 298.523,199.48 308.5,189.5C 310.027,189.573 311.027,188.906 311.5,187.5C 310.833,187.5 310.167,187.5 309.5,187.5C 333.873,161.485 357.873,135.818 381.5,110.5C 401.551,90.6148 420.384,69.6148 438,47.5C 446.5,39 455,30.5 463.5,22C 468.477,17.9282 473.977,14.7615 480,12.5C 480.765,12.5699 481.265,12.9033 481.5,13.5 Z M 480.5,14.5 C 480.027,15.9063 479.027,16.573 477.5,16.5C 477.973,15.0937 478.973,14.427 480.5,14.5 Z M 439.5,116.5 C 439.027,117.906 438.027,118.573 436.5,118.5C 436.973,117.094 437.973,116.427 439.5,116.5 Z M 421.5,142.5 C 421.027,143.906 420.027,144.573 418.5,144.5C 418.973,143.094 419.973,142.427 421.5,142.5 Z M 284.5,218.5 C 284.027,219.906 283.027,220.573 281.5,220.5C 281.973,219.094 282.973,218.427 284.5,218.5 Z"/></g>
<g><path style="opacity:0.983" fill="#6ab476" d="M 411.5,183.5 C 408.603,190.297 404.936,196.63 400.5,202.5C 399.833,202.5 399.5,202.833 399.5,203.5C 373.983,218.755 348.983,234.755 324.5,251.5C 348.301,238.432 371.968,225.099 395.5,211.5C 392.603,218.297 388.936,224.63 384.5,230.5C 372.984,236.754 361.984,243.754 351.5,251.5C 361.967,246.1 372.3,240.433 382.5,234.5C 379.247,241.348 375.247,247.681 370.5,253.5C 367.865,254.811 365.531,256.478 363.5,258.5C 365.98,257.758 368.313,256.758 370.5,255.5C 367.247,262.348 363.247,268.681 358.5,274.5C 349.291,280.265 340.291,286.265 331.5,292.5C 339.676,287.912 348.009,283.578 356.5,279.5C 349.839,290.149 343.672,301.149 338,312.5C 336.941,314.659 335.441,316.326 333.5,317.5C 323.783,323.351 314.45,329.685 305.5,336.5C 314.167,331.833 322.833,327.167 331.5,322.5C 328.014,329.47 324.014,336.137 319.5,342.5C 313.148,346.007 307.148,350.007 301.5,354.5C 306.833,351.833 312.167,349.167 317.5,346.5C 314.313,354.323 309.98,361.323 304.5,367.5C 293.953,374.6 283.62,381.933 273.5,389.5C 282.833,384.5 292.167,379.5 301.5,374.5C 297.915,382.011 293.582,389.011 288.5,395.5C 287.167,395.833 287.167,396.167 288.5,396.5C 274.522,421.339 260.689,446.339 247,471.5C 242.649,479.521 237.149,486.688 230.5,493C 225.734,496.549 220.4,498.716 214.5,499.5C 211.64,499.445 209.307,498.445 207.5,496.5C 209.167,495.5 210.5,494.167 211.5,492.5C 209.181,492.992 207.181,493.992 205.5,495.5C 201.13,494.464 198.464,491.797 197.5,487.5C 196.504,487.586 195.671,487.252 195,486.5C 191.251,481.267 187.751,475.933 184.5,470.5C 187.167,468.167 189.833,465.833 192.5,463.5C 189.24,464.774 186.24,466.44 183.5,468.5C 180.745,466.572 178.411,464.072 176.5,461C 177.056,460.617 177.389,460.117 177.5,459.5C 182.469,456.522 187.135,453.189 191.5,449.5C 185.835,451.997 180.502,454.997 175.5,458.5C 172.246,456.323 170.246,453.323 169.5,449.5C 185.801,438.523 201.801,427.19 217.5,415.5C 200.167,425.167 182.833,434.833 165.5,444.5C 162.41,442.732 160.41,440.065 159.5,436.5C 170.13,429.858 180.463,422.858 190.5,415.5C 179.367,421.234 168.367,427.234 157.5,433.5C 154.442,431.757 152.442,429.09 151.5,425.5C 166.129,416.192 180.463,406.525 194.5,396.5C 179.002,404.412 164.002,413.079 149.5,422.5C 146.532,420.523 144.198,417.856 142.5,414.5C 142.938,414.565 143.272,414.399 143.5,414C 139.896,412.228 137.563,409.395 136.5,405.5C 150.375,396.735 164.041,387.735 177.5,378.5C 163.032,386.234 148.699,394.234 134.5,402.5C 131.41,400.732 129.41,398.065 128.5,394.5C 134.795,390.859 140.795,386.859 146.5,382.5C 139.668,385.412 133.334,389.079 127.5,393.5C 124.453,391.082 122.12,388.082 120.5,384.5C 134.682,376.58 148.349,367.913 161.5,358.5C 147.166,365.998 133.166,373.998 119.5,382.5C 116.705,380.249 114.372,377.582 112.5,374.5C 143.04,355.069 173.374,335.402 203.5,315.5C 171.832,332.998 140.499,350.998 109.5,369.5C 104.73,364.393 100.73,358.727 97.5,352.5C 99.5398,350.823 101.54,349.156 103.5,347.5C 100.669,348.079 98.3356,349.412 96.5,351.5C 91.1896,346.215 86.8563,340.215 83.5,333.5C 86.8103,331.518 89.8103,329.185 92.5,326.5C 88.6837,327.909 85.0171,329.576 81.5,331.5C 79.4503,329.763 77.617,327.763 76,325.5C 75.5172,324.552 75.3505,323.552 75.5,322.5C 82.2068,316.823 88.8735,311.157 95.5,305.5C 87.572,309.441 79.9053,313.774 72.5,318.5C 69.1145,316.433 66.7811,313.433 65.5,309.5C 62.4442,307.051 60.1108,304.051 58.5,300.5C 58.9382,300.565 59.2716,300.399 59.5,300C 58.2341,299.691 57.0674,299.191 56,298.5C 53.8431,296.183 52.3431,293.516 51.5,290.5C 55.5,287.167 59.1667,283.5 62.5,279.5C 57.8333,281.833 53.1667,284.167 48.5,286.5C 45.4442,284.051 43.1108,281.051 41.5,277.5C 43.4044,277.262 44.7377,276.262 45.5,274.5C 43.847,274.66 42.5137,275.326 41.5,276.5C 38.2,274.192 35.5334,271.192 33.5,267.5C 36.3918,264.729 39.0584,261.729 41.5,258.5C 38.1932,260.153 34.8599,261.82 31.5,263.5C 28.4442,261.051 26.1108,258.051 24.5,254.5C 25.8333,253.833 26.8333,252.833 27.5,251.5C 25.847,251.66 24.5137,252.326 23.5,253.5C 19.6433,250.462 17.31,246.462 16.5,241.5C 18.6326,239.909 20.2993,237.909 21.5,235.5C 19.326,235.75 17.6594,236.75 16.5,238.5C 13.731,229.975 16.0643,223.141 23.5,218C 31.4239,216.866 38.0906,219.032 43.5,224.5C 40.8154,227.19 38.4821,230.19 36.5,233.5C 40.8333,231.5 45.1667,229.5 49.5,227.5C 53.6119,228.722 57.2786,230.722 60.5,233.5C 58.8333,234.5 57.5,235.833 56.5,237.5C 58.4341,236.89 60.1007,235.89 61.5,234.5C 66.0864,235.46 70.0864,237.46 73.5,240.5C 70.1667,244.167 66.8333,247.833 63.5,251.5C 68.5003,249.336 73.167,246.669 77.5,243.5C 82.0382,244.436 86.0382,246.436 89.5,249.5C 87.8333,250.5 86.5,251.833 85.5,253.5C 87.8185,253.008 89.8185,252.008 91.5,250.5C 95.6553,251.742 99.322,253.742 102.5,256.5C 97.5271,260.806 92.8604,265.473 88.5,270.5C 95.097,267.225 101.43,263.558 107.5,259.5C 114.579,262.802 121.579,266.302 128.5,270C 129.381,270.708 130.047,271.542 130.5,272.5C 128.973,272.427 127.973,273.094 127.5,274.5C 129.153,274.34 130.486,273.674 131.5,272.5C 135.655,273.742 139.322,275.742 142.5,278.5C 135.509,284.158 128.843,290.158 122.5,296.5C 131.14,291.846 139.806,287.179 148.5,282.5C 152.933,283.214 156.6,285.214 159.5,288.5C 154.929,290.738 150.929,293.738 147.5,297.5C 152.5,295.336 157.167,292.669 161.5,289.5C 163.308,289.491 164.975,289.991 166.5,291C 168.747,292.277 170.747,293.777 172.5,295.5C 176.612,296.722 180.279,298.722 183.5,301.5C 181.091,302.701 179.091,304.367 177.5,306.5C 180.331,305.921 182.664,304.588 184.5,302.5C 187.822,303.492 191.155,304.492 194.5,305.5C 197.386,305.196 200.052,304.529 202.5,303.5C 272.302,263.765 341.969,223.765 411.5,183.5 Z M 284.5,218.5 C 284.027,219.906 283.027,220.573 281.5,220.5C 281.973,219.094 282.973,218.427 284.5,218.5 Z M 279.5,220.5 C 280.167,220.5 280.833,220.5 281.5,220.5C 281.027,221.906 280.027,222.573 278.5,222.5C 278.833,221.833 279.167,221.167 279.5,220.5 Z M 43.5,224.5 C 45.8185,224.992 47.8185,225.992 49.5,227.5C 45.1667,229.5 40.8333,231.5 36.5,233.5C 38.4821,230.19 40.8154,227.19 43.5,224.5 Z M 60.5,233.5 C 61.1667,233.5 61.5,233.833 61.5,234.5C 60.1007,235.89 58.4341,236.89 56.5,237.5C 57.5,235.833 58.8333,234.5 60.5,233.5 Z M 73.5,240.5 C 75.2303,241.026 76.5637,242.026 77.5,243.5C 73.167,246.669 68.5003,249.336 63.5,251.5C 66.8333,247.833 70.1667,244.167 73.5,240.5 Z M 89.5,249.5 C 90.1667,249.833 90.8333,250.167 91.5,250.5C 89.8185,252.008 87.8185,253.008 85.5,253.5C 86.5,251.833 87.8333,250.5 89.5,249.5 Z M 324.5,251.5 C 323.341,253.25 321.674,254.25 319.5,254.5C 320.659,252.75 322.326,251.75 324.5,251.5 Z M 349.5,252.5 C 349.027,253.906 348.027,254.573 346.5,254.5C 346.973,253.094 347.973,252.427 349.5,252.5 Z M 319.5,254.5 C 319.027,255.906 318.027,256.573 316.5,256.5C 316.973,255.094 317.973,254.427 319.5,254.5 Z M 102.5,256.5 C 104.332,257.248 105.999,258.248 107.5,259.5C 101.43,263.558 95.097,267.225 88.5,270.5C 92.8604,265.473 97.5271,260.806 102.5,256.5 Z M 130.5,272.5 C 130.833,272.5 131.167,272.5 131.5,272.5C 130.486,273.674 129.153,274.34 127.5,274.5C 127.973,273.094 128.973,272.427 130.5,272.5 Z M 142.5,278.5 C 144.537,279.846 146.537,281.18 148.5,282.5C 139.806,287.179 131.14,291.846 122.5,296.5C 128.843,290.158 135.509,284.158 142.5,278.5 Z M 159.5,288.5 C 160.492,288.328 161.158,288.662 161.5,289.5C 157.167,292.669 152.5,295.336 147.5,297.5C 150.929,293.738 154.929,290.738 159.5,288.5 Z M 331.5,292.5 C 331.027,293.906 330.027,294.573 328.5,294.5C 328.973,293.094 329.973,292.427 331.5,292.5 Z M 122.5,296.5 C 122.027,297.906 121.027,298.573 119.5,298.5C 119.973,297.094 120.973,296.427 122.5,296.5 Z M 183.5,301.5 C 184.167,301.5 184.5,301.833 184.5,302.5C 182.664,304.588 180.331,305.921 177.5,306.5C 179.091,304.367 181.091,302.701 183.5,301.5 Z M 177.5,306.5 C 177.027,307.906 176.027,308.573 174.5,308.5C 174.973,307.094 175.973,306.427 177.5,306.5 Z M 208.5,312.5 C 207.341,314.25 205.674,315.25 203.5,315.5C 204.659,313.75 206.326,312.75 208.5,312.5 Z M 95.5,324.5 C 95.0269,325.906 94.0269,326.573 92.5,326.5C 92.9731,325.094 93.9731,324.427 95.5,324.5 Z M 169.5,353.5 C 169.027,354.906 168.027,355.573 166.5,355.5C 166.973,354.094 167.973,353.427 169.5,353.5 Z M 166.5,355.5 C 165.341,357.25 163.674,358.25 161.5,358.5C 162.659,356.75 164.326,355.75 166.5,355.5 Z M 149.5,380.5 C 149.027,381.906 148.027,382.573 146.5,382.5C 146.973,381.094 147.973,380.427 149.5,380.5 Z M 273.5,389.5 C 273.027,390.906 272.027,391.573 270.5,391.5C 270.973,390.094 271.973,389.427 273.5,389.5 Z M 193.5,413.5 C 193.027,414.906 192.027,415.573 190.5,415.5C 190.973,414.094 191.973,413.427 193.5,413.5 Z"/></g>
<g><path style="opacity:0.722" fill="#64a96f" d="M 31.5,209.5 C 29.7354,210.461 27.7354,210.795 25.5,210.5C 27.2082,208.488 29.2082,208.154 31.5,209.5 Z"/></g>
</svg>
