<?xml version="1.0" encoding="UTF-8"?>
<!DOCTYPE svg PUBLIC "-//W3C//DTD SVG 1.1//EN" "http://www.w3.org/Graphics/SVG/1.1/DTD/svg11.dtd">
<svg xmlns="http://www.w3.org/2000/svg" version="1.1" width="100px" height="100px" style="shape-rendering:geometricPrecision; text-rendering:geometricPrecision; image-rendering:optimizeQuality; fill-rule:evenodd; clip-rule:evenodd" xmlns:xlink="http://www.w3.org/1999/xlink">
<g><path style="opacity:0.745" fill="#000000" d="M 10.5,14.5 C 24.5853,13.9177 30.5853,20.5844 28.5,34.5C 30.8568,34.3367 33.1902,34.5034 35.5,35C 41.0196,40.0207 46.6863,44.8541 52.5,49.5C 53.3081,49.1924 53.9747,48.6924 54.5,48C 51.3713,47.8832 50.2046,46.3832 51,43.5C 53,42.8333 55,42.1667 57,41.5C 57.4513,36.4303 59.618,32.2637 63.5,29C 67.5948,27.5278 71.0948,25.3611 74,22.5C 77.0033,22.743 78.17,24.4096 77.5,27.5C 85.7441,29.0792 90.0774,34.0792 90.5,42.5C 94.938,41.4251 96.938,43.0917 96.5,47.5C 92.1161,47.1744 87.7828,47.5078 83.5,48.5C 82.6872,49.8139 81.6872,50.9805 80.5,52C 76.5,53.3333 72.5,54.6667 68.5,56C 63.1667,60.6667 57.8333,65.3333 52.5,70C 48.0658,70.9178 44.2325,69.7511 41,66.5C 40.5921,74.811 40.4255,82.9776 40.5,91C 30.4567,91.2528 20.4567,91.4195 10.5,91.5C 7.08862,91.597 5.75528,89.9304 6.5,86.5C 9.8499,86.665 13.1832,86.4983 16.5,86C 17.9003,84.5619 19.567,83.7286 21.5,83.5C 21.3505,84.552 21.5172,85.552 22,86.5C 22.2896,84.9559 22.9563,83.6226 24,82.5C 25.2988,82.9662 26.7988,82.9662 28.5,82.5C 28.4802,80.857 29.1468,79.5237 30.5,78.5C 29.6744,77.549 29.5078,76.549 30,75.5C 31.6667,74.5 33,73.1667 34,71.5C 34.3333,71.8333 34.6667,72.1667 35,72.5C 35.499,68.1794 35.6657,63.8461 35.5,59.5C 40.7396,60.0507 45.4063,62.0507 49.5,65.5C 54.3508,60.8149 59.3508,56.3149 64.5,52C 63.6667,51.1667 62.8333,50.3333 62,49.5C 59.056,50.7226 56.556,52.5559 54.5,55C 52.8333,55.6667 51.1667,55.6667 49.5,55C 45.3006,50.4657 40.8006,46.299 36,42.5C 33.9197,44.9928 32.0864,47.6595 30.5,50.5C 29.5421,48.4178 28.5421,46.2511 27.5,44C 27.9031,42.5272 28.5697,41.1939 29.5,40C 28.5509,39.3828 27.7175,39.5494 27,40.5C 26.0444,51.8805 24.711,63.2138 23,74.5C 22.2904,75.9733 21.1238,76.6399 19.5,76.5C 16.6373,64.9116 12.9706,53.5783 8.5,42.5C 6.2534,43.3742 3.92006,43.7076 1.5,43.5C 0.833333,39.5 2.5,37.8333 6.5,38.5C 4.88866,34.4967 3.55533,30.33 2.5,26C 3.4486,20.8982 6.11527,17.0649 10.5,14.5 Z M 12.5,19.5 C 19.7968,19.8643 20.4635,20.6976 14.5,22C 13.1832,23.6591 11.5165,24.8257 9.5,25.5C 8.41728,24.635 8.25061,23.635 9,22.5C 10.1451,21.3636 11.3117,20.3636 12.5,19.5 Z M 16.5,24.5 C 18.8333,24.5 21.1667,24.5 23.5,24.5C 25.3647,32.961 22.0313,36.7943 13.5,36C 11.4565,34.292 9.78987,32.292 8.5,30C 11.4068,28.3909 14.0734,26.5576 16.5,24.5 Z M 67.5,39.5 C 67.1667,37.5 66.8333,35.5 66.5,33.5C 65.5,33.5 64.5,33.5 63.5,33.5C 71.1479,27.6822 78.3146,28.3488 85,35.5C 86.4114,37.6504 87.2447,39.9837 87.5,42.5C 81.4908,42.6662 75.4908,42.4995 69.5,42C 70.4119,40.3745 69.7453,39.5412 67.5,39.5 Z M 21.5,40.5 C 22.6935,40.9704 23.3601,41.9704 23.5,43.5C 22.7613,51.8408 21.928,60.1741 21,68.5C 17.8612,59.5841 15.0278,50.5841 12.5,41.5C 15.7131,41.81 18.7131,41.4767 21.5,40.5 Z M 65.5,48.5 C 69.3112,47.3547 73.3112,47.1881 77.5,48C 74.3117,48.7554 71.1451,49.5887 68,50.5C 66.9889,49.9444 66.1556,49.2778 65.5,48.5 Z M 33.5,75.5 C 35.2726,76.3143 35.7726,77.6476 35,79.5C 34.2086,78.255 33.7086,76.9217 33.5,75.5 Z"/></g>
<g><path style="opacity:0.766" fill="#000000" d="M 77.5,33.5 C 79.337,33.6395 79.6704,34.3061 78.5,35.5C 77.7025,35.0431 77.3691,34.3764 77.5,33.5 Z"/></g>
<g><path style="opacity:0.766" fill="#000000" d="M 73.5,35.5 C 75.337,35.6395 75.6704,36.3061 74.5,37.5C 73.7025,37.0431 73.3691,36.3764 73.5,35.5 Z"/></g>
<g><path style="opacity:0.766" fill="#000000" d="M 79.5,36.5 C 81.337,36.6395 81.6704,37.3061 80.5,38.5C 79.7025,38.0431 79.3691,37.3764 79.5,36.5 Z"/></g>
<g><path style="opacity:0.766" fill="#000000" d="M 45.5,58.5 C 47.337,58.6395 47.6704,59.3061 46.5,60.5C 45.7025,60.0431 45.3691,59.3764 45.5,58.5 Z"/></g>
<g><path style="opacity:0.766" fill="#000000" d="M 48.5,61.5 C 50.337,61.6395 50.6704,62.3061 49.5,63.5C 48.7025,63.0431 48.3691,62.3764 48.5,61.5 Z"/></g>
<g><path style="opacity:0.766" fill="#000000" d="M 9.5,69.5 C 11.337,69.6395 11.6704,70.3061 10.5,71.5C 9.70245,71.0431 9.36912,70.3764 9.5,69.5 Z"/></g>
<g><path style="opacity:0.766" fill="#000000" d="M 15.5,77.5 C 17.337,77.6395 17.6704,78.3061 16.5,79.5C 15.7025,79.0431 15.3691,78.3764 15.5,77.5 Z"/></g>
<g><path style="opacity:0.766" fill="#000000" d="M 10.5,80.5 C 12.337,80.6395 12.6704,81.3061 11.5,82.5C 10.7025,82.0431 10.3691,81.3764 10.5,80.5 Z"/></g>
</svg>
