<?xml version="1.0" encoding="UTF-8"?>
<!DOCTYPE svg PUBLIC "-//W3C//DTD SVG 1.1//EN" "http://www.w3.org/Graphics/SVG/1.1/DTD/svg11.dtd">
<svg xmlns="http://www.w3.org/2000/svg" version="1.1" width="512px" height="512px" style="shape-rendering:geometricPrecision; text-rendering:geometricPrecision; image-rendering:optimizeQuality; fill-rule:evenodd; clip-rule:evenodd" xmlns:xlink="http://www.w3.org/1999/xlink">
<g><path style="opacity:0.996" fill="#e21b1b" d="M 232.5,-0.5 C 247.833,-0.5 263.167,-0.5 278.5,-0.5C 368.144,10.3879 435.644,54.7213 481,132.5C 497.695,163.971 507.861,197.304 511.5,232.5C 511.5,247.833 511.5,263.167 511.5,278.5C 510.833,281.5 510.167,284.5 509.5,287.5C 509.649,286.448 509.483,285.448 509,284.5C 463.251,238.584 417.417,192.917 371.5,147.5C 362.855,136.513 352.522,134.68 340.5,142C 312.667,169.833 284.833,197.667 257,225.5C 229.167,197.667 201.333,169.833 173.5,142C 159.608,133.643 148.775,136.476 141,150.5C 139.752,157.215 140.752,163.548 144,169.5C 172.167,197.667 200.333,225.833 228.5,254C 199.638,282.528 171.138,311.361 143,340.5C 137.501,353.169 140.668,362.835 152.5,369.5C 197.582,416.083 243.249,462.25 289.5,508C 291.473,508.495 293.473,508.662 295.5,508.5C 289.844,509.573 284.177,510.573 278.5,511.5C 263.167,511.5 247.833,511.5 232.5,511.5C 142.856,500.612 75.3562,456.279 30,378.5C 13.3053,347.029 3.1386,313.696 -0.5,278.5C -0.5,263.167 -0.5,247.833 -0.5,232.5C 10.3875,142.857 54.7208,75.3573 132.5,30C 163.971,13.3053 197.304,3.1386 232.5,-0.5 Z"/></g>
<g><path style="opacity:1" fill="#fefcfc" d="M 371.5,147.5 C 374.687,155.579 373.854,163.246 369,170.5C 341.167,198.333 313.333,226.167 285.5,254C 313.333,281.833 341.167,309.667 369,337.5C 374.949,346.472 374.949,355.472 369,364.5C 360.43,371.423 351.263,372.256 341.5,367C 313.333,338.833 285.167,310.667 257,282.5C 228.833,310.667 200.667,338.833 172.5,367C 166.132,370.474 159.465,371.307 152.5,369.5C 140.668,362.835 137.501,353.169 143,340.5C 171.138,311.361 199.638,282.528 228.5,254C 200.333,225.833 172.167,197.667 144,169.5C 140.752,163.548 139.752,157.215 141,150.5C 148.775,136.476 159.608,133.643 173.5,142C 201.333,169.833 229.167,197.667 257,225.5C 284.833,197.667 312.667,169.833 340.5,142C 352.522,134.68 362.855,136.513 371.5,147.5 Z"/></g>
<g><path style="opacity:1" fill="#c40606" d="M 371.5,147.5 C 417.417,192.917 463.251,238.584 509,284.5C 509.483,285.448 509.649,286.448 509.5,287.5C 499.357,360.976 464.69,419.809 405.5,464C 372.44,487.525 335.773,502.359 295.5,508.5C 293.473,508.662 291.473,508.495 289.5,508C 243.249,462.25 197.582,416.083 152.5,369.5C 159.465,371.307 166.132,370.474 172.5,367C 200.667,338.833 228.833,310.667 257,282.5C 285.167,310.667 313.333,338.833 341.5,367C 351.263,372.256 360.43,371.423 369,364.5C 374.949,355.472 374.949,346.472 369,337.5C 341.167,309.667 313.333,281.833 285.5,254C 313.333,226.167 341.167,198.333 369,170.5C 373.854,163.246 374.687,155.579 371.5,147.5 Z"/></g>
</svg>
